G04*
G04 #@! TF.GenerationSoftware,Altium Limited,Altium Designer,23.2.1 (34)*
G04*
G04 Layer_Color=65535*
%FSLAX44Y44*%
%MOMM*%
G71*
G04*
G04 #@! TF.SameCoordinates,E8D5E090-FEBE-4B84-8277-266302A2B947*
G04*
G04*
G04 #@! TF.FilePolarity,Positive*
G04*
G01*
G75*
%ADD10C,0.2500*%
%ADD11C,0.2000*%
%ADD12C,0.1524*%
%ADD13C,0.1270*%
%ADD14C,0.2540*%
%ADD15C,0.0762*%
G36*
X205900Y287025D02*
X203360D01*
Y283215D01*
X205900D01*
Y287025D01*
D02*
G37*
G36*
X242349Y254640D02*
X238539D01*
Y252100D01*
X242349D01*
Y254640D01*
D02*
G37*
G36*
X287180Y274833D02*
X289720D01*
Y271023D01*
X287180D01*
Y274833D01*
D02*
G37*
G36*
Y315473D02*
X289720D01*
Y311663D01*
X287180D01*
Y315473D01*
D02*
G37*
G36*
X246413Y335920D02*
X242603D01*
Y338460D01*
X246413D01*
Y335920D01*
D02*
G37*
D10*
X330740Y424897D02*
G03*
X330740Y424897I-1250J0D01*
G01*
X331475Y54385D02*
G03*
X331475Y54385I-1250J0D01*
G01*
X260790Y445890D02*
G03*
X260790Y445890I-1250J0D01*
G01*
X194900Y441550D02*
G03*
X194900Y441550I-1250J0D01*
G01*
X208210Y35360D02*
G03*
X208210Y35360I-1250J0D01*
G01*
X414220Y294890D02*
G03*
X414220Y294890I-1250J0D01*
G01*
D11*
X331990Y439660D02*
Y469660D01*
X396990D01*
Y439660D02*
Y469660D01*
X331990Y439660D02*
X396990D01*
X344475Y59385D02*
X398475D01*
Y5385D02*
Y6635D01*
Y21135D02*
Y43635D01*
Y58135D02*
Y59385D01*
X344475Y5385D02*
X398475D01*
X344475D02*
Y6635D01*
Y21135D02*
Y43635D01*
Y58135D02*
Y59385D01*
X209090Y506639D02*
X283990D01*
X209087Y498520D02*
Y506640D01*
Y459640D02*
Y471760D01*
Y459640D02*
X210390D01*
X282680Y459687D02*
X283993D01*
Y471760D01*
X283990Y498520D02*
Y506639D01*
X125400Y436550D02*
X179400D01*
X125400Y489300D02*
Y490550D01*
Y452300D02*
Y474800D01*
Y436550D02*
Y437800D01*
Y490550D02*
X179400D01*
Y489300D02*
Y490550D01*
Y452300D02*
Y474800D01*
Y436550D02*
Y437800D01*
X113650Y36999D02*
Y62061D01*
X136150Y36999D02*
Y62061D01*
X121899Y277323D02*
X154961D01*
X121899Y253761D02*
X154961D01*
X333989Y129189D02*
X367051D01*
X333989Y152751D02*
X367051D01*
X316209Y171099D02*
X349271D01*
X316209Y194661D02*
X349271D01*
X174951Y33469D02*
Y65591D01*
X197572Y33469D02*
Y65591D01*
X430411Y442409D02*
Y474531D01*
X407789Y442409D02*
Y474531D01*
X104040Y461440D02*
Y463440D01*
X91540Y461440D02*
Y463440D01*
X243840Y92290D02*
Y103290D01*
X329200Y289390D02*
X331200D01*
X329200Y299890D02*
X331200D01*
X439940Y492990D02*
X492240D01*
X439940Y32790D02*
Y492990D01*
X492240Y32790D02*
Y492990D01*
X439940Y32790D02*
X492240D01*
X8140Y492990D02*
X60440D01*
X8140Y32790D02*
Y492990D01*
X60440Y32790D02*
Y492990D01*
X8140Y32790D02*
X60440D01*
X228600Y188810D02*
Y199810D01*
X256257Y182310D02*
Y184310D01*
X268757Y182310D02*
Y184310D01*
X376841Y353407D02*
Y386469D01*
X400403Y353407D02*
Y386469D01*
X345518Y353407D02*
Y386469D01*
X369080Y353407D02*
Y386469D01*
X121899Y284545D02*
X154961D01*
X121899Y308107D02*
X154961D01*
X121899Y222196D02*
X154961D01*
X121899Y245758D02*
X154961D01*
X166989Y32999D02*
Y66061D01*
X143427Y32999D02*
Y66061D01*
X314304Y353407D02*
Y386469D01*
X337866Y353407D02*
Y386469D01*
X284129Y353407D02*
Y386469D01*
X307691Y353407D02*
Y386469D01*
X317540Y455579D02*
Y487701D01*
X294919Y455579D02*
Y487701D01*
X246692Y388530D02*
Y390530D01*
X234192Y388530D02*
Y390530D01*
X272950Y388530D02*
Y390530D01*
X260450Y388530D02*
Y390530D01*
X212110Y4610D02*
Y66110D01*
Y4610D02*
X290810D01*
Y66110D01*
X212110D02*
X290810D01*
X285729Y206659D02*
X318791D01*
X285729Y230221D02*
X318791D01*
X400220Y280640D02*
Y282890D01*
Y306390D02*
Y308640D01*
X362220D02*
X366970D01*
X395470D02*
X400220D01*
X362220Y280640D02*
Y282890D01*
Y306390D02*
Y308640D01*
Y280640D02*
X366970D01*
X395470D02*
X400220D01*
X300279Y425368D02*
Y417038D01*
X301945Y415372D01*
X305278D01*
X306944Y417038D01*
Y425368D01*
X316941Y415372D02*
X310276D01*
X316941Y422036D01*
Y423702D01*
X315275Y425368D01*
X311942D01*
X310276Y423702D01*
X168384Y179161D02*
Y177495D01*
X171717Y174162D01*
X175049Y177495D01*
Y179161D01*
X171717Y174162D02*
Y169164D01*
X178381D02*
X181714D01*
X180047D01*
Y179161D01*
X178381Y177495D01*
X173279Y340278D02*
Y331948D01*
X174946Y330282D01*
X178278D01*
X179944Y331948D01*
Y340278D01*
X183276Y338612D02*
X184942Y340278D01*
X188274D01*
X189941Y338612D01*
Y336946D01*
X188274Y335280D01*
X186608D01*
X188274D01*
X189941Y333614D01*
Y331948D01*
X188274Y330282D01*
X184942D01*
X183276Y331948D01*
X143195Y354248D02*
Y345918D01*
X144862Y344252D01*
X148194D01*
X149860Y345918D01*
Y354248D01*
X153192Y344252D02*
X156524D01*
X154858D01*
Y354248D01*
X153192Y352582D01*
X341315Y94772D02*
X339649Y96438D01*
X336317D01*
X334651Y94772D01*
Y93106D01*
X336317Y91440D01*
X339649D01*
X341315Y89774D01*
Y88108D01*
X339649Y86442D01*
X336317D01*
X334651Y88108D01*
X344648Y96438D02*
Y86442D01*
X347980Y89774D01*
X351312Y86442D01*
Y96438D01*
X361309Y86442D02*
X354645D01*
X361309Y93106D01*
Y94772D01*
X359643Y96438D01*
X356311D01*
X354645Y94772D01*
X209632Y440212D02*
X207966Y441878D01*
X204633D01*
X202967Y440212D01*
Y438546D01*
X204633Y436880D01*
X207966D01*
X209632Y435214D01*
Y433548D01*
X207966Y431882D01*
X204633D01*
X202967Y433548D01*
X212964Y441878D02*
Y431882D01*
X216296Y435214D01*
X219628Y431882D01*
Y441878D01*
X222961Y431882D02*
X226293D01*
X224627D01*
Y441878D01*
X222961Y440212D01*
X321869Y306152D02*
Y316148D01*
X326868D01*
X328534Y314482D01*
Y311150D01*
X326868Y309484D01*
X321869D01*
X325202D02*
X328534Y306152D01*
X338531Y316148D02*
X331866D01*
Y311150D01*
X335198Y312816D01*
X336865D01*
X338531Y311150D01*
Y307818D01*
X336865Y306152D01*
X333532D01*
X331866Y307818D01*
X258554Y413766D02*
Y423763D01*
X263553D01*
X265219Y422097D01*
Y418764D01*
X263553Y417098D01*
X258554D01*
X261887D02*
X265219Y413766D01*
X273550D02*
Y423763D01*
X268551Y418764D01*
X275216D01*
X232139Y413766D02*
Y423763D01*
X237137D01*
X238803Y422097D01*
Y418764D01*
X237137Y417098D01*
X232139D01*
X235471D02*
X238803Y413766D01*
X242135Y422097D02*
X243801Y423763D01*
X247134D01*
X248800Y422097D01*
Y420430D01*
X247134Y418764D01*
X245467D01*
X247134D01*
X248800Y417098D01*
Y415432D01*
X247134Y413766D01*
X243801D01*
X242135Y415432D01*
X253289Y208362D02*
Y218358D01*
X258288D01*
X259954Y216692D01*
Y213360D01*
X258288Y211694D01*
X253289D01*
X256622D02*
X259954Y208362D01*
X269951D02*
X263286D01*
X269951Y215026D01*
Y216692D01*
X268284Y218358D01*
X264952D01*
X263286Y216692D01*
X70806Y458552D02*
Y468548D01*
X75804D01*
X77470Y466882D01*
Y463550D01*
X75804Y461884D01*
X70806D01*
X74138D02*
X77470Y458552D01*
X80802D02*
X84135D01*
X82468D01*
Y468548D01*
X80802Y466882D01*
X482204Y25318D02*
X478872D01*
X480538D01*
Y16988D01*
X478872Y15322D01*
X477206D01*
X475539Y16988D01*
X490535Y15322D02*
Y25318D01*
X485536Y20320D01*
X492201D01*
X16114Y25318D02*
X12782D01*
X14448D01*
Y16988D01*
X12782Y15322D01*
X11115D01*
X9449Y16988D01*
X19446Y23652D02*
X21112Y25318D01*
X24444D01*
X26111Y23652D01*
Y21986D01*
X24444Y20320D01*
X22778D01*
X24444D01*
X26111Y18654D01*
Y16988D01*
X24444Y15322D01*
X21112D01*
X19446Y16988D01*
X276464Y443148D02*
X273132D01*
X274798D01*
Y434818D01*
X273132Y433152D01*
X271465D01*
X269799Y434818D01*
X286461Y433152D02*
X279796D01*
X286461Y439816D01*
Y441482D01*
X284795Y443148D01*
X281462D01*
X279796Y441482D01*
X213149Y85181D02*
X209817D01*
X211483D01*
Y76850D01*
X209817Y75184D01*
X208151D01*
X206485Y76850D01*
X216481Y75184D02*
X219813D01*
X218147D01*
Y85181D01*
X216481Y83515D01*
X355836Y326735D02*
Y316738D01*
X360835D01*
X362501Y318404D01*
Y325069D01*
X360835Y326735D01*
X355836D01*
X365833Y316738D02*
X369165D01*
X367499D01*
Y326735D01*
X365833Y325069D01*
X181653Y87071D02*
X179987Y88737D01*
X176655D01*
X174988Y87071D01*
Y80406D01*
X176655Y78740D01*
X179987D01*
X181653Y80406D01*
X184985Y78740D02*
X188318D01*
X186651D01*
Y88737D01*
X184985Y87071D01*
X193316Y88737D02*
X199980D01*
Y87071D01*
X193316Y80406D01*
Y78740D01*
X169429Y269693D02*
X167763Y271359D01*
X164430D01*
X162764Y269693D01*
Y263028D01*
X164430Y261362D01*
X167763D01*
X169429Y263028D01*
X172761Y261362D02*
X176093D01*
X174427D01*
Y271359D01*
X172761Y269693D01*
X187756Y271359D02*
X184424Y269693D01*
X181091Y266360D01*
Y263028D01*
X182758Y261362D01*
X186090D01*
X187756Y263028D01*
Y264694D01*
X186090Y266360D01*
X181091D01*
X150157Y87579D02*
X148491Y89245D01*
X145159D01*
X143492Y87579D01*
Y80914D01*
X145159Y79248D01*
X148491D01*
X150157Y80914D01*
X153489Y79248D02*
X156821D01*
X155155D01*
Y89245D01*
X153489Y87579D01*
X168484Y89245D02*
X161820D01*
Y84246D01*
X165152Y85913D01*
X166818D01*
X168484Y84246D01*
Y80914D01*
X166818Y79248D01*
X163486D01*
X161820Y80914D01*
X381519Y342422D02*
X379852Y344088D01*
X376520D01*
X374854Y342422D01*
Y335758D01*
X376520Y334092D01*
X379852D01*
X381519Y335758D01*
X384851Y334092D02*
X388183D01*
X386517D01*
Y344088D01*
X384851Y342422D01*
X398180Y334092D02*
Y344088D01*
X393181Y339090D01*
X399846D01*
X348498Y342422D02*
X346832Y344088D01*
X343500D01*
X341834Y342422D01*
Y335758D01*
X343500Y334092D01*
X346832D01*
X348498Y335758D01*
X351831Y334092D02*
X355163D01*
X353497D01*
Y344088D01*
X351831Y342422D01*
X360162D02*
X361828Y344088D01*
X365160D01*
X366826Y342422D01*
Y340756D01*
X365160Y339090D01*
X363494D01*
X365160D01*
X366826Y337424D01*
Y335758D01*
X365160Y334092D01*
X361828D01*
X360162Y335758D01*
X171968Y299658D02*
X170302Y301324D01*
X166970D01*
X165304Y299658D01*
Y292993D01*
X166970Y291327D01*
X170302D01*
X171968Y292993D01*
X175301Y291327D02*
X178633D01*
X176967D01*
Y301324D01*
X175301Y299658D01*
X190296Y291327D02*
X183631D01*
X190296Y297992D01*
Y299658D01*
X188630Y301324D01*
X185298D01*
X183631Y299658D01*
X178347Y233499D02*
X176681Y235165D01*
X173349D01*
X171682Y233499D01*
Y226835D01*
X173349Y225169D01*
X176681D01*
X178347Y226835D01*
X181679Y225169D02*
X185011D01*
X183345D01*
Y235165D01*
X181679Y233499D01*
X190010Y225169D02*
X193342D01*
X191676D01*
Y235165D01*
X190010Y233499D01*
X312938Y341152D02*
X311272Y342818D01*
X307940D01*
X306274Y341152D01*
Y334488D01*
X307940Y332822D01*
X311272D01*
X312938Y334488D01*
X316271Y332822D02*
X319603D01*
X317937D01*
Y342818D01*
X316271Y341152D01*
X324602D02*
X326268Y342818D01*
X329600D01*
X331266Y341152D01*
Y334488D01*
X329600Y332822D01*
X326268D01*
X324602Y334488D01*
Y341152D01*
X285354Y346232D02*
X283688Y347898D01*
X280355D01*
X278689Y346232D01*
Y339568D01*
X280355Y337902D01*
X283688D01*
X285354Y339568D01*
X288686D02*
X290352Y337902D01*
X293685D01*
X295351Y339568D01*
Y346232D01*
X293685Y347898D01*
X290352D01*
X288686Y346232D01*
Y344566D01*
X290352Y342900D01*
X295351D01*
X341234Y209072D02*
X339568Y210738D01*
X336236D01*
X334569Y209072D01*
Y202408D01*
X336236Y200742D01*
X339568D01*
X341234Y202408D01*
X344566Y209072D02*
X346232Y210738D01*
X349565D01*
X351231Y209072D01*
Y207406D01*
X349565Y205740D01*
X351231Y204074D01*
Y202408D01*
X349565Y200742D01*
X346232D01*
X344566Y202408D01*
Y204074D01*
X346232Y205740D01*
X344566Y207406D01*
Y209072D01*
X346232Y205740D02*
X349565D01*
X347584Y121442D02*
X345918Y123108D01*
X342585D01*
X340919Y121442D01*
Y114778D01*
X342585Y113112D01*
X345918D01*
X347584Y114778D01*
X350916Y123108D02*
X357581D01*
Y121442D01*
X350916Y114778D01*
Y113112D01*
X288333Y247599D02*
X286667Y249265D01*
X283335D01*
X281668Y247599D01*
Y240934D01*
X283335Y239268D01*
X286667D01*
X288333Y240934D01*
X298330Y249265D02*
X294998Y247599D01*
X291665Y244266D01*
Y240934D01*
X293331Y239268D01*
X296664D01*
X298330Y240934D01*
Y242600D01*
X296664Y244266D01*
X291665D01*
X243444Y83342D02*
X241778Y85008D01*
X238445D01*
X236779Y83342D01*
Y76678D01*
X238445Y75012D01*
X241778D01*
X243444Y76678D01*
X253441Y85008D02*
X246776D01*
Y80010D01*
X250108Y81676D01*
X251775D01*
X253441Y80010D01*
Y76678D01*
X251775Y75012D01*
X248442D01*
X246776Y76678D01*
X417501Y429582D02*
X415835Y431248D01*
X412503D01*
X410837Y429582D01*
Y422918D01*
X412503Y421252D01*
X415835D01*
X417501Y422918D01*
X425832Y421252D02*
Y431248D01*
X420833Y426250D01*
X427498D01*
X304907Y442592D02*
X303241Y444258D01*
X299909D01*
X298242Y442592D01*
Y435927D01*
X299909Y434261D01*
X303241D01*
X304907Y435927D01*
X308239Y442592D02*
X309905Y444258D01*
X313237D01*
X314904Y442592D01*
Y440925D01*
X313237Y439259D01*
X311571D01*
X313237D01*
X314904Y437593D01*
Y435927D01*
X313237Y434261D01*
X309905D01*
X308239Y435927D01*
X123016Y79532D02*
X121350Y81198D01*
X118018D01*
X116352Y79532D01*
Y72868D01*
X118018Y71202D01*
X121350D01*
X123016Y72868D01*
X133013Y71202D02*
X126349D01*
X133013Y77866D01*
Y79532D01*
X131347Y81198D01*
X128015D01*
X126349Y79532D01*
X228600Y215422D02*
X226934Y217088D01*
X223602D01*
X221936Y215422D01*
Y208758D01*
X223602Y207092D01*
X226934D01*
X228600Y208758D01*
X231932Y207092D02*
X235264D01*
X233598D01*
Y217088D01*
X231932Y215422D01*
D12*
X197380Y414574D02*
Y417470D01*
X141500Y361590D02*
X197380D01*
Y364486D01*
X141500Y417470D02*
X197380D01*
X141500Y414574D02*
Y417470D01*
Y361590D02*
Y364486D01*
X282862Y325912D02*
Y331602D01*
X277172Y258958D02*
X282862D01*
X210218D02*
Y264648D01*
Y325912D02*
Y331602D01*
X277172D02*
X282862D01*
Y258958D02*
Y264648D01*
X210218Y258958D02*
X215908D01*
X210218Y331602D02*
X215908D01*
D13*
X187600Y159390D02*
X301600D01*
X187600Y112390D02*
X301600D01*
X143510Y431797D02*
Y421640D01*
X148588D01*
X150281Y423333D01*
Y425026D01*
X148588Y426718D01*
X143510D01*
X148588D01*
X150281Y428411D01*
Y430104D01*
X148588Y431797D01*
X143510D01*
X158745D02*
X155359D01*
X153667Y430104D01*
Y423333D01*
X155359Y421640D01*
X158745D01*
X160438Y423333D01*
Y430104D01*
X158745Y431797D01*
X168902D02*
X165516D01*
X163823Y430104D01*
Y423333D01*
X165516Y421640D01*
X168902D01*
X170595Y423333D01*
Y430104D01*
X168902Y431797D01*
X173980D02*
X180751D01*
X177366D01*
Y421640D01*
D14*
X35560Y22855D02*
X45717D01*
X40638D01*
Y7620D01*
X60952Y22855D02*
X50795D01*
Y7620D01*
X60952D01*
X50795Y15237D02*
X55873D01*
X76187Y20316D02*
X73648Y22855D01*
X68569D01*
X66030Y20316D01*
Y17777D01*
X68569Y15237D01*
X73648D01*
X76187Y12698D01*
Y10159D01*
X73648Y7620D01*
X68569D01*
X66030Y10159D01*
X81265Y22855D02*
X91422D01*
X86344D01*
Y7620D01*
X96500D02*
X101579D01*
X99039D01*
Y22855D01*
X96500Y20316D01*
X419097Y319373D02*
X408940D01*
X419097Y329529D01*
Y332068D01*
X416558Y334608D01*
X411479D01*
X408940Y332068D01*
X431793Y319373D02*
Y334608D01*
X424175Y326990D01*
X434332D01*
X419097Y347313D02*
X408940D01*
X419097Y357469D01*
Y360009D01*
X416558Y362548D01*
X411479D01*
X408940Y360009D01*
X434332Y362548D02*
X429253Y360009D01*
X424175Y354930D01*
Y349852D01*
X426714Y347313D01*
X431793D01*
X434332Y349852D01*
Y352391D01*
X431793Y354930D01*
X424175D01*
X419097Y370840D02*
X408940D01*
X419097Y380997D01*
Y383536D01*
X416558Y386075D01*
X411479D01*
X408940Y383536D01*
X424175Y386075D02*
X434332D01*
Y383536D01*
X424175Y373379D01*
Y370840D01*
X419097Y393700D02*
X408940D01*
X419097Y403857D01*
Y406396D01*
X416558Y408935D01*
X411479D01*
X408940Y406396D01*
X424175D02*
X426714Y408935D01*
X431793D01*
X434332Y406396D01*
Y403857D01*
X431793Y401317D01*
X434332Y398778D01*
Y396239D01*
X431793Y393700D01*
X426714D01*
X424175Y396239D01*
Y398778D01*
X426714Y401317D01*
X424175Y403857D01*
Y406396D01*
X426714Y401317D02*
X431793D01*
X403857Y253996D02*
X401317Y256535D01*
X396239D01*
X393700Y253996D01*
Y243839D01*
X396239Y241300D01*
X401317D01*
X403857Y243839D01*
Y248918D01*
X398778D01*
X419092Y241300D02*
X408935D01*
X419092Y251457D01*
Y253996D01*
X416553Y256535D01*
X411474D01*
X408935Y253996D01*
X424170Y241300D02*
X429249D01*
X426709D01*
Y256535D01*
X424170Y253996D01*
X403857Y227326D02*
X401317Y229865D01*
X396239D01*
X393700Y227326D01*
Y217169D01*
X396239Y214630D01*
X401317D01*
X403857Y217169D01*
Y222248D01*
X398778D01*
X419092Y214630D02*
X408935D01*
X419092Y224787D01*
Y227326D01*
X416553Y229865D01*
X411474D01*
X408935Y227326D01*
X424170D02*
X426709Y229865D01*
X431788D01*
X434327Y227326D01*
Y217169D01*
X431788Y214630D01*
X426709D01*
X424170Y217169D01*
Y227326D01*
X405127Y201926D02*
X402588Y204465D01*
X397509D01*
X394970Y201926D01*
Y191769D01*
X397509Y189230D01*
X402588D01*
X405127Y191769D01*
Y196847D01*
X400048D01*
X410205Y189230D02*
X415283D01*
X412744D01*
Y204465D01*
X410205Y201926D01*
X422901Y191769D02*
X425440Y189230D01*
X430518D01*
X433058Y191769D01*
Y201926D01*
X430518Y204465D01*
X425440D01*
X422901Y201926D01*
Y199387D01*
X425440Y196847D01*
X433058D01*
X405127Y177796D02*
X402588Y180335D01*
X397509D01*
X394970Y177796D01*
Y167639D01*
X397509Y165100D01*
X402588D01*
X405127Y167639D01*
Y172717D01*
X400048D01*
X410205Y165100D02*
X415283D01*
X412744D01*
Y180335D01*
X410205Y177796D01*
X422901D02*
X425440Y180335D01*
X430518D01*
X433058Y177796D01*
Y175257D01*
X430518Y172717D01*
X433058Y170178D01*
Y167639D01*
X430518Y165100D01*
X425440D01*
X422901Y167639D01*
Y170178D01*
X425440Y172717D01*
X422901Y175257D01*
Y177796D01*
X425440Y172717D02*
X430518D01*
X405127Y153666D02*
X402588Y156205D01*
X397509D01*
X394970Y153666D01*
Y143509D01*
X397509Y140970D01*
X402588D01*
X405127Y143509D01*
Y148588D01*
X400048D01*
X410205Y140970D02*
X415283D01*
X412744D01*
Y156205D01*
X410205Y153666D01*
X422901Y156205D02*
X433058D01*
Y153666D01*
X422901Y143509D01*
Y140970D01*
X405127Y126996D02*
X402588Y129535D01*
X397509D01*
X394970Y126996D01*
Y116839D01*
X397509Y114300D01*
X402588D01*
X405127Y116839D01*
Y121917D01*
X400048D01*
X410205Y114300D02*
X415283D01*
X412744D01*
Y129535D01*
X410205Y126996D01*
X433058Y129535D02*
X427979Y126996D01*
X422901Y121917D01*
Y116839D01*
X425440Y114300D01*
X430518D01*
X433058Y116839D01*
Y119378D01*
X430518Y121917D01*
X422901D01*
X405393Y101499D02*
X402854Y104039D01*
X397775D01*
X395236Y101499D01*
Y91343D01*
X397775Y88804D01*
X402854D01*
X405393Y91343D01*
Y96421D01*
X400315D01*
X410471Y88804D02*
X415550D01*
X413010D01*
Y104039D01*
X410471Y101499D01*
X433324Y104039D02*
X423167D01*
Y96421D01*
X428246Y98960D01*
X430785D01*
X433324Y96421D01*
Y91343D01*
X430785Y88804D01*
X425706D01*
X423167Y91343D01*
X336550Y66040D02*
Y81275D01*
X344168D01*
X346707Y78736D01*
Y73657D01*
X344168Y71118D01*
X336550D01*
X341628D02*
X346707Y66040D01*
X359403D02*
X354324D01*
X351785Y68579D01*
Y73657D01*
X354324Y76197D01*
X359403D01*
X361942Y73657D01*
Y71118D01*
X351785D01*
X367020Y66040D02*
X374638D01*
X377177Y68579D01*
X374638Y71118D01*
X369559D01*
X367020Y73657D01*
X369559Y76197D01*
X377177D01*
X389873Y66040D02*
X384794D01*
X382255Y68579D01*
Y73657D01*
X384794Y76197D01*
X389873D01*
X392412Y73657D01*
Y71118D01*
X382255D01*
X400029Y78736D02*
Y76197D01*
X397490D01*
X402569D01*
X400029D01*
Y68579D01*
X402569Y66040D01*
X76197Y78736D02*
X73657Y81275D01*
X68579D01*
X66040Y78736D01*
Y68579D01*
X68579Y66040D01*
X73657D01*
X76197Y68579D01*
Y73657D01*
X71118D01*
X81275Y66040D02*
X86353D01*
X83814D01*
Y81275D01*
X81275Y78736D01*
X93971D02*
X96510Y81275D01*
X101588D01*
X104128Y78736D01*
Y76197D01*
X101588Y73657D01*
X99049D01*
X101588D01*
X104128Y71118D01*
Y68579D01*
X101588Y66040D01*
X96510D01*
X93971Y68579D01*
X77467Y104136D02*
X74928Y106675D01*
X69849D01*
X67310Y104136D01*
Y93979D01*
X69849Y91440D01*
X74928D01*
X77467Y93979D01*
Y99058D01*
X72388D01*
X82545Y91440D02*
X87623D01*
X85084D01*
Y106675D01*
X82545Y104136D01*
X105398Y91440D02*
X95241D01*
X105398Y101597D01*
Y104136D01*
X102858Y106675D01*
X97780D01*
X95241Y104136D01*
X77467Y128266D02*
X74928Y130805D01*
X69849D01*
X67310Y128266D01*
Y118109D01*
X69849Y115570D01*
X74928D01*
X77467Y118109D01*
Y123188D01*
X72388D01*
X82545Y115570D02*
X87623D01*
X85084D01*
Y130805D01*
X82545Y128266D01*
X95241Y115570D02*
X100319D01*
X97780D01*
Y130805D01*
X95241Y128266D01*
X77467Y153666D02*
X74928Y156205D01*
X69849D01*
X67310Y153666D01*
Y143509D01*
X69849Y140970D01*
X74928D01*
X77467Y143509D01*
Y148588D01*
X72388D01*
X82545Y140970D02*
X87623D01*
X85084D01*
Y156205D01*
X82545Y153666D01*
X95241D02*
X97780Y156205D01*
X102858D01*
X105398Y153666D01*
Y143509D01*
X102858Y140970D01*
X97780D01*
X95241Y143509D01*
Y153666D01*
X77467Y179066D02*
X74928Y181605D01*
X69849D01*
X67310Y179066D01*
Y168909D01*
X69849Y166370D01*
X74928D01*
X77467Y168909D01*
Y173988D01*
X72388D01*
X82545Y168909D02*
X85084Y166370D01*
X90163D01*
X92702Y168909D01*
Y179066D01*
X90163Y181605D01*
X85084D01*
X82545Y179066D01*
Y176527D01*
X85084Y173988D01*
X92702D01*
X76197Y204466D02*
X73657Y207005D01*
X68579D01*
X66040Y204466D01*
Y194309D01*
X68579Y191770D01*
X73657D01*
X76197Y194309D01*
Y199387D01*
X71118D01*
X81275Y204466D02*
X83814Y207005D01*
X88893D01*
X91432Y204466D01*
Y201927D01*
X88893Y199387D01*
X91432Y196848D01*
Y194309D01*
X88893Y191770D01*
X83814D01*
X81275Y194309D01*
Y196848D01*
X83814Y199387D01*
X81275Y201927D01*
Y204466D01*
X83814Y199387D02*
X88893D01*
X77467Y231136D02*
X74928Y233675D01*
X69849D01*
X67310Y231136D01*
Y220979D01*
X69849Y218440D01*
X74928D01*
X77467Y220979D01*
Y226057D01*
X72388D01*
X82545Y233675D02*
X92702D01*
Y231136D01*
X82545Y220979D01*
Y218440D01*
X77467Y256536D02*
X74928Y259075D01*
X69849D01*
X67310Y256536D01*
Y246379D01*
X69849Y243840D01*
X74928D01*
X77467Y246379D01*
Y251458D01*
X72388D01*
X92702Y259075D02*
X87623Y256536D01*
X82545Y251458D01*
Y246379D01*
X85084Y243840D01*
X90163D01*
X92702Y246379D01*
Y248918D01*
X90163Y251458D01*
X82545D01*
X77467Y281936D02*
X74928Y284475D01*
X69849D01*
X67310Y281936D01*
Y271779D01*
X69849Y269240D01*
X74928D01*
X77467Y271779D01*
Y276857D01*
X72388D01*
X92702Y284475D02*
X82545D01*
Y276857D01*
X87623Y279397D01*
X90163D01*
X92702Y276857D01*
Y271779D01*
X90163Y269240D01*
X85084D01*
X82545Y271779D01*
X77467Y307336D02*
X74928Y309875D01*
X69849D01*
X67310Y307336D01*
Y297179D01*
X69849Y294640D01*
X74928D01*
X77467Y297179D01*
Y302257D01*
X72388D01*
X90163Y294640D02*
Y309875D01*
X82545Y302257D01*
X92702D01*
X77467Y332736D02*
X74928Y335275D01*
X69849D01*
X67310Y332736D01*
Y322579D01*
X69849Y320040D01*
X74928D01*
X77467Y322579D01*
Y327658D01*
X72388D01*
X82545Y332736D02*
X85084Y335275D01*
X90163D01*
X92702Y332736D01*
Y330197D01*
X90163Y327658D01*
X87623D01*
X90163D01*
X92702Y325118D01*
Y322579D01*
X90163Y320040D01*
X85084D01*
X82545Y322579D01*
X77467Y358136D02*
X74928Y360675D01*
X69849D01*
X67310Y358136D01*
Y347979D01*
X69849Y345440D01*
X74928D01*
X77467Y347979D01*
Y353058D01*
X72388D01*
X92702Y345440D02*
X82545D01*
X92702Y355597D01*
Y358136D01*
X90163Y360675D01*
X85084D01*
X82545Y358136D01*
X78737Y384806D02*
X76198Y387345D01*
X71119D01*
X68580Y384806D01*
Y374649D01*
X71119Y372110D01*
X76198D01*
X78737Y374649D01*
Y379728D01*
X73658D01*
X83815Y372110D02*
X88893D01*
X86354D01*
Y387345D01*
X83815Y384806D01*
X78737Y408936D02*
X76198Y411475D01*
X71119D01*
X68580Y408936D01*
Y398779D01*
X71119Y396240D01*
X76198D01*
X78737Y398779D01*
Y403857D01*
X73658D01*
X83815Y408936D02*
X86354Y411475D01*
X91433D01*
X93972Y408936D01*
Y398779D01*
X91433Y396240D01*
X86354D01*
X83815Y398779D01*
Y408936D01*
D15*
X126768Y423224D02*
X135232Y414760D01*
X126768D02*
X135232Y423224D01*
X126768Y418992D02*
X135232D01*
X131000Y414760D02*
Y423224D01*
X190500Y326810D02*
X198964Y318346D01*
X190500D02*
X198964Y326810D01*
X190500Y322578D02*
X198964D01*
X194732Y318346D02*
Y326810D01*
M02*
