G04*
G04 #@! TF.GenerationSoftware,Altium Limited,Altium Designer,23.2.1 (34)*
G04*
G04 Layer_Color=8421504*
%FSLAX44Y44*%
%MOMM*%
G71*
G04*
G04 #@! TF.SameCoordinates,E8D5E090-FEBE-4B84-8277-266302A2B947*
G04*
G04*
G04 #@! TF.FilePolarity,Positive*
G04*
G01*
G75*
%ADD16C,0.5000*%
%ADD17R,0.8721X1.8596*%
G04:AMPARAMS|DCode=18|XSize=1.8596mm|YSize=0.8721mm|CornerRadius=0.4361mm|HoleSize=0mm|Usage=FLASHONLY|Rotation=90.000|XOffset=0mm|YOffset=0mm|HoleType=Round|Shape=RoundedRectangle|*
%AMROUNDEDRECTD18*
21,1,1.8596,0.0000,0,0,90.0*
21,1,0.9875,0.8721,0,0,90.0*
1,1,0.8721,0.0000,0.4938*
1,1,0.8721,0.0000,-0.4938*
1,1,0.8721,0.0000,-0.4938*
1,1,0.8721,0.0000,0.4938*
%
%ADD18ROUNDEDRECTD18*%
G04:AMPARAMS|DCode=19|XSize=1.8596mm|YSize=3.1721mm|CornerRadius=0.437mm|HoleSize=0mm|Usage=FLASHONLY|Rotation=90.000|XOffset=0mm|YOffset=0mm|HoleType=Round|Shape=RoundedRectangle|*
%AMROUNDEDRECTD19*
21,1,1.8596,2.2981,0,0,90.0*
21,1,0.9856,3.1721,0,0,90.0*
1,1,0.8740,1.1490,0.4928*
1,1,0.8740,1.1490,-0.4928*
1,1,0.8740,-1.1490,-0.4928*
1,1,0.8740,-1.1490,0.4928*
%
%ADD19ROUNDEDRECTD19*%
%ADD20R,1.0000X0.7000*%
%ADD21R,1.5000X1.9000*%
%ADD22R,0.4000X1.3500*%
%ADD23R,1.3562X1.0546*%
%ADD24R,1.4546X1.5562*%
%ADD25R,1.4621X1.3578*%
%ADD26R,1.4500X1.2000*%
%ADD27R,0.1778X0.8128*%
%ADD28R,1.1500X1.4500*%
%ADD29R,0.8000X1.2500*%
%ADD30R,1.5562X1.4546*%
%ADD31R,1.8288X0.5334*%
%ADD32R,0.0254X0.0254*%
%ADD33R,0.8128X0.1778*%
%ADD34R,5.6000X2.1000*%
%ADD35R,1.4500X1.0500*%
%ADD36R,1.5000X1.6000*%
G36*
X287540Y480640D02*
X282540D01*
Y489640D01*
X287540D01*
X287540Y480640D01*
D02*
G37*
G36*
X210540Y480640D02*
X205540D01*
X205540Y489640D01*
X210540D01*
Y480640D01*
D02*
G37*
G36*
X282540Y475640D02*
X269540D01*
Y494640D01*
X282540D01*
Y475640D01*
D02*
G37*
G36*
X223540D02*
X210540D01*
Y494640D01*
X223540D01*
Y475640D01*
D02*
G37*
G36*
X261542Y296280D02*
X247540D01*
Y310282D01*
X261542D01*
Y296280D01*
D02*
G37*
G36*
X245540D02*
X231538D01*
Y310282D01*
X245540D01*
Y296280D01*
D02*
G37*
G36*
X261542Y280278D02*
X247540D01*
Y294280D01*
X261542D01*
Y280278D01*
D02*
G37*
G36*
X245540D02*
X231538D01*
Y294280D01*
X245540D01*
Y280278D01*
D02*
G37*
D16*
X281940Y483067D02*
G03*
X281940Y478213I600J-2427D01*
G01*
D02*
G03*
X285040Y480640I600J2427D01*
G01*
D02*
G03*
X281940Y483067I-2500J0D01*
G01*
X211511Y478336D02*
G03*
X213040Y480640I-971J2304D01*
G01*
D02*
G03*
X211511Y482944I-2500J0D01*
G01*
D02*
G03*
X210820Y483124I-971J-2304D01*
G01*
X213040Y489640D02*
G03*
X213040Y489640I-2500J0D01*
G01*
X285040Y489640D02*
G03*
X285040Y489640I-2500J0D01*
G01*
X210820Y483124D02*
G03*
X210820Y478156I-280J-2484D01*
G01*
D02*
G03*
X211511Y478336I-280J2484D01*
G01*
D17*
X341490Y424897D02*
D03*
D18*
X364490D02*
D03*
X387490D02*
D03*
D19*
X364490Y484422D02*
D03*
D20*
X341475Y50885D02*
D03*
X401475D02*
D03*
X341475Y13885D02*
D03*
X401475D02*
D03*
X182400Y445050D02*
D03*
X122400D02*
D03*
X182400Y482050D02*
D03*
X122400D02*
D03*
D21*
X236540Y485140D02*
D03*
X256540D02*
D03*
D22*
X233540Y458140D02*
D03*
X240040D02*
D03*
X246540D02*
D03*
X253040D02*
D03*
X259540D02*
D03*
D23*
X124900Y56788D02*
D03*
Y42272D02*
D03*
D24*
X147688Y265541D02*
D03*
X129172D02*
D03*
X341262Y140970D02*
D03*
X359778D02*
D03*
X323482Y182880D02*
D03*
X341998D02*
D03*
X129172Y296326D02*
D03*
X147688D02*
D03*
X129172Y233977D02*
D03*
X147688D02*
D03*
X293002Y218440D02*
D03*
X311518D02*
D03*
D25*
X186261Y58802D02*
D03*
Y40258D02*
D03*
X419100Y449198D02*
D03*
Y467742D02*
D03*
X306229Y462368D02*
D03*
Y480912D02*
D03*
D26*
X97790Y472440D02*
D03*
Y452440D02*
D03*
X262507Y173310D02*
D03*
Y193310D02*
D03*
D27*
X260764Y261244D02*
D03*
X220124Y329316D02*
D03*
X224188D02*
D03*
X228252D02*
D03*
X232316D02*
D03*
X236380D02*
D03*
X240444D02*
D03*
X244508D02*
D03*
X248572D02*
D03*
X252636D02*
D03*
X256700D02*
D03*
X260764D02*
D03*
X264828D02*
D03*
X268892D02*
D03*
X272956D02*
D03*
Y261244D02*
D03*
X268892D02*
D03*
X264828D02*
D03*
X256700D02*
D03*
X252636D02*
D03*
X248572D02*
D03*
X244508D02*
D03*
X240444D02*
D03*
X236380D02*
D03*
X232316D02*
D03*
X228252D02*
D03*
X224188D02*
D03*
X220124D02*
D03*
D28*
X234840Y97790D02*
D03*
X252840D02*
D03*
X219600Y194310D02*
D03*
X237600D02*
D03*
D29*
X338200Y294640D02*
D03*
X322200D02*
D03*
D30*
X388622Y379196D02*
D03*
Y360680D02*
D03*
X357299Y379196D02*
D03*
Y360680D02*
D03*
X155208Y40272D02*
D03*
Y58788D02*
D03*
X326085Y379196D02*
D03*
Y360680D02*
D03*
X295910Y379196D02*
D03*
Y360680D02*
D03*
D31*
X132483Y408580D02*
D03*
Y395880D02*
D03*
Y383180D02*
D03*
Y370480D02*
D03*
X206397D02*
D03*
Y383180D02*
D03*
Y395880D02*
D03*
Y408580D02*
D03*
D32*
X246540Y295280D02*
D03*
D33*
X280576Y321696D02*
D03*
Y317632D02*
D03*
Y313568D02*
D03*
Y309504D02*
D03*
Y305440D02*
D03*
Y301376D02*
D03*
Y297312D02*
D03*
Y293248D02*
D03*
Y289184D02*
D03*
Y285120D02*
D03*
Y281056D02*
D03*
Y276992D02*
D03*
Y272928D02*
D03*
Y268864D02*
D03*
X212504D02*
D03*
Y272928D02*
D03*
Y276992D02*
D03*
Y281056D02*
D03*
Y285120D02*
D03*
Y289184D02*
D03*
Y293248D02*
D03*
Y297312D02*
D03*
Y301376D02*
D03*
Y305440D02*
D03*
Y309504D02*
D03*
Y313568D02*
D03*
Y317632D02*
D03*
Y321696D02*
D03*
D34*
X197100Y135890D02*
D03*
X292100D02*
D03*
D35*
X240442Y398780D02*
D03*
Y380280D02*
D03*
X266700Y398780D02*
D03*
Y380280D02*
D03*
D36*
X363220Y294640D02*
D03*
X399220D02*
D03*
M02*
