G04*
G04 #@! TF.GenerationSoftware,Altium Limited,Altium Designer,23.2.1 (34)*
G04*
G04 Layer_Physical_Order=2*
G04 Layer_Color=16711680*
%FSLAX44Y44*%
%MOMM*%
G71*
G04*
G04 #@! TF.SameCoordinates,E8D5E090-FEBE-4B84-8277-266302A2B947*
G04*
G04*
G04 #@! TF.FilePolarity,Positive*
G04*
G01*
G75*
%ADD49C,1.8400*%
%ADD50R,1.8400X1.8400*%
%ADD53C,0.7620*%
%ADD56C,1.0160*%
%ADD58C,1.4500*%
%ADD59C,1.6500*%
%ADD60R,1.6500X1.6500*%
%ADD61C,1.0000*%
G36*
X500000Y0D02*
X0D01*
Y500000D01*
X500000D01*
Y0D01*
D02*
G37*
%LPC*%
G36*
X212810Y494036D02*
Y486410D01*
X217188D01*
Y488640D01*
X216758Y490802D01*
X215534Y492634D01*
X213702Y493858D01*
X212810Y494036D01*
D02*
G37*
G36*
X210270D02*
X209378Y493858D01*
X207546Y492634D01*
X206321Y490802D01*
X205891Y488640D01*
Y486410D01*
X210270D01*
Y494036D01*
D02*
G37*
G36*
X420370Y492606D02*
Y486410D01*
X426566D01*
X426126Y488050D01*
X425134Y489770D01*
X423730Y491174D01*
X422010Y492166D01*
X420370Y492606D01*
D02*
G37*
G36*
X417830D02*
X416190Y492166D01*
X414470Y491174D01*
X413066Y489770D01*
X412074Y488050D01*
X411634Y486410D01*
X417830D01*
Y492606D01*
D02*
G37*
G36*
X282810Y494036D02*
Y486410D01*
X287188D01*
Y488640D01*
X286759Y490802D01*
X285534Y492634D01*
X283702Y493858D01*
X282810Y494036D01*
D02*
G37*
G36*
X280270D02*
X279378Y493858D01*
X277546Y492634D01*
X276321Y490802D01*
X275891Y488640D01*
Y486410D01*
X280270D01*
Y494036D01*
D02*
G37*
G36*
X480210Y489580D02*
X480060D01*
Y480060D01*
X489580D01*
Y480210D01*
X488845Y482955D01*
X487424Y485415D01*
X485415Y487424D01*
X482955Y488845D01*
X480210Y489580D01*
D02*
G37*
G36*
X32380D02*
X22860D01*
Y480060D01*
X32380D01*
Y489580D01*
D02*
G37*
G36*
X477520D02*
X477369D01*
X474625Y488845D01*
X472165Y487424D01*
X470156Y485415D01*
X468735Y482955D01*
X468000Y480210D01*
Y480060D01*
X477520D01*
Y489580D01*
D02*
G37*
G36*
X20320D02*
X10800D01*
Y480060D01*
X20320D01*
Y489580D01*
D02*
G37*
G36*
X426566Y483870D02*
X420370D01*
Y477674D01*
X422010Y478114D01*
X423730Y479106D01*
X425134Y480510D01*
X426126Y482230D01*
X426566Y483870D01*
D02*
G37*
G36*
X417830D02*
X411634D01*
X412074Y482230D01*
X413066Y480510D01*
X414470Y479106D01*
X416190Y478114D01*
X417830Y477674D01*
Y483870D01*
D02*
G37*
G36*
X217188Y483870D02*
X212810D01*
Y476244D01*
X213702Y476421D01*
X215534Y477646D01*
X216758Y479478D01*
X217188Y481640D01*
Y483870D01*
D02*
G37*
G36*
X280270Y483870D02*
X275891D01*
Y481640D01*
X276321Y479478D01*
X277546Y477646D01*
X279378Y476421D01*
X280270Y476244D01*
Y483870D01*
D02*
G37*
G36*
X287188D02*
X282810D01*
Y476244D01*
X283702Y476421D01*
X285534Y477646D01*
X286759Y479478D01*
X287188Y481640D01*
Y483870D01*
D02*
G37*
G36*
X210270Y483870D02*
X205891D01*
Y481640D01*
X206321Y479478D01*
X207546Y477646D01*
X209378Y476421D01*
X210270Y476244D01*
Y483870D01*
D02*
G37*
G36*
X48377Y489326D02*
X45603D01*
X42923Y488608D01*
X40521Y487221D01*
X38559Y485259D01*
X37172Y482857D01*
X36454Y480177D01*
Y477403D01*
X37172Y474723D01*
X38559Y472321D01*
X40521Y470359D01*
X42923Y468972D01*
X45603Y468254D01*
X48377D01*
X51057Y468972D01*
X53459Y470359D01*
X55421Y472321D01*
X56808Y474723D01*
X57526Y477403D01*
Y480177D01*
X56808Y482857D01*
X55421Y485259D01*
X53459Y487221D01*
X51057Y488608D01*
X48377Y489326D01*
D02*
G37*
G36*
X489580Y477520D02*
X480060D01*
Y468000D01*
X480210D01*
X482955Y468735D01*
X485415Y470156D01*
X487424Y472165D01*
X488845Y474625D01*
X489580Y477369D01*
Y477520D01*
D02*
G37*
G36*
X477520D02*
X468000D01*
Y477369D01*
X468735Y474625D01*
X470156Y472165D01*
X472165Y470156D01*
X474625Y468735D01*
X477369Y468000D01*
X477520D01*
Y477520D01*
D02*
G37*
G36*
X32380D02*
X22860D01*
Y468000D01*
X32380D01*
Y477520D01*
D02*
G37*
G36*
X20320D02*
X10800D01*
Y468000D01*
X20320D01*
Y477520D01*
D02*
G37*
G36*
X463926Y489326D02*
X442854D01*
Y468254D01*
X447175D01*
Y461967D01*
X446921Y461821D01*
X445520Y460420D01*
X347444D01*
X347374Y460490D01*
X345712Y461449D01*
X343859Y461946D01*
X341941D01*
X340088Y461449D01*
X338426Y460490D01*
X337070Y459134D01*
X336111Y457472D01*
X335614Y455619D01*
Y453701D01*
X336111Y451848D01*
X337070Y450186D01*
X338426Y448830D01*
X340088Y447871D01*
X341941Y447374D01*
X343859D01*
X345712Y447871D01*
X345918Y447989D01*
X444342D01*
X444959Y446921D01*
X446921Y444959D01*
X449323Y443572D01*
X452003Y442854D01*
X454777D01*
X457457Y443572D01*
X459859Y444959D01*
X461821Y446921D01*
X463208Y449323D01*
X463926Y452003D01*
Y454777D01*
X463208Y457457D01*
X461821Y459859D01*
X459859Y461821D01*
X459605Y461967D01*
Y468254D01*
X463926D01*
Y489326D01*
D02*
G37*
G36*
X272829Y467930D02*
X272810D01*
Y459410D01*
X281330D01*
Y459429D01*
X280663Y461919D01*
X279374Y464151D01*
X277551Y465974D01*
X275319Y467263D01*
X272829Y467930D01*
D02*
G37*
G36*
X270270D02*
X270251D01*
X267761Y467263D01*
X265529Y465974D01*
X263706Y464151D01*
X262417Y461919D01*
X261750Y459429D01*
Y459410D01*
X270270D01*
Y467930D01*
D02*
G37*
G36*
X222829D02*
X222810D01*
Y459410D01*
X231330D01*
Y459429D01*
X230663Y461919D01*
X229374Y464151D01*
X227551Y465974D01*
X225319Y467263D01*
X222829Y467930D01*
D02*
G37*
G36*
X220270D02*
X220251D01*
X217761Y467263D01*
X215529Y465974D01*
X213706Y464151D01*
X212417Y461919D01*
X211750Y459429D01*
Y459410D01*
X220270D01*
Y467930D01*
D02*
G37*
G36*
X480210Y464180D02*
X480060D01*
Y454660D01*
X489580D01*
Y454810D01*
X488845Y457555D01*
X487424Y460015D01*
X485415Y462024D01*
X482955Y463445D01*
X480210Y464180D01*
D02*
G37*
G36*
X23010D02*
X22860D01*
Y454660D01*
X32380D01*
Y454810D01*
X31645Y457555D01*
X30224Y460015D01*
X28215Y462024D01*
X25755Y463445D01*
X23010Y464180D01*
D02*
G37*
G36*
X20320D02*
X20169D01*
X17425Y463445D01*
X14965Y462024D01*
X12956Y460015D01*
X11535Y457555D01*
X10800Y454810D01*
Y454660D01*
X20320D01*
Y464180D01*
D02*
G37*
G36*
X477520D02*
X477369D01*
X474625Y463445D01*
X472165Y462024D01*
X470156Y460015D01*
X468735Y457555D01*
X468000Y454810D01*
Y454660D01*
X477520D01*
Y464180D01*
D02*
G37*
G36*
X478790Y453390D02*
D01*
D01*
D01*
D02*
G37*
G36*
X281330Y456870D02*
X272810D01*
Y448350D01*
X272829D01*
X275319Y449017D01*
X277551Y450306D01*
X279374Y452129D01*
X280663Y454361D01*
X281330Y456851D01*
Y456870D01*
D02*
G37*
G36*
X270270D02*
X261750D01*
Y456851D01*
X262417Y454361D01*
X263706Y452129D01*
X265529Y450306D01*
X267761Y449017D01*
X270251Y448350D01*
X270270D01*
Y456870D01*
D02*
G37*
G36*
X231330D02*
X222810D01*
Y448350D01*
X222829D01*
X225319Y449017D01*
X227551Y450306D01*
X229374Y452129D01*
X230663Y454361D01*
X231330Y456851D01*
Y456870D01*
D02*
G37*
G36*
X220270D02*
X211750D01*
Y456851D01*
X212417Y454361D01*
X213706Y452129D01*
X215529Y450306D01*
X217761Y449017D01*
X220251Y448350D01*
X220270D01*
Y456870D01*
D02*
G37*
G36*
X48377Y463926D02*
X45603D01*
X42923Y463208D01*
X40521Y461821D01*
X38559Y459859D01*
X37172Y457457D01*
X36454Y454777D01*
Y452003D01*
X37172Y449323D01*
X38559Y446921D01*
X40521Y444959D01*
X42923Y443572D01*
X45603Y442854D01*
X48377D01*
X51057Y443572D01*
X53459Y444959D01*
X55421Y446921D01*
X56808Y449323D01*
X57526Y452003D01*
Y454777D01*
X56808Y457457D01*
X55421Y459859D01*
X53459Y461821D01*
X51057Y463208D01*
X48377Y463926D01*
D02*
G37*
G36*
X489580Y452120D02*
X480060D01*
Y442600D01*
X480210D01*
X482955Y443335D01*
X485415Y444756D01*
X487424Y446765D01*
X488845Y449225D01*
X489580Y451969D01*
Y452120D01*
D02*
G37*
G36*
X477520D02*
X468000D01*
Y451969D01*
X468735Y449225D01*
X470156Y446765D01*
X472165Y444756D01*
X474625Y443335D01*
X477369Y442600D01*
X477520D01*
Y452120D01*
D02*
G37*
G36*
X32380D02*
X22860D01*
Y442600D01*
X23010D01*
X25755Y443335D01*
X28215Y444756D01*
X30224Y446765D01*
X31645Y449225D01*
X32380Y451969D01*
Y452120D01*
D02*
G37*
G36*
X20320D02*
X10800D01*
Y451969D01*
X11535Y449225D01*
X12956Y446765D01*
X14965Y444756D01*
X17425Y443335D01*
X20169Y442600D01*
X20320D01*
Y452120D01*
D02*
G37*
G36*
X480210Y438780D02*
X480060D01*
Y429260D01*
X489580D01*
Y429411D01*
X488845Y432155D01*
X487424Y434615D01*
X485415Y436624D01*
X482955Y438045D01*
X480210Y438780D01*
D02*
G37*
G36*
X23010D02*
X22860D01*
Y429260D01*
X32380D01*
Y429411D01*
X31645Y432155D01*
X30224Y434615D01*
X28215Y436624D01*
X25755Y438045D01*
X23010Y438780D01*
D02*
G37*
G36*
X477520D02*
X477369D01*
X474625Y438045D01*
X472165Y436624D01*
X470156Y434615D01*
X468735Y432155D01*
X468000Y429411D01*
Y429260D01*
X477520D01*
Y438780D01*
D02*
G37*
G36*
X20320D02*
X20169D01*
X17425Y438045D01*
X14965Y436624D01*
X12956Y434615D01*
X11535Y432155D01*
X10800Y429411D01*
Y429260D01*
X20320D01*
Y438780D01*
D02*
G37*
G36*
X454777Y438526D02*
X452003D01*
X449323Y437808D01*
X446921Y436421D01*
X444959Y434459D01*
X443572Y432057D01*
X442854Y429377D01*
Y426603D01*
X443572Y423923D01*
X444959Y421521D01*
X446921Y419559D01*
X449323Y418172D01*
X452003Y417454D01*
X454777D01*
X457457Y418172D01*
X459859Y419559D01*
X461821Y421521D01*
X463208Y423923D01*
X463926Y426603D01*
Y429377D01*
X463208Y432057D01*
X461821Y434459D01*
X459859Y436421D01*
X457457Y437808D01*
X454777Y438526D01*
D02*
G37*
G36*
X48377D02*
X45603D01*
X42923Y437808D01*
X40521Y436421D01*
X38559Y434459D01*
X37172Y432057D01*
X36454Y429377D01*
Y426603D01*
X37172Y423923D01*
X38559Y421521D01*
X40521Y419559D01*
X42923Y418172D01*
X45603Y417454D01*
X48377D01*
X51057Y418172D01*
X53459Y419559D01*
X55421Y421521D01*
X56808Y423923D01*
X57526Y426603D01*
Y429377D01*
X56808Y432057D01*
X55421Y434459D01*
X53459Y436421D01*
X51057Y437808D01*
X48377Y438526D01*
D02*
G37*
G36*
X489580Y426720D02*
X480060D01*
Y417200D01*
X480210D01*
X482955Y417935D01*
X485415Y419356D01*
X487424Y421365D01*
X488845Y423825D01*
X489580Y426570D01*
Y426720D01*
D02*
G37*
G36*
X477520D02*
X468000D01*
Y426570D01*
X468735Y423825D01*
X470156Y421365D01*
X472165Y419356D01*
X474625Y417935D01*
X477369Y417200D01*
X477520D01*
Y426720D01*
D02*
G37*
G36*
X32380D02*
X22860D01*
Y417200D01*
X23010D01*
X25755Y417935D01*
X28215Y419356D01*
X30224Y421365D01*
X31645Y423825D01*
X32380Y426570D01*
Y426720D01*
D02*
G37*
G36*
X20320D02*
X10800D01*
Y426570D01*
X11535Y423825D01*
X12956Y421365D01*
X14965Y419356D01*
X17425Y417935D01*
X20169Y417200D01*
X20320D01*
Y426720D01*
D02*
G37*
G36*
X480210Y413380D02*
X480060D01*
Y403860D01*
X489580D01*
Y404011D01*
X488845Y406755D01*
X487424Y409215D01*
X485415Y411224D01*
X482955Y412645D01*
X480210Y413380D01*
D02*
G37*
G36*
X23010D02*
X22860D01*
Y403860D01*
X32380D01*
Y404011D01*
X31645Y406755D01*
X30224Y409215D01*
X28215Y411224D01*
X25755Y412645D01*
X23010Y413380D01*
D02*
G37*
G36*
X477520D02*
X477369D01*
X474625Y412645D01*
X472165Y411224D01*
X470156Y409215D01*
X468735Y406755D01*
X468000Y404011D01*
Y403860D01*
X477520D01*
Y413380D01*
D02*
G37*
G36*
X20320D02*
X20169D01*
X17425Y412645D01*
X14965Y411224D01*
X12956Y409215D01*
X11535Y406755D01*
X10800Y404011D01*
Y403860D01*
X20320D01*
Y413380D01*
D02*
G37*
G36*
X297067Y408193D02*
Y401997D01*
X303262D01*
X302823Y403637D01*
X301830Y405357D01*
X300426Y406761D01*
X298707Y407753D01*
X297067Y408193D01*
D02*
G37*
G36*
X294527D02*
X292886Y407753D01*
X291167Y406761D01*
X289763Y405357D01*
X288771Y403637D01*
X288331Y401997D01*
X294527D01*
Y408193D01*
D02*
G37*
G36*
X327660Y407516D02*
Y401320D01*
X333856D01*
X333416Y402960D01*
X332424Y404680D01*
X331020Y406083D01*
X329300Y407076D01*
X327660Y407516D01*
D02*
G37*
G36*
X325120D02*
X323480Y407076D01*
X321760Y406083D01*
X320356Y404680D01*
X319364Y402960D01*
X318924Y401320D01*
X325120D01*
Y407516D01*
D02*
G37*
G36*
X358835Y406311D02*
Y400115D01*
X365031D01*
X364591Y401755D01*
X363599Y403475D01*
X362195Y404878D01*
X360476Y405871D01*
X358835Y406311D01*
D02*
G37*
G36*
X356295D02*
X354655Y405871D01*
X352935Y404878D01*
X351532Y403475D01*
X350539Y401755D01*
X350099Y400115D01*
X356295D01*
Y406311D01*
D02*
G37*
G36*
X389890Y406246D02*
Y400050D01*
X396086D01*
X395646Y401690D01*
X394654Y403410D01*
X393250Y404813D01*
X391530Y405806D01*
X389890Y406246D01*
D02*
G37*
G36*
X387350D02*
X385710Y405806D01*
X383990Y404813D01*
X382587Y403410D01*
X381594Y401690D01*
X381154Y400050D01*
X387350D01*
Y406246D01*
D02*
G37*
G36*
X303262Y399457D02*
X297067D01*
Y393261D01*
X298707Y393701D01*
X300426Y394693D01*
X301830Y396097D01*
X302823Y397817D01*
X303262Y399457D01*
D02*
G37*
G36*
X294527D02*
X288331D01*
X288771Y397817D01*
X289763Y396097D01*
X291167Y394693D01*
X292886Y393701D01*
X294527Y393261D01*
Y399457D01*
D02*
G37*
G36*
X333856Y398780D02*
X327660D01*
Y392584D01*
X329300Y393024D01*
X331020Y394016D01*
X332424Y395420D01*
X333416Y397140D01*
X333856Y398780D01*
D02*
G37*
G36*
X325120D02*
X318924D01*
X319364Y397140D01*
X320356Y395420D01*
X321760Y394016D01*
X323480Y393024D01*
X325120Y392584D01*
Y398780D01*
D02*
G37*
G36*
X454777Y413126D02*
X452003D01*
X449323Y412408D01*
X446921Y411021D01*
X444959Y409059D01*
X443572Y406657D01*
X442854Y403977D01*
Y401203D01*
X443572Y398523D01*
X444959Y396121D01*
X446921Y394159D01*
X449323Y392772D01*
X452003Y392054D01*
X454777D01*
X457457Y392772D01*
X459859Y394159D01*
X461821Y396121D01*
X463208Y398523D01*
X463926Y401203D01*
Y403977D01*
X463208Y406657D01*
X461821Y409059D01*
X459859Y411021D01*
X457457Y412408D01*
X454777Y413126D01*
D02*
G37*
G36*
X48377D02*
X45603D01*
X42923Y412408D01*
X40521Y411021D01*
X38559Y409059D01*
X37172Y406657D01*
X36454Y403977D01*
Y401203D01*
X37172Y398523D01*
X38559Y396121D01*
X40521Y394159D01*
X42923Y392772D01*
X45603Y392054D01*
X48377D01*
X51057Y392772D01*
X53459Y394159D01*
X55421Y396121D01*
X56808Y398523D01*
X57526Y401203D01*
Y403977D01*
X56808Y406657D01*
X55421Y409059D01*
X53459Y411021D01*
X51057Y412408D01*
X48377Y413126D01*
D02*
G37*
G36*
X489580Y401320D02*
X480060D01*
Y391800D01*
X480210D01*
X482955Y392535D01*
X485415Y393956D01*
X487424Y395965D01*
X488845Y398425D01*
X489580Y401170D01*
Y401320D01*
D02*
G37*
G36*
X477520D02*
X468000D01*
Y401170D01*
X468735Y398425D01*
X470156Y395965D01*
X472165Y393956D01*
X474625Y392535D01*
X477369Y391800D01*
X477520D01*
Y401320D01*
D02*
G37*
G36*
X32380D02*
X22860D01*
Y391800D01*
X23010D01*
X25755Y392535D01*
X28215Y393956D01*
X30224Y395965D01*
X31645Y398425D01*
X32380Y401170D01*
Y401320D01*
D02*
G37*
G36*
X20320D02*
X10800D01*
Y401170D01*
X11535Y398425D01*
X12956Y395965D01*
X14965Y393956D01*
X17425Y392535D01*
X20169Y391800D01*
X20320D01*
Y401320D01*
D02*
G37*
G36*
X365031Y397575D02*
X358835D01*
Y391379D01*
X360476Y391819D01*
X362195Y392811D01*
X363599Y394215D01*
X364591Y395935D01*
X365031Y397575D01*
D02*
G37*
G36*
X356295D02*
X350099D01*
X350539Y395935D01*
X351532Y394215D01*
X352935Y392811D01*
X354655Y391819D01*
X356295Y391379D01*
Y397575D01*
D02*
G37*
G36*
X396086Y397510D02*
X389890D01*
Y391314D01*
X391530Y391754D01*
X393250Y392747D01*
X394654Y394150D01*
X395646Y395870D01*
X396086Y397510D01*
D02*
G37*
G36*
X387350D02*
X381154D01*
X381594Y395870D01*
X382587Y394150D01*
X383990Y392747D01*
X385710Y391754D01*
X387350Y391314D01*
Y397510D01*
D02*
G37*
G36*
X23010Y387980D02*
X22860D01*
Y378460D01*
X32380D01*
Y378610D01*
X31645Y381355D01*
X30224Y383815D01*
X28215Y385824D01*
X25755Y387245D01*
X23010Y387980D01*
D02*
G37*
G36*
X480210D02*
X480060D01*
Y378460D01*
X489580D01*
Y378610D01*
X488845Y381355D01*
X487424Y383815D01*
X485415Y385824D01*
X482955Y387245D01*
X480210Y387980D01*
D02*
G37*
G36*
X477520D02*
X477369D01*
X474625Y387245D01*
X472165Y385824D01*
X470156Y383815D01*
X468735Y381355D01*
X468000Y378610D01*
Y378460D01*
X477520D01*
Y387980D01*
D02*
G37*
G36*
X20320D02*
X20169D01*
X17425Y387245D01*
X14965Y385824D01*
X12956Y383815D01*
X11535Y381355D01*
X10800Y378610D01*
Y378460D01*
X20320D01*
Y387980D01*
D02*
G37*
G36*
X153786Y377688D02*
Y371493D01*
X159982D01*
X159543Y373133D01*
X158550Y374852D01*
X157146Y376256D01*
X155427Y377249D01*
X153786Y377688D01*
D02*
G37*
G36*
X151246D02*
X149606Y377249D01*
X147887Y376256D01*
X146483Y374852D01*
X145490Y373133D01*
X145051Y371493D01*
X151246D01*
Y377688D01*
D02*
G37*
G36*
X454777Y387726D02*
X452003D01*
X449323Y387008D01*
X446921Y385621D01*
X444959Y383659D01*
X443572Y381257D01*
X442854Y378577D01*
Y375803D01*
X443572Y373123D01*
X444959Y370721D01*
X446921Y368759D01*
X449323Y367372D01*
X452003Y366654D01*
X454777D01*
X457457Y367372D01*
X459859Y368759D01*
X461821Y370721D01*
X463208Y373123D01*
X463926Y375803D01*
Y378577D01*
X463208Y381257D01*
X461821Y383659D01*
X459859Y385621D01*
X457457Y387008D01*
X454777Y387726D01*
D02*
G37*
G36*
X48377D02*
X45603D01*
X42923Y387008D01*
X40521Y385621D01*
X38559Y383659D01*
X37172Y381257D01*
X36454Y378577D01*
Y375803D01*
X37172Y373123D01*
X38559Y370721D01*
X40521Y368759D01*
X42923Y367372D01*
X45603Y366654D01*
X48377D01*
X51057Y367372D01*
X53459Y368759D01*
X55421Y370721D01*
X56808Y373123D01*
X57526Y375803D01*
Y378577D01*
X56808Y381257D01*
X55421Y383659D01*
X53459Y385621D01*
X51057Y387008D01*
X48377Y387726D01*
D02*
G37*
G36*
X489580Y375920D02*
X480060D01*
Y366400D01*
X480210D01*
X482955Y367135D01*
X485415Y368556D01*
X487424Y370565D01*
X488845Y373025D01*
X489580Y375770D01*
Y375920D01*
D02*
G37*
G36*
X477520D02*
X468000D01*
Y375770D01*
X468735Y373025D01*
X470156Y370565D01*
X472165Y368556D01*
X474625Y367135D01*
X477369Y366400D01*
X477520D01*
Y375920D01*
D02*
G37*
G36*
X32380D02*
X22860D01*
Y366400D01*
X23010D01*
X25755Y367135D01*
X28215Y368556D01*
X30224Y370565D01*
X31645Y373025D01*
X32380Y375770D01*
Y375920D01*
D02*
G37*
G36*
X20320D02*
X10800D01*
Y375770D01*
X11535Y373025D01*
X12956Y370565D01*
X14965Y368556D01*
X17425Y367135D01*
X20169Y366400D01*
X20320D01*
Y375920D01*
D02*
G37*
G36*
X159982Y368953D02*
X153786D01*
Y362757D01*
X155427Y363196D01*
X157146Y364189D01*
X158550Y365593D01*
X159543Y367312D01*
X159982Y368953D01*
D02*
G37*
G36*
X151246D02*
X145051D01*
X145490Y367312D01*
X146483Y365593D01*
X147887Y364189D01*
X149606Y363196D01*
X151246Y362757D01*
Y368953D01*
D02*
G37*
G36*
X480210Y362580D02*
X480060D01*
Y353060D01*
X489580D01*
Y353210D01*
X488845Y355955D01*
X487424Y358415D01*
X485415Y360424D01*
X482955Y361845D01*
X480210Y362580D01*
D02*
G37*
G36*
X23010D02*
X22860D01*
Y353060D01*
X32380D01*
Y353210D01*
X31645Y355955D01*
X30224Y358415D01*
X28215Y360424D01*
X25755Y361845D01*
X23010Y362580D01*
D02*
G37*
G36*
X477520D02*
X477369D01*
X474625Y361845D01*
X472165Y360424D01*
X470156Y358415D01*
X468735Y355955D01*
X468000Y353210D01*
Y353060D01*
X477520D01*
Y362580D01*
D02*
G37*
G36*
X20320D02*
X20169D01*
X17425Y361845D01*
X14965Y360424D01*
X12956Y358415D01*
X11535Y355955D01*
X10800Y353210D01*
Y353060D01*
X20320D01*
Y362580D01*
D02*
G37*
G36*
X454777Y362326D02*
X452003D01*
X449323Y361608D01*
X446921Y360221D01*
X444959Y358259D01*
X443572Y355857D01*
X442854Y353177D01*
Y350403D01*
X443572Y347723D01*
X444959Y345321D01*
X446921Y343359D01*
X449323Y341972D01*
X452003Y341254D01*
X454777D01*
X457457Y341972D01*
X459859Y343359D01*
X461821Y345321D01*
X463208Y347723D01*
X463926Y350403D01*
Y353177D01*
X463208Y355857D01*
X461821Y358259D01*
X459859Y360221D01*
X457457Y361608D01*
X454777Y362326D01*
D02*
G37*
G36*
X48377D02*
X45603D01*
X42923Y361608D01*
X40521Y360221D01*
X38559Y358259D01*
X37172Y355857D01*
X36454Y353177D01*
Y350403D01*
X37172Y347723D01*
X38559Y345321D01*
X40521Y343359D01*
X42923Y341972D01*
X45603Y341254D01*
X48377D01*
X51057Y341972D01*
X53459Y343359D01*
X55421Y345321D01*
X56808Y347723D01*
X57526Y350403D01*
Y353177D01*
X56808Y355857D01*
X55421Y358259D01*
X53459Y360221D01*
X51057Y361608D01*
X48377Y362326D01*
D02*
G37*
G36*
X489580Y350520D02*
X480060D01*
Y341000D01*
X480210D01*
X482955Y341735D01*
X485415Y343156D01*
X487424Y345165D01*
X488845Y347625D01*
X489580Y350369D01*
Y350520D01*
D02*
G37*
G36*
X477520D02*
X468000D01*
Y350369D01*
X468735Y347625D01*
X470156Y345165D01*
X472165Y343156D01*
X474625Y341735D01*
X477369Y341000D01*
X477520D01*
Y350520D01*
D02*
G37*
G36*
X32380D02*
X22860D01*
Y341000D01*
X23010D01*
X25755Y341735D01*
X28215Y343156D01*
X30224Y345165D01*
X31645Y347625D01*
X32380Y350369D01*
Y350520D01*
D02*
G37*
G36*
X20320D02*
X10800D01*
Y350369D01*
X11535Y347625D01*
X12956Y345165D01*
X14965Y343156D01*
X17425Y341735D01*
X20169Y341000D01*
X20320D01*
Y350520D01*
D02*
G37*
G36*
X246604Y360898D02*
X221388D01*
X219465Y360645D01*
X217673Y359902D01*
X216135Y358722D01*
X200487Y343074D01*
X199306Y341535D01*
X198564Y339743D01*
X198310Y337820D01*
X198564Y335897D01*
X199306Y334105D01*
X200487Y332566D01*
X202025Y331386D01*
X203817Y330644D01*
X205740Y330390D01*
X207663Y330644D01*
X209455Y331386D01*
X210993Y332566D01*
X224466Y346039D01*
X246604D01*
X248527Y346292D01*
X250319Y347034D01*
X251857Y348215D01*
X253038Y349753D01*
X253780Y351545D01*
X254033Y353468D01*
X253780Y355391D01*
X253038Y357183D01*
X251857Y358722D01*
X250319Y359902D01*
X248527Y360645D01*
X246604Y360898D01*
D02*
G37*
G36*
X480210Y337180D02*
X480060D01*
Y327660D01*
X489580D01*
Y327811D01*
X488845Y330555D01*
X487424Y333015D01*
X485415Y335024D01*
X482955Y336445D01*
X480210Y337180D01*
D02*
G37*
G36*
X23010D02*
X22860D01*
Y327660D01*
X32380D01*
Y327811D01*
X31645Y330555D01*
X30224Y333015D01*
X28215Y335024D01*
X25755Y336445D01*
X23010Y337180D01*
D02*
G37*
G36*
X20320D02*
X20169D01*
X17425Y336445D01*
X14965Y335024D01*
X12956Y333015D01*
X11535Y330555D01*
X10800Y327811D01*
Y327660D01*
X20320D01*
Y337180D01*
D02*
G37*
G36*
X477520D02*
X477369D01*
X474625Y336445D01*
X472165Y335024D01*
X470156Y333015D01*
X468735Y330555D01*
X468000Y327811D01*
Y327660D01*
X477520D01*
Y337180D01*
D02*
G37*
G36*
X478790Y326390D02*
D01*
D01*
D01*
D02*
G37*
G36*
X454777Y336926D02*
X452003D01*
X449323Y336208D01*
X446921Y334821D01*
X444959Y332859D01*
X443572Y330457D01*
X442854Y327777D01*
Y325003D01*
X443572Y322323D01*
X444959Y319921D01*
X446921Y317959D01*
X449323Y316572D01*
X452003Y315854D01*
X454777D01*
X457457Y316572D01*
X459859Y317959D01*
X461821Y319921D01*
X463208Y322323D01*
X463926Y325003D01*
Y327777D01*
X463208Y330457D01*
X461821Y332859D01*
X459859Y334821D01*
X457457Y336208D01*
X454777Y336926D01*
D02*
G37*
G36*
X48377D02*
X45603D01*
X42923Y336208D01*
X40521Y334821D01*
X38559Y332859D01*
X37172Y330457D01*
X36454Y327777D01*
Y325003D01*
X37172Y322323D01*
X38559Y319921D01*
X40521Y317959D01*
X42923Y316572D01*
X45603Y315854D01*
X48377D01*
X51057Y316572D01*
X53459Y317959D01*
X55421Y319921D01*
X56808Y322323D01*
X57526Y325003D01*
Y327777D01*
X56808Y330457D01*
X55421Y332859D01*
X53459Y334821D01*
X51057Y336208D01*
X48377Y336926D01*
D02*
G37*
G36*
X489580Y325120D02*
X480060D01*
Y315600D01*
X480210D01*
X482955Y316335D01*
X485415Y317756D01*
X487424Y319765D01*
X488845Y322225D01*
X489580Y324969D01*
Y325120D01*
D02*
G37*
G36*
X477520D02*
X468000D01*
Y324969D01*
X468735Y322225D01*
X470156Y319765D01*
X472165Y317756D01*
X474625Y316335D01*
X477369Y315600D01*
X477520D01*
Y325120D01*
D02*
G37*
G36*
X32380D02*
X22860D01*
Y315600D01*
X23010D01*
X25755Y316335D01*
X28215Y317756D01*
X30224Y319765D01*
X31645Y322225D01*
X32380Y324969D01*
Y325120D01*
D02*
G37*
G36*
X20320D02*
X10800D01*
Y324969D01*
X11535Y322225D01*
X12956Y319765D01*
X14965Y317756D01*
X17425Y316335D01*
X20169Y315600D01*
X20320D01*
Y325120D01*
D02*
G37*
G36*
X480210Y311780D02*
X480060D01*
Y302260D01*
X489580D01*
Y302411D01*
X488845Y305155D01*
X487424Y307615D01*
X485415Y309624D01*
X482955Y311045D01*
X480210Y311780D01*
D02*
G37*
G36*
X23010D02*
X22860D01*
Y302260D01*
X32380D01*
Y302411D01*
X31645Y305155D01*
X30224Y307615D01*
X28215Y309624D01*
X25755Y311045D01*
X23010Y311780D01*
D02*
G37*
G36*
X477520D02*
X477369D01*
X474625Y311045D01*
X472165Y309624D01*
X470156Y307615D01*
X468735Y305155D01*
X468000Y302411D01*
Y302260D01*
X477520D01*
Y311780D01*
D02*
G37*
G36*
X20320D02*
X20169D01*
X17425Y311045D01*
X14965Y309624D01*
X12956Y307615D01*
X11535Y305155D01*
X10800Y302411D01*
Y302260D01*
X20320D01*
Y311780D01*
D02*
G37*
G36*
X108366Y303791D02*
Y297596D01*
X114561D01*
X114122Y299236D01*
X113129Y300955D01*
X111725Y302359D01*
X110006Y303352D01*
X108366Y303791D01*
D02*
G37*
G36*
X105826D02*
X104185Y303352D01*
X102466Y302359D01*
X101062Y300955D01*
X100070Y299236D01*
X99630Y297596D01*
X105826D01*
Y303791D01*
D02*
G37*
G36*
X454777Y311526D02*
X452003D01*
X449323Y310808D01*
X446921Y309421D01*
X444959Y307459D01*
X443572Y305057D01*
X442854Y302377D01*
Y299603D01*
X443572Y296923D01*
X444959Y294521D01*
X446921Y292559D01*
X449323Y291172D01*
X452003Y290454D01*
X454777D01*
X457457Y291172D01*
X459859Y292559D01*
X461821Y294521D01*
X463208Y296923D01*
X463926Y299603D01*
Y302377D01*
X463208Y305057D01*
X461821Y307459D01*
X459859Y309421D01*
X457457Y310808D01*
X454777Y311526D01*
D02*
G37*
G36*
X48377D02*
X45603D01*
X42923Y310808D01*
X40521Y309421D01*
X38559Y307459D01*
X37172Y305057D01*
X36454Y302377D01*
Y299603D01*
X37172Y296923D01*
X38559Y294521D01*
X40521Y292559D01*
X42923Y291172D01*
X45603Y290454D01*
X48377D01*
X51057Y291172D01*
X53459Y292559D01*
X55421Y294521D01*
X56808Y296923D01*
X57526Y299603D01*
Y302377D01*
X56808Y305057D01*
X55421Y307459D01*
X53459Y309421D01*
X51057Y310808D01*
X48377Y311526D01*
D02*
G37*
G36*
X489580Y299720D02*
X480060D01*
Y290200D01*
X480210D01*
X482955Y290935D01*
X485415Y292356D01*
X487424Y294365D01*
X488845Y296825D01*
X489580Y299569D01*
Y299720D01*
D02*
G37*
G36*
X477520D02*
X468000D01*
Y299569D01*
X468735Y296825D01*
X470156Y294365D01*
X472165Y292356D01*
X474625Y290935D01*
X477369Y290200D01*
X477520D01*
Y299720D01*
D02*
G37*
G36*
X32380D02*
X22860D01*
Y290200D01*
X23010D01*
X25755Y290935D01*
X28215Y292356D01*
X30224Y294365D01*
X31645Y296825D01*
X32380Y299569D01*
Y299720D01*
D02*
G37*
G36*
X20320D02*
X10800D01*
Y299569D01*
X11535Y296825D01*
X12956Y294365D01*
X14965Y292356D01*
X17425Y290935D01*
X20169Y290200D01*
X20320D01*
Y299720D01*
D02*
G37*
G36*
X114561Y295056D02*
X108366D01*
Y288860D01*
X110006Y289300D01*
X111725Y290292D01*
X113129Y291696D01*
X114122Y293415D01*
X114561Y295056D01*
D02*
G37*
G36*
X105826D02*
X99630D01*
X100070Y293415D01*
X101062Y291696D01*
X102466Y290292D01*
X104185Y289300D01*
X105826Y288860D01*
Y295056D01*
D02*
G37*
G36*
X480210Y286380D02*
X480060D01*
Y276860D01*
X489580D01*
Y277010D01*
X488845Y279755D01*
X487424Y282215D01*
X485415Y284224D01*
X482955Y285645D01*
X480210Y286380D01*
D02*
G37*
G36*
X23010D02*
X22860D01*
Y276860D01*
X32380D01*
Y277010D01*
X31645Y279755D01*
X30224Y282215D01*
X28215Y284224D01*
X25755Y285645D01*
X23010Y286380D01*
D02*
G37*
G36*
X477520D02*
X477369D01*
X474625Y285645D01*
X472165Y284224D01*
X470156Y282215D01*
X468735Y279755D01*
X468000Y277010D01*
Y276860D01*
X477520D01*
Y286380D01*
D02*
G37*
G36*
X20320D02*
X20169D01*
X17425Y285645D01*
X14965Y284224D01*
X12956Y282215D01*
X11535Y279755D01*
X10800Y277010D01*
Y276860D01*
X20320D01*
Y286380D01*
D02*
G37*
G36*
X478790Y275590D02*
D01*
D01*
D01*
D02*
G37*
G36*
X400050Y277976D02*
Y271780D01*
X406246D01*
X405806Y273420D01*
X404813Y275140D01*
X403410Y276544D01*
X401690Y277536D01*
X400050Y277976D01*
D02*
G37*
G36*
X397510D02*
X395870Y277536D01*
X394150Y276544D01*
X392747Y275140D01*
X391754Y273420D01*
X391314Y271780D01*
X397510D01*
Y277976D01*
D02*
G37*
G36*
X109220Y272896D02*
Y266700D01*
X115416D01*
X114976Y268340D01*
X113983Y270060D01*
X112580Y271464D01*
X110860Y272456D01*
X109220Y272896D01*
D02*
G37*
G36*
X106680D02*
X105040Y272456D01*
X103320Y271464D01*
X101917Y270060D01*
X100924Y268340D01*
X100484Y266700D01*
X106680D01*
Y272896D01*
D02*
G37*
G36*
X454777Y286126D02*
X452003D01*
X449323Y285408D01*
X446921Y284021D01*
X444959Y282059D01*
X443572Y279657D01*
X442854Y276977D01*
Y274203D01*
X443572Y271523D01*
X444959Y269121D01*
X446921Y267159D01*
X449323Y265772D01*
X452003Y265054D01*
X454777D01*
X457457Y265772D01*
X459859Y267159D01*
X461821Y269121D01*
X463208Y271523D01*
X463926Y274203D01*
Y276977D01*
X463208Y279657D01*
X461821Y282059D01*
X459859Y284021D01*
X457457Y285408D01*
X454777Y286126D01*
D02*
G37*
G36*
X48377D02*
X45603D01*
X42923Y285408D01*
X40521Y284021D01*
X38559Y282059D01*
X37172Y279657D01*
X36454Y276977D01*
Y274203D01*
X37172Y271523D01*
X38559Y269121D01*
X40521Y267159D01*
X42923Y265772D01*
X45603Y265054D01*
X48377D01*
X51057Y265772D01*
X53459Y267159D01*
X55421Y269121D01*
X56808Y271523D01*
X57526Y274203D01*
Y276977D01*
X56808Y279657D01*
X55421Y282059D01*
X53459Y284021D01*
X51057Y285408D01*
X48377Y286126D01*
D02*
G37*
G36*
X489580Y274320D02*
X480060D01*
Y264800D01*
X480210D01*
X482955Y265535D01*
X485415Y266956D01*
X487424Y268965D01*
X488845Y271425D01*
X489580Y274170D01*
Y274320D01*
D02*
G37*
G36*
X477520D02*
X468000D01*
Y274170D01*
X468735Y271425D01*
X470156Y268965D01*
X472165Y266956D01*
X474625Y265535D01*
X477369Y264800D01*
X477520D01*
Y274320D01*
D02*
G37*
G36*
X32380D02*
X22860D01*
Y264800D01*
X23010D01*
X25755Y265535D01*
X28215Y266956D01*
X30224Y268965D01*
X31645Y271425D01*
X32380Y274170D01*
Y274320D01*
D02*
G37*
G36*
X20320D02*
X10800D01*
Y274170D01*
X11535Y271425D01*
X12956Y268965D01*
X14965Y266956D01*
X17425Y265535D01*
X20169Y264800D01*
X20320D01*
Y274320D01*
D02*
G37*
G36*
X406246Y269240D02*
X400050D01*
Y263044D01*
X401690Y263484D01*
X403410Y264477D01*
X404813Y265880D01*
X405806Y267600D01*
X406246Y269240D01*
D02*
G37*
G36*
X397510D02*
X391314D01*
X391754Y267600D01*
X392747Y265880D01*
X394150Y264477D01*
X395870Y263484D01*
X397510Y263044D01*
Y269240D01*
D02*
G37*
G36*
X115416Y264160D02*
X109220D01*
Y257964D01*
X110860Y258404D01*
X112580Y259396D01*
X113983Y260800D01*
X114976Y262520D01*
X115416Y264160D01*
D02*
G37*
G36*
X106680D02*
X100484D01*
X100924Y262520D01*
X101917Y260800D01*
X103320Y259396D01*
X105040Y258404D01*
X106680Y257964D01*
Y264160D01*
D02*
G37*
G36*
X480210Y260980D02*
X480060D01*
Y251460D01*
X489580D01*
Y251611D01*
X488845Y254355D01*
X487424Y256815D01*
X485415Y258824D01*
X482955Y260245D01*
X480210Y260980D01*
D02*
G37*
G36*
X23010D02*
X22860D01*
Y251460D01*
X32380D01*
Y251611D01*
X31645Y254355D01*
X30224Y256815D01*
X28215Y258824D01*
X25755Y260245D01*
X23010Y260980D01*
D02*
G37*
G36*
X20320D02*
X20169D01*
X17425Y260245D01*
X14965Y258824D01*
X12956Y256815D01*
X11535Y254355D01*
X10800Y251611D01*
Y251460D01*
X20320D01*
Y260980D01*
D02*
G37*
G36*
X477520D02*
X477369D01*
X474625Y260245D01*
X472165Y258824D01*
X470156Y256815D01*
X468735Y254355D01*
X468000Y251611D01*
Y251460D01*
X477520D01*
Y260980D01*
D02*
G37*
G36*
X454777Y260726D02*
X452003D01*
X449323Y260008D01*
X446921Y258621D01*
X444959Y256659D01*
X443572Y254257D01*
X442854Y251577D01*
Y248803D01*
X443572Y246123D01*
X444959Y243721D01*
X446921Y241759D01*
X449323Y240372D01*
X452003Y239654D01*
X454777D01*
X457457Y240372D01*
X459859Y241759D01*
X461821Y243721D01*
X463208Y246123D01*
X463926Y248803D01*
Y251577D01*
X463208Y254257D01*
X461821Y256659D01*
X459859Y258621D01*
X457457Y260008D01*
X454777Y260726D01*
D02*
G37*
G36*
X48377D02*
X45603D01*
X42923Y260008D01*
X40521Y258621D01*
X38559Y256659D01*
X37172Y254257D01*
X36454Y251577D01*
Y248803D01*
X37172Y246123D01*
X38559Y243721D01*
X40521Y241759D01*
X42923Y240372D01*
X45603Y239654D01*
X48377D01*
X51057Y240372D01*
X53459Y241759D01*
X55421Y243721D01*
X56808Y246123D01*
X57526Y248803D01*
Y251577D01*
X56808Y254257D01*
X55421Y256659D01*
X53459Y258621D01*
X51057Y260008D01*
X48377Y260726D01*
D02*
G37*
G36*
X489580Y248920D02*
X480060D01*
Y239400D01*
X480210D01*
X482955Y240135D01*
X485415Y241556D01*
X487424Y243565D01*
X488845Y246025D01*
X489580Y248769D01*
Y248920D01*
D02*
G37*
G36*
X477520D02*
X468000D01*
Y248769D01*
X468735Y246025D01*
X470156Y243565D01*
X472165Y241556D01*
X474625Y240135D01*
X477369Y239400D01*
X477520D01*
Y248920D01*
D02*
G37*
G36*
X32380D02*
X22860D01*
Y239400D01*
X23010D01*
X25755Y240135D01*
X28215Y241556D01*
X30224Y243565D01*
X31645Y246025D01*
X32380Y248769D01*
Y248920D01*
D02*
G37*
G36*
X20320D02*
X10800D01*
Y248769D01*
X11535Y246025D01*
X12956Y243565D01*
X14965Y241556D01*
X17425Y240135D01*
X20169Y239400D01*
X20320D01*
Y248920D01*
D02*
G37*
G36*
X109220Y241146D02*
Y234950D01*
X115416D01*
X114976Y236590D01*
X113983Y238310D01*
X112580Y239713D01*
X110860Y240706D01*
X109220Y241146D01*
D02*
G37*
G36*
X106680D02*
X105040Y240706D01*
X103320Y239713D01*
X101917Y238310D01*
X100924Y236590D01*
X100484Y234950D01*
X106680D01*
Y241146D01*
D02*
G37*
G36*
X115416Y232410D02*
X109220D01*
Y226214D01*
X110860Y226654D01*
X112580Y227647D01*
X113983Y229050D01*
X114976Y230770D01*
X115416Y232410D01*
D02*
G37*
G36*
X106680D02*
X100484D01*
X100924Y230770D01*
X101917Y229050D01*
X103320Y227647D01*
X105040Y226654D01*
X106680Y226214D01*
Y232410D01*
D02*
G37*
G36*
X480210Y235580D02*
X480060D01*
Y226060D01*
X489580D01*
Y226210D01*
X488845Y228955D01*
X487424Y231415D01*
X485415Y233424D01*
X482955Y234845D01*
X480210Y235580D01*
D02*
G37*
G36*
X23010D02*
X22860D01*
Y226060D01*
X32380D01*
Y226210D01*
X31645Y228955D01*
X30224Y231415D01*
X28215Y233424D01*
X25755Y234845D01*
X23010Y235580D01*
D02*
G37*
G36*
X477520D02*
X477369D01*
X474625Y234845D01*
X472165Y233424D01*
X470156Y231415D01*
X468735Y228955D01*
X468000Y226210D01*
Y226060D01*
X477520D01*
Y235580D01*
D02*
G37*
G36*
X20320D02*
X20169D01*
X17425Y234845D01*
X14965Y233424D01*
X12956Y231415D01*
X11535Y228955D01*
X10800Y226210D01*
Y226060D01*
X20320D01*
Y235580D01*
D02*
G37*
G36*
X328930Y224636D02*
Y218440D01*
X335126D01*
X334686Y220080D01*
X333694Y221800D01*
X332290Y223204D01*
X330570Y224196D01*
X328930Y224636D01*
D02*
G37*
G36*
X326390D02*
X324750Y224196D01*
X323030Y223204D01*
X321627Y221800D01*
X320634Y220080D01*
X320194Y218440D01*
X326390D01*
Y224636D01*
D02*
G37*
G36*
X454777Y235326D02*
X452003D01*
X449323Y234608D01*
X446921Y233221D01*
X444959Y231259D01*
X443572Y228857D01*
X442854Y226177D01*
Y223403D01*
X443572Y220723D01*
X444959Y218321D01*
X446921Y216359D01*
X449323Y214972D01*
X452003Y214254D01*
X454777D01*
X457457Y214972D01*
X459859Y216359D01*
X461821Y218321D01*
X463208Y220723D01*
X463926Y223403D01*
Y226177D01*
X463208Y228857D01*
X461821Y231259D01*
X459859Y233221D01*
X457457Y234608D01*
X454777Y235326D01*
D02*
G37*
G36*
X48377D02*
X45603D01*
X42923Y234608D01*
X40521Y233221D01*
X38559Y231259D01*
X37172Y228857D01*
X36454Y226177D01*
Y223403D01*
X37172Y220723D01*
X38559Y218321D01*
X40521Y216359D01*
X42923Y214972D01*
X45603Y214254D01*
X48377D01*
X51057Y214972D01*
X53459Y216359D01*
X55421Y218321D01*
X56808Y220723D01*
X57526Y223403D01*
Y226177D01*
X56808Y228857D01*
X55421Y231259D01*
X53459Y233221D01*
X51057Y234608D01*
X48377Y235326D01*
D02*
G37*
G36*
X489580Y223520D02*
X480060D01*
Y214000D01*
X480210D01*
X482955Y214735D01*
X485415Y216156D01*
X487424Y218165D01*
X488845Y220625D01*
X489580Y223370D01*
Y223520D01*
D02*
G37*
G36*
X477520D02*
X468000D01*
Y223370D01*
X468735Y220625D01*
X470156Y218165D01*
X472165Y216156D01*
X474625Y214735D01*
X477369Y214000D01*
X477520D01*
Y223520D01*
D02*
G37*
G36*
X32380D02*
X22860D01*
Y214000D01*
X23010D01*
X25755Y214735D01*
X28215Y216156D01*
X30224Y218165D01*
X31645Y220625D01*
X32380Y223370D01*
Y223520D01*
D02*
G37*
G36*
X20320D02*
X10800D01*
Y223370D01*
X11535Y220625D01*
X12956Y218165D01*
X14965Y216156D01*
X17425Y214735D01*
X20169Y214000D01*
X20320D01*
Y223520D01*
D02*
G37*
G36*
X335126Y215900D02*
X328930D01*
Y209704D01*
X330570Y210144D01*
X332290Y211136D01*
X333694Y212540D01*
X334686Y214260D01*
X335126Y215900D01*
D02*
G37*
G36*
X326390D02*
X320194D01*
X320634Y214260D01*
X321627Y212540D01*
X323030Y211136D01*
X324750Y210144D01*
X326390Y209704D01*
Y215900D01*
D02*
G37*
G36*
X480210Y210180D02*
X480060D01*
Y200660D01*
X489580D01*
Y200811D01*
X488845Y203555D01*
X487424Y206015D01*
X485415Y208024D01*
X482955Y209445D01*
X480210Y210180D01*
D02*
G37*
G36*
X23010D02*
X22860D01*
Y200660D01*
X32380D01*
Y200811D01*
X31645Y203555D01*
X30224Y206015D01*
X28215Y208024D01*
X25755Y209445D01*
X23010Y210180D01*
D02*
G37*
G36*
X477520D02*
X477369D01*
X474625Y209445D01*
X472165Y208024D01*
X470156Y206015D01*
X468735Y203555D01*
X468000Y200811D01*
Y200660D01*
X477520D01*
Y210180D01*
D02*
G37*
G36*
X20320D02*
X20169D01*
X17425Y209445D01*
X14965Y208024D01*
X12956Y206015D01*
X11535Y203555D01*
X10800Y200811D01*
Y200660D01*
X20320D01*
Y210180D01*
D02*
G37*
G36*
X454777Y209926D02*
X452003D01*
X449323Y209208D01*
X446921Y207821D01*
X444959Y205859D01*
X443572Y203457D01*
X442854Y200777D01*
Y198003D01*
X443572Y195323D01*
X444959Y192921D01*
X446921Y190959D01*
X449323Y189572D01*
X452003Y188854D01*
X454777D01*
X457457Y189572D01*
X459859Y190959D01*
X461821Y192921D01*
X463208Y195323D01*
X463926Y198003D01*
Y200777D01*
X463208Y203457D01*
X461821Y205859D01*
X459859Y207821D01*
X457457Y209208D01*
X454777Y209926D01*
D02*
G37*
G36*
X48377D02*
X45603D01*
X42923Y209208D01*
X40521Y207821D01*
X38559Y205859D01*
X37172Y203457D01*
X36454Y200777D01*
Y198003D01*
X37172Y195323D01*
X38559Y192921D01*
X40521Y190959D01*
X42923Y189572D01*
X45603Y188854D01*
X48377D01*
X51057Y189572D01*
X53459Y190959D01*
X55421Y192921D01*
X56808Y195323D01*
X57526Y198003D01*
Y200777D01*
X56808Y203457D01*
X55421Y205859D01*
X53459Y207821D01*
X51057Y209208D01*
X48377Y209926D01*
D02*
G37*
G36*
X489580Y198120D02*
X480060D01*
Y188600D01*
X480210D01*
X482955Y189335D01*
X485415Y190756D01*
X487424Y192765D01*
X488845Y195225D01*
X489580Y197969D01*
Y198120D01*
D02*
G37*
G36*
X477520D02*
X468000D01*
Y197969D01*
X468735Y195225D01*
X470156Y192765D01*
X472165Y190756D01*
X474625Y189335D01*
X477369Y188600D01*
X477520D01*
Y198120D01*
D02*
G37*
G36*
X32380D02*
X22860D01*
Y188600D01*
X23010D01*
X25755Y189335D01*
X28215Y190756D01*
X30224Y192765D01*
X31645Y195225D01*
X32380Y197969D01*
Y198120D01*
D02*
G37*
G36*
X20320D02*
X10800D01*
Y197969D01*
X11535Y195225D01*
X12956Y192765D01*
X14965Y190756D01*
X17425Y189335D01*
X20169Y188600D01*
X20320D01*
Y198120D01*
D02*
G37*
G36*
X362082Y189914D02*
Y183718D01*
X368278D01*
X367838Y185359D01*
X366846Y187078D01*
X365442Y188482D01*
X363722Y189475D01*
X362082Y189914D01*
D02*
G37*
G36*
X359542D02*
X357902Y189475D01*
X356182Y188482D01*
X354778Y187078D01*
X353786Y185359D01*
X353346Y183718D01*
X359542D01*
Y189914D01*
D02*
G37*
G36*
X480210Y184780D02*
X480060D01*
Y175260D01*
X489580D01*
Y175410D01*
X488845Y178155D01*
X487424Y180615D01*
X485415Y182624D01*
X482955Y184045D01*
X480210Y184780D01*
D02*
G37*
G36*
X23010D02*
X22860D01*
Y175260D01*
X32380D01*
Y175410D01*
X31645Y178155D01*
X30224Y180615D01*
X28215Y182624D01*
X25755Y184045D01*
X23010Y184780D01*
D02*
G37*
G36*
X477520D02*
X477369D01*
X474625Y184045D01*
X472165Y182624D01*
X470156Y180615D01*
X468735Y178155D01*
X468000Y175410D01*
Y175260D01*
X477520D01*
Y184780D01*
D02*
G37*
G36*
X20320D02*
X20169D01*
X17425Y184045D01*
X14965Y182624D01*
X12956Y180615D01*
X11535Y178155D01*
X10800Y175410D01*
Y175260D01*
X20320D01*
Y184780D01*
D02*
G37*
G36*
X368278Y181178D02*
X362082D01*
Y174983D01*
X363722Y175422D01*
X365442Y176415D01*
X366846Y177819D01*
X367838Y179538D01*
X368278Y181178D01*
D02*
G37*
G36*
X359542D02*
X353346D01*
X353786Y179538D01*
X354778Y177819D01*
X356182Y176415D01*
X357902Y175422D01*
X359542Y174983D01*
Y181178D01*
D02*
G37*
G36*
X454777Y184526D02*
X452003D01*
X449323Y183808D01*
X446921Y182421D01*
X444959Y180459D01*
X443572Y178057D01*
X442854Y175377D01*
Y172603D01*
X443572Y169923D01*
X444959Y167521D01*
X446921Y165559D01*
X449323Y164172D01*
X452003Y163454D01*
X454777D01*
X457457Y164172D01*
X459859Y165559D01*
X461821Y167521D01*
X463208Y169923D01*
X463926Y172603D01*
Y175377D01*
X463208Y178057D01*
X461821Y180459D01*
X459859Y182421D01*
X457457Y183808D01*
X454777Y184526D01*
D02*
G37*
G36*
X48377D02*
X45603D01*
X42923Y183808D01*
X40521Y182421D01*
X38559Y180459D01*
X37172Y178057D01*
X36454Y175377D01*
Y172603D01*
X37172Y169923D01*
X38559Y167521D01*
X40521Y165559D01*
X42923Y164172D01*
X45603Y163454D01*
X48377D01*
X51057Y164172D01*
X53459Y165559D01*
X55421Y167521D01*
X56808Y169923D01*
X57526Y172603D01*
Y175377D01*
X56808Y178057D01*
X55421Y180459D01*
X53459Y182421D01*
X51057Y183808D01*
X48377Y184526D01*
D02*
G37*
G36*
X489580Y172720D02*
X480060D01*
Y163200D01*
X480210D01*
X482955Y163935D01*
X485415Y165356D01*
X487424Y167365D01*
X488845Y169825D01*
X489580Y172570D01*
Y172720D01*
D02*
G37*
G36*
X477520D02*
X468000D01*
Y172570D01*
X468735Y169825D01*
X470156Y167365D01*
X472165Y165356D01*
X474625Y163935D01*
X477369Y163200D01*
X477520D01*
Y172720D01*
D02*
G37*
G36*
X32380D02*
X22860D01*
Y163200D01*
X23010D01*
X25755Y163935D01*
X28215Y165356D01*
X30224Y167365D01*
X31645Y169825D01*
X32380Y172570D01*
Y172720D01*
D02*
G37*
G36*
X20320D02*
X10800D01*
Y172570D01*
X11535Y169825D01*
X12956Y167365D01*
X14965Y165356D01*
X17425Y163935D01*
X20169Y163200D01*
X20320D01*
Y172720D01*
D02*
G37*
G36*
X480210Y159380D02*
X480060D01*
Y149860D01*
X489580D01*
Y150010D01*
X488845Y152755D01*
X487424Y155215D01*
X485415Y157224D01*
X482955Y158645D01*
X480210Y159380D01*
D02*
G37*
G36*
X23010D02*
X22860D01*
Y149860D01*
X32380D01*
Y150010D01*
X31645Y152755D01*
X30224Y155215D01*
X28215Y157224D01*
X25755Y158645D01*
X23010Y159380D01*
D02*
G37*
G36*
X477520D02*
X477369D01*
X474625Y158645D01*
X472165Y157224D01*
X470156Y155215D01*
X468735Y152755D01*
X468000Y150010D01*
Y149860D01*
X477520D01*
Y159380D01*
D02*
G37*
G36*
X20320D02*
X20169D01*
X17425Y158645D01*
X14965Y157224D01*
X12956Y155215D01*
X11535Y152755D01*
X10800Y150010D01*
Y149860D01*
X20320D01*
Y159380D01*
D02*
G37*
G36*
X381000Y148436D02*
Y142240D01*
X387196D01*
X386756Y143880D01*
X385764Y145600D01*
X384360Y147003D01*
X382640Y147996D01*
X381000Y148436D01*
D02*
G37*
G36*
X378460D02*
X376820Y147996D01*
X375100Y147003D01*
X373697Y145600D01*
X372704Y143880D01*
X372264Y142240D01*
X378460D01*
Y148436D01*
D02*
G37*
G36*
X454777Y159126D02*
X452003D01*
X449323Y158408D01*
X446921Y157021D01*
X444959Y155059D01*
X443572Y152657D01*
X442854Y149977D01*
Y147203D01*
X443572Y144523D01*
X444959Y142121D01*
X446921Y140159D01*
X449323Y138772D01*
X452003Y138054D01*
X454777D01*
X457457Y138772D01*
X459859Y140159D01*
X461821Y142121D01*
X463208Y144523D01*
X463926Y147203D01*
Y149977D01*
X463208Y152657D01*
X461821Y155059D01*
X459859Y157021D01*
X457457Y158408D01*
X454777Y159126D01*
D02*
G37*
G36*
X48377D02*
X45603D01*
X42923Y158408D01*
X40521Y157021D01*
X38559Y155059D01*
X37172Y152657D01*
X36454Y149977D01*
Y147203D01*
X37172Y144523D01*
X38559Y142121D01*
X40521Y140159D01*
X42923Y138772D01*
X45603Y138054D01*
X48377D01*
X51057Y138772D01*
X53459Y140159D01*
X55421Y142121D01*
X56808Y144523D01*
X57526Y147203D01*
Y149977D01*
X56808Y152657D01*
X55421Y155059D01*
X53459Y157021D01*
X51057Y158408D01*
X48377Y159126D01*
D02*
G37*
G36*
X489580Y147320D02*
X480060D01*
Y137800D01*
X480210D01*
X482955Y138535D01*
X485415Y139956D01*
X487424Y141965D01*
X488845Y144425D01*
X489580Y147170D01*
Y147320D01*
D02*
G37*
G36*
X477520D02*
X468000D01*
Y147170D01*
X468735Y144425D01*
X470156Y141965D01*
X472165Y139956D01*
X474625Y138535D01*
X477369Y137800D01*
X477520D01*
Y147320D01*
D02*
G37*
G36*
X32380D02*
X22860D01*
Y137800D01*
X23010D01*
X25755Y138535D01*
X28215Y139956D01*
X30224Y141965D01*
X31645Y144425D01*
X32380Y147170D01*
Y147320D01*
D02*
G37*
G36*
X20320D02*
X10800D01*
Y147170D01*
X11535Y144425D01*
X12956Y141965D01*
X14965Y139956D01*
X17425Y138535D01*
X20169Y137800D01*
X20320D01*
Y147320D01*
D02*
G37*
G36*
X387196Y139700D02*
X381000D01*
Y133504D01*
X382640Y133944D01*
X384360Y134937D01*
X385764Y136340D01*
X386756Y138060D01*
X387196Y139700D01*
D02*
G37*
G36*
X378460D02*
X372264D01*
X372704Y138060D01*
X373697Y136340D01*
X375100Y134937D01*
X376820Y133944D01*
X378460Y133504D01*
Y139700D01*
D02*
G37*
G36*
X23010Y133980D02*
X22860D01*
Y124460D01*
X32380D01*
Y124611D01*
X31645Y127355D01*
X30224Y129815D01*
X28215Y131824D01*
X25755Y133245D01*
X23010Y133980D01*
D02*
G37*
G36*
X480210D02*
X480060D01*
Y124460D01*
X489580D01*
Y124611D01*
X488845Y127355D01*
X487424Y129815D01*
X485415Y131824D01*
X482955Y133245D01*
X480210Y133980D01*
D02*
G37*
G36*
X20320D02*
X20169D01*
X17425Y133245D01*
X14965Y131824D01*
X12956Y129815D01*
X11535Y127355D01*
X10800Y124611D01*
Y124460D01*
X20320D01*
Y133980D01*
D02*
G37*
G36*
X477520D02*
X477369D01*
X474625Y133245D01*
X472165Y131824D01*
X470156Y129815D01*
X468735Y127355D01*
X468000Y124611D01*
Y124460D01*
X477520D01*
Y133980D01*
D02*
G37*
G36*
X152400Y125576D02*
Y119380D01*
X158596D01*
X158156Y121020D01*
X157163Y122740D01*
X155760Y124143D01*
X154040Y125136D01*
X152400Y125576D01*
D02*
G37*
G36*
X149860D02*
X148220Y125136D01*
X146500Y124143D01*
X145097Y122740D01*
X144104Y121020D01*
X143664Y119380D01*
X149860D01*
Y125576D01*
D02*
G37*
G36*
X454777Y133726D02*
X452003D01*
X449323Y133008D01*
X446921Y131621D01*
X444959Y129659D01*
X443572Y127257D01*
X442854Y124577D01*
Y121803D01*
X443572Y119123D01*
X444959Y116721D01*
X446921Y114759D01*
X449323Y113372D01*
X452003Y112654D01*
X454777D01*
X457457Y113372D01*
X459859Y114759D01*
X461821Y116721D01*
X463208Y119123D01*
X463926Y121803D01*
Y124577D01*
X463208Y127257D01*
X461821Y129659D01*
X459859Y131621D01*
X457457Y133008D01*
X454777Y133726D01*
D02*
G37*
G36*
X48377D02*
X45603D01*
X42923Y133008D01*
X40521Y131621D01*
X38559Y129659D01*
X37172Y127257D01*
X36454Y124577D01*
Y121803D01*
X37172Y119123D01*
X38559Y116721D01*
X40521Y114759D01*
X42923Y113372D01*
X45603Y112654D01*
X48377D01*
X51057Y113372D01*
X53459Y114759D01*
X55421Y116721D01*
X56808Y119123D01*
X57526Y121803D01*
Y124577D01*
X56808Y127257D01*
X55421Y129659D01*
X53459Y131621D01*
X51057Y133008D01*
X48377Y133726D01*
D02*
G37*
G36*
X489580Y121920D02*
X480060D01*
Y112400D01*
X480210D01*
X482955Y113135D01*
X485415Y114556D01*
X487424Y116565D01*
X488845Y119025D01*
X489580Y121770D01*
Y121920D01*
D02*
G37*
G36*
X477520D02*
X468000D01*
Y121770D01*
X468735Y119025D01*
X470156Y116565D01*
X472165Y114556D01*
X474625Y113135D01*
X477369Y112400D01*
X477520D01*
Y121920D01*
D02*
G37*
G36*
X32380D02*
X22860D01*
Y112400D01*
X23010D01*
X25755Y113135D01*
X28215Y114556D01*
X30224Y116565D01*
X31645Y119025D01*
X32380Y121770D01*
Y121920D01*
D02*
G37*
G36*
X20320D02*
X10800D01*
Y121770D01*
X11535Y119025D01*
X12956Y116565D01*
X14965Y114556D01*
X17425Y113135D01*
X20169Y112400D01*
X20320D01*
Y121920D01*
D02*
G37*
G36*
X158596Y116840D02*
X152400D01*
Y110644D01*
X154040Y111084D01*
X155760Y112077D01*
X157163Y113480D01*
X158156Y115200D01*
X158596Y116840D01*
D02*
G37*
G36*
X149860D02*
X143664D01*
X144104Y115200D01*
X145097Y113480D01*
X146500Y112077D01*
X148220Y111084D01*
X149860Y110644D01*
Y116840D01*
D02*
G37*
G36*
X480210Y108580D02*
X480060D01*
Y99060D01*
X489580D01*
Y99211D01*
X488845Y101955D01*
X487424Y104415D01*
X485415Y106424D01*
X482955Y107845D01*
X480210Y108580D01*
D02*
G37*
G36*
X23010D02*
X22860D01*
Y99060D01*
X32380D01*
Y99211D01*
X31645Y101955D01*
X30224Y104415D01*
X28215Y106424D01*
X25755Y107845D01*
X23010Y108580D01*
D02*
G37*
G36*
X477520D02*
X477369D01*
X474625Y107845D01*
X472165Y106424D01*
X470156Y104415D01*
X468735Y101955D01*
X468000Y99211D01*
Y99060D01*
X477520D01*
Y108580D01*
D02*
G37*
G36*
X20320D02*
X20169D01*
X17425Y107845D01*
X14965Y106424D01*
X12956Y104415D01*
X11535Y101955D01*
X10800Y99211D01*
Y99060D01*
X20320D01*
Y108580D01*
D02*
G37*
G36*
X454777Y108326D02*
X452003D01*
X449323Y107608D01*
X446921Y106221D01*
X444959Y104259D01*
X443572Y101857D01*
X442854Y99177D01*
Y96403D01*
X443572Y93723D01*
X444959Y91321D01*
X446921Y89359D01*
X449323Y87972D01*
X452003Y87254D01*
X454777D01*
X457457Y87972D01*
X459859Y89359D01*
X461821Y91321D01*
X463208Y93723D01*
X463926Y96403D01*
Y99177D01*
X463208Y101857D01*
X461821Y104259D01*
X459859Y106221D01*
X457457Y107608D01*
X454777Y108326D01*
D02*
G37*
G36*
X48377D02*
X45603D01*
X42923Y107608D01*
X40521Y106221D01*
X38559Y104259D01*
X37172Y101857D01*
X36454Y99177D01*
Y96403D01*
X37172Y93723D01*
X38559Y91321D01*
X40521Y89359D01*
X42923Y87972D01*
X45603Y87254D01*
X48377D01*
X51057Y87972D01*
X53459Y89359D01*
X55421Y91321D01*
X56808Y93723D01*
X57526Y96403D01*
Y99177D01*
X56808Y101857D01*
X55421Y104259D01*
X53459Y106221D01*
X51057Y107608D01*
X48377Y108326D01*
D02*
G37*
G36*
X489580Y96520D02*
X480060D01*
Y87000D01*
X480210D01*
X482955Y87735D01*
X485415Y89156D01*
X487424Y91165D01*
X488845Y93625D01*
X489580Y96369D01*
Y96520D01*
D02*
G37*
G36*
X477520D02*
X468000D01*
Y96369D01*
X468735Y93625D01*
X470156Y91165D01*
X472165Y89156D01*
X474625Y87735D01*
X477369Y87000D01*
X477520D01*
Y96520D01*
D02*
G37*
G36*
X32380D02*
X22860D01*
Y87000D01*
X23010D01*
X25755Y87735D01*
X28215Y89156D01*
X30224Y91165D01*
X31645Y93625D01*
X32380Y96369D01*
Y96520D01*
D02*
G37*
G36*
X20320D02*
X10800D01*
Y96369D01*
X11535Y93625D01*
X12956Y91165D01*
X14965Y89156D01*
X17425Y87735D01*
X20169Y87000D01*
X20320D01*
Y96520D01*
D02*
G37*
G36*
X480210Y83180D02*
X480060D01*
Y73660D01*
X489580D01*
Y73811D01*
X488845Y76555D01*
X487424Y79015D01*
X485415Y81024D01*
X482955Y82445D01*
X480210Y83180D01*
D02*
G37*
G36*
X23010D02*
X22860D01*
Y73660D01*
X32380D01*
Y73811D01*
X31645Y76555D01*
X30224Y79015D01*
X28215Y81024D01*
X25755Y82445D01*
X23010Y83180D01*
D02*
G37*
G36*
X477520D02*
X477369D01*
X474625Y82445D01*
X472165Y81024D01*
X470156Y79015D01*
X468735Y76555D01*
X468000Y73811D01*
Y73660D01*
X477520D01*
Y83180D01*
D02*
G37*
G36*
X20320D02*
X20169D01*
X17425Y82445D01*
X14965Y81024D01*
X12956Y79015D01*
X11535Y76555D01*
X10800Y73811D01*
Y73660D01*
X20320D01*
Y83180D01*
D02*
G37*
G36*
X454777Y82926D02*
X452003D01*
X449323Y82208D01*
X446921Y80821D01*
X444959Y78859D01*
X443572Y76457D01*
X442854Y73777D01*
Y71003D01*
X443572Y68323D01*
X444959Y65921D01*
X446921Y63959D01*
X449323Y62572D01*
X452003Y61854D01*
X454777D01*
X457457Y62572D01*
X459859Y63959D01*
X461821Y65921D01*
X463208Y68323D01*
X463926Y71003D01*
Y73777D01*
X463208Y76457D01*
X461821Y78859D01*
X459859Y80821D01*
X457457Y82208D01*
X454777Y82926D01*
D02*
G37*
G36*
X48377D02*
X45603D01*
X42923Y82208D01*
X40521Y80821D01*
X38559Y78859D01*
X37172Y76457D01*
X36454Y73777D01*
Y71003D01*
X37172Y68323D01*
X38559Y65921D01*
X40521Y63959D01*
X42923Y62572D01*
X45603Y61854D01*
X48377D01*
X51057Y62572D01*
X53459Y63959D01*
X55421Y65921D01*
X56808Y68323D01*
X57526Y71003D01*
Y73777D01*
X56808Y76457D01*
X55421Y78859D01*
X53459Y80821D01*
X51057Y82208D01*
X48377Y82926D01*
D02*
G37*
G36*
X489580Y71120D02*
X480060D01*
Y61600D01*
X480210D01*
X482955Y62335D01*
X485415Y63756D01*
X487424Y65765D01*
X488845Y68225D01*
X489580Y70970D01*
Y71120D01*
D02*
G37*
G36*
X477520D02*
X468000D01*
Y70970D01*
X468735Y68225D01*
X470156Y65765D01*
X472165Y63756D01*
X474625Y62335D01*
X477369Y61600D01*
X477520D01*
Y71120D01*
D02*
G37*
G36*
X32380D02*
X22860D01*
Y61600D01*
X23010D01*
X25755Y62335D01*
X28215Y63756D01*
X30224Y65765D01*
X31645Y68225D01*
X32380Y70970D01*
Y71120D01*
D02*
G37*
G36*
X20320D02*
X10800D01*
Y70970D01*
X11535Y68225D01*
X12956Y65765D01*
X14965Y63756D01*
X17425Y62335D01*
X20169Y61600D01*
X20320D01*
Y71120D01*
D02*
G37*
G36*
X480210Y57780D02*
X480060D01*
Y48260D01*
X489580D01*
Y48411D01*
X488845Y51155D01*
X487424Y53615D01*
X485415Y55624D01*
X482955Y57045D01*
X480210Y57780D01*
D02*
G37*
G36*
X454810D02*
X454660D01*
Y48260D01*
X464180D01*
Y48411D01*
X463445Y51155D01*
X462024Y53615D01*
X460015Y55624D01*
X457555Y57045D01*
X454810Y57780D01*
D02*
G37*
G36*
X48411D02*
X48260D01*
Y48260D01*
X57780D01*
Y48411D01*
X57045Y51155D01*
X55624Y53615D01*
X53615Y55624D01*
X51155Y57045D01*
X48411Y57780D01*
D02*
G37*
G36*
X23010D02*
X22860D01*
Y48260D01*
X32380D01*
Y48411D01*
X31645Y51155D01*
X30224Y53615D01*
X28215Y55624D01*
X25755Y57045D01*
X23010Y57780D01*
D02*
G37*
G36*
X477520D02*
X477369D01*
X474625Y57045D01*
X472165Y55624D01*
X470156Y53615D01*
X468735Y51155D01*
X468000Y48411D01*
Y48260D01*
X477520D01*
Y57780D01*
D02*
G37*
G36*
X45720D02*
X45570D01*
X42825Y57045D01*
X40365Y55624D01*
X38356Y53615D01*
X36935Y51155D01*
X36200Y48411D01*
Y48260D01*
X45720D01*
Y57780D01*
D02*
G37*
G36*
X20320D02*
X20169D01*
X17425Y57045D01*
X14965Y55624D01*
X12956Y53615D01*
X11535Y51155D01*
X10800Y48411D01*
Y48260D01*
X20320D01*
Y57780D01*
D02*
G37*
G36*
X452120D02*
X451969D01*
X449225Y57045D01*
X446765Y55624D01*
X444756Y53615D01*
X443335Y51155D01*
X442600Y48411D01*
Y48260D01*
X452120D01*
Y57780D01*
D02*
G37*
G36*
X253006Y47300D02*
X252730D01*
Y36830D01*
X263200D01*
Y37106D01*
X262400Y40092D01*
X260854Y42769D01*
X258668Y44954D01*
X255991Y46500D01*
X253006Y47300D01*
D02*
G37*
G36*
X250190D02*
X249914D01*
X246929Y46500D01*
X244251Y44954D01*
X242066Y42769D01*
X240520Y40092D01*
X239720Y37106D01*
Y36830D01*
X250190D01*
Y47300D01*
D02*
G37*
G36*
X489580Y45720D02*
X480060D01*
Y36200D01*
X480210D01*
X482955Y36935D01*
X485415Y38356D01*
X487424Y40365D01*
X488845Y42825D01*
X489580Y45570D01*
Y45720D01*
D02*
G37*
G36*
X477520D02*
X468000D01*
Y45570D01*
X468735Y42825D01*
X470156Y40365D01*
X472165Y38356D01*
X474625Y36935D01*
X477369Y36200D01*
X477520D01*
Y45720D01*
D02*
G37*
G36*
X464180D02*
X454660D01*
Y36200D01*
X454810D01*
X457555Y36935D01*
X460015Y38356D01*
X462024Y40365D01*
X463445Y42825D01*
X464180Y45570D01*
Y45720D01*
D02*
G37*
G36*
X452120D02*
X442600D01*
Y45570D01*
X443335Y42825D01*
X444756Y40365D01*
X446765Y38356D01*
X449225Y36935D01*
X451969Y36200D01*
X452120D01*
Y45720D01*
D02*
G37*
G36*
X57780D02*
X48260D01*
Y36200D01*
X48411D01*
X51155Y36935D01*
X53615Y38356D01*
X55624Y40365D01*
X57045Y42825D01*
X57780Y45570D01*
Y45720D01*
D02*
G37*
G36*
X45720D02*
X36200D01*
Y45570D01*
X36935Y42825D01*
X38356Y40365D01*
X40365Y38356D01*
X42825Y36935D01*
X45570Y36200D01*
X45720D01*
Y45720D01*
D02*
G37*
G36*
X32380D02*
X22860D01*
Y36200D01*
X23010D01*
X25755Y36935D01*
X28215Y38356D01*
X30224Y40365D01*
X31645Y42825D01*
X32380Y45570D01*
Y45720D01*
D02*
G37*
G36*
X20320D02*
X10800D01*
Y45570D01*
X11535Y42825D01*
X12956Y40365D01*
X14965Y38356D01*
X17425Y36935D01*
X20169Y36200D01*
X20320D01*
Y45720D01*
D02*
G37*
G36*
X125730Y31596D02*
Y25400D01*
X131926D01*
X131486Y27040D01*
X130493Y28760D01*
X129090Y30164D01*
X127370Y31156D01*
X125730Y31596D01*
D02*
G37*
G36*
X123190D02*
X121550Y31156D01*
X119830Y30164D01*
X118427Y28760D01*
X117434Y27040D01*
X116994Y25400D01*
X123190D01*
Y31596D01*
D02*
G37*
G36*
X187370Y30566D02*
Y24371D01*
X193565D01*
X193126Y26011D01*
X192133Y27730D01*
X190729Y29134D01*
X189010Y30127D01*
X187370Y30566D01*
D02*
G37*
G36*
X184830D02*
X183189Y30127D01*
X181470Y29134D01*
X180066Y27730D01*
X179074Y26011D01*
X178634Y24371D01*
X184830D01*
Y30566D01*
D02*
G37*
G36*
X156210Y30326D02*
Y24130D01*
X162406D01*
X161966Y25770D01*
X160973Y27490D01*
X159570Y28893D01*
X157850Y29886D01*
X156210Y30326D01*
D02*
G37*
G36*
X153670D02*
X152030Y29886D01*
X150310Y28893D01*
X148906Y27490D01*
X147914Y25770D01*
X147474Y24130D01*
X153670D01*
Y30326D01*
D02*
G37*
G36*
X278372Y47046D02*
X275348D01*
X272427Y46263D01*
X269807Y44751D01*
X267669Y42613D01*
X266157Y39993D01*
X265374Y37072D01*
Y34048D01*
X266157Y31127D01*
X267669Y28507D01*
X269807Y26369D01*
X272427Y24857D01*
X275348Y24074D01*
X278372D01*
X281293Y24857D01*
X283913Y26369D01*
X286051Y28507D01*
X287563Y31127D01*
X288346Y34048D01*
Y37072D01*
X287563Y39993D01*
X286051Y42613D01*
X283913Y44751D01*
X281293Y46263D01*
X278372Y47046D01*
D02*
G37*
G36*
X237546D02*
X214574D01*
Y24074D01*
X237546D01*
Y47046D01*
D02*
G37*
G36*
X263200Y34290D02*
X252730D01*
Y23820D01*
X253006D01*
X255991Y24620D01*
X258668Y26166D01*
X260854Y28352D01*
X262400Y31028D01*
X263200Y34014D01*
Y34290D01*
D02*
G37*
G36*
X250190D02*
X239720D01*
Y34014D01*
X240520Y31028D01*
X242066Y28352D01*
X244251Y26166D01*
X246929Y24620D01*
X249914Y23820D01*
X250190D01*
Y34290D01*
D02*
G37*
G36*
X131926Y22860D02*
X125730D01*
Y16664D01*
X127370Y17104D01*
X129090Y18096D01*
X130493Y19500D01*
X131486Y21220D01*
X131926Y22860D01*
D02*
G37*
G36*
X123190D02*
X116994D01*
X117434Y21220D01*
X118427Y19500D01*
X119830Y18096D01*
X121550Y17104D01*
X123190Y16664D01*
Y22860D01*
D02*
G37*
G36*
X193565Y21831D02*
X187370D01*
Y15635D01*
X189010Y16075D01*
X190729Y17067D01*
X192133Y18471D01*
X193126Y20190D01*
X193565Y21831D01*
D02*
G37*
G36*
X184830D02*
X178634D01*
X179074Y20190D01*
X180066Y18471D01*
X181470Y17067D01*
X183189Y16075D01*
X184830Y15635D01*
Y21831D01*
D02*
G37*
G36*
X162406Y21590D02*
X156210D01*
Y15394D01*
X157850Y15834D01*
X159570Y16826D01*
X160973Y18230D01*
X161966Y19950D01*
X162406Y21590D01*
D02*
G37*
G36*
X153670D02*
X147474D01*
X147914Y19950D01*
X148906Y18230D01*
X150310Y16826D01*
X152030Y15834D01*
X153670Y15394D01*
Y21590D01*
D02*
G37*
%LPD*%
D49*
X276860Y35560D02*
D03*
X251460D02*
D03*
D50*
X226060D02*
D03*
D53*
X343355Y454205D02*
X452575D01*
X342900Y454660D02*
X343355Y454205D01*
X452575D02*
X453390Y453390D01*
Y478790D01*
D56*
X221388Y353468D02*
X246604D01*
X205740Y337820D02*
X221388Y353468D01*
D58*
X271540Y458140D02*
D03*
X221540D02*
D03*
D59*
X478790Y46990D02*
D03*
Y72390D02*
D03*
X453390Y46990D02*
D03*
Y72390D02*
D03*
X478790Y123190D02*
D03*
X453390D02*
D03*
X478790Y173990D02*
D03*
X453390D02*
D03*
X478790Y250190D02*
D03*
X453390D02*
D03*
X478790Y300990D02*
D03*
X453390D02*
D03*
X478790Y351790D02*
D03*
X453390D02*
D03*
X478790Y377190D02*
D03*
X453390D02*
D03*
X478790Y453390D02*
D03*
X453390D02*
D03*
X478790Y478790D02*
D03*
X453390Y427990D02*
D03*
X478790D02*
D03*
X453390Y402590D02*
D03*
X478790D02*
D03*
X453390Y326390D02*
D03*
X478790D02*
D03*
X453390Y275590D02*
D03*
X478790D02*
D03*
X453390Y224790D02*
D03*
X478790D02*
D03*
X453390Y199390D02*
D03*
X478790D02*
D03*
X453390Y148590D02*
D03*
X478790D02*
D03*
X453390Y97790D02*
D03*
X478790D02*
D03*
X46990Y46990D02*
D03*
Y72390D02*
D03*
X21590Y46990D02*
D03*
Y72390D02*
D03*
X46990Y123190D02*
D03*
X21590D02*
D03*
X46990Y173990D02*
D03*
X21590D02*
D03*
X46990Y250190D02*
D03*
X21590D02*
D03*
X46990Y300990D02*
D03*
X21590D02*
D03*
X46990Y351790D02*
D03*
X21590D02*
D03*
X46990Y377190D02*
D03*
X21590D02*
D03*
X46990Y453390D02*
D03*
X21590D02*
D03*
X46990Y478790D02*
D03*
X21590Y427990D02*
D03*
X46990D02*
D03*
X21590Y402590D02*
D03*
X46990D02*
D03*
X21590Y326390D02*
D03*
X46990D02*
D03*
X21590Y275590D02*
D03*
X46990D02*
D03*
X21590Y224790D02*
D03*
X46990D02*
D03*
X21590Y199390D02*
D03*
X46990D02*
D03*
X21590Y148590D02*
D03*
X46990D02*
D03*
X21590Y97790D02*
D03*
X46990D02*
D03*
D60*
X453390Y478790D02*
D03*
X21590D02*
D03*
D61*
X342900Y454660D02*
D03*
X246604Y353468D02*
D03*
X205740Y337820D02*
D03*
X419100Y485140D02*
D03*
X151130Y118110D02*
D03*
X152516Y370223D02*
D03*
X388620Y398780D02*
D03*
X357565Y398845D02*
D03*
X326390Y400050D02*
D03*
X295797Y400727D02*
D03*
X398780Y270510D02*
D03*
X327660Y217170D02*
D03*
X360812Y182448D02*
D03*
X379730Y140970D02*
D03*
X186100Y23101D02*
D03*
X154940Y22860D02*
D03*
X124460Y24130D02*
D03*
X107950Y233680D02*
D03*
Y265430D02*
D03*
X107096Y296326D02*
D03*
M02*
