G04*
G04 #@! TF.GenerationSoftware,Altium Limited,Altium Designer,23.2.1 (34)*
G04*
G04 Layer_Color=16711935*
%FSLAX44Y44*%
%MOMM*%
G71*
G04*
G04 #@! TF.SameCoordinates,E8D5E090-FEBE-4B84-8277-266302A2B947*
G04*
G04*
G04 #@! TF.FilePolarity,Positive*
G04*
G01*
G75*
%ADD11C,0.2000*%
G36*
X224431Y353970D02*
X114449D01*
Y425090D01*
X224431D01*
Y353970D01*
D02*
G37*
G36*
X290990Y250830D02*
X202090D01*
Y339730D01*
X290990D01*
Y250830D01*
D02*
G37*
G36*
X364379Y460670D02*
X364370D01*
X364333D01*
X364277D01*
X364203Y460679D01*
X364120Y460688D01*
X364028Y460706D01*
X363935Y460725D01*
X363834Y460762D01*
X363824D01*
X363815Y460771D01*
X363760Y460790D01*
X363676Y460827D01*
X363565Y460882D01*
X363436Y460956D01*
X363288Y461049D01*
X363140Y461150D01*
X362983Y461280D01*
X362974D01*
X362965Y461298D01*
X362909Y461344D01*
X362826Y461428D01*
X362706Y461548D01*
X362567Y461687D01*
X362401Y461862D01*
X362216Y462075D01*
X362021Y462306D01*
X362012Y462315D01*
X361984Y462352D01*
X361938Y462408D01*
X361883Y462472D01*
X361809Y462556D01*
X361726Y462657D01*
X361633Y462759D01*
X361531Y462879D01*
X361310Y463110D01*
X361088Y463341D01*
X360977Y463452D01*
X360866Y463554D01*
X360764Y463647D01*
X360662Y463721D01*
X360653D01*
X360644Y463739D01*
X360616Y463758D01*
X360579Y463776D01*
X360477Y463841D01*
X360357Y463915D01*
X360209Y463979D01*
X360052Y464044D01*
X359877Y464081D01*
X359710Y464100D01*
X359701D01*
X359692D01*
X359636Y464090D01*
X359544Y464081D01*
X359442Y464053D01*
X359313Y464016D01*
X359183Y463952D01*
X359054Y463868D01*
X358924Y463758D01*
X358906Y463739D01*
X358869Y463693D01*
X358823Y463628D01*
X358758Y463526D01*
X358702Y463397D01*
X358647Y463249D01*
X358610Y463073D01*
X358601Y462879D01*
Y462824D01*
X358610Y462787D01*
X358619Y462676D01*
X358647Y462546D01*
X358684Y462408D01*
X358749Y462251D01*
X358832Y462103D01*
X358943Y461964D01*
X358961Y461945D01*
X359007Y461908D01*
X359081Y461853D01*
X359192Y461797D01*
X359322Y461733D01*
X359488Y461677D01*
X359673Y461640D01*
X359886Y461622D01*
X359803Y460817D01*
X359793D01*
X359766Y460827D01*
X359719D01*
X359655Y460836D01*
X359581Y460854D01*
X359497Y460873D01*
X359396Y460901D01*
X359294Y460928D01*
X359072Y461002D01*
X358850Y461113D01*
X358739Y461178D01*
X358628Y461261D01*
X358527Y461344D01*
X358434Y461437D01*
X358425Y461446D01*
X358416Y461465D01*
X358388Y461492D01*
X358360Y461539D01*
X358323Y461594D01*
X358286Y461659D01*
X358240Y461733D01*
X358194Y461825D01*
X358148Y461927D01*
X358101Y462038D01*
X358064Y462158D01*
X358027Y462287D01*
X358000Y462426D01*
X357972Y462574D01*
X357963Y462731D01*
X357953Y462898D01*
Y462990D01*
X357963Y463055D01*
X357972Y463129D01*
X357981Y463221D01*
X358000Y463323D01*
X358018Y463425D01*
X358083Y463665D01*
X358175Y463905D01*
X358231Y464026D01*
X358296Y464146D01*
X358379Y464257D01*
X358471Y464358D01*
X358480Y464368D01*
X358490Y464386D01*
X358527Y464405D01*
X358564Y464442D01*
X358610Y464488D01*
X358675Y464534D01*
X358739Y464580D01*
X358823Y464636D01*
X358998Y464728D01*
X359220Y464821D01*
X359331Y464858D01*
X359460Y464876D01*
X359590Y464895D01*
X359729Y464904D01*
X359747D01*
X359793D01*
X359867Y464895D01*
X359969Y464885D01*
X360080Y464867D01*
X360209Y464830D01*
X360348Y464793D01*
X360487Y464738D01*
X360505Y464728D01*
X360551Y464710D01*
X360625Y464673D01*
X360727Y464617D01*
X360838Y464543D01*
X360977Y464451D01*
X361115Y464340D01*
X361273Y464211D01*
X361291Y464192D01*
X361347Y464146D01*
X361393Y464100D01*
X361439Y464053D01*
X361494Y463998D01*
X361568Y463924D01*
X361642Y463850D01*
X361726Y463758D01*
X361818Y463665D01*
X361920Y463554D01*
X362021Y463434D01*
X362142Y463304D01*
X362262Y463157D01*
X362391Y463009D01*
X362401Y462999D01*
X362419Y462981D01*
X362447Y462944D01*
X362484Y462898D01*
X362539Y462842D01*
X362595Y462777D01*
X362715Y462630D01*
X362854Y462472D01*
X362992Y462324D01*
X363112Y462195D01*
X363159Y462140D01*
X363205Y462093D01*
X363214Y462084D01*
X363242Y462056D01*
X363279Y462019D01*
X363334Y461973D01*
X363399Y461927D01*
X363464Y461871D01*
X363621Y461760D01*
Y464913D01*
X364379D01*
Y460670D01*
D02*
G37*
G36*
X361920Y459680D02*
X362012D01*
X362123Y459671D01*
X362234Y459662D01*
X362484Y459634D01*
X362743Y459597D01*
X362992Y459542D01*
X363112Y459505D01*
X363223Y459468D01*
X363233D01*
X363251Y459458D01*
X363279Y459440D01*
X363316Y459421D01*
X363418Y459366D01*
X363547Y459283D01*
X363695Y459172D01*
X363843Y459042D01*
X364000Y458876D01*
X364139Y458672D01*
Y458663D01*
X364157Y458645D01*
X364166Y458617D01*
X364194Y458571D01*
X364222Y458515D01*
X364250Y458441D01*
X364277Y458367D01*
X364314Y458275D01*
X364351Y458173D01*
X364379Y458062D01*
X364407Y457942D01*
X364435Y457803D01*
X364453Y457665D01*
X364472Y457517D01*
X364490Y457184D01*
Y457101D01*
X364481Y457036D01*
Y456962D01*
X364472Y456870D01*
X364462Y456768D01*
X364453Y456666D01*
X364416Y456435D01*
X364361Y456185D01*
X364287Y455945D01*
X364185Y455714D01*
Y455705D01*
X364166Y455686D01*
X364148Y455658D01*
X364129Y455621D01*
X364056Y455520D01*
X363954Y455400D01*
X363824Y455261D01*
X363676Y455131D01*
X363492Y455002D01*
X363288Y454900D01*
X363279D01*
X363260Y454891D01*
X363223Y454882D01*
X363177Y454863D01*
X363122Y454845D01*
X363048Y454826D01*
X362965Y454799D01*
X362863Y454780D01*
X362752Y454762D01*
X362632Y454734D01*
X362502Y454715D01*
X362364Y454697D01*
X362206Y454678D01*
X362040Y454669D01*
X361864Y454660D01*
X361679D01*
X357981D01*
Y455510D01*
X361679D01*
X361689D01*
X361716D01*
X361763D01*
X361818D01*
X361883Y455520D01*
X361966D01*
X362142Y455529D01*
X362345Y455547D01*
X362548Y455575D01*
X362743Y455612D01*
X362826Y455631D01*
X362909Y455658D01*
X362928Y455668D01*
X362974Y455686D01*
X363038Y455732D01*
X363131Y455788D01*
X363223Y455853D01*
X363325Y455945D01*
X363427Y456056D01*
X363510Y456185D01*
X363519Y456204D01*
X363547Y456250D01*
X363575Y456333D01*
X363612Y456444D01*
X363658Y456574D01*
X363686Y456740D01*
X363713Y456916D01*
X363723Y457110D01*
Y457202D01*
X363713Y457258D01*
Y457341D01*
X363704Y457424D01*
X363667Y457628D01*
X363621Y457850D01*
X363547Y458062D01*
X363445Y458266D01*
X363381Y458358D01*
X363307Y458441D01*
X363297Y458451D01*
X363288Y458460D01*
X363260Y458478D01*
X363223Y458506D01*
X363168Y458534D01*
X363112Y458571D01*
X363029Y458608D01*
X362946Y458645D01*
X362844Y458682D01*
X362724Y458709D01*
X362585Y458746D01*
X362438Y458774D01*
X362271Y458802D01*
X362095Y458820D01*
X361892Y458839D01*
X361679D01*
X357981D01*
Y459689D01*
X361679D01*
X361689D01*
X361726D01*
X361772D01*
X361837D01*
X361920Y459680D01*
D02*
G37*
G36*
X374147Y38995D02*
X374212D01*
X374387Y38977D01*
X374581Y38949D01*
X374785Y38903D01*
X375007Y38847D01*
X375210Y38774D01*
X375219D01*
X375238Y38764D01*
X375266Y38746D01*
X375303Y38727D01*
X375395Y38681D01*
X375515Y38598D01*
X375654Y38505D01*
X375793Y38385D01*
X375922Y38247D01*
X376042Y38089D01*
Y38080D01*
X376051Y38071D01*
X376070Y38043D01*
X376088Y38015D01*
X376135Y37923D01*
X376190Y37803D01*
X376255Y37655D01*
X376301Y37479D01*
X376347Y37294D01*
X376366Y37091D01*
X375552Y37026D01*
Y37035D01*
Y37054D01*
X375543Y37082D01*
X375534Y37128D01*
X375506Y37230D01*
X375469Y37368D01*
X375414Y37516D01*
X375330Y37664D01*
X375229Y37803D01*
X375099Y37932D01*
X375081Y37942D01*
X375034Y37978D01*
X374942Y38034D01*
X374822Y38089D01*
X374665Y38145D01*
X374480Y38200D01*
X374249Y38237D01*
X373990Y38247D01*
X373860D01*
X373805Y38237D01*
X373731Y38228D01*
X373564Y38210D01*
X373380Y38173D01*
X373195Y38126D01*
X373019Y38052D01*
X372945Y38006D01*
X372871Y37960D01*
X372853Y37951D01*
X372816Y37914D01*
X372760Y37849D01*
X372705Y37775D01*
X372640Y37673D01*
X372584Y37562D01*
X372547Y37433D01*
X372529Y37285D01*
Y37266D01*
Y37230D01*
X372538Y37165D01*
X372557Y37091D01*
X372584Y36998D01*
X372631Y36906D01*
X372686Y36813D01*
X372769Y36721D01*
X372779Y36712D01*
X372825Y36684D01*
X372862Y36656D01*
X372899Y36638D01*
X372954Y36610D01*
X373019Y36573D01*
X373102Y36545D01*
X373195Y36508D01*
X373296Y36471D01*
X373416Y36425D01*
X373546Y36388D01*
X373694Y36342D01*
X373860Y36305D01*
X374045Y36259D01*
X374054D01*
X374091Y36249D01*
X374147Y36240D01*
X374212Y36222D01*
X374295Y36203D01*
X374397Y36176D01*
X374498Y36148D01*
X374609Y36120D01*
X374850Y36055D01*
X375081Y35991D01*
X375192Y35954D01*
X375293Y35917D01*
X375386Y35889D01*
X375460Y35852D01*
X375469D01*
X375488Y35843D01*
X375515Y35824D01*
X375552Y35806D01*
X375654Y35750D01*
X375774Y35676D01*
X375913Y35575D01*
X376051Y35464D01*
X376181Y35334D01*
X376292Y35196D01*
X376301Y35177D01*
X376338Y35131D01*
X376375Y35048D01*
X376431Y34937D01*
X376477Y34807D01*
X376523Y34650D01*
X376551Y34474D01*
X376560Y34290D01*
Y34280D01*
Y34271D01*
Y34243D01*
Y34206D01*
X376541Y34105D01*
X376523Y33975D01*
X376486Y33827D01*
X376440Y33670D01*
X376366Y33504D01*
X376264Y33328D01*
Y33319D01*
X376255Y33309D01*
X376209Y33254D01*
X376144Y33171D01*
X376051Y33078D01*
X375931Y32967D01*
X375783Y32847D01*
X375617Y32736D01*
X375423Y32634D01*
X375414D01*
X375395Y32625D01*
X375367Y32616D01*
X375330Y32597D01*
X375275Y32579D01*
X375210Y32551D01*
X375062Y32514D01*
X374887Y32468D01*
X374674Y32422D01*
X374443Y32394D01*
X374193Y32385D01*
X374045D01*
X373971Y32394D01*
X373888D01*
X373796Y32403D01*
X373685Y32413D01*
X373453Y32450D01*
X373213Y32487D01*
X372973Y32551D01*
X372742Y32634D01*
X372732D01*
X372714Y32644D01*
X372686Y32662D01*
X372649Y32681D01*
X372538Y32736D01*
X372409Y32819D01*
X372261Y32930D01*
X372104Y33060D01*
X371956Y33217D01*
X371817Y33393D01*
Y33402D01*
X371799Y33420D01*
X371789Y33448D01*
X371762Y33485D01*
X371743Y33531D01*
X371715Y33587D01*
X371651Y33726D01*
X371586Y33901D01*
X371530Y34095D01*
X371493Y34317D01*
X371475Y34548D01*
X372270Y34622D01*
Y34613D01*
Y34604D01*
X372279Y34576D01*
Y34539D01*
X372298Y34456D01*
X372326Y34336D01*
X372363Y34216D01*
X372399Y34077D01*
X372464Y33947D01*
X372529Y33827D01*
X372538Y33818D01*
X372566Y33781D01*
X372612Y33716D01*
X372686Y33651D01*
X372779Y33568D01*
X372880Y33485D01*
X373019Y33402D01*
X373167Y33328D01*
X373176D01*
X373185Y33319D01*
X373213Y33309D01*
X373241Y33300D01*
X373333Y33273D01*
X373453Y33235D01*
X373601Y33198D01*
X373768Y33171D01*
X373953Y33152D01*
X374156Y33143D01*
X374239D01*
X374332Y33152D01*
X374443Y33161D01*
X374572Y33180D01*
X374720Y33198D01*
X374868Y33235D01*
X375007Y33282D01*
X375025Y33291D01*
X375071Y33309D01*
X375136Y33346D01*
X375219Y33383D01*
X375303Y33448D01*
X375395Y33513D01*
X375488Y33587D01*
X375561Y33679D01*
X375571Y33688D01*
X375589Y33726D01*
X375617Y33772D01*
X375654Y33846D01*
X375691Y33920D01*
X375719Y34012D01*
X375737Y34114D01*
X375746Y34225D01*
Y34234D01*
Y34280D01*
X375737Y34336D01*
X375728Y34410D01*
X375700Y34484D01*
X375672Y34576D01*
X375626Y34669D01*
X375561Y34752D01*
X375552Y34761D01*
X375524Y34789D01*
X375488Y34826D01*
X375423Y34881D01*
X375349Y34937D01*
X375247Y35001D01*
X375127Y35066D01*
X374988Y35122D01*
X374979Y35131D01*
X374933Y35140D01*
X374859Y35168D01*
X374813Y35177D01*
X374748Y35196D01*
X374683Y35223D01*
X374600Y35242D01*
X374507Y35269D01*
X374397Y35297D01*
X374286Y35325D01*
X374156Y35362D01*
X374008Y35399D01*
X373851Y35436D01*
X373842D01*
X373814Y35445D01*
X373768Y35454D01*
X373712Y35473D01*
X373638Y35491D01*
X373555Y35510D01*
X373370Y35565D01*
X373167Y35630D01*
X372954Y35695D01*
X372769Y35759D01*
X372686Y35796D01*
X372612Y35833D01*
X372603D01*
X372594Y35843D01*
X372538Y35880D01*
X372455Y35926D01*
X372363Y36000D01*
X372252Y36083D01*
X372141Y36185D01*
X372030Y36305D01*
X371937Y36434D01*
X371928Y36453D01*
X371900Y36499D01*
X371863Y36573D01*
X371826Y36666D01*
X371789Y36786D01*
X371752Y36925D01*
X371725Y37072D01*
X371715Y37230D01*
Y37239D01*
Y37248D01*
Y37276D01*
Y37313D01*
X371734Y37405D01*
X371752Y37525D01*
X371780Y37664D01*
X371826Y37821D01*
X371891Y37978D01*
X371983Y38136D01*
Y38145D01*
X371993Y38154D01*
X372039Y38210D01*
X372104Y38284D01*
X372187Y38376D01*
X372298Y38478D01*
X372436Y38589D01*
X372603Y38690D01*
X372788Y38783D01*
X372797D01*
X372816Y38792D01*
X372843Y38801D01*
X372880Y38820D01*
X372926Y38838D01*
X372991Y38857D01*
X373130Y38894D01*
X373306Y38931D01*
X373509Y38968D01*
X373722Y38995D01*
X373962Y39005D01*
X374082D01*
X374147Y38995D01*
D02*
G37*
G36*
X383614Y32496D02*
X382782D01*
X381442Y37368D01*
Y37378D01*
X381432Y37396D01*
X381423Y37424D01*
X381414Y37470D01*
X381386Y37572D01*
X381358Y37692D01*
X381321Y37821D01*
X381284Y37942D01*
X381257Y38043D01*
X381247Y38089D01*
X381238Y38117D01*
Y38108D01*
X381229Y38099D01*
X381220Y38043D01*
X381201Y37960D01*
X381174Y37858D01*
X381146Y37747D01*
X381109Y37618D01*
X381081Y37488D01*
X381044Y37368D01*
X379694Y32496D01*
X378807D01*
X377133Y38894D01*
X378012D01*
X378964Y34696D01*
Y34687D01*
X378973Y34669D01*
X378982Y34632D01*
X378992Y34585D01*
X379001Y34521D01*
X379019Y34456D01*
X379038Y34373D01*
X379056Y34280D01*
X379103Y34086D01*
X379149Y33864D01*
X379195Y33624D01*
X379241Y33383D01*
Y33393D01*
X379250Y33430D01*
X379269Y33476D01*
X379278Y33550D01*
X379297Y33624D01*
X379324Y33716D01*
X379371Y33920D01*
X379426Y34123D01*
X379445Y34225D01*
X379472Y34317D01*
X379491Y34400D01*
X379509Y34474D01*
X379528Y34530D01*
X379537Y34567D01*
X380748Y38894D01*
X381774D01*
X382681Y35649D01*
Y35639D01*
X382699Y35593D01*
X382718Y35528D01*
X382736Y35445D01*
X382764Y35334D01*
X382801Y35214D01*
X382838Y35075D01*
X382875Y34918D01*
X382921Y34743D01*
X382958Y34567D01*
X383041Y34188D01*
X383124Y33790D01*
X383189Y33383D01*
Y33393D01*
X383198Y33411D01*
Y33448D01*
X383217Y33494D01*
X383226Y33550D01*
X383245Y33614D01*
X383254Y33698D01*
X383282Y33790D01*
X383328Y33994D01*
X383383Y34234D01*
X383439Y34493D01*
X383513Y34780D01*
X384511Y38894D01*
X385371D01*
X383614Y32496D01*
D02*
G37*
G36*
X388117Y38912D02*
X388191Y38903D01*
X388283Y38894D01*
X388385Y38875D01*
X388487Y38857D01*
X388727Y38792D01*
X388968Y38700D01*
X389088Y38644D01*
X389208Y38579D01*
X389319Y38496D01*
X389421Y38404D01*
X389430Y38394D01*
X389448Y38385D01*
X389467Y38348D01*
X389504Y38311D01*
X389550Y38265D01*
X389596Y38200D01*
X389642Y38136D01*
X389698Y38052D01*
X389790Y37877D01*
X389883Y37655D01*
X389920Y37544D01*
X389938Y37415D01*
X389957Y37285D01*
X389966Y37146D01*
Y37128D01*
Y37082D01*
X389957Y37008D01*
X389948Y36906D01*
X389929Y36795D01*
X389892Y36666D01*
X389855Y36527D01*
X389800Y36388D01*
X389790Y36370D01*
X389772Y36323D01*
X389735Y36249D01*
X389679Y36148D01*
X389605Y36037D01*
X389513Y35898D01*
X389402Y35759D01*
X389273Y35602D01*
X389254Y35584D01*
X389208Y35528D01*
X389162Y35482D01*
X389115Y35436D01*
X389060Y35380D01*
X388986Y35306D01*
X388912Y35233D01*
X388820Y35149D01*
X388727Y35057D01*
X388616Y34955D01*
X388496Y34853D01*
X388367Y34733D01*
X388219Y34613D01*
X388071Y34484D01*
X388061Y34474D01*
X388043Y34456D01*
X388006Y34428D01*
X387960Y34391D01*
X387904Y34336D01*
X387840Y34280D01*
X387692Y34160D01*
X387534Y34021D01*
X387387Y33883D01*
X387257Y33763D01*
X387202Y33716D01*
X387155Y33670D01*
X387146Y33661D01*
X387118Y33633D01*
X387081Y33596D01*
X387035Y33541D01*
X386989Y33476D01*
X386934Y33411D01*
X386823Y33254D01*
X389975D01*
Y32496D01*
X385732D01*
Y32505D01*
Y32542D01*
Y32597D01*
X385741Y32671D01*
X385750Y32755D01*
X385769Y32847D01*
X385787Y32940D01*
X385824Y33041D01*
Y33051D01*
X385833Y33060D01*
X385852Y33115D01*
X385889Y33198D01*
X385944Y33309D01*
X386018Y33439D01*
X386111Y33587D01*
X386212Y33735D01*
X386342Y33892D01*
Y33901D01*
X386360Y33910D01*
X386407Y33966D01*
X386490Y34049D01*
X386610Y34169D01*
X386749Y34308D01*
X386924Y34474D01*
X387137Y34659D01*
X387368Y34853D01*
X387377Y34863D01*
X387414Y34890D01*
X387470Y34937D01*
X387534Y34992D01*
X387618Y35066D01*
X387719Y35149D01*
X387821Y35242D01*
X387941Y35343D01*
X388172Y35565D01*
X388404Y35787D01*
X388515Y35898D01*
X388616Y36009D01*
X388709Y36111D01*
X388783Y36213D01*
Y36222D01*
X388801Y36231D01*
X388820Y36259D01*
X388838Y36296D01*
X388903Y36398D01*
X388977Y36518D01*
X389041Y36666D01*
X389106Y36823D01*
X389143Y36998D01*
X389162Y37165D01*
Y37174D01*
Y37183D01*
X389152Y37239D01*
X389143Y37331D01*
X389115Y37433D01*
X389078Y37562D01*
X389014Y37692D01*
X388931Y37821D01*
X388820Y37951D01*
X388801Y37969D01*
X388755Y38006D01*
X388690Y38052D01*
X388588Y38117D01*
X388459Y38173D01*
X388311Y38228D01*
X388135Y38265D01*
X387941Y38274D01*
X387886D01*
X387849Y38265D01*
X387738Y38256D01*
X387608Y38228D01*
X387470Y38191D01*
X387313Y38126D01*
X387165Y38043D01*
X387026Y37932D01*
X387007Y37914D01*
X386970Y37868D01*
X386915Y37794D01*
X386860Y37683D01*
X386795Y37553D01*
X386739Y37387D01*
X386702Y37202D01*
X386684Y36989D01*
X385880Y37072D01*
Y37082D01*
X385889Y37109D01*
Y37156D01*
X385898Y37220D01*
X385916Y37294D01*
X385935Y37378D01*
X385963Y37479D01*
X385990Y37581D01*
X386064Y37803D01*
X386175Y38025D01*
X386240Y38136D01*
X386323Y38247D01*
X386407Y38348D01*
X386499Y38441D01*
X386508Y38450D01*
X386527Y38459D01*
X386554Y38487D01*
X386601Y38515D01*
X386656Y38552D01*
X386721Y38589D01*
X386795Y38635D01*
X386887Y38681D01*
X386989Y38727D01*
X387100Y38774D01*
X387220Y38811D01*
X387350Y38847D01*
X387488Y38875D01*
X387636Y38903D01*
X387793Y38912D01*
X387960Y38921D01*
X388052D01*
X388117Y38912D01*
D02*
G37*
G36*
X149904Y463541D02*
X149987D01*
X150079Y463532D01*
X150190Y463522D01*
X150422Y463485D01*
X150662Y463448D01*
X150902Y463384D01*
X151133Y463300D01*
X151143D01*
X151161Y463291D01*
X151189Y463273D01*
X151226Y463254D01*
X151337Y463199D01*
X151466Y463116D01*
X151614Y463005D01*
X151771Y462875D01*
X151919Y462718D01*
X152058Y462542D01*
Y462533D01*
X152077Y462515D01*
X152086Y462487D01*
X152114Y462450D01*
X152132Y462404D01*
X152160Y462348D01*
X152225Y462210D01*
X152289Y462034D01*
X152345Y461840D01*
X152382Y461618D01*
X152400Y461387D01*
X151605Y461313D01*
Y461322D01*
Y461331D01*
X151596Y461359D01*
Y461396D01*
X151577Y461479D01*
X151550Y461599D01*
X151512Y461719D01*
X151476Y461858D01*
X151411Y461988D01*
X151346Y462108D01*
X151337Y462117D01*
X151309Y462154D01*
X151263Y462219D01*
X151189Y462283D01*
X151096Y462367D01*
X150995Y462450D01*
X150856Y462533D01*
X150708Y462607D01*
X150699D01*
X150690Y462616D01*
X150662Y462626D01*
X150634Y462635D01*
X150542Y462663D01*
X150422Y462700D01*
X150274Y462737D01*
X150107Y462764D01*
X149922Y462783D01*
X149719Y462792D01*
X149636D01*
X149543Y462783D01*
X149432Y462773D01*
X149303Y462755D01*
X149155Y462737D01*
X149007Y462700D01*
X148868Y462653D01*
X148850Y462644D01*
X148804Y462626D01*
X148739Y462589D01*
X148656Y462552D01*
X148572Y462487D01*
X148480Y462422D01*
X148387Y462348D01*
X148314Y462256D01*
X148304Y462246D01*
X148286Y462210D01*
X148258Y462163D01*
X148221Y462089D01*
X148184Y462015D01*
X148156Y461923D01*
X148138Y461821D01*
X148129Y461710D01*
Y461701D01*
Y461655D01*
X148138Y461599D01*
X148147Y461525D01*
X148175Y461451D01*
X148203Y461359D01*
X148249Y461266D01*
X148314Y461183D01*
X148323Y461174D01*
X148351Y461146D01*
X148387Y461109D01*
X148452Y461054D01*
X148526Y460998D01*
X148628Y460934D01*
X148748Y460869D01*
X148887Y460813D01*
X148896Y460804D01*
X148942Y460795D01*
X149016Y460767D01*
X149062Y460758D01*
X149127Y460739D01*
X149192Y460712D01*
X149275Y460693D01*
X149368Y460665D01*
X149479Y460638D01*
X149590Y460610D01*
X149719Y460573D01*
X149867Y460536D01*
X150024Y460499D01*
X150033D01*
X150061Y460490D01*
X150107Y460480D01*
X150163Y460462D01*
X150237Y460444D01*
X150320Y460425D01*
X150505Y460370D01*
X150708Y460305D01*
X150921Y460240D01*
X151106Y460175D01*
X151189Y460138D01*
X151263Y460102D01*
X151272D01*
X151281Y460092D01*
X151337Y460055D01*
X151420Y460009D01*
X151512Y459935D01*
X151623Y459852D01*
X151734Y459750D01*
X151845Y459630D01*
X151938Y459501D01*
X151947Y459482D01*
X151975Y459436D01*
X152012Y459362D01*
X152049Y459269D01*
X152086Y459149D01*
X152123Y459011D01*
X152150Y458863D01*
X152160Y458705D01*
Y458696D01*
Y458687D01*
Y458659D01*
Y458622D01*
X152141Y458530D01*
X152123Y458410D01*
X152095Y458271D01*
X152049Y458114D01*
X151984Y457957D01*
X151892Y457799D01*
Y457790D01*
X151882Y457781D01*
X151836Y457725D01*
X151771Y457651D01*
X151688Y457559D01*
X151577Y457457D01*
X151439Y457346D01*
X151272Y457245D01*
X151087Y457152D01*
X151078D01*
X151060Y457143D01*
X151032Y457134D01*
X150995Y457115D01*
X150949Y457097D01*
X150884Y457078D01*
X150745Y457041D01*
X150569Y457004D01*
X150366Y456967D01*
X150153Y456940D01*
X149913Y456930D01*
X149793D01*
X149728Y456940D01*
X149663D01*
X149488Y456958D01*
X149294Y456986D01*
X149090Y457032D01*
X148868Y457087D01*
X148665Y457161D01*
X148656D01*
X148637Y457171D01*
X148609Y457189D01*
X148572Y457208D01*
X148480Y457254D01*
X148360Y457337D01*
X148221Y457430D01*
X148082Y457550D01*
X147953Y457688D01*
X147833Y457845D01*
Y457855D01*
X147824Y457864D01*
X147805Y457892D01*
X147787Y457920D01*
X147740Y458012D01*
X147685Y458132D01*
X147620Y458280D01*
X147574Y458456D01*
X147528Y458641D01*
X147509Y458844D01*
X148323Y458909D01*
Y458899D01*
Y458881D01*
X148332Y458853D01*
X148341Y458807D01*
X148369Y458705D01*
X148406Y458567D01*
X148462Y458419D01*
X148545Y458271D01*
X148646Y458132D01*
X148776Y458003D01*
X148794Y457994D01*
X148841Y457957D01*
X148933Y457901D01*
X149053Y457845D01*
X149210Y457790D01*
X149395Y457735D01*
X149626Y457698D01*
X149885Y457688D01*
X150015D01*
X150070Y457698D01*
X150144Y457707D01*
X150311Y457725D01*
X150496Y457762D01*
X150680Y457809D01*
X150856Y457882D01*
X150930Y457929D01*
X151004Y457975D01*
X151023Y457984D01*
X151060Y458021D01*
X151115Y458086D01*
X151171Y458160D01*
X151235Y458262D01*
X151291Y458372D01*
X151328Y458502D01*
X151346Y458650D01*
Y458668D01*
Y458705D01*
X151337Y458770D01*
X151318Y458844D01*
X151291Y458937D01*
X151244Y459029D01*
X151189Y459121D01*
X151106Y459214D01*
X151096Y459223D01*
X151050Y459251D01*
X151013Y459279D01*
X150976Y459297D01*
X150921Y459325D01*
X150856Y459362D01*
X150773Y459390D01*
X150680Y459426D01*
X150579Y459464D01*
X150459Y459510D01*
X150329Y459547D01*
X150181Y459593D01*
X150015Y459630D01*
X149830Y459676D01*
X149821D01*
X149784Y459685D01*
X149728Y459695D01*
X149663Y459713D01*
X149580Y459732D01*
X149479Y459759D01*
X149377Y459787D01*
X149266Y459815D01*
X149025Y459880D01*
X148794Y459944D01*
X148683Y459981D01*
X148582Y460018D01*
X148489Y460046D01*
X148415Y460083D01*
X148406D01*
X148387Y460092D01*
X148360Y460111D01*
X148323Y460129D01*
X148221Y460185D01*
X148101Y460259D01*
X147962Y460360D01*
X147824Y460471D01*
X147694Y460601D01*
X147583Y460739D01*
X147574Y460758D01*
X147537Y460804D01*
X147500Y460887D01*
X147444Y460998D01*
X147398Y461128D01*
X147352Y461285D01*
X147324Y461461D01*
X147315Y461646D01*
Y461655D01*
Y461664D01*
Y461692D01*
Y461729D01*
X147333Y461830D01*
X147352Y461960D01*
X147389Y462108D01*
X147435Y462265D01*
X147509Y462431D01*
X147611Y462607D01*
Y462616D01*
X147620Y462626D01*
X147666Y462681D01*
X147731Y462764D01*
X147824Y462857D01*
X147944Y462968D01*
X148092Y463088D01*
X148258Y463199D01*
X148452Y463300D01*
X148462D01*
X148480Y463310D01*
X148508Y463319D01*
X148545Y463337D01*
X148600Y463356D01*
X148665Y463384D01*
X148813Y463421D01*
X148989Y463467D01*
X149201Y463513D01*
X149432Y463541D01*
X149682Y463550D01*
X149830D01*
X149904Y463541D01*
D02*
G37*
G36*
X146742Y457041D02*
X145864D01*
X144911Y461239D01*
Y461248D01*
X144902Y461266D01*
X144893Y461303D01*
X144883Y461350D01*
X144874Y461414D01*
X144856Y461479D01*
X144837Y461562D01*
X144819Y461655D01*
X144773Y461849D01*
X144726Y462071D01*
X144680Y462311D01*
X144634Y462552D01*
Y462542D01*
X144625Y462505D01*
X144606Y462459D01*
X144597Y462385D01*
X144578Y462311D01*
X144551Y462219D01*
X144504Y462015D01*
X144449Y461812D01*
X144430Y461710D01*
X144403Y461618D01*
X144384Y461535D01*
X144366Y461461D01*
X144347Y461405D01*
X144338Y461368D01*
X143127Y457041D01*
X142100D01*
X141194Y460286D01*
Y460296D01*
X141176Y460342D01*
X141158Y460407D01*
X141139Y460490D01*
X141111Y460601D01*
X141074Y460721D01*
X141037Y460860D01*
X141000Y461017D01*
X140954Y461192D01*
X140917Y461368D01*
X140834Y461747D01*
X140751Y462145D01*
X140686Y462552D01*
Y462542D01*
X140677Y462524D01*
Y462487D01*
X140658Y462441D01*
X140649Y462385D01*
X140631Y462320D01*
X140621Y462237D01*
X140594Y462145D01*
X140547Y461941D01*
X140492Y461701D01*
X140436Y461442D01*
X140362Y461156D01*
X139364Y457041D01*
X138504D01*
X140261Y463439D01*
X141093D01*
X142433Y458567D01*
Y458558D01*
X142443Y458539D01*
X142452Y458511D01*
X142461Y458465D01*
X142489Y458363D01*
X142517Y458243D01*
X142554Y458114D01*
X142591Y457994D01*
X142618Y457892D01*
X142627Y457845D01*
X142637Y457818D01*
Y457827D01*
X142646Y457836D01*
X142655Y457892D01*
X142674Y457975D01*
X142702Y458077D01*
X142729Y458188D01*
X142766Y458317D01*
X142794Y458447D01*
X142831Y458567D01*
X144181Y463439D01*
X145068D01*
X146742Y457041D01*
D02*
G37*
G36*
X135860Y458437D02*
X135869Y458447D01*
X135915Y458484D01*
X135971Y458539D01*
X136063Y458604D01*
X136165Y458687D01*
X136294Y458779D01*
X136442Y458881D01*
X136609Y458983D01*
X136618D01*
X136627Y458992D01*
X136683Y459029D01*
X136775Y459075D01*
X136886Y459131D01*
X137015Y459195D01*
X137154Y459260D01*
X137293Y459325D01*
X137431Y459380D01*
Y458622D01*
X137422D01*
X137404Y458604D01*
X137367Y458594D01*
X137321Y458567D01*
X137265Y458539D01*
X137200Y458502D01*
X137043Y458410D01*
X136858Y458308D01*
X136673Y458178D01*
X136479Y458031D01*
X136285Y457873D01*
X136276Y457864D01*
X136267Y457855D01*
X136239Y457827D01*
X136202Y457799D01*
X136119Y457707D01*
X136008Y457596D01*
X135897Y457467D01*
X135777Y457318D01*
X135675Y457171D01*
X135582Y457013D01*
X135074D01*
Y463439D01*
X135860D01*
Y458437D01*
D02*
G37*
G36*
X128422Y49521D02*
X128515D01*
X128607Y49512D01*
X128727Y49502D01*
X128847Y49484D01*
X129116Y49438D01*
X129411Y49373D01*
X129707Y49280D01*
X129994Y49151D01*
X130003Y49142D01*
X130031Y49132D01*
X130068Y49114D01*
X130114Y49077D01*
X130179Y49040D01*
X130253Y48994D01*
X130419Y48874D01*
X130604Y48717D01*
X130789Y48532D01*
X130974Y48319D01*
X131131Y48069D01*
X131140Y48060D01*
X131150Y48032D01*
X131168Y47995D01*
X131196Y47949D01*
X131224Y47875D01*
X131251Y47801D01*
X131288Y47709D01*
X131325Y47607D01*
X131362Y47496D01*
X131399Y47376D01*
X131455Y47117D01*
X131501Y46821D01*
X131519Y46516D01*
Y46424D01*
X131510Y46359D01*
X131501Y46276D01*
X131492Y46174D01*
X131482Y46072D01*
X131455Y45952D01*
X131399Y45702D01*
X131316Y45425D01*
X131260Y45286D01*
X131196Y45157D01*
X131113Y45027D01*
X131029Y44898D01*
X131020Y44889D01*
X131011Y44870D01*
X130983Y44833D01*
X130937Y44787D01*
X130891Y44741D01*
X130826Y44676D01*
X130752Y44611D01*
X130678Y44538D01*
X130586Y44464D01*
X130475Y44390D01*
X130364Y44306D01*
X130244Y44232D01*
X130105Y44168D01*
X129966Y44094D01*
X129818Y44038D01*
X129652Y43983D01*
X129458Y44815D01*
X129467D01*
X129485Y44824D01*
X129522Y44843D01*
X129569Y44861D01*
X129624Y44879D01*
X129698Y44907D01*
X129846Y44981D01*
X130012Y45074D01*
X130179Y45185D01*
X130336Y45323D01*
X130475Y45471D01*
X130493Y45490D01*
X130530Y45545D01*
X130576Y45638D01*
X130641Y45758D01*
X130697Y45915D01*
X130752Y46091D01*
X130789Y46303D01*
X130798Y46535D01*
Y46609D01*
X130789Y46655D01*
Y46719D01*
X130780Y46793D01*
X130752Y46969D01*
X130715Y47163D01*
X130650Y47367D01*
X130558Y47579D01*
X130438Y47773D01*
Y47783D01*
X130419Y47792D01*
X130373Y47857D01*
X130299Y47940D01*
X130188Y48042D01*
X130049Y48162D01*
X129892Y48273D01*
X129698Y48374D01*
X129485Y48467D01*
X129476D01*
X129458Y48476D01*
X129430Y48485D01*
X129384Y48495D01*
X129328Y48513D01*
X129263Y48532D01*
X129106Y48559D01*
X128921Y48596D01*
X128718Y48633D01*
X128496Y48652D01*
X128256Y48661D01*
X128246D01*
X128219D01*
X128173D01*
X128117D01*
X128052Y48652D01*
X127969D01*
X127877Y48643D01*
X127775Y48633D01*
X127553Y48605D01*
X127313Y48559D01*
X127072Y48504D01*
X126832Y48430D01*
X126823D01*
X126804Y48421D01*
X126776Y48402D01*
X126730Y48384D01*
X126619Y48328D01*
X126490Y48245D01*
X126342Y48143D01*
X126185Y48014D01*
X126046Y47866D01*
X125917Y47690D01*
Y47681D01*
X125907Y47663D01*
X125889Y47635D01*
X125870Y47598D01*
X125852Y47551D01*
X125824Y47496D01*
X125769Y47367D01*
X125713Y47200D01*
X125667Y47015D01*
X125630Y46812D01*
X125621Y46599D01*
Y46535D01*
X125630Y46479D01*
Y46414D01*
X125639Y46350D01*
X125676Y46183D01*
X125722Y45989D01*
X125796Y45795D01*
X125898Y45592D01*
X125954Y45490D01*
X126027Y45397D01*
X126037Y45388D01*
X126046Y45379D01*
X126074Y45351D01*
X126102Y45314D01*
X126148Y45277D01*
X126203Y45231D01*
X126259Y45175D01*
X126333Y45129D01*
X126416Y45074D01*
X126508Y45009D01*
X126601Y44953D01*
X126712Y44898D01*
X126832Y44852D01*
X126961Y44806D01*
X127100Y44759D01*
X127248Y44722D01*
X127035Y43872D01*
X127026D01*
X126989Y43881D01*
X126934Y43899D01*
X126860Y43927D01*
X126776Y43955D01*
X126675Y43992D01*
X126564Y44038D01*
X126444Y44094D01*
X126185Y44223D01*
X125926Y44390D01*
X125796Y44491D01*
X125667Y44593D01*
X125556Y44704D01*
X125445Y44833D01*
X125436Y44843D01*
X125417Y44861D01*
X125399Y44907D01*
X125362Y44953D01*
X125316Y45027D01*
X125269Y45101D01*
X125223Y45203D01*
X125177Y45305D01*
X125121Y45425D01*
X125075Y45554D01*
X125029Y45693D01*
X124983Y45841D01*
X124946Y45998D01*
X124927Y46165D01*
X124909Y46340D01*
X124900Y46525D01*
Y46627D01*
X124909Y46701D01*
Y46784D01*
X124918Y46886D01*
X124937Y46997D01*
X124955Y47126D01*
X125001Y47394D01*
X125075Y47672D01*
X125177Y47949D01*
X125242Y48078D01*
X125316Y48208D01*
X125325Y48217D01*
X125334Y48236D01*
X125362Y48273D01*
X125399Y48310D01*
X125436Y48365D01*
X125491Y48430D01*
X125556Y48504D01*
X125630Y48578D01*
X125713Y48652D01*
X125796Y48735D01*
X126009Y48901D01*
X126259Y49059D01*
X126536Y49197D01*
X126545D01*
X126573Y49216D01*
X126619Y49225D01*
X126675Y49253D01*
X126749Y49271D01*
X126841Y49299D01*
X126943Y49336D01*
X127054Y49364D01*
X127174Y49391D01*
X127313Y49428D01*
X127599Y49475D01*
X127923Y49512D01*
X128256Y49530D01*
X128265D01*
X128302D01*
X128357D01*
X128422Y49521D01*
D02*
G37*
G36*
X125186Y43252D02*
X125269Y43243D01*
X125362Y43225D01*
X125454Y43206D01*
X125556Y43169D01*
X125565D01*
X125575Y43160D01*
X125630Y43141D01*
X125713Y43104D01*
X125824Y43049D01*
X125954Y42975D01*
X126102Y42882D01*
X126249Y42781D01*
X126407Y42651D01*
X126416D01*
X126425Y42633D01*
X126481Y42587D01*
X126564Y42503D01*
X126684Y42383D01*
X126823Y42245D01*
X126989Y42069D01*
X127174Y41856D01*
X127368Y41625D01*
X127377Y41616D01*
X127405Y41579D01*
X127451Y41523D01*
X127507Y41459D01*
X127581Y41375D01*
X127664Y41274D01*
X127757Y41172D01*
X127858Y41052D01*
X128080Y40821D01*
X128302Y40590D01*
X128413Y40479D01*
X128524Y40377D01*
X128625Y40285D01*
X128727Y40210D01*
X128736D01*
X128746Y40192D01*
X128773Y40174D01*
X128811Y40155D01*
X128912Y40090D01*
X129032Y40016D01*
X129180Y39952D01*
X129338Y39887D01*
X129513Y39850D01*
X129679Y39831D01*
X129689D01*
X129698D01*
X129754Y39841D01*
X129846Y39850D01*
X129948Y39878D01*
X130077Y39915D01*
X130206Y39979D01*
X130336Y40063D01*
X130465Y40174D01*
X130484Y40192D01*
X130521Y40238D01*
X130567Y40303D01*
X130632Y40405D01*
X130687Y40534D01*
X130743Y40682D01*
X130780Y40858D01*
X130789Y41052D01*
Y41107D01*
X130780Y41144D01*
X130771Y41255D01*
X130743Y41385D01*
X130706Y41523D01*
X130641Y41681D01*
X130558Y41828D01*
X130447Y41967D01*
X130428Y41986D01*
X130382Y42023D01*
X130308Y42078D01*
X130197Y42134D01*
X130068Y42198D01*
X129901Y42254D01*
X129717Y42291D01*
X129504Y42309D01*
X129587Y43114D01*
X129596D01*
X129624Y43104D01*
X129670D01*
X129735Y43095D01*
X129809Y43077D01*
X129892Y43058D01*
X129994Y43030D01*
X130096Y43003D01*
X130317Y42929D01*
X130539Y42818D01*
X130650Y42753D01*
X130761Y42670D01*
X130863Y42587D01*
X130955Y42494D01*
X130965Y42485D01*
X130974Y42466D01*
X131002Y42439D01*
X131029Y42393D01*
X131066Y42337D01*
X131103Y42272D01*
X131150Y42198D01*
X131196Y42106D01*
X131242Y42004D01*
X131288Y41893D01*
X131325Y41773D01*
X131362Y41644D01*
X131390Y41505D01*
X131418Y41357D01*
X131427Y41200D01*
X131436Y41033D01*
Y40941D01*
X131427Y40876D01*
X131418Y40802D01*
X131409Y40710D01*
X131390Y40608D01*
X131371Y40506D01*
X131307Y40266D01*
X131214Y40026D01*
X131159Y39905D01*
X131094Y39785D01*
X131011Y39674D01*
X130919Y39573D01*
X130909Y39563D01*
X130900Y39545D01*
X130863Y39526D01*
X130826Y39489D01*
X130780Y39443D01*
X130715Y39397D01*
X130650Y39351D01*
X130567Y39295D01*
X130392Y39203D01*
X130170Y39110D01*
X130059Y39073D01*
X129929Y39055D01*
X129800Y39036D01*
X129661Y39027D01*
X129643D01*
X129596D01*
X129522Y39036D01*
X129421Y39046D01*
X129310Y39064D01*
X129180Y39101D01*
X129042Y39138D01*
X128903Y39193D01*
X128884Y39203D01*
X128838Y39221D01*
X128764Y39258D01*
X128663Y39314D01*
X128552Y39388D01*
X128413Y39480D01*
X128274Y39591D01*
X128117Y39720D01*
X128098Y39739D01*
X128043Y39785D01*
X127997Y39831D01*
X127951Y39878D01*
X127895Y39933D01*
X127821Y40007D01*
X127747Y40081D01*
X127664Y40174D01*
X127572Y40266D01*
X127470Y40377D01*
X127368Y40497D01*
X127248Y40627D01*
X127128Y40774D01*
X126998Y40922D01*
X126989Y40932D01*
X126971Y40950D01*
X126943Y40987D01*
X126906Y41033D01*
X126850Y41089D01*
X126795Y41154D01*
X126675Y41301D01*
X126536Y41459D01*
X126397Y41607D01*
X126277Y41736D01*
X126231Y41792D01*
X126185Y41838D01*
X126175Y41847D01*
X126148Y41875D01*
X126111Y41912D01*
X126055Y41958D01*
X125991Y42004D01*
X125926Y42060D01*
X125769Y42171D01*
Y39018D01*
X125010D01*
Y43262D01*
X125020D01*
X125057D01*
X125112D01*
X125186Y43252D01*
D02*
G37*
G36*
X124987Y265532D02*
X125061D01*
X125144Y265523D01*
X125237Y265504D01*
X125348Y265477D01*
X125458Y265449D01*
X125588Y265412D01*
X125717Y265366D01*
X125847Y265310D01*
X125985Y265236D01*
X126115Y265153D01*
X126244Y265061D01*
X126374Y264950D01*
X126494Y264820D01*
X126503Y264811D01*
X126522Y264783D01*
X126550Y264746D01*
X126587Y264682D01*
X126642Y264599D01*
X126688Y264506D01*
X126744Y264386D01*
X126799Y264256D01*
X126864Y264099D01*
X126919Y263924D01*
X126966Y263729D01*
X127012Y263517D01*
X127058Y263276D01*
X127086Y263018D01*
X127104Y262740D01*
X127114Y262444D01*
Y262435D01*
Y262426D01*
Y262398D01*
Y262361D01*
X127104Y262269D01*
Y262139D01*
X127095Y261991D01*
X127077Y261816D01*
X127058Y261621D01*
X127030Y261409D01*
X126993Y261196D01*
X126947Y260965D01*
X126892Y260743D01*
X126827Y260521D01*
X126744Y260308D01*
X126651Y260105D01*
X126550Y259911D01*
X126429Y259744D01*
X126420Y259735D01*
X126402Y259717D01*
X126365Y259680D01*
X126318Y259624D01*
X126263Y259569D01*
X126189Y259513D01*
X126096Y259439D01*
X126004Y259375D01*
X125893Y259310D01*
X125773Y259236D01*
X125634Y259181D01*
X125496Y259116D01*
X125338Y259070D01*
X125172Y259033D01*
X124996Y259014D01*
X124811Y259005D01*
X124737D01*
X124682Y259014D01*
X124617D01*
X124543Y259023D01*
X124368Y259060D01*
X124173Y259107D01*
X123970Y259181D01*
X123767Y259291D01*
X123665Y259356D01*
X123572Y259430D01*
X123563Y259439D01*
X123554Y259449D01*
X123526Y259476D01*
X123498Y259504D01*
X123452Y259550D01*
X123415Y259606D01*
X123314Y259735D01*
X123212Y259902D01*
X123119Y260105D01*
X123036Y260336D01*
X122981Y260595D01*
X123767Y260660D01*
Y260651D01*
X123776Y260641D01*
X123785Y260586D01*
X123813Y260503D01*
X123850Y260401D01*
X123887Y260290D01*
X123942Y260179D01*
X124007Y260077D01*
X124072Y259994D01*
X124090Y259976D01*
X124127Y259939D01*
X124192Y259883D01*
X124284Y259818D01*
X124404Y259763D01*
X124534Y259708D01*
X124691Y259671D01*
X124858Y259652D01*
X124922D01*
X124996Y259661D01*
X125079Y259680D01*
X125190Y259708D01*
X125301Y259744D01*
X125412Y259791D01*
X125523Y259865D01*
X125542Y259874D01*
X125588Y259911D01*
X125653Y259976D01*
X125736Y260068D01*
X125828Y260179D01*
X125930Y260308D01*
X126023Y260475D01*
X126115Y260660D01*
Y260669D01*
X126124Y260688D01*
X126133Y260715D01*
X126152Y260752D01*
X126161Y260808D01*
X126180Y260872D01*
X126198Y260947D01*
X126217Y261039D01*
X126244Y261141D01*
X126263Y261252D01*
X126281Y261372D01*
X126291Y261501D01*
X126309Y261649D01*
X126318Y261797D01*
X126328Y261964D01*
Y262130D01*
X126318Y262121D01*
X126281Y262065D01*
X126217Y261991D01*
X126133Y261899D01*
X126041Y261788D01*
X125921Y261686D01*
X125791Y261584D01*
X125643Y261492D01*
X125634D01*
X125625Y261483D01*
X125569Y261455D01*
X125486Y261427D01*
X125375Y261381D01*
X125246Y261344D01*
X125098Y261316D01*
X124941Y261289D01*
X124774Y261279D01*
X124700D01*
X124645Y261289D01*
X124571Y261298D01*
X124497Y261307D01*
X124404Y261325D01*
X124312Y261353D01*
X124099Y261418D01*
X123989Y261464D01*
X123877Y261529D01*
X123767Y261594D01*
X123646Y261668D01*
X123535Y261760D01*
X123434Y261862D01*
X123425Y261871D01*
X123406Y261889D01*
X123378Y261917D01*
X123350Y261964D01*
X123304Y262028D01*
X123258Y262093D01*
X123212Y262176D01*
X123156Y262269D01*
X123101Y262370D01*
X123055Y262481D01*
X123008Y262611D01*
X122962Y262740D01*
X122935Y262879D01*
X122907Y263036D01*
X122888Y263193D01*
X122879Y263360D01*
Y263369D01*
Y263387D01*
Y263415D01*
Y263461D01*
X122888Y263517D01*
Y263572D01*
X122916Y263720D01*
X122944Y263896D01*
X122990Y264081D01*
X123055Y264284D01*
X123147Y264478D01*
Y264487D01*
X123156Y264497D01*
X123175Y264524D01*
X123193Y264562D01*
X123249Y264654D01*
X123332Y264774D01*
X123434Y264904D01*
X123554Y265033D01*
X123702Y265163D01*
X123859Y265273D01*
X123868D01*
X123877Y265283D01*
X123905Y265301D01*
X123942Y265310D01*
X124035Y265357D01*
X124155Y265403D01*
X124312Y265458D01*
X124488Y265495D01*
X124682Y265532D01*
X124895Y265541D01*
X124941D01*
X124987Y265532D01*
D02*
G37*
G36*
X135601D02*
X135684D01*
X135786Y265523D01*
X135897Y265504D01*
X136026Y265486D01*
X136294Y265440D01*
X136572Y265366D01*
X136849Y265264D01*
X136979Y265199D01*
X137108Y265126D01*
X137117Y265116D01*
X137136Y265107D01*
X137173Y265079D01*
X137210Y265042D01*
X137265Y265005D01*
X137330Y264950D01*
X137404Y264885D01*
X137478Y264811D01*
X137552Y264728D01*
X137635Y264645D01*
X137801Y264432D01*
X137959Y264182D01*
X138097Y263905D01*
Y263896D01*
X138116Y263868D01*
X138125Y263822D01*
X138153Y263766D01*
X138171Y263692D01*
X138199Y263600D01*
X138236Y263498D01*
X138264Y263387D01*
X138291Y263267D01*
X138328Y263128D01*
X138375Y262842D01*
X138412Y262518D01*
X138430Y262185D01*
Y262176D01*
Y262139D01*
Y262084D01*
X138421Y262019D01*
Y261926D01*
X138412Y261834D01*
X138402Y261714D01*
X138384Y261594D01*
X138338Y261325D01*
X138273Y261030D01*
X138181Y260734D01*
X138051Y260447D01*
X138042Y260438D01*
X138033Y260410D01*
X138014Y260373D01*
X137977Y260327D01*
X137940Y260262D01*
X137894Y260188D01*
X137774Y260022D01*
X137617Y259837D01*
X137432Y259652D01*
X137219Y259467D01*
X136969Y259310D01*
X136960Y259301D01*
X136932Y259291D01*
X136895Y259273D01*
X136849Y259245D01*
X136775Y259217D01*
X136701Y259190D01*
X136609Y259153D01*
X136507Y259116D01*
X136396Y259079D01*
X136276Y259042D01*
X136017Y258986D01*
X135721Y258940D01*
X135416Y258922D01*
X135324D01*
X135259Y258931D01*
X135176Y258940D01*
X135074Y258949D01*
X134972Y258959D01*
X134852Y258986D01*
X134602Y259042D01*
X134325Y259125D01*
X134186Y259181D01*
X134057Y259245D01*
X133927Y259328D01*
X133798Y259412D01*
X133789Y259421D01*
X133770Y259430D01*
X133733Y259458D01*
X133687Y259504D01*
X133641Y259550D01*
X133576Y259615D01*
X133511Y259689D01*
X133438Y259763D01*
X133364Y259855D01*
X133289Y259966D01*
X133206Y260077D01*
X133132Y260198D01*
X133068Y260336D01*
X132994Y260475D01*
X132938Y260623D01*
X132883Y260789D01*
X133715Y260984D01*
Y260974D01*
X133724Y260956D01*
X133743Y260919D01*
X133761Y260872D01*
X133780Y260817D01*
X133807Y260743D01*
X133881Y260595D01*
X133974Y260429D01*
X134085Y260262D01*
X134223Y260105D01*
X134371Y259966D01*
X134390Y259948D01*
X134445Y259911D01*
X134538Y259865D01*
X134658Y259800D01*
X134815Y259744D01*
X134991Y259689D01*
X135203Y259652D01*
X135435Y259643D01*
X135508D01*
X135555Y259652D01*
X135619D01*
X135693Y259661D01*
X135869Y259689D01*
X136063Y259726D01*
X136267Y259791D01*
X136479Y259883D01*
X136673Y260003D01*
X136683D01*
X136692Y260022D01*
X136757Y260068D01*
X136840Y260142D01*
X136942Y260253D01*
X137062Y260392D01*
X137173Y260549D01*
X137274Y260743D01*
X137367Y260956D01*
Y260965D01*
X137376Y260984D01*
X137385Y261011D01*
X137395Y261057D01*
X137413Y261113D01*
X137432Y261178D01*
X137459Y261335D01*
X137496Y261520D01*
X137533Y261723D01*
X137552Y261945D01*
X137561Y262185D01*
Y262195D01*
Y262222D01*
Y262269D01*
Y262324D01*
X137552Y262389D01*
Y262472D01*
X137542Y262564D01*
X137533Y262666D01*
X137506Y262888D01*
X137459Y263128D01*
X137404Y263369D01*
X137330Y263609D01*
Y263618D01*
X137321Y263637D01*
X137302Y263665D01*
X137284Y263711D01*
X137228Y263822D01*
X137145Y263951D01*
X137043Y264099D01*
X136914Y264256D01*
X136766Y264395D01*
X136590Y264524D01*
X136581D01*
X136562Y264534D01*
X136535Y264552D01*
X136498Y264571D01*
X136452Y264589D01*
X136396Y264617D01*
X136267Y264672D01*
X136100Y264728D01*
X135915Y264774D01*
X135712Y264811D01*
X135499Y264820D01*
X135435D01*
X135379Y264811D01*
X135314D01*
X135250Y264802D01*
X135083Y264765D01*
X134889Y264719D01*
X134695Y264645D01*
X134492Y264543D01*
X134390Y264487D01*
X134297Y264414D01*
X134288Y264404D01*
X134279Y264395D01*
X134251Y264367D01*
X134214Y264340D01*
X134177Y264293D01*
X134131Y264238D01*
X134075Y264182D01*
X134029Y264109D01*
X133974Y264025D01*
X133909Y263933D01*
X133854Y263840D01*
X133798Y263729D01*
X133752Y263609D01*
X133706Y263480D01*
X133659Y263341D01*
X133622Y263193D01*
X132772Y263406D01*
Y263415D01*
X132781Y263452D01*
X132800Y263507D01*
X132827Y263582D01*
X132855Y263665D01*
X132892Y263766D01*
X132938Y263877D01*
X132994Y263997D01*
X133123Y264256D01*
X133289Y264515D01*
X133391Y264645D01*
X133493Y264774D01*
X133604Y264885D01*
X133733Y264996D01*
X133743Y265005D01*
X133761Y265024D01*
X133807Y265042D01*
X133854Y265079D01*
X133927Y265126D01*
X134002Y265172D01*
X134103Y265218D01*
X134205Y265264D01*
X134325Y265320D01*
X134454Y265366D01*
X134593Y265412D01*
X134741Y265458D01*
X134898Y265495D01*
X135065Y265514D01*
X135240Y265532D01*
X135425Y265541D01*
X135527D01*
X135601Y265532D01*
D02*
G37*
G36*
X129878Y260429D02*
X129887Y260438D01*
X129933Y260475D01*
X129989Y260530D01*
X130081Y260595D01*
X130183Y260678D01*
X130312Y260771D01*
X130460Y260872D01*
X130627Y260974D01*
X130636D01*
X130645Y260984D01*
X130701Y261020D01*
X130793Y261067D01*
X130904Y261122D01*
X131034Y261187D01*
X131172Y261252D01*
X131311Y261316D01*
X131450Y261372D01*
Y260614D01*
X131440D01*
X131422Y260595D01*
X131385Y260586D01*
X131339Y260558D01*
X131283Y260530D01*
X131219Y260493D01*
X131061Y260401D01*
X130876Y260299D01*
X130691Y260170D01*
X130497Y260022D01*
X130303Y259865D01*
X130294Y259855D01*
X130285Y259846D01*
X130257Y259818D01*
X130220Y259791D01*
X130137Y259698D01*
X130026Y259587D01*
X129915Y259458D01*
X129795Y259310D01*
X129693Y259162D01*
X129601Y259005D01*
X129092D01*
Y265431D01*
X129878D01*
Y260429D01*
D02*
G37*
G36*
X353691Y147580D02*
X353774Y147571D01*
X353876Y147562D01*
X353978Y147553D01*
X354098Y147525D01*
X354348Y147470D01*
X354625Y147386D01*
X354764Y147331D01*
X354893Y147266D01*
X355023Y147183D01*
X355152Y147100D01*
X355161Y147091D01*
X355180Y147081D01*
X355217Y147053D01*
X355263Y147007D01*
X355309Y146961D01*
X355374Y146896D01*
X355438Y146822D01*
X355513Y146748D01*
X355587Y146656D01*
X355660Y146545D01*
X355744Y146434D01*
X355818Y146314D01*
X355882Y146175D01*
X355956Y146037D01*
X356012Y145889D01*
X356067Y145722D01*
X355235Y145528D01*
Y145537D01*
X355226Y145556D01*
X355207Y145593D01*
X355189Y145639D01*
X355170Y145694D01*
X355143Y145768D01*
X355069Y145916D01*
X354976Y146083D01*
X354865Y146249D01*
X354727Y146406D01*
X354579Y146545D01*
X354560Y146564D01*
X354505Y146600D01*
X354412Y146647D01*
X354292Y146711D01*
X354135Y146767D01*
X353959Y146822D01*
X353747Y146859D01*
X353515Y146869D01*
X353442D01*
X353395Y146859D01*
X353330D01*
X353257Y146850D01*
X353081Y146822D01*
X352887Y146785D01*
X352683Y146721D01*
X352471Y146628D01*
X352276Y146508D01*
X352267D01*
X352258Y146489D01*
X352193Y146443D01*
X352110Y146369D01*
X352008Y146258D01*
X351888Y146120D01*
X351777Y145962D01*
X351676Y145768D01*
X351583Y145556D01*
Y145546D01*
X351574Y145528D01*
X351565Y145500D01*
X351555Y145454D01*
X351537Y145399D01*
X351518Y145334D01*
X351491Y145177D01*
X351454Y144992D01*
X351417Y144788D01*
X351398Y144566D01*
X351389Y144326D01*
Y144317D01*
Y144289D01*
Y144243D01*
Y144187D01*
X351398Y144123D01*
Y144039D01*
X351408Y143947D01*
X351417Y143845D01*
X351444Y143623D01*
X351491Y143383D01*
X351546Y143143D01*
X351620Y142902D01*
Y142893D01*
X351629Y142874D01*
X351648Y142847D01*
X351666Y142801D01*
X351722Y142690D01*
X351805Y142560D01*
X351907Y142412D01*
X352036Y142255D01*
X352184Y142116D01*
X352360Y141987D01*
X352369D01*
X352388Y141978D01*
X352415Y141959D01*
X352452Y141941D01*
X352498Y141922D01*
X352554Y141894D01*
X352683Y141839D01*
X352850Y141784D01*
X353035Y141737D01*
X353238Y141700D01*
X353451Y141691D01*
X353515D01*
X353571Y141700D01*
X353636D01*
X353700Y141709D01*
X353867Y141747D01*
X354061Y141793D01*
X354255Y141867D01*
X354459Y141968D01*
X354560Y142024D01*
X354653Y142098D01*
X354662Y142107D01*
X354671Y142116D01*
X354699Y142144D01*
X354736Y142172D01*
X354773Y142218D01*
X354819Y142274D01*
X354875Y142329D01*
X354921Y142403D01*
X354976Y142486D01*
X355041Y142579D01*
X355096Y142671D01*
X355152Y142782D01*
X355198Y142902D01*
X355244Y143032D01*
X355291Y143170D01*
X355328Y143318D01*
X356178Y143106D01*
Y143096D01*
X356169Y143059D01*
X356150Y143004D01*
X356123Y142930D01*
X356095Y142847D01*
X356058Y142745D01*
X356012Y142634D01*
X355956Y142514D01*
X355827Y142255D01*
X355660Y141996D01*
X355559Y141867D01*
X355457Y141737D01*
X355346Y141626D01*
X355217Y141515D01*
X355207Y141506D01*
X355189Y141488D01*
X355143Y141469D01*
X355096Y141432D01*
X355023Y141386D01*
X354949Y141340D01*
X354847Y141293D01*
X354745Y141247D01*
X354625Y141192D01*
X354496Y141145D01*
X354357Y141099D01*
X354209Y141053D01*
X354052Y141016D01*
X353885Y140998D01*
X353710Y140979D01*
X353525Y140970D01*
X353423D01*
X353349Y140979D01*
X353266D01*
X353164Y140988D01*
X353053Y141007D01*
X352924Y141025D01*
X352656Y141072D01*
X352378Y141145D01*
X352101Y141247D01*
X351971Y141312D01*
X351842Y141386D01*
X351833Y141395D01*
X351814Y141404D01*
X351777Y141432D01*
X351740Y141469D01*
X351685Y141506D01*
X351620Y141562D01*
X351546Y141626D01*
X351472Y141700D01*
X351398Y141784D01*
X351315Y141867D01*
X351149Y142079D01*
X350991Y142329D01*
X350853Y142606D01*
Y142616D01*
X350834Y142643D01*
X350825Y142690D01*
X350797Y142745D01*
X350779Y142819D01*
X350751Y142911D01*
X350714Y143013D01*
X350686Y143124D01*
X350659Y143244D01*
X350622Y143383D01*
X350575Y143670D01*
X350538Y143993D01*
X350520Y144326D01*
Y144335D01*
Y144372D01*
Y144428D01*
X350529Y144492D01*
Y144585D01*
X350538Y144677D01*
X350548Y144798D01*
X350566Y144918D01*
X350612Y145186D01*
X350677Y145482D01*
X350770Y145778D01*
X350899Y146064D01*
X350908Y146073D01*
X350917Y146101D01*
X350936Y146138D01*
X350973Y146184D01*
X351010Y146249D01*
X351056Y146323D01*
X351176Y146489D01*
X351334Y146674D01*
X351518Y146859D01*
X351731Y147044D01*
X351981Y147201D01*
X351990Y147211D01*
X352018Y147220D01*
X352055Y147238D01*
X352101Y147266D01*
X352175Y147294D01*
X352249Y147322D01*
X352341Y147359D01*
X352443Y147396D01*
X352554Y147432D01*
X352674Y147470D01*
X352933Y147525D01*
X353229Y147571D01*
X353534Y147590D01*
X353626D01*
X353691Y147580D01*
D02*
G37*
G36*
X361097Y146776D02*
X361088Y146767D01*
X361069Y146748D01*
X361032Y146711D01*
X360995Y146656D01*
X360940Y146591D01*
X360866Y146517D01*
X360792Y146425D01*
X360709Y146314D01*
X360625Y146203D01*
X360524Y146073D01*
X360422Y145926D01*
X360320Y145778D01*
X360209Y145611D01*
X360098Y145435D01*
X359987Y145241D01*
X359876Y145047D01*
X359867Y145038D01*
X359849Y145001D01*
X359821Y144945D01*
X359775Y144862D01*
X359729Y144761D01*
X359673Y144650D01*
X359608Y144520D01*
X359544Y144372D01*
X359470Y144206D01*
X359386Y144039D01*
X359312Y143855D01*
X359239Y143660D01*
X359090Y143263D01*
X358952Y142837D01*
Y142828D01*
X358943Y142801D01*
X358933Y142754D01*
X358915Y142699D01*
X358896Y142625D01*
X358878Y142532D01*
X358850Y142431D01*
X358832Y142320D01*
X358804Y142190D01*
X358776Y142052D01*
X358730Y141756D01*
X358684Y141432D01*
X358656Y141081D01*
X357852D01*
Y141090D01*
Y141118D01*
Y141155D01*
X357861Y141210D01*
Y141284D01*
X357870Y141377D01*
X357879Y141478D01*
X357889Y141589D01*
X357907Y141719D01*
X357926Y141848D01*
X357953Y142005D01*
X357981Y142163D01*
X358009Y142329D01*
X358046Y142514D01*
X358138Y142893D01*
Y142902D01*
X358148Y142939D01*
X358166Y142995D01*
X358194Y143078D01*
X358222Y143170D01*
X358258Y143281D01*
X358295Y143411D01*
X358351Y143549D01*
X358406Y143707D01*
X358462Y143864D01*
X358601Y144215D01*
X358767Y144585D01*
X358952Y144955D01*
X358961Y144964D01*
X358980Y145001D01*
X359007Y145047D01*
X359044Y145121D01*
X359090Y145204D01*
X359155Y145306D01*
X359220Y145417D01*
X359294Y145537D01*
X359470Y145805D01*
X359655Y146083D01*
X359867Y146369D01*
X360089Y146637D01*
X356955D01*
Y147396D01*
X361097D01*
Y146776D01*
D02*
G37*
G36*
X335911Y189491D02*
X335994Y189481D01*
X336096Y189472D01*
X336198Y189463D01*
X336318Y189435D01*
X336568Y189380D01*
X336845Y189296D01*
X336984Y189241D01*
X337113Y189176D01*
X337243Y189093D01*
X337372Y189010D01*
X337381Y189000D01*
X337400Y188991D01*
X337437Y188964D01*
X337483Y188917D01*
X337529Y188871D01*
X337594Y188806D01*
X337659Y188732D01*
X337733Y188658D01*
X337807Y188566D01*
X337880Y188455D01*
X337964Y188344D01*
X338038Y188224D01*
X338102Y188085D01*
X338176Y187946D01*
X338232Y187799D01*
X338287Y187632D01*
X337455Y187438D01*
Y187447D01*
X337446Y187466D01*
X337427Y187503D01*
X337409Y187549D01*
X337390Y187604D01*
X337363Y187678D01*
X337289Y187826D01*
X337196Y187993D01*
X337085Y188159D01*
X336947Y188316D01*
X336799Y188455D01*
X336780Y188473D01*
X336725Y188510D01*
X336632Y188557D01*
X336512Y188621D01*
X336355Y188677D01*
X336179Y188732D01*
X335967Y188769D01*
X335735Y188779D01*
X335662D01*
X335615Y188769D01*
X335550D01*
X335477Y188760D01*
X335301Y188732D01*
X335107Y188695D01*
X334903Y188631D01*
X334691Y188538D01*
X334496Y188418D01*
X334487D01*
X334478Y188400D01*
X334413Y188353D01*
X334330Y188279D01*
X334228Y188168D01*
X334108Y188030D01*
X333997Y187873D01*
X333896Y187678D01*
X333803Y187466D01*
Y187456D01*
X333794Y187438D01*
X333785Y187410D01*
X333775Y187364D01*
X333757Y187309D01*
X333738Y187244D01*
X333711Y187087D01*
X333674Y186902D01*
X333637Y186698D01*
X333618Y186476D01*
X333609Y186236D01*
Y186227D01*
Y186199D01*
Y186153D01*
Y186097D01*
X333618Y186033D01*
Y185949D01*
X333628Y185857D01*
X333637Y185755D01*
X333664Y185533D01*
X333711Y185293D01*
X333766Y185053D01*
X333840Y184812D01*
Y184803D01*
X333849Y184785D01*
X333868Y184757D01*
X333886Y184711D01*
X333942Y184600D01*
X334025Y184470D01*
X334127Y184322D01*
X334256Y184165D01*
X334404Y184026D01*
X334580Y183897D01*
X334589D01*
X334608Y183888D01*
X334635Y183869D01*
X334672Y183851D01*
X334718Y183832D01*
X334774Y183804D01*
X334903Y183749D01*
X335070Y183694D01*
X335255Y183647D01*
X335458Y183610D01*
X335671Y183601D01*
X335735D01*
X335791Y183610D01*
X335856D01*
X335920Y183619D01*
X336087Y183657D01*
X336281Y183703D01*
X336475Y183777D01*
X336679Y183878D01*
X336780Y183934D01*
X336873Y184008D01*
X336882Y184017D01*
X336891Y184026D01*
X336919Y184054D01*
X336956Y184082D01*
X336993Y184128D01*
X337039Y184184D01*
X337095Y184239D01*
X337141Y184313D01*
X337196Y184396D01*
X337261Y184489D01*
X337316Y184581D01*
X337372Y184692D01*
X337418Y184812D01*
X337464Y184942D01*
X337511Y185080D01*
X337548Y185228D01*
X338398Y185016D01*
Y185006D01*
X338389Y184969D01*
X338370Y184914D01*
X338343Y184840D01*
X338315Y184757D01*
X338278Y184655D01*
X338232Y184544D01*
X338176Y184424D01*
X338047Y184165D01*
X337880Y183906D01*
X337779Y183777D01*
X337677Y183647D01*
X337566Y183536D01*
X337437Y183425D01*
X337427Y183416D01*
X337409Y183398D01*
X337363Y183379D01*
X337316Y183342D01*
X337243Y183296D01*
X337169Y183250D01*
X337067Y183204D01*
X336965Y183157D01*
X336845Y183102D01*
X336716Y183055D01*
X336577Y183009D01*
X336429Y182963D01*
X336272Y182926D01*
X336105Y182908D01*
X335930Y182889D01*
X335745Y182880D01*
X335643D01*
X335569Y182889D01*
X335486D01*
X335384Y182898D01*
X335273Y182917D01*
X335144Y182935D01*
X334876Y182982D01*
X334598Y183055D01*
X334321Y183157D01*
X334191Y183222D01*
X334062Y183296D01*
X334053Y183305D01*
X334034Y183314D01*
X333997Y183342D01*
X333960Y183379D01*
X333905Y183416D01*
X333840Y183472D01*
X333766Y183536D01*
X333692Y183610D01*
X333618Y183694D01*
X333535Y183777D01*
X333369Y183989D01*
X333211Y184239D01*
X333073Y184516D01*
Y184526D01*
X333054Y184553D01*
X333045Y184600D01*
X333017Y184655D01*
X332999Y184729D01*
X332971Y184821D01*
X332934Y184923D01*
X332906Y185034D01*
X332879Y185154D01*
X332842Y185293D01*
X332795Y185580D01*
X332758Y185903D01*
X332740Y186236D01*
Y186245D01*
Y186282D01*
Y186338D01*
X332749Y186402D01*
Y186495D01*
X332758Y186587D01*
X332768Y186708D01*
X332786Y186828D01*
X332832Y187096D01*
X332897Y187392D01*
X332990Y187688D01*
X333119Y187974D01*
X333128Y187983D01*
X333137Y188011D01*
X333156Y188048D01*
X333193Y188094D01*
X333230Y188159D01*
X333276Y188233D01*
X333396Y188400D01*
X333554Y188584D01*
X333738Y188769D01*
X333951Y188954D01*
X334201Y189111D01*
X334210Y189121D01*
X334238Y189130D01*
X334275Y189148D01*
X334321Y189176D01*
X334395Y189204D01*
X334469Y189232D01*
X334561Y189269D01*
X334663Y189306D01*
X334774Y189342D01*
X334894Y189380D01*
X335153Y189435D01*
X335449Y189481D01*
X335754Y189500D01*
X335846D01*
X335911Y189491D01*
D02*
G37*
G36*
X341338Y189407D02*
X341412Y189398D01*
X341496Y189389D01*
X341588Y189380D01*
X341680Y189352D01*
X341902Y189296D01*
X342124Y189213D01*
X342235Y189158D01*
X342346Y189093D01*
X342448Y189010D01*
X342550Y188927D01*
X342559Y188917D01*
X342568Y188908D01*
X342596Y188880D01*
X342633Y188843D01*
X342670Y188788D01*
X342716Y188732D01*
X342808Y188594D01*
X342901Y188418D01*
X342984Y188215D01*
X343049Y187983D01*
X343058Y187863D01*
X343067Y187734D01*
Y187725D01*
Y187715D01*
Y187660D01*
X343058Y187577D01*
X343040Y187475D01*
X343012Y187346D01*
X342966Y187216D01*
X342910Y187087D01*
X342827Y186957D01*
X342818Y186939D01*
X342781Y186902D01*
X342725Y186846D01*
X342651Y186772D01*
X342550Y186689D01*
X342429Y186606D01*
X342291Y186523D01*
X342124Y186449D01*
X342133D01*
X342152Y186439D01*
X342180Y186430D01*
X342217Y186412D01*
X342328Y186366D01*
X342457Y186301D01*
X342596Y186208D01*
X342744Y186107D01*
X342882Y185977D01*
X343012Y185829D01*
Y185820D01*
X343021Y185811D01*
X343058Y185755D01*
X343113Y185663D01*
X343169Y185543D01*
X343224Y185395D01*
X343280Y185219D01*
X343317Y185025D01*
X343326Y184812D01*
Y184803D01*
Y184775D01*
Y184729D01*
X343317Y184674D01*
X343308Y184609D01*
X343298Y184526D01*
X343280Y184433D01*
X343252Y184331D01*
X343187Y184119D01*
X343141Y183999D01*
X343077Y183888D01*
X343012Y183768D01*
X342938Y183657D01*
X342845Y183546D01*
X342744Y183435D01*
X342734Y183425D01*
X342716Y183407D01*
X342688Y183379D01*
X342642Y183351D01*
X342577Y183305D01*
X342513Y183259D01*
X342429Y183213D01*
X342337Y183157D01*
X342235Y183102D01*
X342115Y183055D01*
X341986Y183009D01*
X341856Y182963D01*
X341708Y182935D01*
X341551Y182908D01*
X341394Y182889D01*
X341218Y182880D01*
X341126D01*
X341061Y182889D01*
X340978Y182898D01*
X340885Y182908D01*
X340784Y182926D01*
X340673Y182954D01*
X340423Y183019D01*
X340294Y183065D01*
X340173Y183111D01*
X340044Y183176D01*
X339915Y183250D01*
X339794Y183333D01*
X339683Y183435D01*
X339674Y183444D01*
X339656Y183462D01*
X339628Y183490D01*
X339591Y183536D01*
X339554Y183592D01*
X339498Y183657D01*
X339452Y183731D01*
X339397Y183823D01*
X339341Y183915D01*
X339295Y184026D01*
X339202Y184258D01*
X339166Y184396D01*
X339138Y184535D01*
X339119Y184683D01*
X339110Y184831D01*
Y184840D01*
Y184858D01*
Y184895D01*
X339119Y184932D01*
Y184988D01*
X339129Y185053D01*
X339147Y185201D01*
X339184Y185367D01*
X339240Y185533D01*
X339323Y185709D01*
X339424Y185875D01*
Y185885D01*
X339443Y185894D01*
X339480Y185940D01*
X339554Y186014D01*
X339656Y186107D01*
X339785Y186199D01*
X339942Y186301D01*
X340118Y186384D01*
X340331Y186449D01*
X340321D01*
X340312Y186458D01*
X340284Y186467D01*
X340247Y186486D01*
X340164Y186523D01*
X340053Y186578D01*
X339933Y186652D01*
X339813Y186744D01*
X339702Y186846D01*
X339600Y186957D01*
X339591Y186976D01*
X339563Y187013D01*
X339526Y187087D01*
X339489Y187179D01*
X339443Y187299D01*
X339406Y187438D01*
X339378Y187595D01*
X339369Y187761D01*
Y187771D01*
Y187789D01*
Y187826D01*
X339378Y187882D01*
X339388Y187937D01*
X339397Y188011D01*
X339434Y188168D01*
X339489Y188353D01*
X339582Y188547D01*
X339637Y188649D01*
X339702Y188751D01*
X339785Y188843D01*
X339868Y188936D01*
X339878Y188945D01*
X339896Y188954D01*
X339924Y188982D01*
X339961Y189010D01*
X340007Y189047D01*
X340072Y189084D01*
X340146Y189130D01*
X340220Y189176D01*
X340312Y189222D01*
X340414Y189269D01*
X340525Y189306D01*
X340645Y189342D01*
X340904Y189398D01*
X341052Y189407D01*
X341200Y189417D01*
X341283D01*
X341338Y189407D01*
D02*
G37*
G36*
X180464Y65072D02*
X180483Y65053D01*
X180520Y65016D01*
X180576Y64979D01*
X180640Y64924D01*
X180714Y64850D01*
X180807Y64776D01*
X180917Y64693D01*
X181028Y64609D01*
X181158Y64508D01*
X181306Y64406D01*
X181454Y64304D01*
X181620Y64193D01*
X181796Y64082D01*
X181990Y63972D01*
X182184Y63861D01*
X182193Y63851D01*
X182230Y63833D01*
X182286Y63805D01*
X182369Y63759D01*
X182471Y63713D01*
X182582Y63657D01*
X182711Y63592D01*
X182859Y63528D01*
X183025Y63454D01*
X183192Y63370D01*
X183377Y63297D01*
X183571Y63223D01*
X183969Y63075D01*
X184394Y62936D01*
X184403D01*
X184431Y62927D01*
X184477Y62917D01*
X184533Y62899D01*
X184606Y62881D01*
X184699Y62862D01*
X184801Y62834D01*
X184912Y62816D01*
X185041Y62788D01*
X185180Y62760D01*
X185476Y62714D01*
X185799Y62668D01*
X186151Y62640D01*
Y61836D01*
X186141D01*
X186114D01*
X186077D01*
X186021Y61845D01*
X185947D01*
X185855Y61854D01*
X185753Y61863D01*
X185642Y61873D01*
X185513Y61891D01*
X185383Y61910D01*
X185226Y61937D01*
X185069Y61965D01*
X184902Y61993D01*
X184718Y62030D01*
X184338Y62122D01*
X184329D01*
X184292Y62132D01*
X184237Y62150D01*
X184153Y62178D01*
X184061Y62206D01*
X183950Y62243D01*
X183821Y62280D01*
X183682Y62335D01*
X183525Y62390D01*
X183368Y62446D01*
X183016Y62585D01*
X182647Y62751D01*
X182277Y62936D01*
X182267Y62945D01*
X182230Y62964D01*
X182184Y62991D01*
X182110Y63028D01*
X182027Y63075D01*
X181925Y63139D01*
X181814Y63204D01*
X181694Y63278D01*
X181426Y63454D01*
X181149Y63639D01*
X180862Y63851D01*
X180594Y64073D01*
Y60939D01*
X179836D01*
Y65081D01*
X180455D01*
X180464Y65072D01*
D02*
G37*
G36*
X186151Y58082D02*
X181149D01*
X181158Y58073D01*
X181195Y58027D01*
X181250Y57971D01*
X181315Y57879D01*
X181398Y57777D01*
X181491Y57648D01*
X181593Y57500D01*
X181694Y57333D01*
Y57324D01*
X181703Y57315D01*
X181740Y57259D01*
X181787Y57167D01*
X181842Y57056D01*
X181907Y56926D01*
X181971Y56788D01*
X182036Y56649D01*
X182092Y56510D01*
X181334D01*
Y56519D01*
X181315Y56538D01*
X181306Y56575D01*
X181278Y56621D01*
X181250Y56677D01*
X181213Y56741D01*
X181121Y56899D01*
X181019Y57084D01*
X180890Y57268D01*
X180742Y57463D01*
X180585Y57657D01*
X180576Y57666D01*
X180566Y57675D01*
X180539Y57703D01*
X180511Y57740D01*
X180418Y57823D01*
X180307Y57934D01*
X180178Y58045D01*
X180030Y58165D01*
X179882Y58267D01*
X179725Y58359D01*
Y58868D01*
X186151D01*
Y58082D01*
D02*
G37*
G36*
X184172Y55179D02*
X184228Y55160D01*
X184301Y55133D01*
X184385Y55105D01*
X184486Y55068D01*
X184597Y55022D01*
X184718Y54966D01*
X184976Y54837D01*
X185235Y54670D01*
X185365Y54569D01*
X185494Y54467D01*
X185605Y54356D01*
X185716Y54227D01*
X185725Y54217D01*
X185744Y54199D01*
X185762Y54153D01*
X185799Y54106D01*
X185845Y54033D01*
X185892Y53959D01*
X185938Y53857D01*
X185984Y53755D01*
X186040Y53635D01*
X186086Y53506D01*
X186132Y53367D01*
X186178Y53219D01*
X186215Y53062D01*
X186234Y52895D01*
X186252Y52720D01*
X186262Y52535D01*
Y52433D01*
X186252Y52359D01*
Y52276D01*
X186243Y52174D01*
X186224Y52063D01*
X186206Y51934D01*
X186160Y51666D01*
X186086Y51388D01*
X185984Y51111D01*
X185919Y50981D01*
X185845Y50852D01*
X185836Y50843D01*
X185827Y50824D01*
X185799Y50787D01*
X185762Y50750D01*
X185725Y50695D01*
X185670Y50630D01*
X185605Y50556D01*
X185531Y50482D01*
X185448Y50408D01*
X185365Y50325D01*
X185152Y50159D01*
X184902Y50001D01*
X184625Y49863D01*
X184616D01*
X184588Y49844D01*
X184542Y49835D01*
X184486Y49807D01*
X184412Y49789D01*
X184320Y49761D01*
X184218Y49724D01*
X184107Y49696D01*
X183987Y49669D01*
X183848Y49632D01*
X183562Y49585D01*
X183238Y49548D01*
X182905Y49530D01*
X182896D01*
X182859D01*
X182804D01*
X182739Y49539D01*
X182647D01*
X182554Y49548D01*
X182434Y49558D01*
X182314Y49576D01*
X182045Y49622D01*
X181750Y49687D01*
X181454Y49780D01*
X181167Y49909D01*
X181158Y49918D01*
X181130Y49927D01*
X181093Y49946D01*
X181047Y49983D01*
X180982Y50020D01*
X180908Y50066D01*
X180742Y50186D01*
X180557Y50343D01*
X180372Y50528D01*
X180187Y50741D01*
X180030Y50991D01*
X180021Y51000D01*
X180012Y51028D01*
X179993Y51065D01*
X179965Y51111D01*
X179937Y51185D01*
X179910Y51259D01*
X179873Y51351D01*
X179836Y51453D01*
X179799Y51564D01*
X179762Y51684D01*
X179706Y51943D01*
X179660Y52239D01*
X179642Y52544D01*
Y52636D01*
X179651Y52701D01*
X179660Y52784D01*
X179669Y52886D01*
X179679Y52988D01*
X179706Y53108D01*
X179762Y53358D01*
X179845Y53635D01*
X179900Y53774D01*
X179965Y53903D01*
X180049Y54033D01*
X180132Y54162D01*
X180141Y54171D01*
X180150Y54190D01*
X180178Y54227D01*
X180224Y54273D01*
X180270Y54319D01*
X180335Y54384D01*
X180409Y54448D01*
X180483Y54523D01*
X180576Y54597D01*
X180686Y54670D01*
X180797Y54754D01*
X180917Y54828D01*
X181056Y54892D01*
X181195Y54966D01*
X181343Y55022D01*
X181509Y55077D01*
X181703Y54245D01*
X181694D01*
X181676Y54236D01*
X181639Y54217D01*
X181593Y54199D01*
X181537Y54180D01*
X181463Y54153D01*
X181315Y54079D01*
X181149Y53986D01*
X180982Y53875D01*
X180825Y53737D01*
X180686Y53589D01*
X180668Y53570D01*
X180631Y53515D01*
X180585Y53422D01*
X180520Y53302D01*
X180464Y53145D01*
X180409Y52969D01*
X180372Y52757D01*
X180363Y52525D01*
Y52452D01*
X180372Y52405D01*
Y52340D01*
X180381Y52267D01*
X180409Y52091D01*
X180446Y51897D01*
X180511Y51693D01*
X180603Y51481D01*
X180723Y51287D01*
Y51277D01*
X180742Y51268D01*
X180788Y51203D01*
X180862Y51120D01*
X180973Y51018D01*
X181112Y50898D01*
X181269Y50787D01*
X181463Y50686D01*
X181676Y50593D01*
X181685D01*
X181703Y50584D01*
X181731Y50575D01*
X181777Y50565D01*
X181833Y50547D01*
X181898Y50528D01*
X182055Y50501D01*
X182240Y50464D01*
X182443Y50427D01*
X182665Y50408D01*
X182905Y50399D01*
X182915D01*
X182942D01*
X182989D01*
X183044D01*
X183109Y50408D01*
X183192D01*
X183284Y50417D01*
X183386Y50427D01*
X183608Y50454D01*
X183848Y50501D01*
X184089Y50556D01*
X184329Y50630D01*
X184338D01*
X184357Y50639D01*
X184385Y50658D01*
X184431Y50676D01*
X184542Y50732D01*
X184671Y50815D01*
X184819Y50917D01*
X184976Y51046D01*
X185115Y51194D01*
X185245Y51370D01*
Y51379D01*
X185254Y51398D01*
X185272Y51425D01*
X185291Y51462D01*
X185309Y51508D01*
X185337Y51564D01*
X185392Y51693D01*
X185448Y51860D01*
X185494Y52045D01*
X185531Y52248D01*
X185540Y52461D01*
Y52525D01*
X185531Y52581D01*
Y52646D01*
X185522Y52710D01*
X185485Y52877D01*
X185439Y53071D01*
X185365Y53265D01*
X185263Y53468D01*
X185208Y53570D01*
X185133Y53663D01*
X185124Y53672D01*
X185115Y53681D01*
X185087Y53709D01*
X185060Y53746D01*
X185013Y53783D01*
X184958Y53829D01*
X184902Y53885D01*
X184828Y53931D01*
X184745Y53986D01*
X184653Y54051D01*
X184560Y54106D01*
X184449Y54162D01*
X184329Y54208D01*
X184200Y54254D01*
X184061Y54301D01*
X183913Y54338D01*
X184126Y55188D01*
X184135D01*
X184172Y55179D01*
D02*
G37*
G36*
X417454Y468150D02*
X418989D01*
Y467364D01*
X417454D01*
Y464581D01*
X416733D01*
X412591Y467512D01*
Y468150D01*
X416733D01*
Y469019D01*
X417454D01*
Y468150D01*
D02*
G37*
G36*
X417011Y464119D02*
X417066Y464100D01*
X417140Y464073D01*
X417223Y464045D01*
X417325Y464008D01*
X417436Y463962D01*
X417556Y463906D01*
X417815Y463777D01*
X418074Y463610D01*
X418203Y463509D01*
X418333Y463407D01*
X418444Y463296D01*
X418555Y463167D01*
X418564Y463157D01*
X418582Y463139D01*
X418601Y463093D01*
X418638Y463046D01*
X418684Y462972D01*
X418730Y462898D01*
X418777Y462797D01*
X418823Y462695D01*
X418878Y462575D01*
X418924Y462445D01*
X418971Y462307D01*
X419017Y462159D01*
X419054Y462002D01*
X419072Y461835D01*
X419091Y461660D01*
X419100Y461475D01*
Y461373D01*
X419091Y461299D01*
Y461216D01*
X419082Y461114D01*
X419063Y461003D01*
X419045Y460874D01*
X418998Y460606D01*
X418924Y460328D01*
X418823Y460051D01*
X418758Y459921D01*
X418684Y459792D01*
X418675Y459783D01*
X418666Y459764D01*
X418638Y459727D01*
X418601Y459690D01*
X418564Y459635D01*
X418508Y459570D01*
X418444Y459496D01*
X418370Y459422D01*
X418287Y459348D01*
X418203Y459265D01*
X417991Y459099D01*
X417741Y458941D01*
X417464Y458803D01*
X417454D01*
X417427Y458784D01*
X417380Y458775D01*
X417325Y458747D01*
X417251Y458729D01*
X417159Y458701D01*
X417057Y458664D01*
X416946Y458636D01*
X416826Y458609D01*
X416687Y458572D01*
X416400Y458525D01*
X416077Y458488D01*
X415744Y458470D01*
X415735D01*
X415698D01*
X415642D01*
X415578Y458479D01*
X415485D01*
X415393Y458488D01*
X415272Y458498D01*
X415152Y458516D01*
X414884Y458562D01*
X414588Y458627D01*
X414292Y458719D01*
X414006Y458849D01*
X413997Y458858D01*
X413969Y458867D01*
X413932Y458886D01*
X413886Y458923D01*
X413821Y458960D01*
X413747Y459006D01*
X413581Y459126D01*
X413396Y459283D01*
X413211Y459468D01*
X413026Y459681D01*
X412869Y459931D01*
X412859Y459940D01*
X412850Y459968D01*
X412832Y460005D01*
X412804Y460051D01*
X412776Y460125D01*
X412748Y460199D01*
X412711Y460291D01*
X412674Y460393D01*
X412637Y460504D01*
X412600Y460624D01*
X412545Y460883D01*
X412499Y461179D01*
X412480Y461484D01*
Y461576D01*
X412490Y461641D01*
X412499Y461724D01*
X412508Y461826D01*
X412517Y461928D01*
X412545Y462048D01*
X412600Y462298D01*
X412684Y462575D01*
X412739Y462714D01*
X412804Y462843D01*
X412887Y462972D01*
X412970Y463102D01*
X412980Y463111D01*
X412989Y463130D01*
X413017Y463167D01*
X413063Y463213D01*
X413109Y463259D01*
X413174Y463324D01*
X413248Y463389D01*
X413322Y463462D01*
X413414Y463536D01*
X413525Y463610D01*
X413636Y463694D01*
X413756Y463768D01*
X413895Y463832D01*
X414034Y463906D01*
X414181Y463962D01*
X414348Y464017D01*
X414542Y463185D01*
X414533D01*
X414514Y463176D01*
X414477Y463157D01*
X414431Y463139D01*
X414376Y463120D01*
X414302Y463093D01*
X414154Y463019D01*
X413987Y462926D01*
X413821Y462815D01*
X413664Y462677D01*
X413525Y462529D01*
X413507Y462510D01*
X413470Y462455D01*
X413423Y462362D01*
X413359Y462242D01*
X413303Y462085D01*
X413248Y461909D01*
X413211Y461697D01*
X413201Y461465D01*
Y461391D01*
X413211Y461345D01*
Y461281D01*
X413220Y461207D01*
X413248Y461031D01*
X413285Y460837D01*
X413349Y460633D01*
X413442Y460421D01*
X413562Y460227D01*
Y460217D01*
X413581Y460208D01*
X413627Y460143D01*
X413701Y460060D01*
X413812Y459958D01*
X413950Y459838D01*
X414108Y459727D01*
X414302Y459626D01*
X414514Y459533D01*
X414524D01*
X414542Y459524D01*
X414570Y459515D01*
X414616Y459505D01*
X414672Y459487D01*
X414736Y459468D01*
X414893Y459441D01*
X415078Y459404D01*
X415282Y459367D01*
X415504Y459348D01*
X415744Y459339D01*
X415753D01*
X415781D01*
X415827D01*
X415883D01*
X415947Y459348D01*
X416031D01*
X416123Y459357D01*
X416225Y459367D01*
X416447Y459394D01*
X416687Y459441D01*
X416927Y459496D01*
X417168Y459570D01*
X417177D01*
X417196Y459579D01*
X417223Y459598D01*
X417270Y459616D01*
X417380Y459672D01*
X417510Y459755D01*
X417658Y459857D01*
X417815Y459986D01*
X417954Y460134D01*
X418083Y460310D01*
Y460319D01*
X418092Y460337D01*
X418111Y460365D01*
X418129Y460402D01*
X418148Y460448D01*
X418176Y460504D01*
X418231Y460633D01*
X418287Y460800D01*
X418333Y460985D01*
X418370Y461188D01*
X418379Y461401D01*
Y461465D01*
X418370Y461521D01*
Y461586D01*
X418360Y461650D01*
X418324Y461817D01*
X418277Y462011D01*
X418203Y462205D01*
X418102Y462408D01*
X418046Y462510D01*
X417972Y462603D01*
X417963Y462612D01*
X417954Y462621D01*
X417926Y462649D01*
X417898Y462686D01*
X417852Y462723D01*
X417797Y462769D01*
X417741Y462825D01*
X417667Y462871D01*
X417584Y462926D01*
X417491Y462991D01*
X417399Y463046D01*
X417288Y463102D01*
X417168Y463148D01*
X417038Y463194D01*
X416900Y463241D01*
X416752Y463278D01*
X416964Y464128D01*
X416974D01*
X417011Y464119D01*
D02*
G37*
G36*
X386976Y384592D02*
X388511D01*
Y383806D01*
X386976D01*
Y381023D01*
X386255D01*
X382113Y383954D01*
Y384592D01*
X386255D01*
Y385461D01*
X386976D01*
Y384592D01*
D02*
G37*
G36*
X388511Y378490D02*
X383509D01*
X383518Y378481D01*
X383555Y378434D01*
X383611Y378379D01*
X383676Y378286D01*
X383759Y378185D01*
X383851Y378055D01*
X383953Y377907D01*
X384055Y377741D01*
Y377732D01*
X384064Y377723D01*
X384101Y377667D01*
X384147Y377575D01*
X384203Y377464D01*
X384267Y377334D01*
X384332Y377196D01*
X384397Y377057D01*
X384452Y376918D01*
X383694D01*
Y376927D01*
X383676Y376946D01*
X383666Y376983D01*
X383639Y377029D01*
X383611Y377085D01*
X383574Y377149D01*
X383482Y377306D01*
X383380Y377491D01*
X383250Y377676D01*
X383102Y377870D01*
X382945Y378064D01*
X382936Y378074D01*
X382927Y378083D01*
X382899Y378111D01*
X382871Y378148D01*
X382779Y378231D01*
X382668Y378342D01*
X382538Y378453D01*
X382391Y378573D01*
X382243Y378675D01*
X382085Y378767D01*
Y379276D01*
X388511D01*
Y378490D01*
D02*
G37*
G36*
X386533Y375587D02*
X386588Y375568D01*
X386662Y375541D01*
X386745Y375513D01*
X386847Y375476D01*
X386958Y375430D01*
X387078Y375374D01*
X387337Y375245D01*
X387596Y375078D01*
X387725Y374977D01*
X387855Y374875D01*
X387966Y374764D01*
X388077Y374634D01*
X388086Y374625D01*
X388104Y374607D01*
X388123Y374561D01*
X388160Y374514D01*
X388206Y374440D01*
X388252Y374366D01*
X388298Y374265D01*
X388345Y374163D01*
X388400Y374043D01*
X388446Y373913D01*
X388493Y373775D01*
X388539Y373627D01*
X388576Y373470D01*
X388594Y373303D01*
X388613Y373127D01*
X388622Y372943D01*
Y372841D01*
X388613Y372767D01*
Y372684D01*
X388604Y372582D01*
X388585Y372471D01*
X388567Y372341D01*
X388520Y372073D01*
X388446Y371796D01*
X388345Y371519D01*
X388280Y371389D01*
X388206Y371260D01*
X388197Y371250D01*
X388188Y371232D01*
X388160Y371195D01*
X388123Y371158D01*
X388086Y371103D01*
X388030Y371038D01*
X387966Y370964D01*
X387892Y370890D01*
X387808Y370816D01*
X387725Y370733D01*
X387513Y370566D01*
X387263Y370409D01*
X386986Y370271D01*
X386976D01*
X386949Y370252D01*
X386902Y370243D01*
X386847Y370215D01*
X386773Y370196D01*
X386680Y370169D01*
X386579Y370132D01*
X386468Y370104D01*
X386348Y370076D01*
X386209Y370039D01*
X385922Y369993D01*
X385599Y369956D01*
X385266Y369938D01*
X385257D01*
X385220D01*
X385164D01*
X385099Y369947D01*
X385007D01*
X384915Y369956D01*
X384794Y369965D01*
X384674Y369984D01*
X384406Y370030D01*
X384110Y370095D01*
X383814Y370187D01*
X383528Y370317D01*
X383518Y370326D01*
X383491Y370335D01*
X383454Y370354D01*
X383408Y370391D01*
X383343Y370428D01*
X383269Y370474D01*
X383102Y370594D01*
X382918Y370751D01*
X382733Y370936D01*
X382548Y371149D01*
X382391Y371399D01*
X382381Y371408D01*
X382372Y371436D01*
X382354Y371472D01*
X382326Y371519D01*
X382298Y371593D01*
X382270Y371667D01*
X382233Y371759D01*
X382196Y371861D01*
X382159Y371972D01*
X382122Y372092D01*
X382067Y372351D01*
X382021Y372647D01*
X382002Y372952D01*
Y373044D01*
X382011Y373109D01*
X382021Y373192D01*
X382030Y373294D01*
X382039Y373396D01*
X382067Y373516D01*
X382122Y373765D01*
X382206Y374043D01*
X382261Y374181D01*
X382326Y374311D01*
X382409Y374440D01*
X382492Y374570D01*
X382501Y374579D01*
X382511Y374597D01*
X382538Y374634D01*
X382585Y374681D01*
X382631Y374727D01*
X382696Y374792D01*
X382770Y374856D01*
X382844Y374930D01*
X382936Y375004D01*
X383047Y375078D01*
X383158Y375161D01*
X383278Y375235D01*
X383417Y375300D01*
X383555Y375374D01*
X383703Y375430D01*
X383870Y375485D01*
X384064Y374653D01*
X384055D01*
X384036Y374644D01*
X383999Y374625D01*
X383953Y374607D01*
X383898Y374588D01*
X383824Y374561D01*
X383676Y374487D01*
X383509Y374394D01*
X383343Y374283D01*
X383186Y374144D01*
X383047Y373997D01*
X383028Y373978D01*
X382991Y373923D01*
X382945Y373830D01*
X382881Y373710D01*
X382825Y373553D01*
X382770Y373377D01*
X382733Y373164D01*
X382723Y372933D01*
Y372859D01*
X382733Y372813D01*
Y372748D01*
X382742Y372674D01*
X382770Y372499D01*
X382807Y372304D01*
X382871Y372101D01*
X382964Y371889D01*
X383084Y371694D01*
Y371685D01*
X383102Y371676D01*
X383149Y371611D01*
X383223Y371528D01*
X383334Y371426D01*
X383472Y371306D01*
X383629Y371195D01*
X383824Y371093D01*
X384036Y371001D01*
X384045D01*
X384064Y370992D01*
X384092Y370982D01*
X384138Y370973D01*
X384193Y370955D01*
X384258Y370936D01*
X384415Y370909D01*
X384600Y370872D01*
X384804Y370835D01*
X385026Y370816D01*
X385266Y370807D01*
X385275D01*
X385303D01*
X385349D01*
X385405D01*
X385469Y370816D01*
X385553D01*
X385645Y370825D01*
X385747Y370835D01*
X385969Y370862D01*
X386209Y370909D01*
X386449Y370964D01*
X386690Y371038D01*
X386699D01*
X386717Y371047D01*
X386745Y371066D01*
X386791Y371084D01*
X386902Y371140D01*
X387032Y371223D01*
X387180Y371325D01*
X387337Y371454D01*
X387476Y371602D01*
X387605Y371777D01*
Y371787D01*
X387614Y371805D01*
X387633Y371833D01*
X387651Y371870D01*
X387670Y371916D01*
X387697Y371972D01*
X387753Y372101D01*
X387808Y372268D01*
X387855Y372453D01*
X387892Y372656D01*
X387901Y372868D01*
Y372933D01*
X387892Y372989D01*
Y373053D01*
X387882Y373118D01*
X387845Y373285D01*
X387799Y373479D01*
X387725Y373673D01*
X387624Y373876D01*
X387568Y373978D01*
X387494Y374070D01*
X387485Y374080D01*
X387476Y374089D01*
X387448Y374117D01*
X387420Y374154D01*
X387374Y374191D01*
X387318Y374237D01*
X387263Y374292D01*
X387189Y374339D01*
X387106Y374394D01*
X387013Y374459D01*
X386921Y374514D01*
X386810Y374570D01*
X386690Y374616D01*
X386560Y374662D01*
X386422Y374708D01*
X386274Y374745D01*
X386486Y375596D01*
X386496D01*
X386533Y375587D01*
D02*
G37*
G36*
X355441Y385480D02*
X355515Y385470D01*
X355598Y385452D01*
X355691Y385433D01*
X355792Y385415D01*
X356014Y385341D01*
X356134Y385285D01*
X356245Y385230D01*
X356366Y385156D01*
X356486Y385073D01*
X356606Y384980D01*
X356717Y384869D01*
X356726Y384860D01*
X356745Y384842D01*
X356772Y384805D01*
X356809Y384758D01*
X356856Y384703D01*
X356902Y384629D01*
X356957Y384546D01*
X357004Y384444D01*
X357059Y384342D01*
X357114Y384222D01*
X357161Y384102D01*
X357207Y383963D01*
X357244Y383815D01*
X357272Y383658D01*
X357290Y383501D01*
X357299Y383325D01*
Y383242D01*
X357290Y383187D01*
X357281Y383113D01*
X357272Y383029D01*
X357253Y382937D01*
X357235Y382835D01*
X357179Y382613D01*
X357087Y382382D01*
X357031Y382262D01*
X356967Y382151D01*
X356883Y382040D01*
X356800Y381929D01*
X356791Y381920D01*
X356772Y381902D01*
X356745Y381874D01*
X356708Y381846D01*
X356661Y381800D01*
X356597Y381754D01*
X356532Y381698D01*
X356449Y381643D01*
X356356Y381587D01*
X356264Y381532D01*
X356042Y381430D01*
X355783Y381347D01*
X355644Y381319D01*
X355496Y381301D01*
X355395Y382086D01*
X355404D01*
X355423Y382096D01*
X355460Y382105D01*
X355506Y382114D01*
X355561Y382123D01*
X355626Y382142D01*
X355765Y382188D01*
X355931Y382253D01*
X356088Y382336D01*
X356236Y382429D01*
X356366Y382539D01*
X356375Y382558D01*
X356412Y382595D01*
X356458Y382669D01*
X356504Y382761D01*
X356560Y382872D01*
X356606Y383011D01*
X356643Y383168D01*
X356652Y383335D01*
Y383390D01*
X356643Y383427D01*
X356634Y383529D01*
X356606Y383658D01*
X356560Y383806D01*
X356495Y383963D01*
X356403Y384120D01*
X356273Y384268D01*
X356255Y384287D01*
X356199Y384333D01*
X356116Y384389D01*
X356005Y384463D01*
X355866Y384537D01*
X355709Y384592D01*
X355524Y384638D01*
X355321Y384657D01*
X355312D01*
X355293D01*
X355265D01*
X355228Y384647D01*
X355127Y384638D01*
X355006Y384610D01*
X354859Y384573D01*
X354711Y384509D01*
X354563Y384416D01*
X354424Y384296D01*
X354406Y384278D01*
X354369Y384231D01*
X354313Y384157D01*
X354248Y384056D01*
X354184Y383926D01*
X354128Y383769D01*
X354091Y383593D01*
X354073Y383399D01*
Y383316D01*
X354082Y383251D01*
X354091Y383168D01*
X354110Y383076D01*
X354128Y382965D01*
X354156Y382845D01*
X353462Y382937D01*
Y382983D01*
X353472Y383020D01*
Y383140D01*
X353453Y383242D01*
X353435Y383362D01*
X353407Y383501D01*
X353361Y383658D01*
X353296Y383806D01*
X353213Y383963D01*
Y383973D01*
X353204Y383982D01*
X353167Y384028D01*
X353102Y384093D01*
X353019Y384167D01*
X352898Y384241D01*
X352760Y384305D01*
X352603Y384352D01*
X352510Y384370D01*
X352408D01*
X352399D01*
X352390D01*
X352335D01*
X352261Y384352D01*
X352159Y384333D01*
X352048Y384296D01*
X351928Y384250D01*
X351808Y384176D01*
X351697Y384074D01*
X351687Y384065D01*
X351650Y384019D01*
X351604Y383954D01*
X351549Y383871D01*
X351502Y383760D01*
X351456Y383630D01*
X351419Y383483D01*
X351410Y383316D01*
Y383242D01*
X351428Y383159D01*
X351447Y383048D01*
X351484Y382928D01*
X351530Y382808D01*
X351604Y382678D01*
X351697Y382558D01*
X351706Y382549D01*
X351752Y382512D01*
X351817Y382456D01*
X351909Y382392D01*
X352029Y382327D01*
X352177Y382262D01*
X352353Y382207D01*
X352556Y382170D01*
X352418Y381384D01*
X352408D01*
X352381Y381393D01*
X352344Y381402D01*
X352288Y381412D01*
X352224Y381430D01*
X352150Y381458D01*
X351974Y381513D01*
X351771Y381606D01*
X351567Y381717D01*
X351373Y381855D01*
X351197Y382031D01*
X351188Y382040D01*
X351179Y382059D01*
X351160Y382086D01*
X351133Y382123D01*
X351096Y382170D01*
X351059Y382234D01*
X351022Y382299D01*
X350975Y382382D01*
X350901Y382567D01*
X350827Y382780D01*
X350781Y383029D01*
X350763Y383159D01*
Y383390D01*
X350772Y383492D01*
X350790Y383612D01*
X350818Y383760D01*
X350864Y383926D01*
X350920Y384093D01*
X350994Y384259D01*
Y384268D01*
X351003Y384278D01*
X351031Y384333D01*
X351086Y384416D01*
X351151Y384509D01*
X351244Y384620D01*
X351345Y384731D01*
X351465Y384842D01*
X351604Y384934D01*
X351623Y384943D01*
X351669Y384971D01*
X351752Y385008D01*
X351854Y385054D01*
X351974Y385100D01*
X352113Y385137D01*
X352270Y385165D01*
X352427Y385174D01*
X352445D01*
X352501D01*
X352575Y385165D01*
X352677Y385147D01*
X352797Y385119D01*
X352926Y385073D01*
X353056Y385017D01*
X353185Y384943D01*
X353204Y384934D01*
X353241Y384906D01*
X353305Y384851D01*
X353379Y384777D01*
X353462Y384684D01*
X353555Y384573D01*
X353638Y384444D01*
X353721Y384287D01*
Y384296D01*
X353731Y384315D01*
X353740Y384342D01*
X353749Y384379D01*
X353786Y384481D01*
X353842Y384610D01*
X353915Y384758D01*
X354008Y384906D01*
X354128Y385045D01*
X354267Y385174D01*
X354285Y385184D01*
X354341Y385221D01*
X354433Y385276D01*
X354553Y385332D01*
X354701Y385387D01*
X354877Y385443D01*
X355080Y385480D01*
X355302Y385489D01*
X355312D01*
X355339D01*
X355386D01*
X355441Y385480D01*
D02*
G37*
G36*
X357188Y378490D02*
X352187D01*
X352196Y378481D01*
X352233Y378434D01*
X352288Y378379D01*
X352353Y378286D01*
X352436Y378185D01*
X352529Y378055D01*
X352630Y377907D01*
X352732Y377741D01*
Y377732D01*
X352741Y377723D01*
X352778Y377667D01*
X352825Y377575D01*
X352880Y377464D01*
X352945Y377334D01*
X353009Y377196D01*
X353074Y377057D01*
X353130Y376918D01*
X352371D01*
Y376927D01*
X352353Y376946D01*
X352344Y376983D01*
X352316Y377029D01*
X352288Y377085D01*
X352251Y377149D01*
X352159Y377306D01*
X352057Y377491D01*
X351928Y377676D01*
X351780Y377870D01*
X351623Y378064D01*
X351613Y378074D01*
X351604Y378083D01*
X351576Y378111D01*
X351549Y378148D01*
X351456Y378231D01*
X351345Y378342D01*
X351216Y378453D01*
X351068Y378573D01*
X350920Y378675D01*
X350763Y378767D01*
Y379276D01*
X357188D01*
Y378490D01*
D02*
G37*
G36*
X355210Y375587D02*
X355265Y375568D01*
X355339Y375541D01*
X355423Y375513D01*
X355524Y375476D01*
X355635Y375430D01*
X355755Y375374D01*
X356014Y375245D01*
X356273Y375078D01*
X356403Y374977D01*
X356532Y374875D01*
X356643Y374764D01*
X356754Y374634D01*
X356763Y374625D01*
X356782Y374607D01*
X356800Y374561D01*
X356837Y374514D01*
X356883Y374440D01*
X356930Y374366D01*
X356976Y374265D01*
X357022Y374163D01*
X357077Y374043D01*
X357124Y373913D01*
X357170Y373775D01*
X357216Y373627D01*
X357253Y373470D01*
X357272Y373303D01*
X357290Y373127D01*
X357299Y372943D01*
Y372841D01*
X357290Y372767D01*
Y372684D01*
X357281Y372582D01*
X357262Y372471D01*
X357244Y372341D01*
X357198Y372073D01*
X357124Y371796D01*
X357022Y371519D01*
X356957Y371389D01*
X356883Y371260D01*
X356874Y371250D01*
X356865Y371232D01*
X356837Y371195D01*
X356800Y371158D01*
X356763Y371103D01*
X356708Y371038D01*
X356643Y370964D01*
X356569Y370890D01*
X356486Y370816D01*
X356403Y370733D01*
X356190Y370566D01*
X355940Y370409D01*
X355663Y370271D01*
X355654D01*
X355626Y370252D01*
X355580Y370243D01*
X355524Y370215D01*
X355450Y370196D01*
X355358Y370169D01*
X355256Y370132D01*
X355145Y370104D01*
X355025Y370076D01*
X354886Y370039D01*
X354600Y369993D01*
X354276Y369956D01*
X353943Y369938D01*
X353934D01*
X353897D01*
X353842D01*
X353777Y369947D01*
X353684D01*
X353592Y369956D01*
X353472Y369965D01*
X353352Y369984D01*
X353083Y370030D01*
X352788Y370095D01*
X352492Y370187D01*
X352205Y370317D01*
X352196Y370326D01*
X352168Y370335D01*
X352131Y370354D01*
X352085Y370391D01*
X352020Y370428D01*
X351946Y370474D01*
X351780Y370594D01*
X351595Y370751D01*
X351410Y370936D01*
X351225Y371149D01*
X351068Y371399D01*
X351059Y371408D01*
X351049Y371436D01*
X351031Y371472D01*
X351003Y371519D01*
X350975Y371593D01*
X350948Y371667D01*
X350911Y371759D01*
X350874Y371861D01*
X350837Y371972D01*
X350800Y372092D01*
X350744Y372351D01*
X350698Y372647D01*
X350680Y372952D01*
Y373044D01*
X350689Y373109D01*
X350698Y373192D01*
X350707Y373294D01*
X350717Y373396D01*
X350744Y373516D01*
X350800Y373765D01*
X350883Y374043D01*
X350938Y374181D01*
X351003Y374311D01*
X351086Y374440D01*
X351170Y374570D01*
X351179Y374579D01*
X351188Y374597D01*
X351216Y374634D01*
X351262Y374681D01*
X351308Y374727D01*
X351373Y374792D01*
X351447Y374856D01*
X351521Y374930D01*
X351613Y375004D01*
X351724Y375078D01*
X351835Y375161D01*
X351955Y375235D01*
X352094Y375300D01*
X352233Y375374D01*
X352381Y375430D01*
X352547Y375485D01*
X352741Y374653D01*
X352732D01*
X352714Y374644D01*
X352677Y374625D01*
X352630Y374607D01*
X352575Y374588D01*
X352501Y374561D01*
X352353Y374487D01*
X352187Y374394D01*
X352020Y374283D01*
X351863Y374144D01*
X351724Y373997D01*
X351706Y373978D01*
X351669Y373923D01*
X351623Y373830D01*
X351558Y373710D01*
X351502Y373553D01*
X351447Y373377D01*
X351410Y373164D01*
X351401Y372933D01*
Y372859D01*
X351410Y372813D01*
Y372748D01*
X351419Y372674D01*
X351447Y372499D01*
X351484Y372304D01*
X351549Y372101D01*
X351641Y371889D01*
X351761Y371694D01*
Y371685D01*
X351780Y371676D01*
X351826Y371611D01*
X351900Y371528D01*
X352011Y371426D01*
X352150Y371306D01*
X352307Y371195D01*
X352501Y371093D01*
X352714Y371001D01*
X352723D01*
X352741Y370992D01*
X352769Y370982D01*
X352815Y370973D01*
X352871Y370955D01*
X352935Y370936D01*
X353093Y370909D01*
X353278Y370872D01*
X353481Y370835D01*
X353703Y370816D01*
X353943Y370807D01*
X353952D01*
X353980D01*
X354026D01*
X354082D01*
X354147Y370816D01*
X354230D01*
X354322Y370825D01*
X354424Y370835D01*
X354646Y370862D01*
X354886Y370909D01*
X355127Y370964D01*
X355367Y371038D01*
X355376D01*
X355395Y371047D01*
X355423Y371066D01*
X355469Y371084D01*
X355580Y371140D01*
X355709Y371223D01*
X355857Y371325D01*
X356014Y371454D01*
X356153Y371602D01*
X356282Y371777D01*
Y371787D01*
X356292Y371805D01*
X356310Y371833D01*
X356329Y371870D01*
X356347Y371916D01*
X356375Y371972D01*
X356430Y372101D01*
X356486Y372268D01*
X356532Y372453D01*
X356569Y372656D01*
X356578Y372868D01*
Y372933D01*
X356569Y372989D01*
Y373053D01*
X356560Y373118D01*
X356523Y373285D01*
X356477Y373479D01*
X356403Y373673D01*
X356301Y373876D01*
X356245Y373978D01*
X356171Y374070D01*
X356162Y374080D01*
X356153Y374089D01*
X356125Y374117D01*
X356097Y374154D01*
X356051Y374191D01*
X355996Y374237D01*
X355940Y374292D01*
X355866Y374339D01*
X355783Y374394D01*
X355691Y374459D01*
X355598Y374514D01*
X355487Y374570D01*
X355367Y374616D01*
X355238Y374662D01*
X355099Y374708D01*
X354951Y374745D01*
X355164Y375596D01*
X355173D01*
X355210Y375587D01*
D02*
G37*
G36*
X135601Y296317D02*
X135684D01*
X135786Y296307D01*
X135897Y296289D01*
X136026Y296270D01*
X136294Y296224D01*
X136572Y296150D01*
X136849Y296048D01*
X136979Y295984D01*
X137108Y295910D01*
X137117Y295900D01*
X137136Y295891D01*
X137173Y295863D01*
X137210Y295826D01*
X137265Y295790D01*
X137330Y295734D01*
X137404Y295669D01*
X137478Y295595D01*
X137552Y295512D01*
X137635Y295429D01*
X137801Y295216D01*
X137959Y294967D01*
X138097Y294689D01*
Y294680D01*
X138116Y294652D01*
X138125Y294606D01*
X138153Y294551D01*
X138171Y294477D01*
X138199Y294384D01*
X138236Y294282D01*
X138264Y294172D01*
X138291Y294051D01*
X138328Y293913D01*
X138375Y293626D01*
X138412Y293302D01*
X138430Y292970D01*
Y292960D01*
Y292923D01*
Y292868D01*
X138421Y292803D01*
Y292711D01*
X138412Y292618D01*
X138402Y292498D01*
X138384Y292378D01*
X138338Y292110D01*
X138273Y291814D01*
X138181Y291518D01*
X138051Y291231D01*
X138042Y291222D01*
X138033Y291194D01*
X138014Y291157D01*
X137977Y291111D01*
X137940Y291047D01*
X137894Y290972D01*
X137774Y290806D01*
X137617Y290621D01*
X137432Y290436D01*
X137219Y290251D01*
X136969Y290094D01*
X136960Y290085D01*
X136932Y290076D01*
X136895Y290057D01*
X136849Y290030D01*
X136775Y290002D01*
X136701Y289974D01*
X136609Y289937D01*
X136507Y289900D01*
X136396Y289863D01*
X136276Y289826D01*
X136017Y289771D01*
X135721Y289724D01*
X135416Y289706D01*
X135324D01*
X135259Y289715D01*
X135176Y289724D01*
X135074Y289734D01*
X134972Y289743D01*
X134852Y289771D01*
X134602Y289826D01*
X134325Y289909D01*
X134186Y289965D01*
X134057Y290030D01*
X133927Y290113D01*
X133798Y290196D01*
X133789Y290205D01*
X133770Y290214D01*
X133733Y290242D01*
X133687Y290288D01*
X133641Y290335D01*
X133576Y290399D01*
X133511Y290473D01*
X133438Y290547D01*
X133364Y290640D01*
X133290Y290751D01*
X133206Y290862D01*
X133132Y290982D01*
X133068Y291120D01*
X132994Y291259D01*
X132938Y291407D01*
X132883Y291574D01*
X133715Y291768D01*
Y291758D01*
X133724Y291740D01*
X133743Y291703D01*
X133761Y291657D01*
X133780Y291601D01*
X133807Y291527D01*
X133881Y291379D01*
X133974Y291213D01*
X134085Y291047D01*
X134223Y290889D01*
X134371Y290751D01*
X134390Y290732D01*
X134445Y290695D01*
X134538Y290649D01*
X134658Y290584D01*
X134815Y290529D01*
X134991Y290473D01*
X135203Y290436D01*
X135435Y290427D01*
X135508D01*
X135555Y290436D01*
X135619D01*
X135693Y290445D01*
X135869Y290473D01*
X136063Y290510D01*
X136267Y290575D01*
X136479Y290667D01*
X136673Y290788D01*
X136683D01*
X136692Y290806D01*
X136757Y290852D01*
X136840Y290926D01*
X136942Y291037D01*
X137062Y291176D01*
X137173Y291333D01*
X137274Y291527D01*
X137367Y291740D01*
Y291749D01*
X137376Y291768D01*
X137385Y291795D01*
X137395Y291842D01*
X137413Y291897D01*
X137432Y291962D01*
X137459Y292119D01*
X137496Y292304D01*
X137533Y292507D01*
X137552Y292729D01*
X137561Y292970D01*
Y292979D01*
Y293007D01*
Y293053D01*
Y293108D01*
X137552Y293173D01*
Y293256D01*
X137542Y293349D01*
X137533Y293450D01*
X137506Y293672D01*
X137459Y293913D01*
X137404Y294153D01*
X137330Y294393D01*
Y294403D01*
X137321Y294421D01*
X137302Y294449D01*
X137284Y294495D01*
X137228Y294606D01*
X137145Y294736D01*
X137043Y294883D01*
X136914Y295041D01*
X136766Y295179D01*
X136590Y295309D01*
X136581D01*
X136562Y295318D01*
X136535Y295336D01*
X136498Y295355D01*
X136452Y295373D01*
X136396Y295401D01*
X136267Y295457D01*
X136100Y295512D01*
X135915Y295558D01*
X135712Y295595D01*
X135499Y295605D01*
X135435D01*
X135379Y295595D01*
X135314D01*
X135250Y295586D01*
X135083Y295549D01*
X134889Y295503D01*
X134695Y295429D01*
X134492Y295327D01*
X134390Y295272D01*
X134297Y295198D01*
X134288Y295189D01*
X134279Y295179D01*
X134251Y295152D01*
X134214Y295124D01*
X134177Y295078D01*
X134131Y295022D01*
X134075Y294967D01*
X134029Y294893D01*
X133974Y294809D01*
X133909Y294717D01*
X133854Y294625D01*
X133798Y294514D01*
X133752Y294393D01*
X133706Y294264D01*
X133659Y294125D01*
X133622Y293977D01*
X132772Y294190D01*
Y294199D01*
X132781Y294236D01*
X132800Y294292D01*
X132827Y294366D01*
X132855Y294449D01*
X132892Y294551D01*
X132938Y294662D01*
X132994Y294782D01*
X133123Y295041D01*
X133290Y295299D01*
X133391Y295429D01*
X133493Y295558D01*
X133604Y295669D01*
X133733Y295780D01*
X133743Y295790D01*
X133761Y295808D01*
X133807Y295826D01*
X133854Y295863D01*
X133927Y295910D01*
X134002Y295956D01*
X134103Y296002D01*
X134205Y296048D01*
X134325Y296104D01*
X134454Y296150D01*
X134593Y296196D01*
X134741Y296243D01*
X134898Y296280D01*
X135065Y296298D01*
X135240Y296317D01*
X135425Y296326D01*
X135527D01*
X135601Y296317D01*
D02*
G37*
G36*
X129878Y291213D02*
X129887Y291222D01*
X129933Y291259D01*
X129989Y291315D01*
X130081Y291379D01*
X130183Y291462D01*
X130312Y291555D01*
X130460Y291657D01*
X130627Y291758D01*
X130636D01*
X130645Y291768D01*
X130701Y291805D01*
X130793Y291851D01*
X130904Y291906D01*
X131034Y291971D01*
X131172Y292036D01*
X131311Y292101D01*
X131450Y292156D01*
Y291398D01*
X131440D01*
X131422Y291379D01*
X131385Y291370D01*
X131339Y291342D01*
X131283Y291315D01*
X131219Y291278D01*
X131061Y291185D01*
X130877Y291084D01*
X130692Y290954D01*
X130497Y290806D01*
X130303Y290649D01*
X130294Y290640D01*
X130285Y290630D01*
X130257Y290603D01*
X130220Y290575D01*
X130137Y290483D01*
X130026Y290372D01*
X129915Y290242D01*
X129795Y290094D01*
X129693Y289946D01*
X129601Y289789D01*
X129092D01*
Y296215D01*
X129878D01*
Y291213D01*
D02*
G37*
G36*
X127188Y296206D02*
Y296168D01*
Y296113D01*
X127178Y296039D01*
X127169Y295956D01*
X127150Y295863D01*
X127132Y295771D01*
X127095Y295669D01*
Y295660D01*
X127086Y295651D01*
X127067Y295595D01*
X127030Y295512D01*
X126975Y295401D01*
X126901Y295272D01*
X126808Y295124D01*
X126707Y294976D01*
X126577Y294819D01*
Y294809D01*
X126559Y294800D01*
X126512Y294745D01*
X126429Y294662D01*
X126309Y294541D01*
X126171Y294403D01*
X125995Y294236D01*
X125782Y294051D01*
X125551Y293857D01*
X125542Y293848D01*
X125505Y293820D01*
X125449Y293774D01*
X125385Y293718D01*
X125301Y293645D01*
X125200Y293561D01*
X125098Y293469D01*
X124978Y293367D01*
X124747Y293145D01*
X124515Y292923D01*
X124405Y292812D01*
X124303Y292701D01*
X124210Y292600D01*
X124136Y292498D01*
Y292489D01*
X124118Y292480D01*
X124099Y292452D01*
X124081Y292415D01*
X124016Y292313D01*
X123942Y292193D01*
X123878Y292045D01*
X123813Y291888D01*
X123776Y291712D01*
X123757Y291546D01*
Y291537D01*
Y291527D01*
X123767Y291472D01*
X123776Y291379D01*
X123804Y291278D01*
X123841Y291148D01*
X123905Y291019D01*
X123989Y290889D01*
X124099Y290760D01*
X124118Y290741D01*
X124164Y290704D01*
X124229Y290658D01*
X124331Y290593D01*
X124460Y290538D01*
X124608Y290483D01*
X124784Y290445D01*
X124978Y290436D01*
X125033D01*
X125070Y290445D01*
X125181Y290455D01*
X125311Y290483D01*
X125449Y290520D01*
X125606Y290584D01*
X125754Y290667D01*
X125893Y290778D01*
X125912Y290797D01*
X125949Y290843D01*
X126004Y290917D01*
X126060Y291028D01*
X126124Y291157D01*
X126180Y291324D01*
X126217Y291509D01*
X126235Y291721D01*
X127039Y291638D01*
Y291629D01*
X127030Y291601D01*
Y291555D01*
X127021Y291490D01*
X127003Y291416D01*
X126984Y291333D01*
X126956Y291231D01*
X126929Y291130D01*
X126855Y290908D01*
X126744Y290686D01*
X126679Y290575D01*
X126596Y290464D01*
X126512Y290362D01*
X126420Y290270D01*
X126411Y290261D01*
X126392Y290251D01*
X126365Y290224D01*
X126318Y290196D01*
X126263Y290159D01*
X126198Y290122D01*
X126124Y290076D01*
X126032Y290030D01*
X125930Y289983D01*
X125819Y289937D01*
X125699Y289900D01*
X125569Y289863D01*
X125431Y289835D01*
X125283Y289808D01*
X125126Y289798D01*
X124959Y289789D01*
X124867D01*
X124802Y289798D01*
X124728Y289808D01*
X124636Y289817D01*
X124534Y289835D01*
X124432Y289854D01*
X124192Y289918D01*
X123952Y290011D01*
X123831Y290067D01*
X123711Y290131D01*
X123600Y290214D01*
X123498Y290307D01*
X123489Y290316D01*
X123471Y290325D01*
X123452Y290362D01*
X123415Y290399D01*
X123369Y290445D01*
X123323Y290510D01*
X123277Y290575D01*
X123221Y290658D01*
X123129Y290834D01*
X123036Y291056D01*
X122999Y291167D01*
X122981Y291296D01*
X122962Y291426D01*
X122953Y291564D01*
Y291583D01*
Y291629D01*
X122962Y291703D01*
X122971Y291805D01*
X122990Y291916D01*
X123027Y292045D01*
X123064Y292184D01*
X123119Y292322D01*
X123129Y292341D01*
X123147Y292387D01*
X123184Y292461D01*
X123240Y292563D01*
X123314Y292674D01*
X123406Y292812D01*
X123517Y292951D01*
X123646Y293108D01*
X123665Y293127D01*
X123711Y293182D01*
X123757Y293228D01*
X123804Y293275D01*
X123859Y293330D01*
X123933Y293404D01*
X124007Y293478D01*
X124099Y293561D01*
X124192Y293654D01*
X124303Y293755D01*
X124423Y293857D01*
X124552Y293977D01*
X124700Y294097D01*
X124848Y294227D01*
X124858Y294236D01*
X124876Y294255D01*
X124913Y294282D01*
X124959Y294319D01*
X125015Y294375D01*
X125079Y294430D01*
X125227Y294551D01*
X125385Y294689D01*
X125533Y294828D01*
X125662Y294948D01*
X125717Y294994D01*
X125764Y295041D01*
X125773Y295050D01*
X125801Y295078D01*
X125838Y295114D01*
X125884Y295170D01*
X125930Y295235D01*
X125985Y295299D01*
X126096Y295457D01*
X122944D01*
Y296215D01*
X127188D01*
Y296206D01*
D02*
G37*
G36*
X135601Y233968D02*
X135684D01*
X135786Y233959D01*
X135897Y233940D01*
X136026Y233922D01*
X136294Y233875D01*
X136572Y233801D01*
X136849Y233700D01*
X136979Y233635D01*
X137108Y233561D01*
X137117Y233552D01*
X137136Y233542D01*
X137173Y233515D01*
X137210Y233478D01*
X137265Y233441D01*
X137330Y233385D01*
X137404Y233321D01*
X137478Y233247D01*
X137552Y233163D01*
X137635Y233080D01*
X137801Y232868D01*
X137959Y232618D01*
X138097Y232341D01*
Y232331D01*
X138116Y232304D01*
X138125Y232257D01*
X138153Y232202D01*
X138171Y232128D01*
X138199Y232036D01*
X138236Y231934D01*
X138264Y231823D01*
X138291Y231703D01*
X138328Y231564D01*
X138375Y231277D01*
X138412Y230954D01*
X138430Y230621D01*
Y230612D01*
Y230575D01*
Y230519D01*
X138421Y230455D01*
Y230362D01*
X138412Y230270D01*
X138402Y230149D01*
X138384Y230029D01*
X138338Y229761D01*
X138273Y229465D01*
X138181Y229169D01*
X138051Y228883D01*
X138042Y228874D01*
X138033Y228846D01*
X138014Y228809D01*
X137977Y228762D01*
X137940Y228698D01*
X137894Y228624D01*
X137774Y228457D01*
X137617Y228272D01*
X137432Y228088D01*
X137219Y227903D01*
X136969Y227745D01*
X136960Y227736D01*
X136932Y227727D01*
X136895Y227708D01*
X136849Y227681D01*
X136775Y227653D01*
X136701Y227625D01*
X136609Y227588D01*
X136507Y227551D01*
X136396Y227514D01*
X136276Y227477D01*
X136017Y227422D01*
X135721Y227376D01*
X135416Y227357D01*
X135324D01*
X135259Y227366D01*
X135176Y227376D01*
X135074Y227385D01*
X134972Y227394D01*
X134852Y227422D01*
X134602Y227477D01*
X134325Y227561D01*
X134186Y227616D01*
X134057Y227681D01*
X133927Y227764D01*
X133798Y227847D01*
X133789Y227857D01*
X133770Y227866D01*
X133733Y227893D01*
X133687Y227940D01*
X133641Y227986D01*
X133576Y228051D01*
X133511Y228125D01*
X133438Y228199D01*
X133364Y228291D01*
X133290Y228402D01*
X133206Y228513D01*
X133132Y228633D01*
X133068Y228772D01*
X132994Y228911D01*
X132938Y229058D01*
X132883Y229225D01*
X133715Y229419D01*
Y229410D01*
X133724Y229391D01*
X133743Y229354D01*
X133761Y229308D01*
X133780Y229253D01*
X133807Y229179D01*
X133881Y229031D01*
X133974Y228864D01*
X134085Y228698D01*
X134223Y228541D01*
X134371Y228402D01*
X134390Y228384D01*
X134445Y228347D01*
X134538Y228300D01*
X134658Y228235D01*
X134815Y228180D01*
X134991Y228125D01*
X135203Y228088D01*
X135435Y228078D01*
X135508D01*
X135555Y228088D01*
X135619D01*
X135693Y228097D01*
X135869Y228125D01*
X136063Y228162D01*
X136267Y228226D01*
X136479Y228319D01*
X136673Y228439D01*
X136683D01*
X136692Y228457D01*
X136757Y228504D01*
X136840Y228578D01*
X136942Y228689D01*
X137062Y228827D01*
X137173Y228984D01*
X137274Y229179D01*
X137367Y229391D01*
Y229401D01*
X137376Y229419D01*
X137385Y229447D01*
X137395Y229493D01*
X137413Y229548D01*
X137432Y229613D01*
X137459Y229770D01*
X137496Y229955D01*
X137533Y230159D01*
X137552Y230380D01*
X137561Y230621D01*
Y230630D01*
Y230658D01*
Y230704D01*
Y230760D01*
X137552Y230824D01*
Y230907D01*
X137542Y231000D01*
X137533Y231102D01*
X137506Y231324D01*
X137459Y231564D01*
X137404Y231804D01*
X137330Y232045D01*
Y232054D01*
X137321Y232073D01*
X137302Y232100D01*
X137284Y232146D01*
X137228Y232257D01*
X137145Y232387D01*
X137043Y232535D01*
X136914Y232692D01*
X136766Y232831D01*
X136590Y232960D01*
X136581D01*
X136562Y232969D01*
X136535Y232988D01*
X136498Y233006D01*
X136452Y233025D01*
X136396Y233053D01*
X136267Y233108D01*
X136100Y233163D01*
X135915Y233210D01*
X135712Y233247D01*
X135499Y233256D01*
X135435D01*
X135379Y233247D01*
X135314D01*
X135250Y233237D01*
X135083Y233200D01*
X134889Y233154D01*
X134695Y233080D01*
X134492Y232978D01*
X134390Y232923D01*
X134297Y232849D01*
X134288Y232840D01*
X134279Y232831D01*
X134251Y232803D01*
X134214Y232775D01*
X134177Y232729D01*
X134131Y232673D01*
X134075Y232618D01*
X134029Y232544D01*
X133974Y232461D01*
X133909Y232368D01*
X133854Y232276D01*
X133798Y232165D01*
X133752Y232045D01*
X133706Y231915D01*
X133659Y231777D01*
X133622Y231629D01*
X132772Y231841D01*
Y231851D01*
X132781Y231887D01*
X132800Y231943D01*
X132827Y232017D01*
X132855Y232100D01*
X132892Y232202D01*
X132938Y232313D01*
X132994Y232433D01*
X133123Y232692D01*
X133290Y232951D01*
X133391Y233080D01*
X133493Y233210D01*
X133604Y233321D01*
X133733Y233432D01*
X133743Y233441D01*
X133761Y233459D01*
X133807Y233478D01*
X133854Y233515D01*
X133927Y233561D01*
X134002Y233607D01*
X134103Y233654D01*
X134205Y233700D01*
X134325Y233755D01*
X134454Y233801D01*
X134593Y233848D01*
X134741Y233894D01*
X134898Y233931D01*
X135065Y233949D01*
X135240Y233968D01*
X135425Y233977D01*
X135527D01*
X135601Y233968D01*
D02*
G37*
G36*
X129878Y228864D02*
X129887Y228874D01*
X129933Y228911D01*
X129989Y228966D01*
X130081Y229031D01*
X130183Y229114D01*
X130312Y229206D01*
X130460Y229308D01*
X130627Y229410D01*
X130636D01*
X130645Y229419D01*
X130701Y229456D01*
X130793Y229502D01*
X130904Y229558D01*
X131034Y229622D01*
X131172Y229687D01*
X131311Y229752D01*
X131450Y229807D01*
Y229049D01*
X131440D01*
X131422Y229031D01*
X131385Y229021D01*
X131339Y228994D01*
X131283Y228966D01*
X131219Y228929D01*
X131061Y228836D01*
X130877Y228735D01*
X130692Y228605D01*
X130497Y228457D01*
X130303Y228300D01*
X130294Y228291D01*
X130285Y228282D01*
X130257Y228254D01*
X130220Y228226D01*
X130137Y228134D01*
X130026Y228023D01*
X129915Y227893D01*
X129795Y227745D01*
X129693Y227598D01*
X129601Y227440D01*
X129092D01*
Y233866D01*
X129878D01*
Y228864D01*
D02*
G37*
G36*
X124904D02*
X124913Y228874D01*
X124959Y228911D01*
X125015Y228966D01*
X125107Y229031D01*
X125209Y229114D01*
X125338Y229206D01*
X125486Y229308D01*
X125653Y229410D01*
X125662D01*
X125671Y229419D01*
X125727Y229456D01*
X125819Y229502D01*
X125930Y229558D01*
X126060Y229622D01*
X126198Y229687D01*
X126337Y229752D01*
X126476Y229807D01*
Y229049D01*
X126466D01*
X126448Y229031D01*
X126411Y229021D01*
X126365Y228994D01*
X126309Y228966D01*
X126244Y228929D01*
X126087Y228836D01*
X125902Y228735D01*
X125717Y228605D01*
X125523Y228457D01*
X125329Y228300D01*
X125320Y228291D01*
X125311Y228282D01*
X125283Y228254D01*
X125246Y228226D01*
X125163Y228134D01*
X125052Y228023D01*
X124941Y227893D01*
X124821Y227745D01*
X124719Y227598D01*
X124626Y227440D01*
X124118D01*
Y233866D01*
X124904D01*
Y228864D01*
D02*
G37*
G36*
X158730Y49521D02*
X158823D01*
X158916Y49512D01*
X159036Y49502D01*
X159156Y49484D01*
X159424Y49438D01*
X159720Y49373D01*
X160016Y49280D01*
X160302Y49151D01*
X160312Y49142D01*
X160339Y49132D01*
X160376Y49114D01*
X160422Y49077D01*
X160487Y49040D01*
X160561Y48994D01*
X160728Y48874D01*
X160912Y48717D01*
X161097Y48532D01*
X161282Y48319D01*
X161439Y48069D01*
X161449Y48060D01*
X161458Y48032D01*
X161476Y47995D01*
X161504Y47949D01*
X161532Y47875D01*
X161560Y47801D01*
X161597Y47709D01*
X161634Y47607D01*
X161671Y47496D01*
X161708Y47376D01*
X161763Y47117D01*
X161809Y46821D01*
X161828Y46516D01*
Y46424D01*
X161819Y46359D01*
X161809Y46276D01*
X161800Y46174D01*
X161791Y46072D01*
X161763Y45952D01*
X161708Y45702D01*
X161624Y45425D01*
X161569Y45286D01*
X161504Y45157D01*
X161421Y45027D01*
X161338Y44898D01*
X161329Y44889D01*
X161319Y44870D01*
X161292Y44833D01*
X161245Y44787D01*
X161199Y44741D01*
X161134Y44676D01*
X161060Y44611D01*
X160986Y44538D01*
X160894Y44464D01*
X160783Y44390D01*
X160672Y44306D01*
X160552Y44232D01*
X160413Y44168D01*
X160275Y44094D01*
X160127Y44038D01*
X159960Y43983D01*
X159766Y44815D01*
X159775D01*
X159794Y44824D01*
X159831Y44843D01*
X159877Y44861D01*
X159932Y44879D01*
X160006Y44907D01*
X160154Y44981D01*
X160321Y45074D01*
X160487Y45185D01*
X160644Y45323D01*
X160783Y45471D01*
X160802Y45490D01*
X160839Y45545D01*
X160885Y45638D01*
X160949Y45758D01*
X161005Y45915D01*
X161060Y46091D01*
X161097Y46303D01*
X161107Y46535D01*
Y46609D01*
X161097Y46655D01*
Y46719D01*
X161088Y46793D01*
X161060Y46969D01*
X161024Y47163D01*
X160959Y47367D01*
X160866Y47579D01*
X160746Y47773D01*
Y47783D01*
X160728Y47792D01*
X160681Y47857D01*
X160607Y47940D01*
X160497Y48042D01*
X160358Y48162D01*
X160201Y48273D01*
X160006Y48374D01*
X159794Y48467D01*
X159784D01*
X159766Y48476D01*
X159738Y48485D01*
X159692Y48495D01*
X159637Y48513D01*
X159572Y48532D01*
X159415Y48559D01*
X159230Y48596D01*
X159026Y48633D01*
X158805Y48652D01*
X158564Y48661D01*
X158555D01*
X158527D01*
X158481D01*
X158425D01*
X158361Y48652D01*
X158278D01*
X158185Y48643D01*
X158083Y48633D01*
X157861Y48605D01*
X157621Y48559D01*
X157381Y48504D01*
X157140Y48430D01*
X157131D01*
X157113Y48421D01*
X157085Y48402D01*
X157039Y48384D01*
X156928Y48328D01*
X156798Y48245D01*
X156650Y48143D01*
X156493Y48014D01*
X156354Y47866D01*
X156225Y47690D01*
Y47681D01*
X156216Y47663D01*
X156197Y47635D01*
X156179Y47598D01*
X156160Y47551D01*
X156132Y47496D01*
X156077Y47367D01*
X156022Y47200D01*
X155975Y47015D01*
X155938Y46812D01*
X155929Y46599D01*
Y46535D01*
X155938Y46479D01*
Y46414D01*
X155948Y46350D01*
X155985Y46183D01*
X156031Y45989D01*
X156105Y45795D01*
X156207Y45592D01*
X156262Y45490D01*
X156336Y45397D01*
X156345Y45388D01*
X156354Y45379D01*
X156382Y45351D01*
X156410Y45314D01*
X156456Y45277D01*
X156512Y45231D01*
X156567Y45175D01*
X156641Y45129D01*
X156724Y45074D01*
X156817Y45009D01*
X156909Y44953D01*
X157020Y44898D01*
X157140Y44852D01*
X157270Y44806D01*
X157408Y44759D01*
X157556Y44722D01*
X157344Y43872D01*
X157334D01*
X157297Y43881D01*
X157242Y43899D01*
X157168Y43927D01*
X157085Y43955D01*
X156983Y43992D01*
X156872Y44038D01*
X156752Y44094D01*
X156493Y44223D01*
X156234Y44390D01*
X156105Y44491D01*
X155975Y44593D01*
X155864Y44704D01*
X155753Y44833D01*
X155744Y44843D01*
X155726Y44861D01*
X155707Y44907D01*
X155670Y44953D01*
X155624Y45027D01*
X155578Y45101D01*
X155532Y45203D01*
X155485Y45305D01*
X155430Y45425D01*
X155384Y45554D01*
X155337Y45693D01*
X155291Y45841D01*
X155254Y45998D01*
X155236Y46165D01*
X155217Y46340D01*
X155208Y46525D01*
Y46627D01*
X155217Y46701D01*
Y46784D01*
X155226Y46886D01*
X155245Y46997D01*
X155263Y47126D01*
X155310Y47394D01*
X155384Y47672D01*
X155485Y47949D01*
X155550Y48078D01*
X155624Y48208D01*
X155633Y48217D01*
X155642Y48236D01*
X155670Y48273D01*
X155707Y48310D01*
X155744Y48365D01*
X155800Y48430D01*
X155864Y48504D01*
X155938Y48578D01*
X156022Y48652D01*
X156105Y48735D01*
X156317Y48901D01*
X156567Y49059D01*
X156844Y49197D01*
X156854D01*
X156881Y49216D01*
X156928Y49225D01*
X156983Y49253D01*
X157057Y49271D01*
X157149Y49299D01*
X157251Y49336D01*
X157362Y49364D01*
X157482Y49391D01*
X157621Y49428D01*
X157908Y49475D01*
X158231Y49512D01*
X158564Y49530D01*
X158573D01*
X158610D01*
X158666D01*
X158730Y49521D01*
D02*
G37*
G36*
X160136Y42540D02*
X160154Y42522D01*
X160164Y42485D01*
X160191Y42439D01*
X160219Y42383D01*
X160256Y42319D01*
X160348Y42161D01*
X160450Y41976D01*
X160580Y41792D01*
X160728Y41597D01*
X160885Y41403D01*
X160894Y41394D01*
X160903Y41385D01*
X160931Y41357D01*
X160959Y41320D01*
X161051Y41237D01*
X161162Y41126D01*
X161292Y41015D01*
X161439Y40895D01*
X161587Y40793D01*
X161745Y40700D01*
Y40192D01*
X155319D01*
Y40978D01*
X160321D01*
X160312Y40987D01*
X160275Y41033D01*
X160219Y41089D01*
X160154Y41181D01*
X160071Y41283D01*
X159979Y41412D01*
X159877Y41560D01*
X159775Y41727D01*
Y41736D01*
X159766Y41745D01*
X159729Y41801D01*
X159683Y41893D01*
X159627Y42004D01*
X159563Y42134D01*
X159498Y42272D01*
X159433Y42411D01*
X159378Y42550D01*
X160136D01*
Y42540D01*
D02*
G37*
G36*
X157057Y37354D02*
X157048D01*
X157029D01*
X157002Y37344D01*
X156955Y37335D01*
X156854Y37307D01*
X156715Y37270D01*
X156576Y37215D01*
X156419Y37141D01*
X156280Y37048D01*
X156151Y36938D01*
X156142Y36919D01*
X156105Y36882D01*
X156059Y36808D01*
X156003Y36706D01*
X155948Y36595D01*
X155901Y36457D01*
X155864Y36300D01*
X155855Y36124D01*
Y36068D01*
X155864Y36031D01*
X155874Y35921D01*
X155911Y35791D01*
X155957Y35634D01*
X156031Y35477D01*
X156142Y35310D01*
X156207Y35236D01*
X156280Y35162D01*
X156290Y35153D01*
X156299Y35144D01*
X156327Y35125D01*
X156354Y35098D01*
X156456Y35033D01*
X156586Y34959D01*
X156743Y34894D01*
X156937Y34830D01*
X157168Y34783D01*
X157288Y34765D01*
X157418D01*
X157427D01*
X157445D01*
X157482D01*
X157529Y34774D01*
X157584D01*
X157649Y34783D01*
X157797Y34811D01*
X157972Y34857D01*
X158148Y34922D01*
X158315Y35015D01*
X158472Y35144D01*
X158481D01*
X158490Y35162D01*
X158536Y35209D01*
X158601Y35292D01*
X158675Y35403D01*
X158740Y35551D01*
X158805Y35717D01*
X158851Y35911D01*
X158869Y36022D01*
Y36198D01*
X158860Y36272D01*
X158851Y36364D01*
X158823Y36475D01*
X158795Y36586D01*
X158749Y36706D01*
X158694Y36827D01*
X158684Y36836D01*
X158666Y36873D01*
X158620Y36928D01*
X158573Y37002D01*
X158509Y37076D01*
X158425Y37150D01*
X158342Y37233D01*
X158240Y37298D01*
X158342Y38038D01*
X161634Y37418D01*
Y34238D01*
X160885D01*
Y36799D01*
X159156Y37141D01*
X159165Y37132D01*
X159174Y37113D01*
X159193Y37085D01*
X159221Y37039D01*
X159248Y36984D01*
X159285Y36919D01*
X159359Y36771D01*
X159433Y36586D01*
X159498Y36383D01*
X159544Y36161D01*
X159563Y36050D01*
Y35847D01*
X159553Y35791D01*
X159544Y35717D01*
X159535Y35634D01*
X159516Y35542D01*
X159489Y35440D01*
X159424Y35218D01*
X159378Y35098D01*
X159313Y34978D01*
X159248Y34857D01*
X159174Y34737D01*
X159082Y34626D01*
X158980Y34515D01*
X158971Y34506D01*
X158952Y34488D01*
X158925Y34460D01*
X158878Y34423D01*
X158814Y34376D01*
X158749Y34330D01*
X158666Y34275D01*
X158573Y34219D01*
X158472Y34173D01*
X158361Y34118D01*
X158231Y34071D01*
X158102Y34025D01*
X157963Y33988D01*
X157806Y33960D01*
X157649Y33942D01*
X157482Y33933D01*
X157473D01*
X157445D01*
X157399D01*
X157334Y33942D01*
X157261Y33951D01*
X157177Y33960D01*
X157076Y33979D01*
X156974Y33997D01*
X156734Y34053D01*
X156484Y34145D01*
X156354Y34201D01*
X156234Y34275D01*
X156105Y34349D01*
X155985Y34441D01*
X155975Y34451D01*
X155948Y34469D01*
X155911Y34506D01*
X155864Y34552D01*
X155809Y34617D01*
X155735Y34691D01*
X155670Y34783D01*
X155596Y34885D01*
X155522Y34996D01*
X155458Y35125D01*
X155393Y35264D01*
X155328Y35412D01*
X155282Y35569D01*
X155245Y35745D01*
X155217Y35930D01*
X155208Y36124D01*
Y36207D01*
X155217Y36272D01*
X155226Y36346D01*
X155236Y36429D01*
X155245Y36531D01*
X155273Y36632D01*
X155328Y36864D01*
X155411Y37095D01*
X155467Y37215D01*
X155532Y37335D01*
X155605Y37446D01*
X155689Y37557D01*
X155698Y37566D01*
X155707Y37585D01*
X155744Y37603D01*
X155781Y37640D01*
X155827Y37687D01*
X155883Y37733D01*
X155957Y37788D01*
X156040Y37834D01*
X156123Y37890D01*
X156225Y37945D01*
X156447Y38047D01*
X156706Y38130D01*
X156844Y38158D01*
X156992Y38177D01*
X157057Y37354D01*
D02*
G37*
G36*
X323108Y385461D02*
X323218D01*
X323339Y385452D01*
X323468Y385443D01*
X323764Y385415D01*
X324069Y385369D01*
X324365Y385313D01*
X324504Y385276D01*
X324642Y385230D01*
X324652D01*
X324670Y385221D01*
X324707Y385202D01*
X324753Y385184D01*
X324818Y385165D01*
X324883Y385128D01*
X325040Y385054D01*
X325206Y384962D01*
X325391Y384842D01*
X325558Y384703D01*
X325715Y384537D01*
Y384527D01*
X325733Y384518D01*
X325752Y384490D01*
X325770Y384453D01*
X325798Y384407D01*
X325835Y384361D01*
X325900Y384222D01*
X325964Y384056D01*
X326029Y383862D01*
X326066Y383630D01*
X326085Y383381D01*
Y383288D01*
X326075Y383224D01*
X326066Y383150D01*
X326048Y383057D01*
X326029Y382956D01*
X326001Y382845D01*
X325964Y382734D01*
X325928Y382613D01*
X325872Y382493D01*
X325807Y382373D01*
X325733Y382253D01*
X325641Y382133D01*
X325539Y382022D01*
X325428Y381920D01*
X325419Y381911D01*
X325391Y381892D01*
X325345Y381865D01*
X325271Y381818D01*
X325188Y381772D01*
X325077Y381726D01*
X324947Y381661D01*
X324799Y381606D01*
X324633Y381550D01*
X324439Y381495D01*
X324226Y381439D01*
X323986Y381393D01*
X323727Y381347D01*
X323450Y381319D01*
X323144Y381301D01*
X322821Y381291D01*
X322812D01*
X322775D01*
X322710D01*
X322636D01*
X322534Y381301D01*
X322423D01*
X322303Y381310D01*
X322164Y381319D01*
X321878Y381347D01*
X321573Y381393D01*
X321268Y381448D01*
X321129Y381485D01*
X320990Y381522D01*
X320981D01*
X320963Y381532D01*
X320926Y381550D01*
X320879Y381569D01*
X320815Y381587D01*
X320750Y381624D01*
X320593Y381698D01*
X320426Y381791D01*
X320251Y381911D01*
X320075Y382049D01*
X319927Y382216D01*
Y382225D01*
X319909Y382234D01*
X319890Y382262D01*
X319872Y382299D01*
X319835Y382345D01*
X319807Y382401D01*
X319733Y382539D01*
X319668Y382706D01*
X319604Y382900D01*
X319566Y383131D01*
X319548Y383381D01*
Y383464D01*
X319557Y383566D01*
X319576Y383686D01*
X319604Y383825D01*
X319641Y383973D01*
X319687Y384130D01*
X319761Y384278D01*
Y384287D01*
X319770Y384296D01*
X319798Y384342D01*
X319844Y384416D01*
X319909Y384509D01*
X320001Y384610D01*
X320103Y384721D01*
X320223Y384823D01*
X320362Y384925D01*
X320380Y384934D01*
X320426Y384971D01*
X320509Y385008D01*
X320630Y385073D01*
X320768Y385128D01*
X320926Y385202D01*
X321110Y385267D01*
X321314Y385322D01*
X321323D01*
X321342Y385332D01*
X321369Y385341D01*
X321416Y385350D01*
X321471Y385359D01*
X321536Y385369D01*
X321619Y385387D01*
X321712Y385396D01*
X321813Y385415D01*
X321924Y385424D01*
X322054Y385433D01*
X322183Y385452D01*
X322331Y385461D01*
X322479D01*
X322645Y385470D01*
X322821D01*
X322830D01*
X322867D01*
X322932D01*
X323006D01*
X323108Y385461D01*
D02*
G37*
G36*
X325974Y378490D02*
X320972D01*
X320981Y378481D01*
X321018Y378434D01*
X321073Y378379D01*
X321138Y378286D01*
X321222Y378185D01*
X321314Y378055D01*
X321416Y377907D01*
X321517Y377741D01*
Y377732D01*
X321527Y377723D01*
X321563Y377667D01*
X321610Y377575D01*
X321665Y377464D01*
X321730Y377334D01*
X321795Y377196D01*
X321859Y377057D01*
X321915Y376918D01*
X321157D01*
Y376927D01*
X321138Y376946D01*
X321129Y376983D01*
X321101Y377029D01*
X321073Y377085D01*
X321036Y377149D01*
X320944Y377306D01*
X320842Y377491D01*
X320713Y377676D01*
X320565Y377870D01*
X320408Y378064D01*
X320399Y378074D01*
X320389Y378083D01*
X320362Y378111D01*
X320334Y378148D01*
X320241Y378231D01*
X320131Y378342D01*
X320001Y378453D01*
X319853Y378573D01*
X319705Y378675D01*
X319548Y378767D01*
Y379276D01*
X325974D01*
Y378490D01*
D02*
G37*
G36*
X323995Y375587D02*
X324051Y375568D01*
X324125Y375541D01*
X324208Y375513D01*
X324310Y375476D01*
X324420Y375430D01*
X324541Y375374D01*
X324799Y375245D01*
X325058Y375078D01*
X325188Y374977D01*
X325317Y374875D01*
X325428Y374764D01*
X325539Y374634D01*
X325548Y374625D01*
X325567Y374607D01*
X325585Y374561D01*
X325622Y374514D01*
X325669Y374440D01*
X325715Y374366D01*
X325761Y374265D01*
X325807Y374163D01*
X325863Y374043D01*
X325909Y373913D01*
X325955Y373775D01*
X326001Y373627D01*
X326038Y373470D01*
X326057Y373303D01*
X326075Y373127D01*
X326085Y372943D01*
Y372841D01*
X326075Y372767D01*
Y372684D01*
X326066Y372582D01*
X326048Y372471D01*
X326029Y372341D01*
X325983Y372073D01*
X325909Y371796D01*
X325807Y371519D01*
X325743Y371389D01*
X325669Y371260D01*
X325659Y371250D01*
X325650Y371232D01*
X325622Y371195D01*
X325585Y371158D01*
X325548Y371103D01*
X325493Y371038D01*
X325428Y370964D01*
X325354Y370890D01*
X325271Y370816D01*
X325188Y370733D01*
X324975Y370566D01*
X324725Y370409D01*
X324448Y370271D01*
X324439D01*
X324411Y370252D01*
X324365Y370243D01*
X324310Y370215D01*
X324235Y370196D01*
X324143Y370169D01*
X324041Y370132D01*
X323930Y370104D01*
X323810Y370076D01*
X323671Y370039D01*
X323385Y369993D01*
X323061Y369956D01*
X322729Y369938D01*
X322719D01*
X322682D01*
X322627D01*
X322562Y369947D01*
X322470D01*
X322377Y369956D01*
X322257Y369965D01*
X322137Y369984D01*
X321869Y370030D01*
X321573Y370095D01*
X321277Y370187D01*
X320990Y370317D01*
X320981Y370326D01*
X320953Y370335D01*
X320916Y370354D01*
X320870Y370391D01*
X320805Y370428D01*
X320731Y370474D01*
X320565Y370594D01*
X320380Y370751D01*
X320195Y370936D01*
X320010Y371149D01*
X319853Y371399D01*
X319844Y371408D01*
X319835Y371436D01*
X319816Y371472D01*
X319788Y371519D01*
X319761Y371593D01*
X319733Y371667D01*
X319696Y371759D01*
X319659Y371861D01*
X319622Y371972D01*
X319585Y372092D01*
X319529Y372351D01*
X319483Y372647D01*
X319465Y372952D01*
Y373044D01*
X319474Y373109D01*
X319483Y373192D01*
X319492Y373294D01*
X319502Y373396D01*
X319529Y373516D01*
X319585Y373765D01*
X319668Y374043D01*
X319724Y374181D01*
X319788Y374311D01*
X319872Y374440D01*
X319955Y374570D01*
X319964Y374579D01*
X319973Y374597D01*
X320001Y374634D01*
X320047Y374681D01*
X320093Y374727D01*
X320158Y374792D01*
X320232Y374856D01*
X320306Y374930D01*
X320399Y375004D01*
X320509Y375078D01*
X320620Y375161D01*
X320741Y375235D01*
X320879Y375300D01*
X321018Y375374D01*
X321166Y375430D01*
X321332Y375485D01*
X321527Y374653D01*
X321517D01*
X321499Y374644D01*
X321462Y374625D01*
X321416Y374607D01*
X321360Y374588D01*
X321286Y374561D01*
X321138Y374487D01*
X320972Y374394D01*
X320805Y374283D01*
X320648Y374144D01*
X320509Y373997D01*
X320491Y373978D01*
X320454Y373923D01*
X320408Y373830D01*
X320343Y373710D01*
X320288Y373553D01*
X320232Y373377D01*
X320195Y373164D01*
X320186Y372933D01*
Y372859D01*
X320195Y372813D01*
Y372748D01*
X320204Y372674D01*
X320232Y372499D01*
X320269Y372304D01*
X320334Y372101D01*
X320426Y371889D01*
X320546Y371694D01*
Y371685D01*
X320565Y371676D01*
X320611Y371611D01*
X320685Y371528D01*
X320796Y371426D01*
X320935Y371306D01*
X321092Y371195D01*
X321286Y371093D01*
X321499Y371001D01*
X321508D01*
X321527Y370992D01*
X321554Y370982D01*
X321600Y370973D01*
X321656Y370955D01*
X321721Y370936D01*
X321878Y370909D01*
X322063Y370872D01*
X322266Y370835D01*
X322488Y370816D01*
X322729Y370807D01*
X322738D01*
X322766D01*
X322812D01*
X322867D01*
X322932Y370816D01*
X323015D01*
X323108Y370825D01*
X323209Y370835D01*
X323431Y370862D01*
X323671Y370909D01*
X323912Y370964D01*
X324152Y371038D01*
X324162D01*
X324180Y371047D01*
X324208Y371066D01*
X324254Y371084D01*
X324365Y371140D01*
X324494Y371223D01*
X324642Y371325D01*
X324799Y371454D01*
X324938Y371602D01*
X325068Y371777D01*
Y371787D01*
X325077Y371805D01*
X325095Y371833D01*
X325114Y371870D01*
X325132Y371916D01*
X325160Y371972D01*
X325216Y372101D01*
X325271Y372268D01*
X325317Y372453D01*
X325354Y372656D01*
X325364Y372868D01*
Y372933D01*
X325354Y372989D01*
Y373053D01*
X325345Y373118D01*
X325308Y373285D01*
X325262Y373479D01*
X325188Y373673D01*
X325086Y373876D01*
X325031Y373978D01*
X324957Y374070D01*
X324947Y374080D01*
X324938Y374089D01*
X324910Y374117D01*
X324883Y374154D01*
X324837Y374191D01*
X324781Y374237D01*
X324725Y374292D01*
X324652Y374339D01*
X324568Y374394D01*
X324476Y374459D01*
X324384Y374514D01*
X324272Y374570D01*
X324152Y374616D01*
X324023Y374662D01*
X323884Y374708D01*
X323736Y374745D01*
X323949Y375596D01*
X323958D01*
X323995Y375587D01*
D02*
G37*
G36*
X299432Y369929D02*
X299525D01*
X299617Y369920D01*
X299738Y369910D01*
X299858Y369892D01*
X300126Y369846D01*
X300422Y369781D01*
X300718Y369688D01*
X301004Y369559D01*
X301013Y369550D01*
X301041Y369540D01*
X301078Y369522D01*
X301124Y369485D01*
X301189Y369448D01*
X301263Y369402D01*
X301430Y369282D01*
X301614Y369124D01*
X301799Y368939D01*
X301984Y368727D01*
X302141Y368477D01*
X302151Y368468D01*
X302160Y368440D01*
X302178Y368403D01*
X302206Y368357D01*
X302234Y368283D01*
X302262Y368209D01*
X302299Y368117D01*
X302336Y368015D01*
X302372Y367904D01*
X302409Y367784D01*
X302465Y367525D01*
X302511Y367229D01*
X302530Y366924D01*
Y366831D01*
X302521Y366767D01*
X302511Y366684D01*
X302502Y366582D01*
X302493Y366480D01*
X302465Y366360D01*
X302409Y366110D01*
X302326Y365833D01*
X302271Y365694D01*
X302206Y365565D01*
X302123Y365435D01*
X302040Y365306D01*
X302031Y365297D01*
X302021Y365278D01*
X301994Y365241D01*
X301947Y365195D01*
X301901Y365149D01*
X301836Y365084D01*
X301762Y365019D01*
X301688Y364945D01*
X301596Y364871D01*
X301485Y364797D01*
X301374Y364714D01*
X301254Y364640D01*
X301115Y364576D01*
X300977Y364501D01*
X300828Y364446D01*
X300662Y364391D01*
X300468Y365223D01*
X300477D01*
X300496Y365232D01*
X300533Y365250D01*
X300579Y365269D01*
X300634Y365287D01*
X300708Y365315D01*
X300856Y365389D01*
X301023Y365482D01*
X301189Y365592D01*
X301346Y365731D01*
X301485Y365879D01*
X301504Y365898D01*
X301540Y365953D01*
X301587Y366045D01*
X301651Y366166D01*
X301707Y366323D01*
X301762Y366499D01*
X301799Y366711D01*
X301809Y366942D01*
Y367016D01*
X301799Y367063D01*
Y367127D01*
X301790Y367201D01*
X301762Y367377D01*
X301725Y367571D01*
X301661Y367775D01*
X301568Y367987D01*
X301448Y368181D01*
Y368190D01*
X301430Y368200D01*
X301383Y368265D01*
X301309Y368348D01*
X301198Y368449D01*
X301060Y368570D01*
X300903Y368680D01*
X300708Y368782D01*
X300496Y368875D01*
X300486D01*
X300468Y368884D01*
X300440Y368893D01*
X300394Y368902D01*
X300338Y368921D01*
X300274Y368939D01*
X300117Y368967D01*
X299932Y369004D01*
X299728Y369041D01*
X299506Y369060D01*
X299266Y369069D01*
X299257D01*
X299229D01*
X299183D01*
X299127D01*
X299063Y369060D01*
X298979D01*
X298887Y369050D01*
X298785Y369041D01*
X298563Y369013D01*
X298323Y368967D01*
X298083Y368912D01*
X297842Y368838D01*
X297833D01*
X297815Y368829D01*
X297787Y368810D01*
X297740Y368792D01*
X297630Y368736D01*
X297500Y368653D01*
X297352Y368551D01*
X297195Y368422D01*
X297056Y368274D01*
X296927Y368098D01*
Y368089D01*
X296918Y368070D01*
X296899Y368043D01*
X296881Y368006D01*
X296862Y367959D01*
X296834Y367904D01*
X296779Y367775D01*
X296723Y367608D01*
X296677Y367423D01*
X296640Y367220D01*
X296631Y367007D01*
Y366942D01*
X296640Y366887D01*
Y366822D01*
X296649Y366758D01*
X296686Y366591D01*
X296733Y366397D01*
X296807Y366203D01*
X296908Y365999D01*
X296964Y365898D01*
X297038Y365805D01*
X297047Y365796D01*
X297056Y365787D01*
X297084Y365759D01*
X297112Y365722D01*
X297158Y365685D01*
X297213Y365639D01*
X297269Y365583D01*
X297343Y365537D01*
X297426Y365482D01*
X297519Y365417D01*
X297611Y365361D01*
X297722Y365306D01*
X297842Y365260D01*
X297972Y365213D01*
X298110Y365167D01*
X298258Y365130D01*
X298046Y364280D01*
X298036D01*
X297999Y364289D01*
X297944Y364307D01*
X297870Y364335D01*
X297787Y364363D01*
X297685Y364400D01*
X297574Y364446D01*
X297454Y364501D01*
X297195Y364631D01*
X296936Y364797D01*
X296807Y364899D01*
X296677Y365001D01*
X296566Y365112D01*
X296455Y365241D01*
X296446Y365250D01*
X296428Y365269D01*
X296409Y365315D01*
X296372Y365361D01*
X296326Y365435D01*
X296280Y365509D01*
X296234Y365611D01*
X296187Y365713D01*
X296132Y365833D01*
X296085Y365962D01*
X296039Y366101D01*
X295993Y366249D01*
X295956Y366406D01*
X295938Y366572D01*
X295919Y366748D01*
X295910Y366933D01*
Y367035D01*
X295919Y367109D01*
Y367192D01*
X295928Y367294D01*
X295947Y367405D01*
X295965Y367534D01*
X296012Y367802D01*
X296085Y368080D01*
X296187Y368357D01*
X296252Y368486D01*
X296326Y368616D01*
X296335Y368625D01*
X296344Y368644D01*
X296372Y368680D01*
X296409Y368717D01*
X296446Y368773D01*
X296502Y368838D01*
X296566Y368912D01*
X296640Y368986D01*
X296723Y369060D01*
X296807Y369143D01*
X297019Y369309D01*
X297269Y369466D01*
X297546Y369605D01*
X297556D01*
X297583Y369624D01*
X297630Y369633D01*
X297685Y369661D01*
X297759Y369679D01*
X297851Y369707D01*
X297953Y369744D01*
X298064Y369771D01*
X298184Y369799D01*
X298323Y369836D01*
X298610Y369883D01*
X298933Y369920D01*
X299266Y369938D01*
X299275D01*
X299312D01*
X299368D01*
X299432Y369929D01*
D02*
G37*
G36*
X300440Y363549D02*
X300523Y363540D01*
X300625Y363531D01*
X300727Y363512D01*
X300847Y363484D01*
X301087Y363420D01*
X301217Y363374D01*
X301355Y363318D01*
X301485Y363253D01*
X301605Y363170D01*
X301735Y363087D01*
X301845Y362985D01*
X301855Y362976D01*
X301873Y362957D01*
X301901Y362930D01*
X301938Y362884D01*
X301984Y362828D01*
X302040Y362754D01*
X302086Y362680D01*
X302151Y362588D01*
X302206Y362495D01*
X302252Y362384D01*
X302354Y362135D01*
X302391Y362005D01*
X302419Y361857D01*
X302437Y361709D01*
X302446Y361552D01*
Y361488D01*
X302437Y361441D01*
Y361395D01*
X302428Y361330D01*
X302400Y361173D01*
X302363Y360997D01*
X302299Y360803D01*
X302215Y360609D01*
X302104Y360415D01*
Y360406D01*
X302086Y360396D01*
X302067Y360369D01*
X302040Y360332D01*
X301966Y360239D01*
X301864Y360119D01*
X301725Y359999D01*
X301559Y359860D01*
X301365Y359740D01*
X301143Y359629D01*
X301134D01*
X301115Y359620D01*
X301078Y359601D01*
X301032Y359583D01*
X300967Y359564D01*
X300884Y359537D01*
X300791Y359518D01*
X300690Y359490D01*
X300570Y359463D01*
X300431Y359435D01*
X300283Y359417D01*
X300126Y359398D01*
X299950Y359380D01*
X299765Y359361D01*
X299562Y359352D01*
X299349D01*
X299340D01*
X299294D01*
X299229D01*
X299146D01*
X299044Y359361D01*
X298924D01*
X298785Y359370D01*
X298647Y359389D01*
X298332Y359417D01*
X297999Y359463D01*
X297685Y359527D01*
X297528Y359574D01*
X297389Y359620D01*
X297380D01*
X297361Y359629D01*
X297324Y359648D01*
X297269Y359666D01*
X297213Y359694D01*
X297139Y359731D01*
X296982Y359823D01*
X296807Y359934D01*
X296622Y360064D01*
X296446Y360230D01*
X296289Y360415D01*
Y360424D01*
X296271Y360443D01*
X296252Y360471D01*
X296234Y360507D01*
X296206Y360563D01*
X296169Y360618D01*
X296132Y360692D01*
X296104Y360766D01*
X296030Y360942D01*
X295965Y361155D01*
X295928Y361386D01*
X295910Y361645D01*
Y361719D01*
X295919Y361765D01*
Y361830D01*
X295928Y361903D01*
X295965Y362079D01*
X296012Y362273D01*
X296085Y362477D01*
X296187Y362680D01*
X296252Y362782D01*
X296326Y362874D01*
X296335Y362884D01*
X296344Y362893D01*
X296372Y362920D01*
X296400Y362948D01*
X296446Y362985D01*
X296502Y363032D01*
X296631Y363124D01*
X296798Y363216D01*
X297001Y363309D01*
X297232Y363383D01*
X297500Y363438D01*
X297565Y362680D01*
X297556D01*
X297537Y362671D01*
X297519D01*
X297482Y362662D01*
X297380Y362634D01*
X297269Y362597D01*
X297139Y362551D01*
X297010Y362486D01*
X296890Y362412D01*
X296788Y362320D01*
X296779Y362310D01*
X296751Y362273D01*
X296714Y362209D01*
X296677Y362135D01*
X296631Y362033D01*
X296594Y361913D01*
X296566Y361774D01*
X296557Y361626D01*
Y361561D01*
X296566Y361497D01*
X296576Y361413D01*
X296594Y361312D01*
X296622Y361210D01*
X296659Y361099D01*
X296714Y360997D01*
X296723Y360988D01*
X296742Y360951D01*
X296779Y360896D01*
X296834Y360840D01*
X296899Y360766D01*
X296973Y360692D01*
X297056Y360618D01*
X297158Y360544D01*
X297167Y360535D01*
X297213Y360517D01*
X297278Y360480D01*
X297361Y360443D01*
X297472Y360396D01*
X297602Y360350D01*
X297750Y360304D01*
X297916Y360258D01*
X297925D01*
X297935Y360249D01*
X297962D01*
X297999Y360239D01*
X298092Y360221D01*
X298212Y360193D01*
X298360Y360175D01*
X298517Y360156D01*
X298693Y360147D01*
X298878Y360138D01*
X298887D01*
X298915D01*
X298961D01*
X299035D01*
X299016Y360147D01*
X298970Y360184D01*
X298905Y360239D01*
X298813Y360304D01*
X298720Y360396D01*
X298619Y360507D01*
X298517Y360637D01*
X298425Y360785D01*
X298415Y360803D01*
X298388Y360859D01*
X298351Y360942D01*
X298314Y361044D01*
X298267Y361182D01*
X298230Y361330D01*
X298203Y361497D01*
X298193Y361672D01*
Y361746D01*
X298203Y361802D01*
X298212Y361876D01*
X298221Y361950D01*
X298240Y362042D01*
X298267Y362135D01*
X298332Y362347D01*
X298378Y362458D01*
X298434Y362569D01*
X298499Y362689D01*
X298582Y362800D01*
X298665Y362911D01*
X298767Y363013D01*
X298776Y363022D01*
X298794Y363041D01*
X298822Y363059D01*
X298869Y363096D01*
X298933Y363142D01*
X298998Y363189D01*
X299081Y363235D01*
X299174Y363281D01*
X299275Y363337D01*
X299386Y363383D01*
X299516Y363429D01*
X299645Y363475D01*
X299793Y363512D01*
X299950Y363531D01*
X300107Y363549D01*
X300283Y363559D01*
X300292D01*
X300329D01*
X300375D01*
X300440Y363549D01*
D02*
G37*
G36*
X304371Y482208D02*
X304445Y482198D01*
X304528Y482180D01*
X304621Y482161D01*
X304722Y482143D01*
X304944Y482069D01*
X305064Y482013D01*
X305175Y481958D01*
X305296Y481884D01*
X305416Y481801D01*
X305536Y481708D01*
X305647Y481597D01*
X305656Y481588D01*
X305675Y481570D01*
X305702Y481533D01*
X305739Y481486D01*
X305786Y481431D01*
X305832Y481357D01*
X305887Y481274D01*
X305933Y481172D01*
X305989Y481070D01*
X306045Y480950D01*
X306091Y480830D01*
X306137Y480691D01*
X306174Y480543D01*
X306202Y480386D01*
X306220Y480229D01*
X306229Y480053D01*
Y479970D01*
X306220Y479915D01*
X306211Y479841D01*
X306202Y479757D01*
X306183Y479665D01*
X306165Y479563D01*
X306109Y479342D01*
X306017Y479110D01*
X305961Y478990D01*
X305896Y478879D01*
X305813Y478768D01*
X305730Y478657D01*
X305721Y478648D01*
X305702Y478629D01*
X305675Y478602D01*
X305638Y478574D01*
X305591Y478528D01*
X305527Y478482D01*
X305462Y478426D01*
X305379Y478371D01*
X305286Y478315D01*
X305194Y478260D01*
X304972Y478158D01*
X304713Y478075D01*
X304574Y478047D01*
X304426Y478029D01*
X304325Y478815D01*
X304334D01*
X304352Y478824D01*
X304389Y478833D01*
X304436Y478842D01*
X304491Y478851D01*
X304556Y478870D01*
X304695Y478916D01*
X304861Y478981D01*
X305018Y479064D01*
X305166Y479156D01*
X305296Y479268D01*
X305305Y479286D01*
X305342Y479323D01*
X305388Y479397D01*
X305434Y479489D01*
X305490Y479600D01*
X305536Y479739D01*
X305573Y479896D01*
X305582Y480063D01*
Y480118D01*
X305573Y480155D01*
X305564Y480257D01*
X305536Y480386D01*
X305490Y480534D01*
X305425Y480691D01*
X305333Y480849D01*
X305203Y480996D01*
X305185Y481015D01*
X305129Y481061D01*
X305046Y481117D01*
X304935Y481191D01*
X304796Y481264D01*
X304639Y481320D01*
X304454Y481366D01*
X304251Y481385D01*
X304242D01*
X304223D01*
X304195D01*
X304158Y481376D01*
X304057Y481366D01*
X303937Y481339D01*
X303789Y481301D01*
X303641Y481237D01*
X303493Y481144D01*
X303354Y481024D01*
X303335Y481006D01*
X303298Y480959D01*
X303243Y480886D01*
X303178Y480784D01*
X303114Y480654D01*
X303058Y480497D01*
X303021Y480322D01*
X303003Y480127D01*
Y480044D01*
X303012Y479979D01*
X303021Y479896D01*
X303040Y479804D01*
X303058Y479693D01*
X303086Y479573D01*
X302393Y479665D01*
Y479711D01*
X302402Y479748D01*
Y479869D01*
X302383Y479970D01*
X302365Y480090D01*
X302337Y480229D01*
X302291Y480386D01*
X302226Y480534D01*
X302143Y480691D01*
Y480701D01*
X302134Y480710D01*
X302097Y480756D01*
X302032Y480821D01*
X301949Y480895D01*
X301828Y480969D01*
X301690Y481033D01*
X301533Y481080D01*
X301440Y481098D01*
X301339D01*
X301329D01*
X301320D01*
X301264D01*
X301190Y481080D01*
X301089Y481061D01*
X300978Y481024D01*
X300858Y480978D01*
X300737Y480904D01*
X300627Y480802D01*
X300617Y480793D01*
X300580Y480747D01*
X300534Y480682D01*
X300479Y480599D01*
X300432Y480488D01*
X300386Y480359D01*
X300349Y480210D01*
X300340Y480044D01*
Y479970D01*
X300358Y479887D01*
X300377Y479776D01*
X300414Y479656D01*
X300460Y479536D01*
X300534Y479406D01*
X300627Y479286D01*
X300636Y479277D01*
X300682Y479240D01*
X300747Y479184D01*
X300839Y479120D01*
X300959Y479055D01*
X301107Y478990D01*
X301283Y478935D01*
X301486Y478898D01*
X301348Y478112D01*
X301339D01*
X301311Y478121D01*
X301274Y478130D01*
X301218Y478139D01*
X301154Y478158D01*
X301080Y478186D01*
X300904Y478241D01*
X300700Y478334D01*
X300497Y478445D01*
X300303Y478583D01*
X300127Y478759D01*
X300118Y478768D01*
X300109Y478787D01*
X300090Y478815D01*
X300063Y478851D01*
X300026Y478898D01*
X299989Y478962D01*
X299952Y479027D01*
X299905Y479110D01*
X299831Y479295D01*
X299757Y479508D01*
X299711Y479757D01*
X299693Y479887D01*
Y480118D01*
X299702Y480220D01*
X299720Y480340D01*
X299748Y480488D01*
X299794Y480654D01*
X299850Y480821D01*
X299924Y480987D01*
Y480996D01*
X299933Y481006D01*
X299961Y481061D01*
X300016Y481144D01*
X300081Y481237D01*
X300173Y481348D01*
X300275Y481459D01*
X300395Y481570D01*
X300534Y481662D01*
X300553Y481671D01*
X300599Y481699D01*
X300682Y481736D01*
X300784Y481782D01*
X300904Y481828D01*
X301043Y481866D01*
X301200Y481893D01*
X301357Y481903D01*
X301375D01*
X301431D01*
X301505Y481893D01*
X301607Y481875D01*
X301727Y481847D01*
X301856Y481801D01*
X301986Y481745D01*
X302115Y481671D01*
X302134Y481662D01*
X302171Y481634D01*
X302235Y481579D01*
X302309Y481505D01*
X302393Y481413D01*
X302485Y481301D01*
X302568Y481172D01*
X302651Y481015D01*
Y481024D01*
X302661Y481043D01*
X302670Y481070D01*
X302679Y481107D01*
X302716Y481209D01*
X302771Y481339D01*
X302845Y481486D01*
X302938Y481634D01*
X303058Y481773D01*
X303197Y481903D01*
X303215Y481912D01*
X303271Y481949D01*
X303363Y482004D01*
X303483Y482060D01*
X303631Y482115D01*
X303807Y482171D01*
X304010Y482208D01*
X304232Y482217D01*
X304242D01*
X304269D01*
X304315D01*
X304371Y482208D01*
D02*
G37*
G36*
X304140Y477289D02*
X304195Y477270D01*
X304269Y477243D01*
X304352Y477215D01*
X304454Y477178D01*
X304565Y477132D01*
X304685Y477076D01*
X304944Y476947D01*
X305203Y476780D01*
X305333Y476679D01*
X305462Y476577D01*
X305573Y476466D01*
X305684Y476337D01*
X305693Y476327D01*
X305712Y476309D01*
X305730Y476263D01*
X305767Y476216D01*
X305813Y476143D01*
X305860Y476068D01*
X305906Y475967D01*
X305952Y475865D01*
X306007Y475745D01*
X306054Y475616D01*
X306100Y475477D01*
X306146Y475329D01*
X306183Y475172D01*
X306202Y475005D01*
X306220Y474830D01*
X306229Y474645D01*
Y474543D01*
X306220Y474469D01*
Y474386D01*
X306211Y474284D01*
X306192Y474173D01*
X306174Y474044D01*
X306128Y473776D01*
X306054Y473498D01*
X305952Y473221D01*
X305887Y473091D01*
X305813Y472962D01*
X305804Y472953D01*
X305795Y472934D01*
X305767Y472897D01*
X305730Y472860D01*
X305693Y472805D01*
X305638Y472740D01*
X305573Y472666D01*
X305499Y472592D01*
X305416Y472518D01*
X305333Y472435D01*
X305120Y472269D01*
X304870Y472111D01*
X304593Y471973D01*
X304584D01*
X304556Y471954D01*
X304510Y471945D01*
X304454Y471917D01*
X304380Y471899D01*
X304288Y471871D01*
X304186Y471834D01*
X304075Y471806D01*
X303955Y471779D01*
X303816Y471742D01*
X303530Y471695D01*
X303206Y471658D01*
X302873Y471640D01*
X302864D01*
X302827D01*
X302771D01*
X302707Y471649D01*
X302614D01*
X302522Y471658D01*
X302402Y471668D01*
X302281Y471686D01*
X302013Y471732D01*
X301717Y471797D01*
X301422Y471889D01*
X301135Y472019D01*
X301126Y472028D01*
X301098Y472037D01*
X301061Y472056D01*
X301015Y472093D01*
X300950Y472130D01*
X300876Y472176D01*
X300710Y472296D01*
X300525Y472453D01*
X300340Y472638D01*
X300155Y472851D01*
X299998Y473101D01*
X299989Y473110D01*
X299979Y473138D01*
X299961Y473175D01*
X299933Y473221D01*
X299905Y473295D01*
X299878Y473369D01*
X299841Y473461D01*
X299804Y473563D01*
X299767Y473674D01*
X299730Y473794D01*
X299674Y474053D01*
X299628Y474349D01*
X299610Y474654D01*
Y474746D01*
X299619Y474811D01*
X299628Y474894D01*
X299637Y474996D01*
X299646Y475098D01*
X299674Y475218D01*
X299730Y475468D01*
X299813Y475745D01*
X299868Y475884D01*
X299933Y476013D01*
X300016Y476143D01*
X300100Y476272D01*
X300109Y476281D01*
X300118Y476300D01*
X300146Y476337D01*
X300192Y476383D01*
X300238Y476429D01*
X300303Y476494D01*
X300377Y476558D01*
X300451Y476632D01*
X300543Y476707D01*
X300654Y476780D01*
X300765Y476864D01*
X300885Y476938D01*
X301024Y477002D01*
X301163Y477076D01*
X301311Y477132D01*
X301477Y477187D01*
X301671Y476355D01*
X301662D01*
X301644Y476346D01*
X301607Y476327D01*
X301560Y476309D01*
X301505Y476290D01*
X301431Y476263D01*
X301283Y476189D01*
X301117Y476096D01*
X300950Y475985D01*
X300793Y475847D01*
X300654Y475699D01*
X300636Y475680D01*
X300599Y475625D01*
X300553Y475532D01*
X300488Y475412D01*
X300432Y475255D01*
X300377Y475079D01*
X300340Y474867D01*
X300331Y474635D01*
Y474562D01*
X300340Y474515D01*
Y474450D01*
X300349Y474377D01*
X300377Y474201D01*
X300414Y474007D01*
X300479Y473803D01*
X300571Y473591D01*
X300691Y473396D01*
Y473387D01*
X300710Y473378D01*
X300756Y473313D01*
X300830Y473230D01*
X300941Y473128D01*
X301080Y473008D01*
X301237Y472897D01*
X301431Y472796D01*
X301644Y472703D01*
X301653D01*
X301671Y472694D01*
X301699Y472685D01*
X301745Y472675D01*
X301801Y472657D01*
X301866Y472638D01*
X302023Y472611D01*
X302208Y472574D01*
X302411Y472537D01*
X302633Y472518D01*
X302873Y472509D01*
X302882D01*
X302910D01*
X302956D01*
X303012D01*
X303077Y472518D01*
X303160D01*
X303252Y472528D01*
X303354Y472537D01*
X303576Y472564D01*
X303816Y472611D01*
X304057Y472666D01*
X304297Y472740D01*
X304306D01*
X304325Y472749D01*
X304352Y472768D01*
X304399Y472786D01*
X304510Y472842D01*
X304639Y472925D01*
X304787Y473027D01*
X304944Y473156D01*
X305083Y473304D01*
X305212Y473480D01*
Y473489D01*
X305222Y473507D01*
X305240Y473535D01*
X305259Y473572D01*
X305277Y473618D01*
X305305Y473674D01*
X305360Y473803D01*
X305416Y473970D01*
X305462Y474155D01*
X305499Y474358D01*
X305508Y474571D01*
Y474635D01*
X305499Y474691D01*
Y474756D01*
X305490Y474820D01*
X305453Y474987D01*
X305406Y475181D01*
X305333Y475375D01*
X305231Y475578D01*
X305175Y475680D01*
X305101Y475773D01*
X305092Y475782D01*
X305083Y475791D01*
X305055Y475819D01*
X305028Y475856D01*
X304981Y475893D01*
X304926Y475939D01*
X304870Y475995D01*
X304796Y476041D01*
X304713Y476096D01*
X304621Y476161D01*
X304528Y476216D01*
X304417Y476272D01*
X304297Y476318D01*
X304168Y476364D01*
X304029Y476411D01*
X303881Y476448D01*
X304094Y477298D01*
X304103D01*
X304140Y477289D01*
D02*
G37*
G36*
X254983Y35622D02*
Y35613D01*
Y35586D01*
Y35549D01*
Y35493D01*
X254973Y35419D01*
Y35345D01*
X254955Y35169D01*
X254936Y34966D01*
X254899Y34753D01*
X254844Y34559D01*
X254779Y34374D01*
Y34365D01*
X254770Y34356D01*
X254742Y34300D01*
X254696Y34226D01*
X254631Y34125D01*
X254539Y34023D01*
X254437Y33912D01*
X254308Y33801D01*
X254160Y33709D01*
X254141Y33699D01*
X254086Y33672D01*
X254002Y33635D01*
X253882Y33598D01*
X253734Y33551D01*
X253568Y33514D01*
X253383Y33487D01*
X253180Y33478D01*
X253097D01*
X253041Y33487D01*
X252967Y33496D01*
X252893Y33505D01*
X252699Y33542D01*
X252495Y33598D01*
X252283Y33681D01*
X252172Y33736D01*
X252070Y33801D01*
X251978Y33875D01*
X251885Y33958D01*
X251876Y33968D01*
X251867Y33977D01*
X251848Y34014D01*
X251821Y34051D01*
X251784Y34097D01*
X251747Y34162D01*
X251710Y34236D01*
X251663Y34319D01*
X251626Y34411D01*
X251589Y34522D01*
X251553Y34633D01*
X251516Y34763D01*
X251497Y34901D01*
X251469Y35059D01*
X251460Y35216D01*
Y35391D01*
X252227Y35502D01*
Y35493D01*
Y35475D01*
Y35438D01*
X252237Y35382D01*
X252246Y35327D01*
Y35262D01*
X252274Y35105D01*
X252301Y34938D01*
X252357Y34772D01*
X252412Y34624D01*
X252449Y34559D01*
X252495Y34504D01*
X252505Y34495D01*
X252542Y34467D01*
X252597Y34421D01*
X252671Y34374D01*
X252773Y34319D01*
X252884Y34282D01*
X253022Y34245D01*
X253170Y34236D01*
X253226D01*
X253281Y34245D01*
X253365Y34254D01*
X253448Y34273D01*
X253540Y34291D01*
X253633Y34328D01*
X253725Y34374D01*
X253734Y34384D01*
X253762Y34402D01*
X253799Y34439D01*
X253855Y34476D01*
X253901Y34541D01*
X253956Y34606D01*
X254002Y34680D01*
X254039Y34772D01*
Y34781D01*
X254058Y34818D01*
X254067Y34883D01*
X254086Y34966D01*
X254104Y35077D01*
X254114Y35216D01*
X254132Y35382D01*
Y35576D01*
Y39987D01*
X254983D01*
Y35622D01*
D02*
G37*
G36*
X259004Y33589D02*
X258218D01*
Y38590D01*
X258209Y38581D01*
X258163Y38544D01*
X258108Y38489D01*
X258015Y38424D01*
X257913Y38341D01*
X257784Y38248D01*
X257636Y38147D01*
X257470Y38045D01*
X257460D01*
X257451Y38036D01*
X257396Y37999D01*
X257303Y37952D01*
X257192Y37897D01*
X257063Y37832D01*
X256924Y37768D01*
X256786Y37703D01*
X256647Y37647D01*
Y38405D01*
X256656D01*
X256674Y38424D01*
X256712Y38433D01*
X256758Y38461D01*
X256813Y38489D01*
X256878Y38526D01*
X257035Y38618D01*
X257220Y38720D01*
X257405Y38849D01*
X257599Y38997D01*
X257793Y39154D01*
X257803Y39164D01*
X257812Y39173D01*
X257840Y39201D01*
X257876Y39228D01*
X257960Y39321D01*
X258071Y39432D01*
X258182Y39561D01*
X258302Y39709D01*
X258403Y39857D01*
X258496Y40014D01*
X259004D01*
Y33589D01*
D02*
G37*
G36*
X293791Y218431D02*
X293865D01*
X293948Y218422D01*
X294041Y218403D01*
X294152Y218375D01*
X294263Y218348D01*
X294392Y218311D01*
X294522Y218264D01*
X294651Y218209D01*
X294790Y218135D01*
X294919Y218052D01*
X295049Y217959D01*
X295178Y217848D01*
X295298Y217719D01*
X295307Y217710D01*
X295326Y217682D01*
X295354Y217645D01*
X295391Y217580D01*
X295446Y217497D01*
X295492Y217405D01*
X295548Y217284D01*
X295603Y217155D01*
X295668Y216998D01*
X295723Y216822D01*
X295770Y216628D01*
X295816Y216415D01*
X295862Y216175D01*
X295890Y215916D01*
X295908Y215639D01*
X295918Y215343D01*
Y215334D01*
Y215324D01*
Y215297D01*
Y215260D01*
X295908Y215167D01*
Y215038D01*
X295899Y214890D01*
X295881Y214714D01*
X295862Y214520D01*
X295834Y214307D01*
X295798Y214095D01*
X295751Y213864D01*
X295696Y213642D01*
X295631Y213420D01*
X295548Y213207D01*
X295455Y213004D01*
X295354Y212810D01*
X295233Y212643D01*
X295224Y212634D01*
X295206Y212615D01*
X295169Y212578D01*
X295123Y212523D01*
X295067Y212467D01*
X294993Y212412D01*
X294901Y212338D01*
X294808Y212273D01*
X294697Y212208D01*
X294577Y212135D01*
X294438Y212079D01*
X294300Y212014D01*
X294142Y211968D01*
X293976Y211931D01*
X293800Y211913D01*
X293615Y211903D01*
X293542D01*
X293486Y211913D01*
X293421D01*
X293347Y211922D01*
X293172Y211959D01*
X292978Y212005D01*
X292774Y212079D01*
X292571Y212190D01*
X292469Y212255D01*
X292377Y212329D01*
X292367Y212338D01*
X292358Y212347D01*
X292330Y212375D01*
X292303Y212403D01*
X292256Y212449D01*
X292219Y212504D01*
X292118Y212634D01*
X292016Y212800D01*
X291924Y213004D01*
X291840Y213235D01*
X291785Y213494D01*
X292571Y213558D01*
Y213549D01*
X292580Y213540D01*
X292589Y213484D01*
X292617Y213401D01*
X292654Y213300D01*
X292691Y213189D01*
X292746Y213078D01*
X292811Y212976D01*
X292876Y212893D01*
X292894Y212874D01*
X292931Y212837D01*
X292996Y212782D01*
X293088Y212717D01*
X293209Y212662D01*
X293338Y212606D01*
X293495Y212569D01*
X293662Y212551D01*
X293726D01*
X293800Y212560D01*
X293884Y212578D01*
X293995Y212606D01*
X294105Y212643D01*
X294216Y212689D01*
X294327Y212763D01*
X294346Y212773D01*
X294392Y212810D01*
X294457Y212874D01*
X294540Y212967D01*
X294632Y213078D01*
X294734Y213207D01*
X294827Y213374D01*
X294919Y213558D01*
Y213568D01*
X294928Y213586D01*
X294938Y213614D01*
X294956Y213651D01*
X294965Y213706D01*
X294984Y213771D01*
X295002Y213845D01*
X295021Y213937D01*
X295049Y214039D01*
X295067Y214150D01*
X295086Y214270D01*
X295095Y214400D01*
X295113Y214548D01*
X295123Y214696D01*
X295132Y214862D01*
Y215028D01*
X295123Y215019D01*
X295086Y214964D01*
X295021Y214890D01*
X294938Y214797D01*
X294845Y214686D01*
X294725Y214585D01*
X294596Y214483D01*
X294448Y214391D01*
X294438D01*
X294429Y214381D01*
X294374Y214354D01*
X294290Y214326D01*
X294179Y214280D01*
X294050Y214243D01*
X293902Y214215D01*
X293745Y214187D01*
X293578Y214178D01*
X293505D01*
X293449Y214187D01*
X293375Y214196D01*
X293301Y214206D01*
X293209Y214224D01*
X293116Y214252D01*
X292904Y214317D01*
X292793Y214363D01*
X292682Y214428D01*
X292571Y214492D01*
X292451Y214566D01*
X292340Y214659D01*
X292238Y214760D01*
X292229Y214770D01*
X292210Y214788D01*
X292182Y214816D01*
X292155Y214862D01*
X292108Y214927D01*
X292062Y214991D01*
X292016Y215075D01*
X291961Y215167D01*
X291905Y215269D01*
X291859Y215380D01*
X291813Y215509D01*
X291766Y215639D01*
X291739Y215777D01*
X291711Y215935D01*
X291692Y216092D01*
X291683Y216258D01*
Y216267D01*
Y216286D01*
Y216314D01*
Y216360D01*
X291692Y216415D01*
Y216471D01*
X291720Y216619D01*
X291748Y216794D01*
X291794Y216979D01*
X291859Y217183D01*
X291951Y217377D01*
Y217386D01*
X291961Y217395D01*
X291979Y217423D01*
X291998Y217460D01*
X292053Y217553D01*
X292136Y217673D01*
X292238Y217802D01*
X292358Y217932D01*
X292506Y218061D01*
X292663Y218172D01*
X292672D01*
X292682Y218181D01*
X292709Y218200D01*
X292746Y218209D01*
X292839Y218255D01*
X292959Y218301D01*
X293116Y218357D01*
X293292Y218394D01*
X293486Y218431D01*
X293699Y218440D01*
X293745D01*
X293791Y218431D01*
D02*
G37*
G36*
X299431D02*
X299514D01*
X299616Y218422D01*
X299727Y218403D01*
X299856Y218385D01*
X300124Y218338D01*
X300402Y218264D01*
X300679Y218163D01*
X300809Y218098D01*
X300938Y218024D01*
X300947Y218015D01*
X300966Y218006D01*
X301003Y217978D01*
X301040Y217941D01*
X301095Y217904D01*
X301160Y217848D01*
X301234Y217784D01*
X301308Y217710D01*
X301382Y217626D01*
X301465Y217543D01*
X301631Y217331D01*
X301789Y217081D01*
X301927Y216804D01*
Y216794D01*
X301946Y216767D01*
X301955Y216720D01*
X301983Y216665D01*
X302001Y216591D01*
X302029Y216499D01*
X302066Y216397D01*
X302094Y216286D01*
X302121Y216166D01*
X302158Y216027D01*
X302205Y215740D01*
X302242Y215417D01*
X302260Y215084D01*
Y215075D01*
Y215038D01*
Y214982D01*
X302251Y214918D01*
Y214825D01*
X302242Y214733D01*
X302232Y214612D01*
X302214Y214492D01*
X302168Y214224D01*
X302103Y213928D01*
X302010Y213632D01*
X301881Y213346D01*
X301872Y213337D01*
X301863Y213309D01*
X301844Y213272D01*
X301807Y213226D01*
X301770Y213161D01*
X301724Y213087D01*
X301604Y212920D01*
X301446Y212736D01*
X301262Y212551D01*
X301049Y212366D01*
X300799Y212208D01*
X300790Y212199D01*
X300762Y212190D01*
X300725Y212172D01*
X300679Y212144D01*
X300605Y212116D01*
X300531Y212088D01*
X300439Y212051D01*
X300337Y212014D01*
X300226Y211977D01*
X300106Y211940D01*
X299847Y211885D01*
X299551Y211839D01*
X299246Y211820D01*
X299154D01*
X299089Y211829D01*
X299006Y211839D01*
X298904Y211848D01*
X298802Y211857D01*
X298682Y211885D01*
X298432Y211940D01*
X298155Y212024D01*
X298016Y212079D01*
X297887Y212144D01*
X297757Y212227D01*
X297628Y212310D01*
X297619Y212320D01*
X297600Y212329D01*
X297563Y212356D01*
X297517Y212403D01*
X297471Y212449D01*
X297406Y212514D01*
X297341Y212588D01*
X297267Y212662D01*
X297194Y212754D01*
X297120Y212865D01*
X297036Y212976D01*
X296962Y213096D01*
X296898Y213235D01*
X296824Y213374D01*
X296768Y213521D01*
X296713Y213688D01*
X297545Y213882D01*
Y213873D01*
X297554Y213854D01*
X297573Y213817D01*
X297591Y213771D01*
X297610Y213716D01*
X297637Y213642D01*
X297711Y213494D01*
X297804Y213327D01*
X297915Y213161D01*
X298053Y213004D01*
X298201Y212865D01*
X298220Y212847D01*
X298275Y212810D01*
X298368Y212763D01*
X298488Y212699D01*
X298645Y212643D01*
X298821Y212588D01*
X299033Y212551D01*
X299265Y212541D01*
X299338D01*
X299385Y212551D01*
X299450D01*
X299523Y212560D01*
X299699Y212588D01*
X299893Y212625D01*
X300097Y212689D01*
X300309Y212782D01*
X300504Y212902D01*
X300513D01*
X300522Y212920D01*
X300587Y212967D01*
X300670Y213041D01*
X300772Y213152D01*
X300892Y213290D01*
X301003Y213447D01*
X301104Y213642D01*
X301197Y213854D01*
Y213864D01*
X301206Y213882D01*
X301215Y213910D01*
X301225Y213956D01*
X301243Y214011D01*
X301262Y214076D01*
X301289Y214233D01*
X301326Y214418D01*
X301363Y214622D01*
X301382Y214844D01*
X301391Y215084D01*
Y215093D01*
Y215121D01*
Y215167D01*
Y215223D01*
X301382Y215287D01*
Y215371D01*
X301373Y215463D01*
X301363Y215565D01*
X301336Y215787D01*
X301289Y216027D01*
X301234Y216267D01*
X301160Y216508D01*
Y216517D01*
X301151Y216535D01*
X301132Y216563D01*
X301114Y216609D01*
X301058Y216720D01*
X300975Y216850D01*
X300873Y216998D01*
X300744Y217155D01*
X300596Y217294D01*
X300420Y217423D01*
X300411D01*
X300392Y217432D01*
X300365Y217451D01*
X300328Y217469D01*
X300282Y217488D01*
X300226Y217516D01*
X300097Y217571D01*
X299930Y217626D01*
X299745Y217673D01*
X299542Y217710D01*
X299329Y217719D01*
X299265D01*
X299209Y217710D01*
X299144D01*
X299080Y217700D01*
X298913Y217663D01*
X298719Y217617D01*
X298525Y217543D01*
X298321Y217442D01*
X298220Y217386D01*
X298127Y217312D01*
X298118Y217303D01*
X298109Y217294D01*
X298081Y217266D01*
X298044Y217238D01*
X298007Y217192D01*
X297961Y217136D01*
X297905Y217081D01*
X297859Y217007D01*
X297804Y216924D01*
X297739Y216831D01*
X297684Y216739D01*
X297628Y216628D01*
X297582Y216508D01*
X297536Y216378D01*
X297489Y216240D01*
X297452Y216092D01*
X296602Y216304D01*
Y216314D01*
X296611Y216351D01*
X296630Y216406D01*
X296657Y216480D01*
X296685Y216563D01*
X296722Y216665D01*
X296768Y216776D01*
X296824Y216896D01*
X296953Y217155D01*
X297120Y217414D01*
X297221Y217543D01*
X297323Y217673D01*
X297434Y217784D01*
X297563Y217895D01*
X297573Y217904D01*
X297591Y217922D01*
X297637Y217941D01*
X297684Y217978D01*
X297757Y218024D01*
X297831Y218070D01*
X297933Y218116D01*
X298035Y218163D01*
X298155Y218218D01*
X298284Y218264D01*
X298423Y218311D01*
X298571Y218357D01*
X298728Y218394D01*
X298895Y218412D01*
X299070Y218431D01*
X299255Y218440D01*
X299357D01*
X299431Y218431D01*
D02*
G37*
G36*
X381220Y290124D02*
X378761D01*
X378594Y290134D01*
X378409Y290143D01*
X378224Y290161D01*
X378040Y290189D01*
X377882Y290217D01*
X377873D01*
X377855Y290226D01*
X377827D01*
X377790Y290245D01*
X377688Y290272D01*
X377559Y290319D01*
X377411Y290383D01*
X377254Y290467D01*
X377096Y290559D01*
X376949Y290679D01*
X376939Y290688D01*
X376930Y290698D01*
X376902Y290725D01*
X376865Y290753D01*
X376773Y290846D01*
X376662Y290975D01*
X376542Y291132D01*
X376412Y291317D01*
X376292Y291530D01*
X376190Y291770D01*
Y291779D01*
X376181Y291798D01*
X376163Y291835D01*
X376153Y291890D01*
X376126Y291955D01*
X376107Y292029D01*
X376089Y292112D01*
X376061Y292214D01*
X376033Y292316D01*
X376015Y292436D01*
X375969Y292695D01*
X375941Y292981D01*
X375932Y293296D01*
Y293305D01*
Y293323D01*
Y293370D01*
Y293416D01*
X375941Y293481D01*
Y293555D01*
X375950Y293730D01*
X375978Y293934D01*
X376006Y294146D01*
X376052Y294368D01*
X376107Y294590D01*
Y294599D01*
X376116Y294618D01*
X376126Y294646D01*
X376135Y294683D01*
X376172Y294784D01*
X376227Y294914D01*
X376283Y295062D01*
X376357Y295210D01*
X376449Y295367D01*
X376542Y295515D01*
X376551Y295533D01*
X376588Y295579D01*
X376643Y295644D01*
X376717Y295727D01*
X376801Y295820D01*
X376902Y295912D01*
X377004Y296014D01*
X377124Y296097D01*
X377143Y296106D01*
X377180Y296134D01*
X377244Y296171D01*
X377337Y296217D01*
X377448Y296273D01*
X377577Y296319D01*
X377725Y296374D01*
X377892Y296421D01*
X377910D01*
X377938Y296430D01*
X377966Y296439D01*
X378058Y296448D01*
X378187Y296467D01*
X378335Y296486D01*
X378511Y296504D01*
X378705Y296513D01*
X378918Y296522D01*
X381220D01*
Y290124D01*
D02*
G37*
G36*
X372917Y291521D02*
X372927Y291530D01*
X372973Y291567D01*
X373028Y291622D01*
X373121Y291687D01*
X373223Y291770D01*
X373352Y291863D01*
X373500Y291964D01*
X373666Y292066D01*
X373676D01*
X373685Y292075D01*
X373740Y292112D01*
X373833Y292159D01*
X373944Y292214D01*
X374073Y292279D01*
X374212Y292343D01*
X374351Y292408D01*
X374489Y292464D01*
Y291705D01*
X374480D01*
X374462Y291687D01*
X374425Y291678D01*
X374378Y291650D01*
X374323Y291622D01*
X374258Y291585D01*
X374101Y291493D01*
X373916Y291391D01*
X373731Y291262D01*
X373537Y291114D01*
X373343Y290957D01*
X373334Y290947D01*
X373324Y290938D01*
X373297Y290910D01*
X373260Y290883D01*
X373176Y290790D01*
X373065Y290679D01*
X372954Y290550D01*
X372834Y290402D01*
X372733Y290254D01*
X372640Y290097D01*
X372132D01*
Y296522D01*
X372917D01*
Y291521D01*
D02*
G37*
%LPC*%
G36*
X124904Y264894D02*
X124858D01*
X124821Y264885D01*
X124728Y264876D01*
X124608Y264848D01*
X124479Y264793D01*
X124331Y264728D01*
X124183Y264626D01*
X124109Y264571D01*
X124044Y264497D01*
Y264487D01*
X124025Y264478D01*
X123989Y264423D01*
X123933Y264330D01*
X123859Y264210D01*
X123794Y264053D01*
X123739Y263868D01*
X123702Y263655D01*
X123683Y263406D01*
Y263397D01*
Y263378D01*
Y263341D01*
X123693Y263295D01*
Y263239D01*
X123702Y263175D01*
X123730Y263027D01*
X123767Y262860D01*
X123831Y262685D01*
X123924Y262518D01*
X124044Y262361D01*
X124062Y262343D01*
X124109Y262296D01*
X124183Y262241D01*
X124284Y262167D01*
X124414Y262093D01*
X124562Y262037D01*
X124737Y261991D01*
X124931Y261973D01*
X124987D01*
X125024Y261982D01*
X125116Y261991D01*
X125246Y262019D01*
X125385Y262065D01*
X125542Y262139D01*
X125690Y262232D01*
X125838Y262361D01*
X125856Y262379D01*
X125893Y262426D01*
X125958Y262509D01*
X126023Y262629D01*
X126087Y262768D01*
X126152Y262943D01*
X126189Y263138D01*
X126207Y263360D01*
Y263378D01*
Y263424D01*
X126198Y263507D01*
X126189Y263609D01*
X126170Y263729D01*
X126133Y263859D01*
X126096Y263997D01*
X126041Y264136D01*
X126032Y264155D01*
X126004Y264201D01*
X125967Y264266D01*
X125912Y264349D01*
X125847Y264432D01*
X125764Y264534D01*
X125671Y264617D01*
X125560Y264700D01*
X125542Y264709D01*
X125505Y264728D01*
X125440Y264765D01*
X125357Y264793D01*
X125264Y264830D01*
X125153Y264867D01*
X125033Y264885D01*
X124904Y264894D01*
D02*
G37*
G36*
X341218Y188769D02*
X341144D01*
X341061Y188751D01*
X340950Y188732D01*
X340830Y188695D01*
X340700Y188649D01*
X340580Y188575D01*
X340460Y188473D01*
X340451Y188464D01*
X340414Y188427D01*
X340368Y188363D01*
X340321Y188279D01*
X340266Y188178D01*
X340220Y188057D01*
X340183Y187928D01*
X340173Y187780D01*
Y187771D01*
Y187761D01*
X340183Y187706D01*
X340192Y187623D01*
X340210Y187521D01*
X340247Y187401D01*
X340294Y187281D01*
X340368Y187151D01*
X340460Y187040D01*
X340469Y187031D01*
X340515Y186994D01*
X340580Y186948D01*
X340663Y186902D01*
X340774Y186846D01*
X340904Y186800D01*
X341052Y186763D01*
X341218Y186754D01*
X341237D01*
X341292Y186763D01*
X341375Y186772D01*
X341486Y186791D01*
X341606Y186828D01*
X341727Y186874D01*
X341856Y186948D01*
X341967Y187040D01*
X341976Y187050D01*
X342013Y187096D01*
X342059Y187151D01*
X342115Y187235D01*
X342170Y187336D01*
X342217Y187456D01*
X342254Y187595D01*
X342263Y187743D01*
Y187752D01*
Y187761D01*
Y187817D01*
X342244Y187900D01*
X342226Y188002D01*
X342189Y188113D01*
X342133Y188233D01*
X342059Y188353D01*
X341958Y188473D01*
X341949Y188483D01*
X341902Y188520D01*
X341838Y188566D01*
X341754Y188621D01*
X341643Y188677D01*
X341523Y188723D01*
X341375Y188760D01*
X341218Y188769D01*
D02*
G37*
G36*
X341190Y186116D02*
X341135D01*
X341098Y186107D01*
X340996Y186097D01*
X340867Y186070D01*
X340719Y186023D01*
X340571Y185959D01*
X340414Y185866D01*
X340275Y185746D01*
X340257Y185728D01*
X340220Y185681D01*
X340164Y185598D01*
X340099Y185496D01*
X340025Y185358D01*
X339970Y185201D01*
X339933Y185025D01*
X339915Y184831D01*
Y184812D01*
Y184775D01*
X339924Y184711D01*
X339933Y184627D01*
X339951Y184526D01*
X339979Y184415D01*
X340016Y184304D01*
X340062Y184184D01*
X340072Y184174D01*
X340090Y184128D01*
X340127Y184073D01*
X340183Y184008D01*
X340247Y183925D01*
X340331Y183841D01*
X340423Y183768D01*
X340534Y183694D01*
X340552Y183684D01*
X340589Y183666D01*
X340654Y183638D01*
X340737Y183610D01*
X340839Y183582D01*
X340959Y183555D01*
X341089Y183536D01*
X341218Y183527D01*
X341274D01*
X341311Y183536D01*
X341422Y183546D01*
X341551Y183573D01*
X341699Y183619D01*
X341856Y183675D01*
X342004Y183768D01*
X342152Y183888D01*
X342170Y183906D01*
X342207Y183952D01*
X342272Y184036D01*
X342337Y184137D01*
X342402Y184267D01*
X342466Y184424D01*
X342503Y184609D01*
X342522Y184803D01*
Y184812D01*
Y184831D01*
Y184858D01*
X342513Y184895D01*
X342503Y184997D01*
X342476Y185136D01*
X342429Y185275D01*
X342365Y185432D01*
X342272Y185589D01*
X342143Y185737D01*
X342124Y185755D01*
X342078Y185792D01*
X341995Y185857D01*
X341884Y185931D01*
X341745Y185996D01*
X341579Y186060D01*
X341394Y186097D01*
X341190Y186116D01*
D02*
G37*
G36*
X416733Y467364D02*
X413867D01*
X416733Y465349D01*
Y467364D01*
D02*
G37*
G36*
X386255Y383806D02*
X383389D01*
X386255Y381791D01*
Y383806D01*
D02*
G37*
G36*
X323108Y384666D02*
X322821D01*
X322812D01*
X322803D01*
X322756D01*
X322673D01*
X322562Y384657D01*
X322442D01*
X322294Y384647D01*
X322137Y384638D01*
X321961Y384620D01*
X321610Y384573D01*
X321434Y384546D01*
X321268Y384509D01*
X321110Y384472D01*
X320963Y384416D01*
X320833Y384361D01*
X320722Y384296D01*
X320713D01*
X320704Y384278D01*
X320676Y384259D01*
X320639Y384231D01*
X320556Y384148D01*
X320454Y384047D01*
X320362Y383908D01*
X320278Y383751D01*
X320241Y383667D01*
X320214Y383575D01*
X320204Y383473D01*
X320195Y383372D01*
Y383316D01*
X320204Y383279D01*
X320223Y383177D01*
X320251Y383057D01*
X320306Y382919D01*
X320389Y382771D01*
X320445Y382697D01*
X320500Y382623D01*
X320574Y382558D01*
X320658Y382493D01*
X320667D01*
X320685Y382475D01*
X320722Y382456D01*
X320768Y382429D01*
X320842Y382401D01*
X320926Y382364D01*
X321027Y382336D01*
X321147Y382299D01*
X321286Y382262D01*
X321443Y382225D01*
X321619Y382188D01*
X321813Y382160D01*
X322035Y382133D01*
X322276Y382114D01*
X322534Y382105D01*
X322821Y382096D01*
X322839D01*
X322886D01*
X322969D01*
X323080Y382105D01*
X323200D01*
X323348Y382114D01*
X323505Y382123D01*
X323671Y382142D01*
X324032Y382188D01*
X324208Y382216D01*
X324374Y382253D01*
X324531Y382290D01*
X324679Y382345D01*
X324809Y382401D01*
X324920Y382466D01*
X324929D01*
X324938Y382484D01*
X325003Y382530D01*
X325086Y382613D01*
X325179Y382715D01*
X325271Y382854D01*
X325354Y383011D01*
X325419Y383187D01*
X325428Y383279D01*
X325437Y383381D01*
Y383436D01*
X325428Y383473D01*
X325410Y383566D01*
X325373Y383695D01*
X325308Y383834D01*
X325216Y383991D01*
X325160Y384065D01*
X325086Y384139D01*
X325012Y384213D01*
X324920Y384287D01*
X324910D01*
X324892Y384305D01*
X324864Y384324D01*
X324818Y384342D01*
X324753Y384379D01*
X324670Y384407D01*
X324578Y384444D01*
X324467Y384481D01*
X324328Y384509D01*
X324180Y384546D01*
X324004Y384583D01*
X323820Y384610D01*
X323598Y384629D01*
X323366Y384647D01*
X323108Y384666D01*
D02*
G37*
G36*
X300255Y362754D02*
X300246D01*
X300228D01*
X300200D01*
X300154Y362745D01*
X300098D01*
X300043Y362736D01*
X299904Y362708D01*
X299747Y362662D01*
X299580Y362606D01*
X299414Y362514D01*
X299266Y362393D01*
X299247Y362375D01*
X299211Y362329D01*
X299146Y362246D01*
X299081Y362144D01*
X299007Y362005D01*
X298942Y361848D01*
X298905Y361672D01*
X298887Y361478D01*
Y361423D01*
X298896Y361386D01*
X298905Y361284D01*
X298933Y361164D01*
X298979Y361016D01*
X299044Y360868D01*
X299137Y360720D01*
X299266Y360581D01*
X299284Y360563D01*
X299340Y360526D01*
X299423Y360471D01*
X299543Y360396D01*
X299691Y360332D01*
X299867Y360276D01*
X300080Y360239D01*
X300320Y360221D01*
X300329D01*
X300348D01*
X300385D01*
X300431Y360230D01*
X300496D01*
X300560Y360239D01*
X300708Y360267D01*
X300884Y360304D01*
X301069Y360369D01*
X301245Y360461D01*
X301402Y360581D01*
X301411D01*
X301420Y360600D01*
X301467Y360646D01*
X301531Y360720D01*
X301605Y360822D01*
X301670Y360951D01*
X301735Y361099D01*
X301781Y361266D01*
X301799Y361358D01*
Y361506D01*
X301790Y361543D01*
X301781Y361645D01*
X301744Y361765D01*
X301698Y361913D01*
X301614Y362070D01*
X301513Y362227D01*
X301439Y362301D01*
X301365Y362375D01*
X301355D01*
X301346Y362393D01*
X301318Y362412D01*
X301291Y362430D01*
X301198Y362495D01*
X301069Y362560D01*
X300912Y362634D01*
X300718Y362699D01*
X300496Y362736D01*
X300255Y362754D01*
D02*
G37*
G36*
X293708Y217793D02*
X293662D01*
X293625Y217784D01*
X293532Y217774D01*
X293412Y217747D01*
X293283Y217691D01*
X293135Y217626D01*
X292987Y217525D01*
X292913Y217469D01*
X292848Y217395D01*
Y217386D01*
X292830Y217377D01*
X292793Y217321D01*
X292737Y217229D01*
X292663Y217109D01*
X292598Y216952D01*
X292543Y216767D01*
X292506Y216554D01*
X292488Y216304D01*
Y216295D01*
Y216277D01*
Y216240D01*
X292497Y216193D01*
Y216138D01*
X292506Y216073D01*
X292534Y215925D01*
X292571Y215759D01*
X292635Y215583D01*
X292728Y215417D01*
X292848Y215260D01*
X292867Y215241D01*
X292913Y215195D01*
X292987Y215139D01*
X293088Y215065D01*
X293218Y214991D01*
X293366Y214936D01*
X293542Y214890D01*
X293736Y214871D01*
X293791D01*
X293828Y214881D01*
X293921Y214890D01*
X294050Y214918D01*
X294189Y214964D01*
X294346Y215038D01*
X294494Y215130D01*
X294642Y215260D01*
X294660Y215278D01*
X294697Y215324D01*
X294762Y215408D01*
X294827Y215528D01*
X294891Y215666D01*
X294956Y215842D01*
X294993Y216036D01*
X295012Y216258D01*
Y216277D01*
Y216323D01*
X295002Y216406D01*
X294993Y216508D01*
X294975Y216628D01*
X294938Y216757D01*
X294901Y216896D01*
X294845Y217035D01*
X294836Y217053D01*
X294808Y217099D01*
X294771Y217164D01*
X294716Y217247D01*
X294651Y217331D01*
X294568Y217432D01*
X294475Y217516D01*
X294364Y217599D01*
X294346Y217608D01*
X294309Y217626D01*
X294244Y217663D01*
X294161Y217691D01*
X294069Y217728D01*
X293958Y217765D01*
X293837Y217784D01*
X293708Y217793D01*
D02*
G37*
G36*
X380369Y295764D02*
X378853D01*
X378788Y295755D01*
X378650Y295746D01*
X378493Y295737D01*
X378326Y295718D01*
X378160Y295690D01*
X378021Y295653D01*
X378003Y295644D01*
X377956Y295635D01*
X377892Y295607D01*
X377808Y295570D01*
X377716Y295515D01*
X377623Y295459D01*
X377531Y295394D01*
X377439Y295320D01*
X377429Y295302D01*
X377392Y295265D01*
X377337Y295200D01*
X377272Y295108D01*
X377198Y294988D01*
X377115Y294849D01*
X377041Y294692D01*
X376976Y294516D01*
Y294507D01*
X376967Y294488D01*
X376958Y294461D01*
X376949Y294424D01*
X376939Y294377D01*
X376921Y294313D01*
X376902Y294248D01*
X376884Y294174D01*
X376856Y293989D01*
X376828Y293776D01*
X376810Y293536D01*
X376801Y293277D01*
Y293268D01*
Y293231D01*
Y293185D01*
X376810Y293111D01*
Y293028D01*
X376819Y292935D01*
X376828Y292824D01*
X376838Y292713D01*
X376884Y292464D01*
X376939Y292205D01*
X377023Y291964D01*
X377078Y291844D01*
X377133Y291742D01*
Y291733D01*
X377152Y291715D01*
X377170Y291687D01*
X377189Y291650D01*
X377263Y291558D01*
X377355Y291447D01*
X377476Y291326D01*
X377614Y291206D01*
X377771Y291105D01*
X377938Y291021D01*
X377956Y291012D01*
X378003Y291003D01*
X378086Y290975D01*
X378206Y290947D01*
X378354Y290929D01*
X378539Y290901D01*
X378650Y290892D01*
X378770D01*
X378890Y290883D01*
X380369D01*
Y295764D01*
D02*
G37*
%LPD*%
D11*
X329490Y413099D02*
Y496221D01*
X399490D01*
Y413099D02*
Y496221D01*
X329490Y413099D02*
X399490D01*
X335475Y60385D02*
X407475D01*
Y4385D02*
Y60385D01*
X335475Y4385D02*
X407475D01*
X335475D02*
Y60385D01*
X116400Y435550D02*
X188400D01*
X116400D02*
Y491550D01*
X188400D01*
Y435550D02*
Y491550D01*
X133150Y35999D02*
Y63061D01*
X116650Y35999D02*
X133150D01*
X116650D02*
Y63061D01*
X133150D01*
X116899Y252761D02*
X159961D01*
X116899D02*
Y278323D01*
X159961D01*
Y252761D02*
Y278323D01*
X328989Y153751D02*
X372051D01*
Y128189D02*
Y153751D01*
X328989Y128189D02*
X372051D01*
X328989D02*
Y153751D01*
X311209Y195661D02*
X354271D01*
Y170099D02*
Y195661D01*
X311209Y170099D02*
X354271D01*
X311209D02*
Y195661D01*
X173951Y28469D02*
X198572D01*
Y70591D01*
X173951D02*
X198572D01*
X173951Y28469D02*
Y70591D01*
X406789Y437409D02*
Y479531D01*
X431411D01*
Y437409D02*
Y479531D01*
X406789Y437409D02*
X431411D01*
X375841Y348407D02*
X401403D01*
Y391469D01*
X375841D02*
X401403D01*
X375841Y348407D02*
Y391469D01*
X344518Y348407D02*
X370080D01*
Y391469D01*
X344518D02*
X370080D01*
X344518Y348407D02*
Y391469D01*
X159961Y283545D02*
Y309107D01*
X116899D02*
X159961D01*
X116899Y283545D02*
Y309107D01*
Y283545D02*
X159961D01*
Y221196D02*
Y246758D01*
X116899D02*
X159961D01*
X116899Y221196D02*
Y246758D01*
Y221196D02*
X159961D01*
X142427Y71061D02*
X167989D01*
X142427Y27999D02*
Y71061D01*
Y27999D02*
X167989D01*
Y71061D01*
X313304Y348407D02*
X338866D01*
Y391469D01*
X313304D02*
X338866D01*
X313304Y348407D02*
Y391469D01*
X308691Y348407D02*
Y391469D01*
X283129Y348407D02*
X308691D01*
X283129D02*
Y391469D01*
X308691D01*
X293919Y450579D02*
Y492701D01*
X318540D01*
Y450579D02*
Y492701D01*
X293919Y450579D02*
X318540D01*
X211110Y3610D02*
Y67110D01*
Y3610D02*
X291810D01*
Y67110D01*
X211110D02*
X291810D01*
X323791Y205659D02*
Y231221D01*
X280729D02*
X323791D01*
X280729Y205659D02*
Y231221D01*
Y205659D02*
X323791D01*
X407720Y283140D02*
Y306140D01*
X354720D02*
X407720D01*
X354720Y283140D02*
Y306140D01*
Y283140D02*
X407720D01*
M02*
