G04*
G04 #@! TF.GenerationSoftware,Altium Limited,Altium Designer,23.2.1 (34)*
G04*
G04 Layer_Color=0*
%FSLAX44Y44*%
%MOMM*%
G71*
G04*
G04 #@! TF.SameCoordinates,E8D5E090-FEBE-4B84-8277-266302A2B947*
G04*
G04*
G04 #@! TF.FilePolarity,Positive*
G04*
G01*
G75*
%ADD62C,0.1000*%
D62*
X364490Y449660D02*
Y459660D01*
X359490Y454660D02*
X369490D01*
X366475Y32385D02*
X376475D01*
X371475Y27385D02*
Y37385D01*
X147400Y463550D02*
X157400D01*
X152400Y458550D02*
Y468550D01*
X124900Y44530D02*
Y54530D01*
X119900Y49530D02*
X129900D01*
X133430Y265541D02*
X143430D01*
X138430Y260541D02*
Y270541D01*
X345520Y140970D02*
X355520D01*
X350520Y135970D02*
Y145970D01*
X327740Y182880D02*
X337740D01*
X332740Y177880D02*
Y187880D01*
X181261Y49530D02*
X191261D01*
X186261Y44530D02*
Y54530D01*
X419100Y453470D02*
Y463470D01*
X414100Y458470D02*
X424100D01*
X383622Y369938D02*
X393622D01*
X388622Y364938D02*
Y374938D01*
X352299Y369938D02*
X362299D01*
X357299Y364938D02*
Y374938D01*
X138430Y291326D02*
Y301326D01*
X133430Y296326D02*
X143430D01*
X138430Y228977D02*
Y238977D01*
X133430Y233977D02*
X143430D01*
X150208Y49530D02*
X160208D01*
X155208Y44530D02*
Y54530D01*
X321085Y369938D02*
X331085D01*
X326085Y364938D02*
Y374938D01*
X295910Y364938D02*
Y374938D01*
X290910Y369938D02*
X300910D01*
X306229Y466640D02*
Y476640D01*
X301229Y471640D02*
X311229D01*
X251460Y30360D02*
Y40360D01*
X246460Y35360D02*
X256460D01*
X302260Y213440D02*
Y223440D01*
X297260Y218440D02*
X307260D01*
X381220Y289640D02*
Y299640D01*
X376220Y294640D02*
X386220D01*
M02*
