G04*
G04 #@! TF.GenerationSoftware,Altium Limited,Altium Designer,23.2.1 (34)*
G04*
G04 Layer_Color=255*
%FSLAX44Y44*%
%MOMM*%
G71*
G04*
G04 #@! TF.SameCoordinates,E8D5E090-FEBE-4B84-8277-266302A2B947*
G04*
G04*
G04 #@! TF.FilePolarity,Positive*
G04*
G01*
G75*
%ADD49C,1.8400*%
%ADD50R,1.8400X1.8400*%
%ADD58C,1.4500*%
%ADD59C,1.6500*%
%ADD60R,1.6500X1.6500*%
D49*
X276860Y35560D02*
D03*
X251460D02*
D03*
D50*
X226060D02*
D03*
D58*
X271540Y458140D02*
D03*
X221540D02*
D03*
D59*
X478790Y46990D02*
D03*
Y72390D02*
D03*
X453390Y46990D02*
D03*
Y72390D02*
D03*
X478790Y123190D02*
D03*
X453390D02*
D03*
X478790Y173990D02*
D03*
X453390D02*
D03*
X478790Y250190D02*
D03*
X453390D02*
D03*
X478790Y300990D02*
D03*
X453390D02*
D03*
X478790Y351790D02*
D03*
X453390D02*
D03*
X478790Y377190D02*
D03*
X453390D02*
D03*
X478790Y453390D02*
D03*
X453390D02*
D03*
X478790Y478790D02*
D03*
X453390Y427990D02*
D03*
X478790D02*
D03*
X453390Y402590D02*
D03*
X478790D02*
D03*
X453390Y326390D02*
D03*
X478790D02*
D03*
X453390Y275590D02*
D03*
X478790D02*
D03*
X453390Y224790D02*
D03*
X478790D02*
D03*
X453390Y199390D02*
D03*
X478790D02*
D03*
X453390Y148590D02*
D03*
X478790D02*
D03*
X453390Y97790D02*
D03*
X478790D02*
D03*
X46990Y46990D02*
D03*
Y72390D02*
D03*
X21590Y46990D02*
D03*
Y72390D02*
D03*
X46990Y123190D02*
D03*
X21590D02*
D03*
X46990Y173990D02*
D03*
X21590D02*
D03*
X46990Y250190D02*
D03*
X21590D02*
D03*
X46990Y300990D02*
D03*
X21590D02*
D03*
X46990Y351790D02*
D03*
X21590D02*
D03*
X46990Y377190D02*
D03*
X21590D02*
D03*
X46990Y453390D02*
D03*
X21590D02*
D03*
X46990Y478790D02*
D03*
X21590Y427990D02*
D03*
X46990D02*
D03*
X21590Y402590D02*
D03*
X46990D02*
D03*
X21590Y326390D02*
D03*
X46990D02*
D03*
X21590Y275590D02*
D03*
X46990D02*
D03*
X21590Y224790D02*
D03*
X46990D02*
D03*
X21590Y199390D02*
D03*
X46990D02*
D03*
X21590Y148590D02*
D03*
X46990D02*
D03*
X21590Y97790D02*
D03*
X46990D02*
D03*
D60*
X453390Y478790D02*
D03*
X21590D02*
D03*
M02*
