G04*
G04 #@! TF.GenerationSoftware,Altium Limited,Altium Designer,23.2.1 (34)*
G04*
G04 Layer_Physical_Order=1*
G04 Layer_Color=255*
%FSLAX44Y44*%
%MOMM*%
G71*
G04*
G04 #@! TF.SameCoordinates,523C6F17-9805-44BE-8DD6-06E41B6C0E98*
G04*
G04*
G04 #@! TF.FilePolarity,Positive*
G04*
G01*
G75*
%ADD14C,0.2540*%
%ADD16C,0.5000*%
%ADD17R,0.8721X1.8596*%
G04:AMPARAMS|DCode=18|XSize=1.8596mm|YSize=0.8721mm|CornerRadius=0.4361mm|HoleSize=0mm|Usage=FLASHONLY|Rotation=90.000|XOffset=0mm|YOffset=0mm|HoleType=Round|Shape=RoundedRectangle|*
%AMROUNDEDRECTD18*
21,1,1.8596,0.0000,0,0,90.0*
21,1,0.9875,0.8721,0,0,90.0*
1,1,0.8721,0.0000,0.4938*
1,1,0.8721,0.0000,-0.4938*
1,1,0.8721,0.0000,-0.4938*
1,1,0.8721,0.0000,0.4938*
%
%ADD18ROUNDEDRECTD18*%
G04:AMPARAMS|DCode=19|XSize=1.8596mm|YSize=3.1721mm|CornerRadius=0.437mm|HoleSize=0mm|Usage=FLASHONLY|Rotation=90.000|XOffset=0mm|YOffset=0mm|HoleType=Round|Shape=RoundedRectangle|*
%AMROUNDEDRECTD19*
21,1,1.8596,2.2981,0,0,90.0*
21,1,0.9856,3.1721,0,0,90.0*
1,1,0.8740,1.1490,0.4928*
1,1,0.8740,1.1490,-0.4928*
1,1,0.8740,-1.1490,-0.4928*
1,1,0.8740,-1.1490,0.4928*
%
%ADD19ROUNDEDRECTD19*%
%ADD20R,1.0000X0.7000*%
%ADD21R,1.5000X1.9000*%
%ADD22R,0.4000X1.3500*%
%ADD23R,1.3562X1.0546*%
%ADD24R,1.4546X1.5562*%
%ADD25R,1.4621X1.3578*%
%ADD26R,1.4500X1.2000*%
%ADD27R,0.1778X0.8128*%
%ADD28R,1.1500X1.4500*%
%ADD29R,0.8000X1.2500*%
%ADD30R,1.5562X1.4546*%
%ADD31R,1.8288X0.5334*%
%ADD33R,0.8128X0.1778*%
%ADD34R,5.6000X2.1000*%
%ADD35R,1.4500X1.0500*%
%ADD36R,1.5000X1.6000*%
%ADD43R,3.2004X3.2004*%
%ADD49C,1.8400*%
%ADD50R,1.8400X1.8400*%
%ADD52C,0.1778*%
%ADD53C,0.7620*%
%ADD54C,0.3810*%
%ADD55C,0.5080*%
%ADD56C,1.0160*%
%ADD57C,1.2700*%
%ADD58C,1.4500*%
%ADD59C,1.6500*%
%ADD60R,1.6500X1.6500*%
%ADD61C,1.0000*%
G36*
X500000Y0D02*
X0D01*
Y500000D01*
X500000D01*
Y0D01*
D02*
G37*
%LPC*%
G36*
X282540Y496989D02*
X282403Y496971D01*
X269540D01*
X268648Y496793D01*
X267892Y496288D01*
X267387Y495532D01*
X267209Y494640D01*
Y490020D01*
X266326D01*
Y496926D01*
X246754D01*
Y490020D01*
X246326D01*
Y496926D01*
X226754D01*
Y490020D01*
X225871D01*
Y494640D01*
X225693Y495532D01*
X225188Y496288D01*
X224432Y496793D01*
X223540Y496971D01*
X210677D01*
X210540Y496989D01*
X208638Y496738D01*
X206866Y496004D01*
X205344Y494836D01*
X204176Y493314D01*
X203442Y491542D01*
X203191Y489640D01*
X203209Y489503D01*
X203209Y480779D01*
X203191Y480640D01*
X203442Y478738D01*
X204039Y477296D01*
Y467981D01*
X204292Y466059D01*
X205034Y464267D01*
X206215Y462728D01*
X212091Y456852D01*
X212231Y455790D01*
X206412Y449971D01*
X189686D01*
Y450836D01*
X175114D01*
Y449971D01*
X129686D01*
Y450836D01*
X115114D01*
Y439264D01*
X129686D01*
Y440130D01*
X175114D01*
Y439264D01*
X189686D01*
Y440130D01*
X208450D01*
X210333Y440504D01*
X211929Y441571D01*
X219190Y448831D01*
X221540Y448522D01*
X224029Y448849D01*
X226349Y449810D01*
X228341Y451339D01*
X229014Y452215D01*
X229254Y452133D01*
Y449104D01*
X242267D01*
Y436270D01*
X237421Y431424D01*
X236494Y430037D01*
X236169Y428402D01*
Y406316D01*
X230906D01*
Y391244D01*
X249978D01*
Y406316D01*
X244715D01*
Y426632D01*
X249562Y431478D01*
X249562Y431478D01*
X250430Y432778D01*
X250723Y432844D01*
X262427Y421140D01*
Y406316D01*
X257164D01*
Y391244D01*
X276236D01*
Y406316D01*
X270973D01*
Y422910D01*
X270648Y424545D01*
X269722Y425932D01*
X269722Y425932D01*
X257313Y438340D01*
Y442432D01*
X257548Y442529D01*
X270028Y430048D01*
X271415Y429122D01*
X273050Y428797D01*
X294959D01*
X296594Y429122D01*
X297980Y430048D01*
X306085Y438154D01*
X306229Y438125D01*
X326114D01*
X328493Y438598D01*
X330509Y439946D01*
X339008Y448445D01*
X339032D01*
X339226Y448296D01*
X340998Y447562D01*
X342900Y447311D01*
X344802Y447562D01*
X346574Y448296D01*
X346768Y448445D01*
X375611D01*
X381275Y442781D01*
Y432198D01*
X381014Y431570D01*
X380786Y429835D01*
Y419960D01*
X381014Y418225D01*
X381684Y416608D01*
X382750Y415219D01*
X384138Y414154D01*
X385755Y413484D01*
X387490Y413256D01*
X389225Y413484D01*
X390842Y414154D01*
X392230Y415219D01*
X393296Y416608D01*
X393966Y418225D01*
X394194Y419960D01*
Y429835D01*
X393966Y431570D01*
X393705Y432198D01*
Y445356D01*
X393232Y447734D01*
X391885Y449751D01*
X382581Y459055D01*
X380564Y460402D01*
X378186Y460875D01*
X346768D01*
X346574Y461024D01*
X344802Y461758D01*
X342900Y462009D01*
X340998Y461758D01*
X339226Y461024D01*
X339032Y460875D01*
X336434D01*
X334055Y460402D01*
X332039Y459055D01*
X323540Y450556D01*
X312445D01*
Y453293D01*
X315826D01*
Y471443D01*
X296633D01*
Y453293D01*
X300014D01*
Y444341D01*
X300042Y444197D01*
X293189Y437343D01*
X274820D01*
X263813Y448350D01*
Y449104D01*
X263826D01*
Y452133D01*
X264067Y452215D01*
X264739Y451339D01*
X266731Y449810D01*
X269051Y448849D01*
X271540Y448522D01*
X274029Y448849D01*
X276349Y449810D01*
X278341Y451339D01*
X279870Y453331D01*
X280831Y455651D01*
X281158Y458140D01*
X281125Y458392D01*
X287194Y464461D01*
X288374Y466000D01*
X289116Y467791D01*
X289370Y469714D01*
Y478089D01*
X289638Y478738D01*
X289828Y480181D01*
X289844Y480260D01*
X296633D01*
Y471837D01*
X315826D01*
Y489987D01*
X302167D01*
X302001Y490020D01*
X302001Y490020D01*
X289839D01*
X289638Y491542D01*
X288904Y493314D01*
X287736Y494836D01*
X286214Y496004D01*
X284442Y496739D01*
X282540Y496989D01*
D02*
G37*
G36*
X189686Y487836D02*
X175114D01*
Y486970D01*
X129686D01*
Y487836D01*
X115114D01*
Y487520D01*
X100766D01*
X98883Y487146D01*
X97287Y486079D01*
X94311Y483103D01*
X93244Y481507D01*
X93089Y480726D01*
X88254D01*
Y464154D01*
X107326D01*
Y477679D01*
X115114D01*
Y476264D01*
X129686D01*
Y477129D01*
X175114D01*
Y476264D01*
X189686D01*
Y487836D01*
D02*
G37*
G36*
X375980Y496320D02*
X365760D01*
Y485692D01*
X382950D01*
Y489351D01*
X382713Y491154D01*
X382016Y492835D01*
X380909Y494279D01*
X379465Y495387D01*
X377784Y496083D01*
X375980Y496320D01*
D02*
G37*
G36*
X363220D02*
X352999D01*
X351196Y496083D01*
X349515Y495387D01*
X348071Y494279D01*
X346964Y492835D01*
X346267Y491154D01*
X346030Y489351D01*
Y485692D01*
X363220D01*
Y496320D01*
D02*
G37*
G36*
X48260Y489506D02*
Y480060D01*
X57706D01*
X57502Y481607D01*
X56415Y484232D01*
X54686Y486485D01*
X52432Y488215D01*
X49807Y489302D01*
X48260Y489506D01*
D02*
G37*
G36*
X45720D02*
X44173Y489302D01*
X41549Y488215D01*
X39295Y486485D01*
X37565Y484232D01*
X36478Y481607D01*
X36274Y480060D01*
X45720D01*
Y489506D01*
D02*
G37*
G36*
X363220Y483153D02*
X346030D01*
Y479494D01*
X346267Y477691D01*
X346964Y476010D01*
X348071Y474566D01*
X349515Y473458D01*
X351196Y472762D01*
X352999Y472525D01*
X363220D01*
Y483153D01*
D02*
G37*
G36*
X382950D02*
X365760D01*
Y472525D01*
X366557D01*
X366946Y472473D01*
X367335Y472525D01*
X375980D01*
X377784Y472762D01*
X379465Y473458D01*
X380909Y474566D01*
X382016Y476010D01*
X382713Y477691D01*
X382950Y479494D01*
Y483153D01*
D02*
G37*
G36*
X463926Y489326D02*
X442854D01*
Y468254D01*
X463926D01*
Y489326D01*
D02*
G37*
G36*
X32126D02*
X11054D01*
Y468254D01*
X32126D01*
Y489326D01*
D02*
G37*
G36*
X478790Y489417D02*
X476040Y489055D01*
X473476Y487993D01*
X471276Y486304D01*
X469587Y484104D01*
X468525Y481540D01*
X468163Y478790D01*
X468525Y476040D01*
X469587Y473476D01*
X471276Y471276D01*
X473476Y469587D01*
X476040Y468525D01*
X478790Y468163D01*
X481540Y468525D01*
X484104Y469587D01*
X486304Y471276D01*
X487993Y473476D01*
X489055Y476040D01*
X489417Y478790D01*
X489055Y481540D01*
X487993Y484104D01*
X486304Y486304D01*
X484104Y487993D01*
X481540Y489055D01*
X478790Y489417D01*
D02*
G37*
G36*
X45720Y477520D02*
X36274D01*
X36478Y475973D01*
X37565Y473348D01*
X39295Y471095D01*
X41549Y469365D01*
X44173Y468278D01*
X45720Y468074D01*
Y477520D01*
D02*
G37*
G36*
X57706D02*
X48260D01*
Y468074D01*
X49807Y468278D01*
X52432Y469365D01*
X54686Y471095D01*
X56415Y473348D01*
X57502Y475973D01*
X57706Y477520D01*
D02*
G37*
G36*
X48260Y464106D02*
Y454660D01*
X57706D01*
X57502Y456207D01*
X56415Y458832D01*
X54686Y461086D01*
X52432Y462815D01*
X49807Y463902D01*
X48260Y464106D01*
D02*
G37*
G36*
X45720D02*
X44173Y463902D01*
X41549Y462815D01*
X39295Y461086D01*
X37565Y458832D01*
X36478Y456207D01*
X36274Y454660D01*
X45720D01*
Y464106D01*
D02*
G37*
G36*
X419100Y492570D02*
X417177Y492316D01*
X415385Y491574D01*
X413847Y490393D01*
X412666Y488855D01*
X411924Y487063D01*
X411670Y485140D01*
Y476817D01*
X409503D01*
Y458781D01*
X409503Y458667D01*
X409307Y458527D01*
X409249D01*
Y450468D01*
X419100D01*
X428951D01*
Y458527D01*
X428893D01*
X428697Y458667D01*
X428697Y458781D01*
Y476817D01*
X426530D01*
Y485140D01*
X426276Y487063D01*
X425534Y488855D01*
X424353Y490393D01*
X422815Y491574D01*
X421023Y492316D01*
X419100Y492570D01*
D02*
G37*
G36*
X107326Y460726D02*
X88254D01*
Y444154D01*
X94553D01*
Y414020D01*
X94799Y412781D01*
X95501Y411731D01*
X100941Y406291D01*
X101991Y405589D01*
X103230Y405343D01*
X107063D01*
X107160Y405108D01*
X106931Y404879D01*
X106229Y403829D01*
X105983Y402590D01*
Y385337D01*
X105748Y385240D01*
X86109Y404879D01*
X85059Y405581D01*
X83820Y405827D01*
X57053D01*
X56193Y407904D01*
X54504Y410104D01*
X52304Y411793D01*
X49740Y412855D01*
X46990Y413217D01*
X44240Y412855D01*
X41677Y411793D01*
X39476Y410104D01*
X37787Y407904D01*
X36725Y405340D01*
X36363Y402590D01*
X36725Y399840D01*
X37787Y397276D01*
X39476Y395076D01*
X41677Y393387D01*
X44240Y392325D01*
X46990Y391963D01*
X49740Y392325D01*
X52304Y393387D01*
X54504Y395076D01*
X56193Y397276D01*
X57053Y399353D01*
X82479D01*
X100903Y380929D01*
Y378230D01*
X100668Y378133D01*
X100308Y378494D01*
X99257Y379195D01*
X98018Y379442D01*
X57320D01*
X57255Y379940D01*
X56193Y382504D01*
X54504Y384704D01*
X52304Y386393D01*
X49740Y387455D01*
X46990Y387817D01*
X44240Y387455D01*
X41677Y386393D01*
X39476Y384704D01*
X37787Y382504D01*
X36725Y379940D01*
X36363Y377190D01*
X36725Y374440D01*
X37787Y371876D01*
X39476Y369676D01*
X41677Y367987D01*
X44240Y366925D01*
X46990Y366563D01*
X49740Y366925D01*
X52304Y367987D01*
X54504Y369676D01*
X56193Y371876D01*
X56645Y372967D01*
X95823D01*
Y354330D01*
X96069Y353091D01*
X96771Y352041D01*
X110060Y338752D01*
X109963Y338517D01*
X80081D01*
X64519Y354079D01*
X63469Y354781D01*
X62230Y355027D01*
X57053D01*
X56193Y357104D01*
X54504Y359304D01*
X52304Y360993D01*
X49740Y362055D01*
X46990Y362417D01*
X44240Y362055D01*
X41677Y360993D01*
X39476Y359304D01*
X37787Y357104D01*
X36725Y354540D01*
X36363Y351790D01*
X36725Y349040D01*
X37787Y346477D01*
X39476Y344276D01*
X41677Y342587D01*
X44240Y341525D01*
X46990Y341163D01*
X49740Y341525D01*
X52304Y342587D01*
X54504Y344276D01*
X56193Y346477D01*
X57053Y348553D01*
X60889D01*
X74754Y334688D01*
X74657Y334453D01*
X55392D01*
X54154Y334207D01*
X54131Y334191D01*
X52304Y335593D01*
X49740Y336655D01*
X46990Y337017D01*
X44240Y336655D01*
X41677Y335593D01*
X39476Y333904D01*
X37787Y331703D01*
X36725Y329140D01*
X36363Y326390D01*
X36725Y323640D01*
X37787Y321077D01*
X39476Y318876D01*
X41677Y317187D01*
X44240Y316125D01*
X46990Y315763D01*
X49740Y316125D01*
X52304Y317187D01*
X54504Y318876D01*
X56193Y321077D01*
X57255Y323640D01*
X57617Y326390D01*
X57433Y327788D01*
X57600Y327979D01*
X69069D01*
X69166Y327744D01*
X51817Y310395D01*
X49740Y311255D01*
X46990Y311617D01*
X44240Y311255D01*
X41677Y310193D01*
X39476Y308504D01*
X37787Y306304D01*
X36725Y303740D01*
X36363Y300990D01*
X36725Y298240D01*
X37787Y295676D01*
X39476Y293476D01*
X41677Y291787D01*
X44240Y290725D01*
X46990Y290363D01*
X49740Y290725D01*
X52304Y291787D01*
X54504Y293476D01*
X56193Y295676D01*
X57255Y298240D01*
X57617Y300990D01*
X57255Y303740D01*
X56395Y305817D01*
X58849Y308271D01*
X59084Y308174D01*
Y292262D01*
X51817Y284995D01*
X49740Y285855D01*
X46990Y286217D01*
X44240Y285855D01*
X41677Y284793D01*
X39476Y283104D01*
X37787Y280903D01*
X36725Y278340D01*
X36363Y275590D01*
X36725Y272840D01*
X37787Y270277D01*
X39476Y268076D01*
X41677Y266387D01*
X44240Y265325D01*
X46990Y264963D01*
X49740Y265325D01*
X52304Y266387D01*
X54504Y268076D01*
X56193Y270277D01*
X57255Y272840D01*
X57617Y275590D01*
X57255Y278340D01*
X56395Y280417D01*
X64610Y288632D01*
X65089Y289348D01*
X65343Y289271D01*
Y273121D01*
X51817Y259595D01*
X49740Y260455D01*
X46990Y260817D01*
X44240Y260455D01*
X41677Y259393D01*
X39476Y257704D01*
X37787Y255504D01*
X36725Y252940D01*
X36363Y250190D01*
X36725Y247440D01*
X37787Y244876D01*
X39476Y242676D01*
X41677Y240987D01*
X44240Y239925D01*
X46990Y239563D01*
X49740Y239925D01*
X52304Y240987D01*
X54504Y242676D01*
X56193Y244876D01*
X57255Y247440D01*
X57617Y250190D01*
X57255Y252940D01*
X56395Y255017D01*
X69172Y267794D01*
X69407Y267697D01*
Y251785D01*
X51817Y234195D01*
X49740Y235055D01*
X46990Y235417D01*
X44240Y235055D01*
X41677Y233993D01*
X39476Y232304D01*
X37787Y230103D01*
X36725Y227540D01*
X36363Y224790D01*
X36725Y222040D01*
X37787Y219477D01*
X39476Y217276D01*
X41677Y215587D01*
X44240Y214525D01*
X46990Y214163D01*
X49740Y214525D01*
X52304Y215587D01*
X54504Y217276D01*
X56193Y219477D01*
X57255Y222040D01*
X57617Y224790D01*
X57255Y227540D01*
X56395Y229617D01*
X74933Y248155D01*
X75635Y249205D01*
X75881Y250444D01*
Y308061D01*
X79543Y311723D01*
X164232D01*
X189060Y286895D01*
X190110Y286193D01*
X191349Y285947D01*
X205900D01*
Y284293D01*
X199109D01*
X197870Y284047D01*
X196820Y283345D01*
X186433Y272958D01*
X185731Y271908D01*
X185485Y270669D01*
Y246008D01*
X142104Y202627D01*
X57053D01*
X56193Y204704D01*
X54504Y206904D01*
X52304Y208593D01*
X49740Y209655D01*
X46990Y210017D01*
X44240Y209655D01*
X41677Y208593D01*
X39476Y206904D01*
X37787Y204704D01*
X36725Y202140D01*
X36363Y199390D01*
X36725Y196640D01*
X37787Y194076D01*
X39476Y191876D01*
X41677Y190187D01*
X44240Y189125D01*
X46990Y188763D01*
X49740Y189125D01*
X52304Y190187D01*
X54504Y191876D01*
X56193Y194076D01*
X57053Y196153D01*
X141046D01*
X141143Y195918D01*
X122452Y177227D01*
X57053D01*
X56193Y179303D01*
X54504Y181504D01*
X52304Y183193D01*
X49740Y184255D01*
X46990Y184617D01*
X44240Y184255D01*
X41677Y183193D01*
X39476Y181504D01*
X37787Y179303D01*
X36725Y176740D01*
X36363Y173990D01*
X36725Y171240D01*
X37787Y168676D01*
X39476Y166476D01*
X41677Y164787D01*
X44240Y163725D01*
X46990Y163363D01*
X49740Y163725D01*
X52304Y164787D01*
X54504Y166476D01*
X56193Y168676D01*
X57053Y170753D01*
X121393D01*
X121490Y170518D01*
X102799Y151827D01*
X57053D01*
X56193Y153904D01*
X54504Y156104D01*
X52304Y157793D01*
X49740Y158855D01*
X46990Y159217D01*
X44240Y158855D01*
X41677Y157793D01*
X39476Y156104D01*
X37787Y153904D01*
X36725Y151340D01*
X36363Y148590D01*
X36725Y145840D01*
X37787Y143277D01*
X39476Y141076D01*
X41677Y139387D01*
X44240Y138325D01*
X46990Y137963D01*
X49740Y138325D01*
X52304Y139387D01*
X54504Y141076D01*
X56193Y143277D01*
X57053Y145353D01*
X102278D01*
X102375Y145118D01*
X83684Y126427D01*
X57053D01*
X56193Y128504D01*
X54504Y130704D01*
X52304Y132393D01*
X49740Y133455D01*
X46990Y133817D01*
X44240Y133455D01*
X41677Y132393D01*
X39476Y130704D01*
X37787Y128504D01*
X36725Y125940D01*
X36363Y123190D01*
X36725Y120440D01*
X37787Y117877D01*
X39476Y115676D01*
X41677Y113987D01*
X44240Y112925D01*
X46990Y112563D01*
X49740Y112925D01*
X52304Y113987D01*
X54504Y115676D01*
X56193Y117877D01*
X57053Y119953D01*
X82626D01*
X82723Y119718D01*
X64032Y101027D01*
X57053D01*
X56193Y103104D01*
X54504Y105304D01*
X52304Y106993D01*
X49740Y108055D01*
X46990Y108417D01*
X44240Y108055D01*
X41677Y106993D01*
X39476Y105304D01*
X37787Y103104D01*
X36725Y100540D01*
X36363Y97790D01*
X36725Y95040D01*
X37787Y92477D01*
X39476Y90276D01*
X41677Y88587D01*
X44240Y87525D01*
X46990Y87163D01*
X49740Y87525D01*
X52304Y88587D01*
X54504Y90276D01*
X56193Y92477D01*
X57053Y94553D01*
X65373D01*
X66611Y94799D01*
X67662Y95501D01*
X80348Y108187D01*
X80583Y108090D01*
Y91511D01*
X64699Y75627D01*
X57053D01*
X56193Y77703D01*
X54504Y79904D01*
X52304Y81593D01*
X49740Y82655D01*
X46990Y83017D01*
X44240Y82655D01*
X41677Y81593D01*
X39476Y79904D01*
X37787Y77703D01*
X36725Y75140D01*
X36363Y72390D01*
X36725Y69640D01*
X37787Y67077D01*
X39476Y64876D01*
X41677Y63187D01*
X44240Y62125D01*
X46990Y61763D01*
X49740Y62125D01*
X52304Y63187D01*
X54504Y64876D01*
X56193Y67077D01*
X57053Y69153D01*
X64243D01*
X64340Y68918D01*
X62481Y67059D01*
X61779Y66009D01*
X61533Y64770D01*
Y27940D01*
X61779Y26701D01*
X62481Y25651D01*
X83515Y4617D01*
X84565Y3916D01*
X85804Y3669D01*
X312976D01*
X314215Y3916D01*
X315265Y4617D01*
X331541Y20893D01*
X416560D01*
X417799Y21139D01*
X418849Y21841D01*
X441709Y44701D01*
X442411Y45751D01*
X442567Y46535D01*
X442824Y46527D01*
X443125Y44240D01*
X444187Y41677D01*
X445876Y39476D01*
X448077Y37787D01*
X450640Y36725D01*
X453390Y36363D01*
X456140Y36725D01*
X458703Y37787D01*
X460904Y39476D01*
X462593Y41677D01*
X463655Y44240D01*
X464017Y46990D01*
X463655Y49740D01*
X462593Y52304D01*
X460904Y54504D01*
X458703Y56193D01*
X456140Y57255D01*
X453390Y57617D01*
X450640Y57255D01*
X448077Y56193D01*
X445876Y54504D01*
X444187Y52304D01*
X443125Y49740D01*
X442911Y48115D01*
X442657Y48132D01*
Y57079D01*
X448563Y62985D01*
X450640Y62125D01*
X453390Y61763D01*
X456140Y62125D01*
X458703Y63187D01*
X460904Y64876D01*
X462593Y67077D01*
X463655Y69640D01*
X464017Y72390D01*
X463655Y75140D01*
X462593Y77703D01*
X460904Y79904D01*
X458703Y81593D01*
X456140Y82655D01*
X453390Y83017D01*
X450640Y82655D01*
X448077Y81593D01*
X445876Y79904D01*
X444187Y77703D01*
X443125Y75140D01*
X442763Y72390D01*
X443125Y69640D01*
X443985Y67563D01*
X437131Y60709D01*
X436429Y59659D01*
X436183Y58420D01*
Y48331D01*
X415219Y27367D01*
X330200D01*
X328961Y27121D01*
X327911Y26419D01*
X311635Y10144D01*
X298723D01*
X298626Y10378D01*
X318031Y29783D01*
X411480D01*
X412719Y30029D01*
X413769Y30731D01*
X434089Y51051D01*
X434791Y52101D01*
X435037Y53340D01*
Y91369D01*
X438221Y94553D01*
X443327D01*
X444187Y92477D01*
X445876Y90276D01*
X448077Y88587D01*
X450640Y87525D01*
X453390Y87163D01*
X456140Y87525D01*
X458703Y88587D01*
X460904Y90276D01*
X462593Y92477D01*
X463655Y95040D01*
X464017Y97790D01*
X463655Y100540D01*
X462593Y103104D01*
X460904Y105304D01*
X458703Y106993D01*
X456140Y108055D01*
X453390Y108417D01*
X450640Y108055D01*
X448077Y106993D01*
X445876Y105304D01*
X444187Y103104D01*
X443327Y101027D01*
X436880D01*
X435641Y100781D01*
X434591Y100079D01*
X429511Y94999D01*
X428809Y93949D01*
X428563Y92710D01*
Y54681D01*
X410139Y36257D01*
X316690D01*
X315451Y36011D01*
X314401Y35309D01*
X293299Y14208D01*
X88828D01*
X72071Y30964D01*
Y61746D01*
X95253Y84928D01*
X95955Y85978D01*
X96201Y87217D01*
Y106798D01*
X214766Y225363D01*
X226060D01*
X227299Y225609D01*
X228349Y226311D01*
X232908Y230870D01*
X233143Y230773D01*
Y225021D01*
X217311Y209189D01*
X216609Y208139D01*
X216363Y206900D01*
Y203846D01*
X211564D01*
Y199230D01*
X194310D01*
X192427Y198856D01*
X190831Y197789D01*
X147651Y154609D01*
X146584Y153013D01*
X146209Y151130D01*
Y123518D01*
X145934Y123306D01*
X144766Y121784D01*
X144032Y120012D01*
X143781Y118110D01*
X144032Y116208D01*
X144766Y114436D01*
X145934Y112914D01*
X147456Y111746D01*
X149228Y111012D01*
X151130Y110761D01*
X151475Y110807D01*
X167971Y94311D01*
X169567Y93244D01*
X171450Y92870D01*
X226804D01*
Y88254D01*
X242876D01*
Y107326D01*
X226804D01*
Y102711D01*
X173488D01*
X158434Y117765D01*
X158479Y118110D01*
X158228Y120012D01*
X157494Y121784D01*
X156326Y123306D01*
X156051Y123518D01*
Y149092D01*
X196348Y189389D01*
X211564D01*
Y184774D01*
X227636D01*
Y203846D01*
X222837D01*
Y205559D01*
X236972Y219694D01*
X237207Y219597D01*
Y211305D01*
X235311Y209409D01*
X234609Y208359D01*
X234363Y207120D01*
Y203846D01*
X229564D01*
Y184774D01*
X230170D01*
Y175907D01*
X228063Y173800D01*
X203052D01*
X201129Y173546D01*
X199337Y172804D01*
X197798Y171623D01*
X191847Y165672D01*
X190666Y164133D01*
X189924Y162341D01*
X189670Y160418D01*
Y148676D01*
X166814D01*
Y123104D01*
X227386D01*
Y148676D01*
X204529D01*
Y157341D01*
X206129Y158940D01*
X231140D01*
X233063Y159194D01*
X234855Y159936D01*
X236394Y161117D01*
X242854Y167577D01*
X244034Y169115D01*
X244776Y170907D01*
X245030Y172830D01*
Y184774D01*
X245636D01*
Y203846D01*
X240837D01*
Y205779D01*
X242733Y207675D01*
X243435Y208725D01*
X243681Y209964D01*
Y222579D01*
X243916Y222676D01*
X259269Y207323D01*
Y201596D01*
X252971D01*
Y185024D01*
X272043D01*
Y201596D01*
X265744D01*
Y208664D01*
X265497Y209902D01*
X264796Y210952D01*
X247745Y228003D01*
Y254640D01*
X249399D01*
Y240124D01*
X249645Y238885D01*
X250347Y237835D01*
X272031Y216151D01*
X273081Y215449D01*
X274320Y215203D01*
X283443D01*
Y208373D01*
X289765D01*
Y184518D01*
X290011Y183279D01*
X290713Y182229D01*
X292351Y180591D01*
X293401Y179889D01*
X294640Y179643D01*
X313923D01*
Y172813D01*
X320245D01*
Y164504D01*
X320491Y163265D01*
X321193Y162215D01*
X322235Y161173D01*
X323285Y160471D01*
X324524Y160225D01*
X338025D01*
Y151037D01*
X331703D01*
Y130903D01*
X369337D01*
Y134755D01*
X375862D01*
X376056Y134606D01*
X377828Y133872D01*
X379730Y133621D01*
X381632Y133872D01*
X383404Y134606D01*
X384926Y135774D01*
X386094Y137296D01*
X386828Y139068D01*
X387079Y140970D01*
X386828Y142872D01*
X386094Y144644D01*
X384926Y146166D01*
X383404Y147334D01*
X381632Y148068D01*
X379730Y148319D01*
X377828Y148068D01*
X376056Y147334D01*
X375862Y147185D01*
X369337D01*
Y151037D01*
X344499D01*
Y162421D01*
X344253Y163659D01*
X343551Y164710D01*
X342510Y165751D01*
X341460Y166453D01*
X340221Y166699D01*
X326719D01*
Y172813D01*
X351557D01*
Y176449D01*
X356662D01*
X357137Y176084D01*
X358910Y175350D01*
X360812Y175100D01*
X362714Y175350D01*
X364486Y176084D01*
X366008Y177252D01*
X367176Y178774D01*
X367910Y180546D01*
X368161Y182448D01*
X367910Y184350D01*
X367176Y186123D01*
X366008Y187645D01*
X364486Y188813D01*
X362714Y189547D01*
X360812Y189797D01*
X358910Y189547D01*
X357299Y188880D01*
X351557D01*
Y192947D01*
X313923D01*
Y186117D01*
X296239D01*
Y208373D01*
X321077D01*
Y211410D01*
X323198D01*
X323986Y210806D01*
X325758Y210072D01*
X327660Y209821D01*
X329562Y210072D01*
X331334Y210806D01*
X332856Y211974D01*
X334024Y213496D01*
X334758Y215268D01*
X335009Y217170D01*
X334783Y218885D01*
X335024Y219004D01*
X404080Y149948D01*
Y77052D01*
X336705D01*
X335466Y76806D01*
X334416Y76104D01*
X314889Y56577D01*
X231140D01*
X229901Y56331D01*
X228851Y55629D01*
X223771Y50549D01*
X223069Y49499D01*
X222823Y48260D01*
Y47046D01*
X214574D01*
Y24074D01*
X237546D01*
Y47046D01*
X229756D01*
X229659Y47281D01*
X232481Y50103D01*
X316230D01*
X317123Y50280D01*
X317248Y50046D01*
X305999Y38797D01*
X287951D01*
X286893Y41353D01*
X285052Y43752D01*
X282652Y45593D01*
X279858Y46750D01*
X276860Y47145D01*
X273862Y46750D01*
X271068Y45593D01*
X268668Y43752D01*
X266827Y41353D01*
X265670Y38558D01*
X265275Y35560D01*
X265670Y32562D01*
X266827Y29767D01*
X268668Y27368D01*
X271068Y25527D01*
X273862Y24370D01*
X276860Y23975D01*
X279858Y24370D01*
X282652Y25527D01*
X285052Y27368D01*
X286893Y29767D01*
X287951Y32323D01*
X307340D01*
X308579Y32569D01*
X309629Y33271D01*
X342872Y66514D01*
X410339D01*
X411578Y66760D01*
X412629Y67462D01*
X413670Y68503D01*
X414372Y69554D01*
X414618Y70792D01*
Y150572D01*
X414853Y150670D01*
X419673Y145850D01*
Y59761D01*
X414034Y54122D01*
X408761D01*
Y56671D01*
X394189D01*
Y54122D01*
X348761D01*
Y56671D01*
X334189D01*
Y45099D01*
X348761D01*
Y47648D01*
X394189D01*
Y45099D01*
X408761D01*
Y47648D01*
X415375D01*
X416614Y47894D01*
X417664Y48596D01*
X425199Y56131D01*
X425901Y57181D01*
X426147Y58420D01*
Y144791D01*
X426382Y144888D01*
X443771Y127499D01*
X443125Y125940D01*
X442763Y123190D01*
X443125Y120440D01*
X444187Y117877D01*
X445876Y115676D01*
X448077Y113987D01*
X450640Y112925D01*
X453390Y112563D01*
X456140Y112925D01*
X458703Y113987D01*
X460904Y115676D01*
X462593Y117877D01*
X463655Y120440D01*
X464017Y123190D01*
X463655Y125940D01*
X462593Y128504D01*
X460904Y130704D01*
X458703Y132393D01*
X456140Y133455D01*
X453390Y133817D01*
X450640Y133455D01*
X448077Y132393D01*
X448052Y132374D01*
X435308Y145118D01*
X435405Y145353D01*
X443327D01*
X444187Y143277D01*
X445876Y141076D01*
X448077Y139387D01*
X450640Y138325D01*
X453390Y137963D01*
X456140Y138325D01*
X458703Y139387D01*
X460904Y141076D01*
X462593Y143277D01*
X463655Y145840D01*
X464017Y148590D01*
X463655Y151340D01*
X462593Y153904D01*
X460904Y156104D01*
X458703Y157793D01*
X456140Y158855D01*
X453390Y159217D01*
X450640Y158855D01*
X448077Y157793D01*
X445876Y156104D01*
X444187Y153904D01*
X443327Y151827D01*
X434346D01*
X415655Y170518D01*
X415752Y170753D01*
X443327D01*
X444187Y168676D01*
X445876Y166476D01*
X448077Y164787D01*
X450640Y163725D01*
X453390Y163363D01*
X456140Y163725D01*
X458703Y164787D01*
X460904Y166476D01*
X462593Y168676D01*
X463655Y171240D01*
X464017Y173990D01*
X463655Y176740D01*
X462593Y179303D01*
X460904Y181504D01*
X458703Y183193D01*
X456140Y184255D01*
X453390Y184617D01*
X450640Y184255D01*
X448077Y183193D01*
X445876Y181504D01*
X444187Y179303D01*
X443327Y177227D01*
X414693D01*
X396003Y195918D01*
X396100Y196153D01*
X443327D01*
X444187Y194076D01*
X445876Y191876D01*
X448077Y190187D01*
X450640Y189125D01*
X453390Y188763D01*
X456140Y189125D01*
X458703Y190187D01*
X460904Y191876D01*
X462593Y194076D01*
X463655Y196640D01*
X464017Y199390D01*
X463655Y202140D01*
X462593Y204704D01*
X460904Y206904D01*
X458703Y208593D01*
X456140Y209655D01*
X453390Y210017D01*
X450640Y209655D01*
X448077Y208593D01*
X445876Y206904D01*
X444187Y204704D01*
X443327Y202627D01*
X436137D01*
X436040Y202862D01*
X448563Y215385D01*
X450640Y214525D01*
X453390Y214163D01*
X456140Y214525D01*
X458703Y215587D01*
X460904Y217276D01*
X462593Y219477D01*
X463655Y222040D01*
X464017Y224790D01*
X463655Y227540D01*
X462593Y230103D01*
X460904Y232304D01*
X458703Y233993D01*
X456140Y235055D01*
X453390Y235417D01*
X450640Y235055D01*
X448077Y233993D01*
X445876Y232304D01*
X444187Y230103D01*
X443125Y227540D01*
X442763Y224790D01*
X443125Y222040D01*
X443985Y219963D01*
X430713Y206691D01*
X396724D01*
X389717Y213698D01*
X389815Y213933D01*
X420370D01*
X421609Y214179D01*
X422659Y214881D01*
X448563Y240785D01*
X450640Y239925D01*
X453390Y239563D01*
X456140Y239925D01*
X458703Y240987D01*
X460904Y242676D01*
X462593Y244876D01*
X463655Y247440D01*
X464017Y250190D01*
X463655Y252940D01*
X462593Y255504D01*
X460904Y257704D01*
X458703Y259393D01*
X456140Y260455D01*
X453390Y260817D01*
X450640Y260455D01*
X448077Y259393D01*
X445876Y257704D01*
X444187Y255504D01*
X443125Y252940D01*
X442763Y250190D01*
X443125Y247440D01*
X443985Y245363D01*
X440352Y241730D01*
X440117Y241827D01*
Y269169D01*
X443125Y272177D01*
X443424Y272117D01*
X444187Y270277D01*
X445876Y268076D01*
X448077Y266387D01*
X450640Y265325D01*
X453390Y264963D01*
X456140Y265325D01*
X458703Y266387D01*
X460904Y268076D01*
X462593Y270277D01*
X463655Y272840D01*
X464017Y275590D01*
X463655Y278340D01*
X462593Y280903D01*
X460904Y283104D01*
X458703Y284793D01*
X456140Y285855D01*
X453390Y286217D01*
X450640Y285855D01*
X448077Y284793D01*
X445876Y283104D01*
X444187Y280903D01*
X443327Y278827D01*
X441960D01*
X440721Y278581D01*
X439671Y277879D01*
X434591Y272799D01*
X434518Y272690D01*
X434275Y272764D01*
Y277297D01*
X448563Y291585D01*
X450640Y290725D01*
X453390Y290363D01*
X456140Y290725D01*
X458703Y291787D01*
X460904Y293476D01*
X462593Y295676D01*
X463655Y298240D01*
X464017Y300990D01*
X463655Y303740D01*
X462593Y306304D01*
X460904Y308504D01*
X458703Y310193D01*
X456140Y311255D01*
X453390Y311617D01*
X450640Y311255D01*
X448077Y310193D01*
X445876Y308504D01*
X444187Y306304D01*
X443125Y303740D01*
X442763Y300990D01*
X443125Y298240D01*
X443985Y296163D01*
X442145Y294323D01*
X441911Y294448D01*
X442088Y295341D01*
Y310510D01*
X448563Y316985D01*
X450640Y316125D01*
X453390Y315763D01*
X456140Y316125D01*
X458703Y317187D01*
X460904Y318876D01*
X462593Y321077D01*
X463655Y323640D01*
X464017Y326390D01*
X463655Y329140D01*
X462593Y331703D01*
X460904Y333904D01*
X458703Y335593D01*
X456140Y336655D01*
X453390Y337017D01*
X450640Y336655D01*
X448077Y335593D01*
X445876Y333904D01*
X444187Y331703D01*
X443125Y329140D01*
X442763Y326390D01*
X443125Y323640D01*
X443985Y321563D01*
X436562Y314140D01*
X435860Y313090D01*
X435614Y311851D01*
Y296682D01*
X423923Y284991D01*
X423221Y283941D01*
X422975Y282702D01*
Y242198D01*
X413376Y232599D01*
X396311D01*
X343919Y284991D01*
X342869Y285693D01*
X342079Y285850D01*
X342104Y286104D01*
X344486D01*
Y291403D01*
X353434D01*
Y284354D01*
X373006D01*
Y304926D01*
X353434D01*
Y297877D01*
X344486D01*
Y303176D01*
X331914D01*
Y286193D01*
X331914Y286104D01*
X331728Y285939D01*
X328672D01*
X328486Y286104D01*
Y303176D01*
X322818D01*
X322721Y303411D01*
X346781Y327471D01*
X409448D01*
X410687Y327717D01*
X411737Y328419D01*
X431871Y348553D01*
X443327D01*
X444187Y346477D01*
X445876Y344276D01*
X448077Y342587D01*
X450640Y341525D01*
X453390Y341163D01*
X456140Y341525D01*
X458703Y342587D01*
X460904Y344276D01*
X462593Y346477D01*
X463655Y349040D01*
X464017Y351790D01*
X463655Y354540D01*
X462593Y357104D01*
X460904Y359304D01*
X458703Y360993D01*
X456140Y362055D01*
X453390Y362417D01*
X450640Y362055D01*
X448077Y360993D01*
X445876Y359304D01*
X444187Y357104D01*
X443327Y355027D01*
X432160D01*
X432040Y355251D01*
X432251Y355566D01*
X432497Y356805D01*
Y369499D01*
X436951Y373953D01*
X443327D01*
X444187Y371876D01*
X445876Y369676D01*
X448077Y367987D01*
X450640Y366925D01*
X453390Y366563D01*
X456140Y366925D01*
X458703Y367987D01*
X460904Y369676D01*
X462593Y371876D01*
X463655Y374440D01*
X464017Y377190D01*
X463655Y379940D01*
X462593Y382504D01*
X460904Y384704D01*
X458703Y386393D01*
X456140Y387455D01*
X453390Y387817D01*
X450640Y387455D01*
X448077Y386393D01*
X445876Y384704D01*
X444187Y382504D01*
X443327Y380427D01*
X435610D01*
X434371Y380181D01*
X433321Y379479D01*
X426971Y373129D01*
X426401Y372276D01*
X426147Y372354D01*
Y391089D01*
X434411Y399353D01*
X443327D01*
X444187Y397276D01*
X445876Y395076D01*
X448077Y393387D01*
X450640Y392325D01*
X453390Y391963D01*
X456140Y392325D01*
X458703Y393387D01*
X460904Y395076D01*
X462593Y397276D01*
X463655Y399840D01*
X464017Y402590D01*
X463655Y405340D01*
X462593Y407904D01*
X460904Y410104D01*
X458703Y411793D01*
X456140Y412855D01*
X453390Y413217D01*
X450640Y412855D01*
X448077Y411793D01*
X445876Y410104D01*
X444187Y407904D01*
X443327Y405827D01*
X433070D01*
X431831Y405581D01*
X430781Y404879D01*
X420621Y394719D01*
X419919Y393669D01*
X419673Y392430D01*
Y357543D01*
X414952Y352823D01*
X414717Y352920D01*
Y422839D01*
X416631Y424753D01*
X443327D01*
X444187Y422677D01*
X445876Y420476D01*
X448077Y418787D01*
X450640Y417725D01*
X453390Y417363D01*
X456140Y417725D01*
X458703Y418787D01*
X460904Y420476D01*
X462593Y422677D01*
X463655Y425240D01*
X464017Y427990D01*
X463655Y430740D01*
X462593Y433303D01*
X460904Y435504D01*
X458703Y437193D01*
X456140Y438255D01*
X453390Y438617D01*
X450640Y438255D01*
X448077Y437193D01*
X445876Y435504D01*
X444187Y433303D01*
X443327Y431227D01*
X415290D01*
X414051Y430981D01*
X413001Y430279D01*
X409191Y426469D01*
X408489Y425419D01*
X408243Y424180D01*
Y351861D01*
X402519Y346137D01*
X340360D01*
X339121Y345891D01*
X338071Y345189D01*
X313751Y320869D01*
X296569D01*
X296472Y321104D01*
X298199Y322831D01*
X298901Y323881D01*
X299147Y325120D01*
Y350867D01*
X306231D01*
Y353250D01*
X315764D01*
Y350867D01*
X324815D01*
Y360680D01*
X327355D01*
Y350867D01*
X336406D01*
Y353250D01*
X346978D01*
Y350867D01*
X356029D01*
Y360680D01*
X358569D01*
Y350867D01*
X367620D01*
Y353250D01*
X378301D01*
Y350867D01*
X387352D01*
Y360680D01*
X388622D01*
Y361950D01*
X398943D01*
Y370493D01*
X398689D01*
Y388755D01*
X394836D01*
Y394913D01*
X394984Y395106D01*
X395718Y396878D01*
X395969Y398780D01*
X395718Y400682D01*
X394984Y402454D01*
X393816Y403976D01*
X392294Y405144D01*
X390522Y405878D01*
X388620Y406129D01*
X386718Y405878D01*
X384946Y405144D01*
X383424Y403976D01*
X382256Y402454D01*
X381522Y400682D01*
X381271Y398780D01*
X381522Y396878D01*
X382256Y395106D01*
X382406Y394910D01*
Y388755D01*
X378555D01*
Y370493D01*
X378301D01*
Y368110D01*
X367620D01*
Y370493D01*
X367366D01*
Y388755D01*
X363648D01*
Y394803D01*
X363929Y395171D01*
X364664Y396943D01*
X364914Y398845D01*
X364664Y400747D01*
X363929Y402519D01*
X362762Y404041D01*
X361240Y405209D01*
X359467Y405943D01*
X357565Y406194D01*
X355663Y405943D01*
X353891Y405209D01*
X352369Y404041D01*
X351201Y402519D01*
X350467Y400747D01*
X350216Y398845D01*
X350467Y396943D01*
X351201Y395171D01*
X351217Y395150D01*
Y388755D01*
X347232D01*
Y370493D01*
X346978D01*
Y368110D01*
X336406D01*
Y370493D01*
X336152D01*
Y388755D01*
X332453D01*
Y395983D01*
X332754Y396376D01*
X333488Y398148D01*
X333739Y400050D01*
X333488Y401952D01*
X332754Y403724D01*
X332605Y403918D01*
Y419066D01*
X334044Y420505D01*
X334843D01*
Y413313D01*
X348137D01*
Y436482D01*
X334843D01*
Y432935D01*
X331470D01*
X329091Y432462D01*
X327075Y431115D01*
X321995Y426035D01*
X320648Y424019D01*
X320175Y421640D01*
Y403918D01*
X320026Y403724D01*
X319292Y401952D01*
X319041Y400050D01*
X319292Y398148D01*
X320022Y396385D01*
Y388755D01*
X316018D01*
Y370493D01*
X315764D01*
Y368110D01*
X306231D01*
Y370493D01*
X305977D01*
Y388755D01*
X302069D01*
Y396932D01*
X302161Y397053D01*
X302895Y398825D01*
X303146Y400727D01*
X302895Y402629D01*
X302161Y404402D01*
X300993Y405924D01*
X299471Y407091D01*
X297699Y407826D01*
X295797Y408076D01*
X293895Y407826D01*
X292122Y407091D01*
X290600Y405924D01*
X289432Y404402D01*
X288698Y402629D01*
X288448Y400727D01*
X288698Y398825D01*
X289432Y397053D01*
X289638Y396785D01*
Y388755D01*
X285843D01*
Y370493D01*
X285589D01*
Y363917D01*
X280670D01*
X279431Y363671D01*
X278381Y362969D01*
X270667Y355255D01*
X266603Y351191D01*
X265901Y350141D01*
X265655Y348902D01*
Y335920D01*
X265463D01*
Y335666D01*
X264215D01*
X264039Y335848D01*
X264481Y350073D01*
X268989Y354581D01*
X269691Y355631D01*
X269937Y356870D01*
Y372744D01*
X276236D01*
Y387816D01*
X257164D01*
Y372744D01*
X263463D01*
Y358211D01*
X258996Y353744D01*
X258815Y353474D01*
X258564Y353554D01*
X258636Y355875D01*
X258627Y355925D01*
X258637Y355975D01*
Y356740D01*
X258391Y357979D01*
X257689Y359029D01*
X257168Y359550D01*
X244209Y372509D01*
X244306Y372744D01*
X249978D01*
Y387816D01*
X230906D01*
Y372744D01*
X237205D01*
Y371698D01*
X237205Y371698D01*
X237451Y370459D01*
X238153Y369409D01*
X246299Y361263D01*
X246217Y361022D01*
X244635Y360814D01*
X242801Y360054D01*
X241226Y358846D01*
X240018Y357271D01*
X239258Y355437D01*
X238999Y353468D01*
X239121Y352537D01*
X238894Y352425D01*
X230567Y360751D01*
Y389890D01*
X230321Y391129D01*
X229619Y392179D01*
X223629Y398169D01*
X222579Y398871D01*
X221340Y399117D01*
X217827D01*
Y400833D01*
X194967D01*
Y390927D01*
X217827D01*
Y392643D01*
X219999D01*
X224093Y388549D01*
Y383936D01*
X223858Y383839D01*
X222227Y385469D01*
X221177Y386171D01*
X219938Y386417D01*
X217827D01*
Y388133D01*
X194967D01*
Y378227D01*
X217827D01*
Y379943D01*
X218598D01*
X220029Y378512D01*
Y371834D01*
X219775Y371772D01*
X218778Y372769D01*
X217827Y373404D01*
Y375433D01*
X194967D01*
Y365527D01*
X214293D01*
Y359577D01*
X214058Y359480D01*
X211839Y361699D01*
X210789Y362401D01*
X209550Y362647D01*
X184847D01*
Y370840D01*
X184601Y372079D01*
X183899Y373129D01*
X171559Y385469D01*
X170509Y386171D01*
X169270Y386417D01*
X143913D01*
Y388133D01*
X121053D01*
Y378227D01*
X143913D01*
Y379943D01*
X167929D01*
X178373Y369499D01*
Y360680D01*
X178619Y359441D01*
X179321Y358391D01*
X180591Y357121D01*
X181444Y356551D01*
X181367Y356297D01*
X124531D01*
X120077Y360751D01*
Y392359D01*
X120361Y392643D01*
X121053D01*
Y390927D01*
X143913D01*
Y400833D01*
X121053D01*
Y399117D01*
X119020D01*
X117781Y398871D01*
X116731Y398169D01*
X114551Y395989D01*
X113849Y394939D01*
X113603Y393700D01*
Y359410D01*
X113849Y358171D01*
X114551Y357121D01*
X120220Y351452D01*
X120123Y351217D01*
X119451D01*
X112457Y358211D01*
Y401249D01*
X116551Y405343D01*
X121053D01*
Y403627D01*
X143913D01*
Y413533D01*
X121053D01*
Y411817D01*
X104571D01*
X101027Y415361D01*
Y444154D01*
X102713D01*
X102870Y444123D01*
X103027Y444154D01*
X107326D01*
Y460726D01*
D02*
G37*
G36*
X478790Y464017D02*
X476040Y463655D01*
X473476Y462593D01*
X471276Y460904D01*
X469587Y458703D01*
X468525Y456140D01*
X468163Y453390D01*
X468525Y450640D01*
X469587Y448077D01*
X471276Y445876D01*
X473476Y444187D01*
X476040Y443125D01*
X478790Y442763D01*
X481540Y443125D01*
X484104Y444187D01*
X486304Y445876D01*
X487993Y448077D01*
X489055Y450640D01*
X489417Y453390D01*
X489055Y456140D01*
X487993Y458703D01*
X486304Y460904D01*
X484104Y462593D01*
X481540Y463655D01*
X478790Y464017D01*
D02*
G37*
G36*
X453390D02*
X450640Y463655D01*
X448077Y462593D01*
X445876Y460904D01*
X444187Y458703D01*
X443125Y456140D01*
X442763Y453390D01*
X443125Y450640D01*
X444187Y448077D01*
X445876Y445876D01*
X448077Y444187D01*
X450640Y443125D01*
X453390Y442763D01*
X456140Y443125D01*
X458703Y444187D01*
X460904Y445876D01*
X462593Y448077D01*
X463655Y450640D01*
X464017Y453390D01*
X463655Y456140D01*
X462593Y458703D01*
X460904Y460904D01*
X458703Y462593D01*
X456140Y463655D01*
X453390Y464017D01*
D02*
G37*
G36*
X21590D02*
X18840Y463655D01*
X16277Y462593D01*
X14076Y460904D01*
X12387Y458703D01*
X11325Y456140D01*
X10963Y453390D01*
X11325Y450640D01*
X12387Y448077D01*
X14076Y445876D01*
X16277Y444187D01*
X18840Y443125D01*
X21590Y442763D01*
X24340Y443125D01*
X26904Y444187D01*
X29104Y445876D01*
X30793Y448077D01*
X31855Y450640D01*
X32217Y453390D01*
X31855Y456140D01*
X30793Y458703D01*
X29104Y460904D01*
X26904Y462593D01*
X24340Y463655D01*
X21590Y464017D01*
D02*
G37*
G36*
X45720Y452120D02*
X36274D01*
X36478Y450573D01*
X37565Y447948D01*
X39295Y445695D01*
X41549Y443965D01*
X44173Y442878D01*
X45720Y442674D01*
Y452120D01*
D02*
G37*
G36*
X57706D02*
X48260D01*
Y442674D01*
X49807Y442878D01*
X52432Y443965D01*
X54686Y445695D01*
X56415Y447948D01*
X57502Y450573D01*
X57706Y452120D01*
D02*
G37*
G36*
X428951Y447928D02*
X420370D01*
Y439869D01*
X428951D01*
Y447928D01*
D02*
G37*
G36*
X417830D02*
X409249D01*
Y439869D01*
X417830D01*
Y447928D01*
D02*
G37*
G36*
X48260Y438706D02*
Y429260D01*
X57706D01*
X57502Y430807D01*
X56415Y433432D01*
X54686Y435686D01*
X52432Y437415D01*
X49807Y438502D01*
X48260Y438706D01*
D02*
G37*
G36*
X45720D02*
X44173Y438502D01*
X41549Y437415D01*
X39295Y435686D01*
X37565Y433432D01*
X36478Y430807D01*
X36274Y429260D01*
X45720D01*
Y438706D01*
D02*
G37*
G36*
X365760Y436628D02*
Y426167D01*
X371450D01*
Y429835D01*
X371213Y431637D01*
X370518Y433315D01*
X369412Y434757D01*
X367970Y435863D01*
X366291Y436558D01*
X365760Y436628D01*
D02*
G37*
G36*
X363220Y436628D02*
X362689Y436558D01*
X361010Y435863D01*
X359568Y434757D01*
X358462Y433315D01*
X357767Y431637D01*
X357530Y429835D01*
Y426167D01*
X363220D01*
Y436628D01*
D02*
G37*
G36*
X478790Y438617D02*
X476040Y438255D01*
X473476Y437193D01*
X471276Y435504D01*
X469587Y433303D01*
X468525Y430740D01*
X468163Y427990D01*
X468525Y425240D01*
X469587Y422677D01*
X471276Y420476D01*
X473476Y418787D01*
X476040Y417725D01*
X478790Y417363D01*
X481540Y417725D01*
X484104Y418787D01*
X486304Y420476D01*
X487993Y422677D01*
X489055Y425240D01*
X489417Y427990D01*
X489055Y430740D01*
X487993Y433303D01*
X486304Y435504D01*
X484104Y437193D01*
X481540Y438255D01*
X478790Y438617D01*
D02*
G37*
G36*
X21590D02*
X18840Y438255D01*
X16277Y437193D01*
X14076Y435504D01*
X12387Y433303D01*
X11325Y430740D01*
X10963Y427990D01*
X11325Y425240D01*
X12387Y422677D01*
X14076Y420476D01*
X16277Y418787D01*
X18840Y417725D01*
X21590Y417363D01*
X24340Y417725D01*
X26904Y418787D01*
X29104Y420476D01*
X30793Y422677D01*
X31855Y425240D01*
X32217Y427990D01*
X31855Y430740D01*
X30793Y433303D01*
X29104Y435504D01*
X26904Y437193D01*
X24340Y438255D01*
X21590Y438617D01*
D02*
G37*
G36*
X45720Y426720D02*
X36274D01*
X36478Y425173D01*
X37565Y422548D01*
X39295Y420294D01*
X41549Y418565D01*
X44173Y417478D01*
X45720Y417274D01*
Y426720D01*
D02*
G37*
G36*
X57706D02*
X48260D01*
Y417274D01*
X49807Y417478D01*
X52432Y418565D01*
X54686Y420294D01*
X56415Y422548D01*
X57502Y425173D01*
X57706Y426720D01*
D02*
G37*
G36*
X363220Y423628D02*
X357530D01*
Y419960D01*
X357767Y418159D01*
X358462Y416480D01*
X359568Y415038D01*
X361010Y413932D01*
X362689Y413237D01*
X363220Y413167D01*
Y423628D01*
D02*
G37*
G36*
X371450D02*
X365760D01*
Y413167D01*
X366291Y413237D01*
X367970Y413932D01*
X369412Y415038D01*
X370518Y416480D01*
X371213Y418159D01*
X371450Y419960D01*
Y423628D01*
D02*
G37*
G36*
X218081Y413787D02*
X207667D01*
Y409850D01*
X218081D01*
Y413787D01*
D02*
G37*
G36*
X205127D02*
X194713D01*
Y409850D01*
X205127D01*
Y413787D01*
D02*
G37*
G36*
X218081Y407310D02*
X207667D01*
Y403373D01*
X218081D01*
Y407310D01*
D02*
G37*
G36*
X205127D02*
X194713D01*
Y403373D01*
X205127D01*
Y407310D01*
D02*
G37*
G36*
X478790Y413217D02*
X476040Y412855D01*
X473476Y411793D01*
X471276Y410104D01*
X469587Y407904D01*
X468525Y405340D01*
X468163Y402590D01*
X468525Y399840D01*
X469587Y397276D01*
X471276Y395076D01*
X473476Y393387D01*
X476040Y392325D01*
X478790Y391963D01*
X481540Y392325D01*
X484104Y393387D01*
X486304Y395076D01*
X487993Y397276D01*
X489055Y399840D01*
X489417Y402590D01*
X489055Y405340D01*
X487993Y407904D01*
X486304Y410104D01*
X484104Y411793D01*
X481540Y412855D01*
X478790Y413217D01*
D02*
G37*
G36*
X21590D02*
X18840Y412855D01*
X16277Y411793D01*
X14076Y410104D01*
X12387Y407904D01*
X11325Y405340D01*
X10963Y402590D01*
X11325Y399840D01*
X12387Y397276D01*
X14076Y395076D01*
X16277Y393387D01*
X18840Y392325D01*
X21590Y391963D01*
X24340Y392325D01*
X26904Y393387D01*
X29104Y395076D01*
X30793Y397276D01*
X31855Y399840D01*
X32217Y402590D01*
X31855Y405340D01*
X30793Y407904D01*
X29104Y410104D01*
X26904Y411793D01*
X24340Y412855D01*
X21590Y413217D01*
D02*
G37*
G36*
X152516Y377571D02*
X150614Y377321D01*
X148842Y376587D01*
X147320Y375419D01*
X147208Y375274D01*
X143913D01*
Y375433D01*
X121053D01*
Y365527D01*
X132135D01*
X132610Y365433D01*
X147008D01*
X147320Y365026D01*
X148842Y363858D01*
X150614Y363124D01*
X152516Y362874D01*
X154418Y363124D01*
X156191Y363858D01*
X157713Y365026D01*
X158881Y366548D01*
X159615Y368321D01*
X159865Y370223D01*
X159615Y372125D01*
X158881Y373897D01*
X157713Y375419D01*
X156191Y376587D01*
X154418Y377321D01*
X152516Y377571D01*
D02*
G37*
G36*
X478790Y387817D02*
X476040Y387455D01*
X473476Y386393D01*
X471276Y384704D01*
X469587Y382504D01*
X468525Y379940D01*
X468163Y377190D01*
X468525Y374440D01*
X469587Y371876D01*
X471276Y369676D01*
X473476Y367987D01*
X476040Y366925D01*
X478790Y366563D01*
X481540Y366925D01*
X484104Y367987D01*
X486304Y369676D01*
X487993Y371876D01*
X489055Y374440D01*
X489417Y377190D01*
X489055Y379940D01*
X487993Y382504D01*
X486304Y384704D01*
X484104Y386393D01*
X481540Y387455D01*
X478790Y387817D01*
D02*
G37*
G36*
X21590D02*
X18840Y387455D01*
X16277Y386393D01*
X14076Y384704D01*
X12387Y382504D01*
X11325Y379940D01*
X10963Y377190D01*
X11325Y374440D01*
X12387Y371876D01*
X14076Y369676D01*
X16277Y367987D01*
X18840Y366925D01*
X21590Y366563D01*
X24340Y366925D01*
X26904Y367987D01*
X29104Y369676D01*
X30793Y371876D01*
X31855Y374440D01*
X32217Y377190D01*
X31855Y379940D01*
X30793Y382504D01*
X29104Y384704D01*
X26904Y386393D01*
X24340Y387455D01*
X21590Y387817D01*
D02*
G37*
G36*
X398943Y359410D02*
X389892D01*
Y350867D01*
X398943D01*
Y359410D01*
D02*
G37*
G36*
X478790Y362417D02*
X476040Y362055D01*
X473476Y360993D01*
X471276Y359304D01*
X469587Y357104D01*
X468525Y354540D01*
X468163Y351790D01*
X468525Y349040D01*
X469587Y346477D01*
X471276Y344276D01*
X473476Y342587D01*
X476040Y341525D01*
X478790Y341163D01*
X481540Y341525D01*
X484104Y342587D01*
X486304Y344276D01*
X487993Y346477D01*
X489055Y349040D01*
X489417Y351790D01*
X489055Y354540D01*
X487993Y357104D01*
X486304Y359304D01*
X484104Y360993D01*
X481540Y362055D01*
X478790Y362417D01*
D02*
G37*
G36*
X21590D02*
X18840Y362055D01*
X16277Y360993D01*
X14076Y359304D01*
X12387Y357104D01*
X11325Y354540D01*
X10963Y351790D01*
X11325Y349040D01*
X12387Y346477D01*
X14076Y344276D01*
X16277Y342587D01*
X18840Y341525D01*
X21590Y341163D01*
X24340Y341525D01*
X26904Y342587D01*
X29104Y344276D01*
X30793Y346477D01*
X31855Y349040D01*
X32217Y351790D01*
X31855Y354540D01*
X30793Y357104D01*
X29104Y359304D01*
X26904Y360993D01*
X24340Y362055D01*
X21590Y362417D01*
D02*
G37*
G36*
X478790Y337017D02*
X476040Y336655D01*
X473476Y335593D01*
X471276Y333904D01*
X469587Y331703D01*
X468525Y329140D01*
X468163Y326390D01*
X468525Y323640D01*
X469587Y321077D01*
X471276Y318876D01*
X473476Y317187D01*
X476040Y316125D01*
X478790Y315763D01*
X481540Y316125D01*
X484104Y317187D01*
X486304Y318876D01*
X487993Y321077D01*
X489055Y323640D01*
X489417Y326390D01*
X489055Y329140D01*
X487993Y331703D01*
X486304Y333904D01*
X484104Y335593D01*
X481540Y336655D01*
X478790Y337017D01*
D02*
G37*
G36*
X21590D02*
X18840Y336655D01*
X16277Y335593D01*
X14076Y333904D01*
X12387Y331703D01*
X11325Y329140D01*
X10963Y326390D01*
X11325Y323640D01*
X12387Y321077D01*
X14076Y318876D01*
X16277Y317187D01*
X18840Y316125D01*
X21590Y315763D01*
X24340Y316125D01*
X26904Y317187D01*
X29104Y318876D01*
X30793Y321077D01*
X31855Y323640D01*
X32217Y326390D01*
X31855Y329140D01*
X30793Y331703D01*
X29104Y333904D01*
X26904Y335593D01*
X24340Y336655D01*
X21590Y337017D01*
D02*
G37*
G36*
X157501Y306647D02*
X148958D01*
Y297596D01*
X157501D01*
Y306647D01*
D02*
G37*
G36*
X478790Y311617D02*
X476040Y311255D01*
X473476Y310193D01*
X471276Y308504D01*
X469587Y306304D01*
X468525Y303740D01*
X468163Y300990D01*
X468525Y298240D01*
X469587Y295676D01*
X471276Y293476D01*
X473476Y291787D01*
X476040Y290725D01*
X478790Y290363D01*
X481540Y290725D01*
X484104Y291787D01*
X486304Y293476D01*
X487993Y295676D01*
X489055Y298240D01*
X489417Y300990D01*
X489055Y303740D01*
X487993Y306304D01*
X486304Y308504D01*
X484104Y310193D01*
X481540Y311255D01*
X478790Y311617D01*
D02*
G37*
G36*
X21590D02*
X18840Y311255D01*
X16277Y310193D01*
X14076Y308504D01*
X12387Y306304D01*
X11325Y303740D01*
X10963Y300990D01*
X11325Y298240D01*
X12387Y295676D01*
X14076Y293476D01*
X16277Y291787D01*
X18840Y290725D01*
X21590Y290363D01*
X24340Y290725D01*
X26904Y291787D01*
X29104Y293476D01*
X30793Y295676D01*
X31855Y298240D01*
X32217Y300990D01*
X31855Y303740D01*
X30793Y306304D01*
X29104Y308504D01*
X26904Y310193D01*
X24340Y311255D01*
X21590Y311617D01*
D02*
G37*
G36*
X157501Y295056D02*
X148958D01*
Y286005D01*
X157501D01*
Y295056D01*
D02*
G37*
G36*
X146418Y306647D02*
X137875D01*
Y306393D01*
X119613D01*
Y303755D01*
X107096D01*
X105173Y303502D01*
X103381Y302760D01*
X101842Y301579D01*
X100661Y300040D01*
X99919Y298249D01*
X99666Y296326D01*
X99919Y294403D01*
X100661Y292611D01*
X101842Y291072D01*
X103381Y289891D01*
X105173Y289149D01*
X107096Y288896D01*
X119613D01*
Y286259D01*
X137875D01*
Y286005D01*
X146418D01*
Y296326D01*
Y306647D01*
D02*
G37*
G36*
X157501Y275863D02*
X148958D01*
Y266812D01*
X157501D01*
Y275863D01*
D02*
G37*
G36*
X478790Y286217D02*
X476040Y285855D01*
X473476Y284793D01*
X471276Y283104D01*
X469587Y280903D01*
X468525Y278340D01*
X468163Y275590D01*
X468525Y272840D01*
X469587Y270277D01*
X471276Y268076D01*
X473476Y266387D01*
X476040Y265325D01*
X478790Y264963D01*
X481540Y265325D01*
X484104Y266387D01*
X486304Y268076D01*
X487993Y270277D01*
X489055Y272840D01*
X489417Y275590D01*
X489055Y278340D01*
X487993Y280903D01*
X486304Y283104D01*
X484104Y284793D01*
X481540Y285855D01*
X478790Y286217D01*
D02*
G37*
G36*
X21590D02*
X18840Y285855D01*
X16277Y284793D01*
X14076Y283104D01*
X12387Y280903D01*
X11325Y278340D01*
X10963Y275590D01*
X11325Y272840D01*
X12387Y270277D01*
X14076Y268076D01*
X16277Y266387D01*
X18840Y265325D01*
X21590Y264963D01*
X24340Y265325D01*
X26904Y266387D01*
X29104Y268076D01*
X30793Y270277D01*
X31855Y272840D01*
X32217Y275590D01*
X31855Y278340D01*
X30793Y280903D01*
X29104Y283104D01*
X26904Y284793D01*
X24340Y285855D01*
X21590Y286217D01*
D02*
G37*
G36*
X409006Y304926D02*
X389434D01*
Y284354D01*
X392785D01*
Y274665D01*
X392416Y274184D01*
X391682Y272412D01*
X391431Y270510D01*
X391682Y268608D01*
X392416Y266836D01*
X393584Y265314D01*
X395106Y264146D01*
X396878Y263412D01*
X398780Y263161D01*
X400682Y263412D01*
X402454Y264146D01*
X403976Y265314D01*
X405144Y266836D01*
X405878Y268608D01*
X406129Y270510D01*
X405878Y272412D01*
X405215Y274013D01*
Y284354D01*
X409006D01*
Y304926D01*
D02*
G37*
G36*
X157501Y264272D02*
X148958D01*
Y255220D01*
X157501D01*
Y264272D01*
D02*
G37*
G36*
X146418Y275863D02*
X137875D01*
Y275609D01*
X119613D01*
Y272860D01*
X107950D01*
X106027Y272606D01*
X104235Y271864D01*
X102697Y270683D01*
X101516Y269145D01*
X100774Y267353D01*
X100520Y265430D01*
X100774Y263507D01*
X101516Y261715D01*
X102697Y260177D01*
X104235Y258996D01*
X106027Y258254D01*
X107950Y258000D01*
X119613D01*
Y255474D01*
X137875D01*
Y255220D01*
X146418D01*
Y265541D01*
Y275863D01*
D02*
G37*
G36*
X478790Y260817D02*
X476040Y260455D01*
X473476Y259393D01*
X471276Y257704D01*
X469587Y255504D01*
X468525Y252940D01*
X468163Y250190D01*
X468525Y247440D01*
X469587Y244876D01*
X471276Y242676D01*
X473476Y240987D01*
X476040Y239925D01*
X478790Y239563D01*
X481540Y239925D01*
X484104Y240987D01*
X486304Y242676D01*
X487993Y244876D01*
X489055Y247440D01*
X489417Y250190D01*
X489055Y252940D01*
X487993Y255504D01*
X486304Y257704D01*
X484104Y259393D01*
X481540Y260455D01*
X478790Y260817D01*
D02*
G37*
G36*
X21590D02*
X18840Y260455D01*
X16277Y259393D01*
X14076Y257704D01*
X12387Y255504D01*
X11325Y252940D01*
X10963Y250190D01*
X11325Y247440D01*
X12387Y244876D01*
X14076Y242676D01*
X16277Y240987D01*
X18840Y239925D01*
X21590Y239563D01*
X24340Y239925D01*
X26904Y240987D01*
X29104Y242676D01*
X30793Y244876D01*
X31855Y247440D01*
X32217Y250190D01*
X31855Y252940D01*
X30793Y255504D01*
X29104Y257704D01*
X26904Y259393D01*
X24340Y260455D01*
X21590Y260817D01*
D02*
G37*
G36*
X157501Y244298D02*
X148958D01*
Y235247D01*
X157501D01*
Y244298D01*
D02*
G37*
G36*
Y232707D02*
X148958D01*
Y223656D01*
X157501D01*
Y232707D01*
D02*
G37*
G36*
X146418Y244298D02*
X137875D01*
Y244044D01*
X119613D01*
Y241110D01*
X107950D01*
X106027Y240856D01*
X104235Y240114D01*
X102697Y238934D01*
X101516Y237395D01*
X100774Y235603D01*
X100520Y233680D01*
X100774Y231757D01*
X101516Y229965D01*
X102697Y228426D01*
X104235Y227246D01*
X106027Y226504D01*
X107950Y226250D01*
X119613D01*
Y223910D01*
X137875D01*
Y223656D01*
X146418D01*
Y233977D01*
Y244298D01*
D02*
G37*
G36*
X478790Y235417D02*
X476040Y235055D01*
X473476Y233993D01*
X471276Y232304D01*
X469587Y230103D01*
X468525Y227540D01*
X468163Y224790D01*
X468525Y222040D01*
X469587Y219477D01*
X471276Y217276D01*
X473476Y215587D01*
X476040Y214525D01*
X478790Y214163D01*
X481540Y214525D01*
X484104Y215587D01*
X486304Y217276D01*
X487993Y219477D01*
X489055Y222040D01*
X489417Y224790D01*
X489055Y227540D01*
X487993Y230103D01*
X486304Y232304D01*
X484104Y233993D01*
X481540Y235055D01*
X478790Y235417D01*
D02*
G37*
G36*
X21590D02*
X18840Y235055D01*
X16277Y233993D01*
X14076Y232304D01*
X12387Y230103D01*
X11325Y227540D01*
X10963Y224790D01*
X11325Y222040D01*
X12387Y219477D01*
X14076Y217276D01*
X16277Y215587D01*
X18840Y214525D01*
X21590Y214163D01*
X24340Y214525D01*
X26904Y215587D01*
X29104Y217276D01*
X30793Y219477D01*
X31855Y222040D01*
X32217Y224790D01*
X31855Y227540D01*
X30793Y230103D01*
X29104Y232304D01*
X26904Y233993D01*
X24340Y235055D01*
X21590Y235417D01*
D02*
G37*
G36*
X478790Y210017D02*
X476040Y209655D01*
X473476Y208593D01*
X471276Y206904D01*
X469587Y204704D01*
X468525Y202140D01*
X468163Y199390D01*
X468525Y196640D01*
X469587Y194076D01*
X471276Y191876D01*
X473476Y190187D01*
X476040Y189125D01*
X478790Y188763D01*
X481540Y189125D01*
X484104Y190187D01*
X486304Y191876D01*
X487993Y194076D01*
X489055Y196640D01*
X489417Y199390D01*
X489055Y202140D01*
X487993Y204704D01*
X486304Y206904D01*
X484104Y208593D01*
X481540Y209655D01*
X478790Y210017D01*
D02*
G37*
G36*
X21590D02*
X18840Y209655D01*
X16277Y208593D01*
X14076Y206904D01*
X12387Y204704D01*
X11325Y202140D01*
X10963Y199390D01*
X11325Y196640D01*
X12387Y194076D01*
X14076Y191876D01*
X16277Y190187D01*
X18840Y189125D01*
X21590Y188763D01*
X24340Y189125D01*
X26904Y190187D01*
X29104Y191876D01*
X30793Y194076D01*
X31855Y196640D01*
X32217Y199390D01*
X31855Y202140D01*
X30793Y204704D01*
X29104Y206904D01*
X26904Y208593D01*
X24340Y209655D01*
X21590Y210017D01*
D02*
G37*
G36*
X478790Y184617D02*
X476040Y184255D01*
X473476Y183193D01*
X471276Y181504D01*
X469587Y179303D01*
X468525Y176740D01*
X468163Y173990D01*
X468525Y171240D01*
X469587Y168676D01*
X471276Y166476D01*
X473476Y164787D01*
X476040Y163725D01*
X478790Y163363D01*
X481540Y163725D01*
X484104Y164787D01*
X486304Y166476D01*
X487993Y168676D01*
X489055Y171240D01*
X489417Y173990D01*
X489055Y176740D01*
X487993Y179303D01*
X486304Y181504D01*
X484104Y183193D01*
X481540Y184255D01*
X478790Y184617D01*
D02*
G37*
G36*
X21590D02*
X18840Y184255D01*
X16277Y183193D01*
X14076Y181504D01*
X12387Y179303D01*
X11325Y176740D01*
X10963Y173990D01*
X11325Y171240D01*
X12387Y168676D01*
X14076Y166476D01*
X16277Y164787D01*
X18840Y163725D01*
X21590Y163363D01*
X24340Y163725D01*
X26904Y164787D01*
X29104Y166476D01*
X30793Y168676D01*
X31855Y171240D01*
X32217Y173990D01*
X31855Y176740D01*
X30793Y179303D01*
X29104Y181504D01*
X26904Y183193D01*
X24340Y184255D01*
X21590Y184617D01*
D02*
G37*
G36*
X478790Y159217D02*
X476040Y158855D01*
X473476Y157793D01*
X471276Y156104D01*
X469587Y153904D01*
X468525Y151340D01*
X468163Y148590D01*
X468525Y145840D01*
X469587Y143277D01*
X471276Y141076D01*
X473476Y139387D01*
X476040Y138325D01*
X478790Y137963D01*
X481540Y138325D01*
X484104Y139387D01*
X486304Y141076D01*
X487993Y143277D01*
X489055Y145840D01*
X489417Y148590D01*
X489055Y151340D01*
X487993Y153904D01*
X486304Y156104D01*
X484104Y157793D01*
X481540Y158855D01*
X478790Y159217D01*
D02*
G37*
G36*
X21590D02*
X18840Y158855D01*
X16277Y157793D01*
X14076Y156104D01*
X12387Y153904D01*
X11325Y151340D01*
X10963Y148590D01*
X11325Y145840D01*
X12387Y143277D01*
X14076Y141076D01*
X16277Y139387D01*
X18840Y138325D01*
X21590Y137963D01*
X24340Y138325D01*
X26904Y139387D01*
X29104Y141076D01*
X30793Y143277D01*
X31855Y145840D01*
X32217Y148590D01*
X31855Y151340D01*
X30793Y153904D01*
X29104Y156104D01*
X26904Y157793D01*
X24340Y158855D01*
X21590Y159217D01*
D02*
G37*
G36*
X478790Y133817D02*
X476040Y133455D01*
X473476Y132393D01*
X471276Y130704D01*
X469587Y128504D01*
X468525Y125940D01*
X468163Y123190D01*
X468525Y120440D01*
X469587Y117877D01*
X471276Y115676D01*
X473476Y113987D01*
X476040Y112925D01*
X478790Y112563D01*
X481540Y112925D01*
X484104Y113987D01*
X486304Y115676D01*
X487993Y117877D01*
X489055Y120440D01*
X489417Y123190D01*
X489055Y125940D01*
X487993Y128504D01*
X486304Y130704D01*
X484104Y132393D01*
X481540Y133455D01*
X478790Y133817D01*
D02*
G37*
G36*
X21590D02*
X18840Y133455D01*
X16277Y132393D01*
X14076Y130704D01*
X12387Y128504D01*
X11325Y125940D01*
X10963Y123190D01*
X11325Y120440D01*
X12387Y117877D01*
X14076Y115676D01*
X16277Y113987D01*
X18840Y112925D01*
X21590Y112563D01*
X24340Y112925D01*
X26904Y113987D01*
X29104Y115676D01*
X30793Y117877D01*
X31855Y120440D01*
X32217Y123190D01*
X31855Y125940D01*
X30793Y128504D01*
X29104Y130704D01*
X26904Y132393D01*
X24340Y133455D01*
X21590Y133817D01*
D02*
G37*
G36*
X272043Y181596D02*
X252971D01*
Y165024D01*
X272043D01*
Y165881D01*
X279543D01*
X284670Y160753D01*
Y148676D01*
X261814D01*
Y123104D01*
X284670D01*
Y107217D01*
X282673Y105220D01*
X260876D01*
Y107326D01*
X244804D01*
Y88254D01*
X260876D01*
Y90360D01*
X285750D01*
X287673Y90614D01*
X289465Y91356D01*
X291003Y92536D01*
X297353Y98886D01*
X298534Y100425D01*
X299276Y102217D01*
X299530Y104140D01*
Y123104D01*
X322386D01*
Y148676D01*
X299530D01*
Y163830D01*
X299276Y165753D01*
X298534Y167545D01*
X297353Y169083D01*
X287873Y178563D01*
X286335Y179744D01*
X284543Y180486D01*
X282620Y180740D01*
X272043D01*
Y181596D01*
D02*
G37*
G36*
X478790Y108417D02*
X476040Y108055D01*
X473476Y106993D01*
X471276Y105304D01*
X469587Y103104D01*
X468525Y100540D01*
X468163Y97790D01*
X468525Y95040D01*
X469587Y92477D01*
X471276Y90276D01*
X473476Y88587D01*
X476040Y87525D01*
X478790Y87163D01*
X481540Y87525D01*
X484104Y88587D01*
X486304Y90276D01*
X487993Y92477D01*
X489055Y95040D01*
X489417Y97790D01*
X489055Y100540D01*
X487993Y103104D01*
X486304Y105304D01*
X484104Y106993D01*
X481540Y108055D01*
X478790Y108417D01*
D02*
G37*
G36*
X21590D02*
X18840Y108055D01*
X16277Y106993D01*
X14076Y105304D01*
X12387Y103104D01*
X11325Y100540D01*
X10963Y97790D01*
X11325Y95040D01*
X12387Y92477D01*
X14076Y90276D01*
X16277Y88587D01*
X18840Y87525D01*
X21590Y87163D01*
X24340Y87525D01*
X26904Y88587D01*
X29104Y90276D01*
X30793Y92477D01*
X31855Y95040D01*
X32217Y97790D01*
X31855Y100540D01*
X30793Y103104D01*
X29104Y105304D01*
X26904Y106993D01*
X24340Y108055D01*
X21590Y108417D01*
D02*
G37*
G36*
X478790Y83017D02*
X476040Y82655D01*
X473476Y81593D01*
X471276Y79904D01*
X469587Y77703D01*
X468525Y75140D01*
X468163Y72390D01*
X468525Y69640D01*
X469587Y67077D01*
X471276Y64876D01*
X473476Y63187D01*
X476040Y62125D01*
X478790Y61763D01*
X481540Y62125D01*
X484104Y63187D01*
X486304Y64876D01*
X487993Y67077D01*
X489055Y69640D01*
X489417Y72390D01*
X489055Y75140D01*
X487993Y77703D01*
X486304Y79904D01*
X484104Y81593D01*
X481540Y82655D01*
X478790Y83017D01*
D02*
G37*
G36*
X21590D02*
X18840Y82655D01*
X16277Y81593D01*
X14076Y79904D01*
X12387Y77703D01*
X11325Y75140D01*
X10963Y72390D01*
X11325Y69640D01*
X12387Y67077D01*
X14076Y64876D01*
X16277Y63187D01*
X18840Y62125D01*
X21590Y61763D01*
X24340Y62125D01*
X26904Y63187D01*
X29104Y64876D01*
X30793Y67077D01*
X31855Y69640D01*
X32217Y72390D01*
X31855Y75140D01*
X30793Y77703D01*
X29104Y79904D01*
X26904Y81593D01*
X24340Y82655D01*
X21590Y83017D01*
D02*
G37*
G36*
X196112Y68131D02*
X187531D01*
Y60072D01*
X196112D01*
Y68131D01*
D02*
G37*
G36*
X184991D02*
X176411D01*
Y60072D01*
X184991D01*
Y68131D01*
D02*
G37*
G36*
X165529Y68601D02*
X156478D01*
Y60058D01*
X165529D01*
Y68601D01*
D02*
G37*
G36*
X153938D02*
X144887D01*
Y60058D01*
X153938D01*
Y68601D01*
D02*
G37*
G36*
X134221Y64601D02*
X126170D01*
Y58058D01*
X134221D01*
Y64601D01*
D02*
G37*
G36*
X123630D02*
X115579D01*
Y58058D01*
X123630D01*
Y64601D01*
D02*
G37*
G36*
X46990Y57617D02*
X44240Y57255D01*
X41677Y56193D01*
X39476Y54504D01*
X37787Y52304D01*
X36725Y49740D01*
X36363Y46990D01*
X36725Y44240D01*
X37787Y41677D01*
X39476Y39476D01*
X41677Y37787D01*
X44240Y36725D01*
X46990Y36363D01*
X49740Y36725D01*
X52304Y37787D01*
X54504Y39476D01*
X56193Y41677D01*
X57255Y44240D01*
X57617Y46990D01*
X57255Y49740D01*
X56193Y52304D01*
X54504Y54504D01*
X52304Y56193D01*
X49740Y57255D01*
X46990Y57617D01*
D02*
G37*
G36*
X21590D02*
X18840Y57255D01*
X16277Y56193D01*
X14076Y54504D01*
X12387Y52304D01*
X11325Y49740D01*
X10963Y46990D01*
X11325Y44240D01*
X12387Y41677D01*
X14076Y39476D01*
X16277Y37787D01*
X18840Y36725D01*
X21590Y36363D01*
X24340Y36725D01*
X26904Y37787D01*
X29104Y39476D01*
X30793Y41677D01*
X31855Y44240D01*
X32217Y46990D01*
X31855Y49740D01*
X30793Y52304D01*
X29104Y54504D01*
X26904Y56193D01*
X24340Y57255D01*
X21590Y57617D01*
D02*
G37*
G36*
X251460Y47145D02*
X248462Y46750D01*
X245667Y45593D01*
X243268Y43752D01*
X241427Y41353D01*
X240270Y38558D01*
X239875Y35560D01*
X240270Y32562D01*
X241427Y29767D01*
X243268Y27368D01*
X245667Y25527D01*
X248462Y24370D01*
X251460Y23975D01*
X254458Y24370D01*
X257253Y25527D01*
X259652Y27368D01*
X261493Y29767D01*
X262650Y32562D01*
X263045Y35560D01*
X262650Y38558D01*
X261493Y41353D01*
X259652Y43752D01*
X257253Y45593D01*
X254458Y46750D01*
X251460Y47145D01*
D02*
G37*
G36*
X134221Y55518D02*
X124900D01*
X115579D01*
Y48975D01*
X115833D01*
Y34713D01*
X118464D01*
Y28285D01*
X118096Y27804D01*
X117362Y26032D01*
X117111Y24130D01*
X117362Y22228D01*
X118096Y20456D01*
X119264Y18934D01*
X120786Y17766D01*
X122558Y17032D01*
X124460Y16781D01*
X126362Y17032D01*
X128134Y17766D01*
X129656Y18934D01*
X130824Y20456D01*
X131558Y22228D01*
X131809Y24130D01*
X131558Y26032D01*
X130895Y27633D01*
Y34713D01*
X133967D01*
Y48975D01*
X134221D01*
Y55518D01*
D02*
G37*
G36*
X196112Y57532D02*
X186261D01*
X176411D01*
Y49473D01*
X176469D01*
X176665Y49333D01*
X176665Y49219D01*
Y31183D01*
X179965D01*
Y27074D01*
X179736Y26775D01*
X179001Y25003D01*
X178751Y23101D01*
X179001Y21199D01*
X179736Y19426D01*
X180903Y17904D01*
X182425Y16736D01*
X184198Y16002D01*
X186100Y15752D01*
X188002Y16002D01*
X189774Y16736D01*
X191296Y17904D01*
X192464Y19426D01*
X193198Y21199D01*
X193449Y23101D01*
X193198Y25003D01*
X192464Y26775D01*
X192396Y26864D01*
Y31183D01*
X195858D01*
Y49219D01*
X195858Y49333D01*
X196054Y49473D01*
X196112D01*
Y57532D01*
D02*
G37*
G36*
X165529Y57518D02*
X155208D01*
X144887D01*
Y48975D01*
X145141D01*
Y30713D01*
X148859D01*
Y26903D01*
X148576Y26534D01*
X147842Y24762D01*
X147591Y22860D01*
X147842Y20958D01*
X148576Y19186D01*
X149744Y17664D01*
X151266Y16496D01*
X153038Y15762D01*
X154940Y15511D01*
X156842Y15762D01*
X158614Y16496D01*
X160136Y17664D01*
X161304Y19186D01*
X162038Y20958D01*
X162289Y22860D01*
X162038Y24762D01*
X161304Y26534D01*
X161290Y26554D01*
Y30713D01*
X165275D01*
Y48975D01*
X165529D01*
Y57518D01*
D02*
G37*
G36*
X478790Y57617D02*
X476040Y57255D01*
X473476Y56193D01*
X471276Y54504D01*
X469587Y52304D01*
X468525Y49740D01*
X468163Y46990D01*
X468525Y44240D01*
X469587Y41677D01*
X471276Y39476D01*
X472575Y38479D01*
Y24165D01*
X468511Y20100D01*
X341475D01*
X339316Y19671D01*
X334189D01*
Y8099D01*
X339316D01*
X341475Y7670D01*
X471085D01*
X473464Y8143D01*
X475480Y9490D01*
X483185Y17195D01*
X484532Y19211D01*
X485005Y21590D01*
Y38479D01*
X486304Y39476D01*
X487993Y41677D01*
X489055Y44240D01*
X489417Y46990D01*
X489055Y49740D01*
X487993Y52304D01*
X486304Y54504D01*
X484104Y56193D01*
X481540Y57255D01*
X478790Y57617D01*
D02*
G37*
%LPD*%
G36*
X287540Y480640D02*
X282540D01*
Y489640D01*
X287540D01*
X287540Y480640D01*
D02*
G37*
G36*
X210540Y480640D02*
X205540D01*
X205540Y489640D01*
X210540D01*
Y480640D01*
D02*
G37*
G36*
X282540Y475640D02*
X269540D01*
Y494640D01*
X282540D01*
Y475640D01*
D02*
G37*
G36*
X223540D02*
X210540D01*
Y494640D01*
X223540D01*
Y475640D01*
D02*
G37*
G36*
X267209D02*
X267387Y474748D01*
X267892Y473992D01*
X268648Y473487D01*
X269540Y473309D01*
X274510D01*
Y472792D01*
X269164Y467445D01*
X269051Y467431D01*
X266731Y466470D01*
X264739Y464941D01*
X264067Y464065D01*
X263826Y464147D01*
Y467176D01*
X229254D01*
Y464147D01*
X229014Y464065D01*
X228341Y464941D01*
X226349Y466470D01*
X224029Y467431D01*
X222299Y467658D01*
X218898Y471059D01*
Y473309D01*
X223540D01*
X224432Y473487D01*
X225188Y473992D01*
X225693Y474748D01*
X225871Y475640D01*
Y480260D01*
X226754D01*
Y473354D01*
X246326D01*
Y480260D01*
X246754D01*
Y473354D01*
X266326D01*
Y480260D01*
X267209D01*
Y475640D01*
D02*
G37*
G36*
X285589Y350867D02*
X292673D01*
Y326461D01*
X291145Y324933D01*
X287180D01*
Y325125D01*
X281846D01*
Y321696D01*
X279306D01*
Y325125D01*
X276385D01*
Y328046D01*
X272956D01*
Y330586D01*
X276385D01*
Y335920D01*
X276193D01*
Y351625D01*
X282011Y357443D01*
X285589D01*
Y350867D01*
D02*
G37*
G36*
X202149Y344494D02*
X201938Y344406D01*
X200362Y343198D01*
X199154Y341623D01*
X198394Y339788D01*
X198302Y339090D01*
X205740D01*
Y337820D01*
X207010D01*
Y330382D01*
X207708Y330474D01*
X209543Y331234D01*
X211118Y332442D01*
X212326Y334017D01*
X213086Y335852D01*
X213345Y337820D01*
X213318Y338023D01*
X213546Y338136D01*
X216887Y334795D01*
Y329316D01*
X216949Y329003D01*
Y325125D01*
X213774D01*
Y321696D01*
X211234D01*
Y325125D01*
X205900D01*
Y321139D01*
X205646Y321034D01*
X182172Y344508D01*
X182269Y344743D01*
X202099D01*
X202149Y344494D01*
D02*
G37*
G36*
X241271Y320642D02*
X241517Y319403D01*
X242219Y318353D01*
X244759Y315813D01*
X245809Y315111D01*
X247048Y314865D01*
X263463D01*
Y313568D01*
X228252D01*
Y276992D01*
X233143D01*
Y267594D01*
X218854D01*
Y269753D01*
Y273817D01*
Y277881D01*
Y281691D01*
X219108D01*
Y283850D01*
X218855D01*
Y284231D01*
X212817D01*
X212504Y284294D01*
Y285946D01*
X212817Y286008D01*
X218855D01*
Y286390D01*
X219108D01*
Y288549D01*
X218854D01*
Y290073D01*
Y294137D01*
Y298201D01*
Y302265D01*
Y306329D01*
Y310393D01*
Y314457D01*
Y318267D01*
X219108D01*
Y322966D01*
X241271D01*
Y320642D01*
D02*
G37*
G36*
X216949Y261557D02*
X216887Y261244D01*
Y244029D01*
X208375D01*
X207136Y243783D01*
X206086Y243081D01*
X204386Y241381D01*
X204151Y241479D01*
Y263073D01*
X206705Y265627D01*
X212504D01*
X212817Y265689D01*
X216949D01*
Y261557D01*
D02*
G37*
G36*
X264415Y233745D02*
X320283D01*
X329494Y224534D01*
X329375Y224293D01*
X327660Y224519D01*
X325758Y224268D01*
X324725Y223841D01*
X321077D01*
Y228507D01*
X283443D01*
Y221677D01*
X275661D01*
X263699Y233639D01*
X263818Y233863D01*
X264415Y233745D01*
D02*
G37*
%LPC*%
G36*
X204470Y336550D02*
X198302D01*
X198394Y335852D01*
X199154Y334017D01*
X200362Y332442D01*
X201938Y331234D01*
X203772Y330474D01*
X204470Y330382D01*
Y336550D01*
D02*
G37*
%LPD*%
D14*
X221540Y458140D02*
X233540D01*
D16*
X281940Y483067D02*
G03*
X281940Y478213I600J-2427D01*
G01*
D02*
G03*
X285040Y480640I600J2427D01*
G01*
D02*
G03*
X281940Y483067I-2500J0D01*
G01*
X211511Y478336D02*
G03*
X213040Y480640I-971J2304D01*
G01*
D02*
G03*
X211511Y482944I-2500J0D01*
G01*
D02*
G03*
X210820Y483124I-971J-2304D01*
G01*
X213040Y489640D02*
G03*
X213040Y489640I-2500J0D01*
G01*
X285040Y489640D02*
G03*
X285040Y489640I-2500J0D01*
G01*
X210820Y483124D02*
G03*
X210820Y478156I-280J-2484D01*
G01*
D02*
G03*
X211511Y478336I-280J2484D01*
G01*
X302001Y485140D02*
X306229Y480912D01*
X281540Y485140D02*
X302001D01*
X256540D02*
X281540D01*
X236540D02*
X256540D01*
X211540D02*
X236540D01*
D17*
X341490Y424897D02*
D03*
D18*
X364490D02*
D03*
X387490D02*
D03*
D19*
X364490Y484422D02*
D03*
D20*
X341475Y50885D02*
D03*
X401475D02*
D03*
X341475Y13885D02*
D03*
X401475D02*
D03*
X182400Y445050D02*
D03*
X122400D02*
D03*
X182400Y482050D02*
D03*
X122400D02*
D03*
D21*
X236540Y485140D02*
D03*
X256540D02*
D03*
D22*
X233540Y458140D02*
D03*
X240040D02*
D03*
X246540D02*
D03*
X253040D02*
D03*
X259540D02*
D03*
D23*
X124900Y56788D02*
D03*
Y42272D02*
D03*
D24*
X147688Y265541D02*
D03*
X129172D02*
D03*
X341262Y140970D02*
D03*
X359778D02*
D03*
X323482Y182880D02*
D03*
X341998D02*
D03*
X129172Y296326D02*
D03*
X147688D02*
D03*
X129172Y233977D02*
D03*
X147688D02*
D03*
X293002Y218440D02*
D03*
X311518D02*
D03*
D25*
X186261Y58802D02*
D03*
Y40258D02*
D03*
X419100Y449198D02*
D03*
Y467742D02*
D03*
X306229Y462368D02*
D03*
Y480912D02*
D03*
D26*
X97790Y472440D02*
D03*
Y452440D02*
D03*
X262507Y173310D02*
D03*
Y193310D02*
D03*
D27*
X260764Y261244D02*
D03*
X220124Y329316D02*
D03*
X224188D02*
D03*
X228252D02*
D03*
X232316D02*
D03*
X236380D02*
D03*
X240444D02*
D03*
X244508D02*
D03*
X248572D02*
D03*
X252636D02*
D03*
X256700D02*
D03*
X260764D02*
D03*
X264828D02*
D03*
X268892D02*
D03*
X272956D02*
D03*
Y261244D02*
D03*
X268892D02*
D03*
X264828D02*
D03*
X256700D02*
D03*
X252636D02*
D03*
X248572D02*
D03*
X244508D02*
D03*
X240444D02*
D03*
X236380D02*
D03*
X232316D02*
D03*
X228252D02*
D03*
X224188D02*
D03*
X220124D02*
D03*
D28*
X234840Y97790D02*
D03*
X252840D02*
D03*
X219600Y194310D02*
D03*
X237600D02*
D03*
D29*
X338200Y294640D02*
D03*
X322200D02*
D03*
D30*
X388622Y379196D02*
D03*
Y360680D02*
D03*
X357299Y379196D02*
D03*
Y360680D02*
D03*
X155208Y40272D02*
D03*
Y58788D02*
D03*
X326085Y379196D02*
D03*
Y360680D02*
D03*
X295910Y379196D02*
D03*
Y360680D02*
D03*
D31*
X132483Y408580D02*
D03*
Y395880D02*
D03*
Y383180D02*
D03*
Y370480D02*
D03*
X206397D02*
D03*
Y383180D02*
D03*
Y395880D02*
D03*
Y408580D02*
D03*
D33*
X280576Y321696D02*
D03*
Y317632D02*
D03*
Y313568D02*
D03*
Y309504D02*
D03*
Y305440D02*
D03*
Y301376D02*
D03*
Y297312D02*
D03*
Y293248D02*
D03*
Y289184D02*
D03*
Y285120D02*
D03*
Y281056D02*
D03*
Y276992D02*
D03*
Y272928D02*
D03*
Y268864D02*
D03*
X212504D02*
D03*
Y272928D02*
D03*
Y276992D02*
D03*
Y281056D02*
D03*
Y285120D02*
D03*
Y289184D02*
D03*
Y293248D02*
D03*
Y297312D02*
D03*
Y301376D02*
D03*
Y305440D02*
D03*
Y309504D02*
D03*
Y313568D02*
D03*
Y317632D02*
D03*
Y321696D02*
D03*
D34*
X197100Y135890D02*
D03*
X292100D02*
D03*
D35*
X240442Y398780D02*
D03*
Y380280D02*
D03*
X266700Y398780D02*
D03*
Y380280D02*
D03*
D36*
X363220Y294640D02*
D03*
X399220D02*
D03*
D43*
X246540Y295280D02*
D03*
D49*
X276860Y35560D02*
D03*
X251460D02*
D03*
D50*
X226060D02*
D03*
D52*
X248572Y251460D02*
Y261244D01*
X200660Y285120D02*
X212504D01*
X203078Y272928D02*
X212504D01*
X200914Y264414D02*
X205364Y268864D01*
X192786Y268986D02*
X200792Y276992D01*
X196850Y266700D02*
X203078Y272928D01*
X199109Y281056D02*
X212504D01*
X200792Y276992D02*
X212504D01*
X205364Y268864D02*
X212504D01*
X188722Y244667D02*
Y270669D01*
X199109Y281056D01*
X192786Y242983D02*
Y268986D01*
X196850Y241300D02*
Y266700D01*
X200914Y239079D02*
Y264414D01*
X221864Y321696D02*
X222250Y321310D01*
X212504Y321696D02*
X221864D01*
X254879Y357261D02*
X255400Y356740D01*
Y355975D02*
Y356740D01*
X240442Y371698D02*
X254879Y357261D01*
X255776Y350043D02*
X256700Y349119D01*
X255256Y350564D02*
X255776Y350043D01*
X255256Y350564D02*
Y351327D01*
X255400Y355975D01*
X256700Y329316D02*
Y349119D01*
X248177Y351105D02*
X248572Y351500D01*
X246604Y353468D02*
X248572Y351500D01*
X248177Y349670D02*
Y351105D01*
X248572Y329316D02*
Y349275D01*
X252636Y329316D02*
Y347436D01*
X248177Y349670D02*
X248572Y349275D01*
Y351500D02*
X252636Y347436D01*
X223266Y357727D02*
Y379852D01*
X236380Y329316D02*
Y344075D01*
X223266Y357727D02*
X236380Y344075D01*
X217530Y358517D02*
X217530Y357780D01*
X227330Y359410D02*
X240444Y346296D01*
X217530Y357780D02*
X232316Y342391D01*
Y329316D02*
Y342391D01*
X227330Y359410D02*
Y389890D01*
X240444Y329316D02*
Y346296D01*
X261285Y351455D02*
X266700Y356870D01*
X260764Y334695D02*
X261285Y351455D01*
X266700Y356870D02*
Y380280D01*
X260764Y329316D02*
Y334695D01*
X240442Y371698D02*
Y380280D01*
X182880Y359410D02*
X209550D01*
X228252Y340708D01*
Y329316D02*
Y340708D01*
X217530Y358517D02*
Y369439D01*
X209550Y353060D02*
X224188Y338422D01*
Y329316D02*
Y338422D01*
X123190Y353060D02*
X209550D01*
X252636Y240124D02*
Y261244D01*
Y240124D02*
X274320Y218440D01*
X252636Y261244D02*
Y269146D01*
X181610Y360680D02*
X182880Y359410D01*
X181610Y360680D02*
Y370840D01*
X169270Y383180D02*
X181610Y370840D01*
X132483Y383180D02*
X169270D01*
X244508Y320642D02*
X247048Y318102D01*
X244508Y320642D02*
Y329316D01*
X247048Y318102D02*
X264828D01*
X266700Y316230D01*
X264828Y318102D02*
Y329316D01*
X266700Y278946D02*
Y316230D01*
X256540Y273050D02*
X260804D01*
X266700Y278946D01*
X252636Y269146D02*
X256540Y273050D01*
X273050Y285120D02*
Y321696D01*
X312976Y6906D02*
X330200Y24130D01*
X416560D01*
X439420Y46990D01*
X422910Y58420D02*
Y147191D01*
X324483Y245618D02*
X422910Y147191D01*
X326166Y249682D02*
X452658Y123190D01*
X327501Y254094D02*
X433005Y148590D01*
X453390D01*
X452658Y123190D02*
X453390D01*
X413353Y173990D02*
X453390D01*
X329134Y258208D02*
X413353Y173990D01*
X415375Y50885D02*
X422910Y58420D01*
X401475Y50885D02*
X415375D01*
X341475D02*
X401475D01*
X294640Y10970D02*
X316690Y33020D01*
X411480D01*
X431800Y53340D01*
X276860Y35560D02*
X307340D01*
X341531Y69751D01*
X410339D01*
X226060Y48260D02*
X231140Y53340D01*
X226060Y35560D02*
Y48260D01*
X231140Y53340D02*
X316230D01*
X336705Y73815D01*
X68834Y29623D02*
X87487Y10970D01*
X294640D01*
X68834Y29623D02*
Y63087D01*
X85804Y6906D02*
X312976D01*
X64770Y27940D02*
X85804Y6906D01*
X68834Y63087D02*
X92964Y87217D01*
Y108139D01*
X64770Y64770D02*
X88900Y88900D01*
Y109823D02*
X211741Y232664D01*
X88900Y88900D02*
Y109823D01*
X64770Y27940D02*
Y64770D01*
X83820Y90170D02*
Y110490D01*
X46990Y72390D02*
X66040D01*
X83820Y90170D01*
Y110490D02*
X210058Y236728D01*
X46990Y199390D02*
X143445D01*
X188722Y244667D01*
X123793Y173990D02*
X192786Y242983D01*
X46990Y173990D02*
X123793D01*
X104140Y148590D02*
X196850Y241300D01*
X46990Y148590D02*
X104140D01*
X85025Y123190D02*
X200914Y239079D01*
X46990Y123190D02*
X85025D01*
X65373Y97790D02*
X208375Y240792D01*
X220218Y236728D02*
X224188Y240698D01*
X213425Y228600D02*
X226060D01*
X211741Y232664D02*
X221901D01*
X208375Y240792D02*
X218440D01*
X92964Y108139D02*
X213425Y228600D01*
X218440Y240792D02*
X220124Y242476D01*
X210058Y236728D02*
X220218D01*
X46990Y97790D02*
X65373D01*
X221901Y232664D02*
X228252Y239015D01*
X226060Y228600D02*
X232316Y234856D01*
X224188Y240698D02*
Y261244D01*
X228252Y239015D02*
Y261244D01*
X62230Y351790D02*
X78740Y335280D01*
X46990Y351790D02*
X62230D01*
X72644Y309402D02*
X78202Y314960D01*
X68580Y311085D02*
X76519Y319024D01*
X68580Y271780D02*
Y311085D01*
X46990Y275590D02*
X62321Y290921D01*
Y310574D01*
X74835Y323088D01*
X72644Y250444D02*
Y309402D01*
X46990Y224790D02*
X72644Y250444D01*
X46990Y250190D02*
X68580Y271780D01*
X338200Y294640D02*
X363220D01*
X280576Y305440D02*
X320172D01*
X409448Y330708D02*
X430530Y351790D01*
X345440Y330708D02*
X409448D01*
X342043Y338836D02*
X405543D01*
X343727Y334772D02*
X407227D01*
X422910Y356203D02*
Y392430D01*
X405543Y338836D02*
X422910Y356203D01*
X411480Y350520D02*
Y424180D01*
X407227Y334772D02*
X429260Y356805D01*
X403860Y342900D02*
X411480Y350520D01*
X429260Y356805D02*
Y370840D01*
X340360Y342900D02*
X403860D01*
X320172Y305440D02*
X345440Y330708D01*
X318459Y309504D02*
X343727Y334772D01*
X316775Y313568D02*
X342043Y338836D01*
X315092Y317632D02*
X340360Y342900D01*
X280576Y309504D02*
X318459D01*
X280576Y317632D02*
X315092D01*
X280576Y313568D02*
X316775D01*
X308645Y282702D02*
X341630D01*
X414717Y229362D02*
X426212Y240857D01*
Y282702D01*
X431038Y239935D02*
Y278638D01*
X453390Y300990D01*
X394970Y229362D02*
X414717D01*
X341630Y282702D02*
X394970Y229362D01*
X339090Y278638D02*
X392430Y225298D01*
X306961Y278638D02*
X339090D01*
X392430Y225298D02*
X416401D01*
X389890Y221234D02*
X418084D01*
X305278Y274574D02*
X336550D01*
X389890Y221234D01*
X416401Y225298D02*
X431038Y239935D01*
X441960Y275590D02*
X453390D01*
X436880Y270510D02*
X441960Y275590D01*
X436880Y240030D02*
Y270510D01*
X418084Y221234D02*
X436880Y240030D01*
X267462Y245618D02*
X324483D01*
X334075Y270510D02*
X387415Y217170D01*
X264415Y236982D02*
X321624D01*
X332501Y266336D02*
X395383Y203454D01*
X297963Y258208D02*
X329134D01*
X330818Y262272D02*
X393700Y199390D01*
X407317Y74857D02*
Y151289D01*
X321624Y236982D02*
X407317Y151289D01*
X300338Y262272D02*
X330818D01*
X271018Y249682D02*
X326166D01*
X265590Y241554D02*
X322799D01*
X411381Y152972D01*
X395383Y203454D02*
X432054D01*
X275496Y254094D02*
X327501D01*
X303595Y270510D02*
X334075D01*
X302021Y266336D02*
X332501D01*
X411381Y70792D02*
Y152972D01*
X393700Y199390D02*
X453390D01*
X387415Y217170D02*
X420370D01*
X453390Y250190D01*
X311150Y294640D02*
X322200D01*
X304414Y301376D02*
X311150Y294640D01*
X280576Y301376D02*
X304414D01*
X280576Y297312D02*
X294035D01*
X308645Y282702D01*
X280576Y293248D02*
X292351D01*
X306961Y278638D01*
X290668Y289184D02*
X305278Y274574D01*
X280576Y289184D02*
X290668D01*
X438851Y311851D02*
X453390Y326390D01*
X438851Y295341D02*
Y311851D01*
X426212Y282702D02*
X438851Y295341D01*
X293049Y281056D02*
X303595Y270510D01*
X280576Y281056D02*
X293049D01*
X432054Y203454D02*
X453390Y224790D01*
X291365Y276992D02*
X302021Y266336D01*
X280576Y276992D02*
X291365D01*
X289682Y272928D02*
X300338Y262272D01*
X280576Y268864D02*
X287307D01*
X280576Y272928D02*
X289682D01*
X287307Y268864D02*
X297963Y258208D01*
X336705Y73815D02*
X406275D01*
X407317Y74857D01*
X410339Y69751D02*
X411381Y70792D01*
X272956Y256634D02*
X275496Y254094D01*
X323482Y164504D02*
X324524Y163462D01*
X340221D01*
X341262Y140970D02*
Y162421D01*
X323482Y164504D02*
Y182880D01*
X340221Y163462D02*
X341262Y162421D01*
X294640Y182880D02*
X323482D01*
X293002Y184518D02*
X294640Y182880D01*
X293002Y184518D02*
Y218440D01*
X274320D02*
X293002D01*
X260764Y246380D02*
X265590Y241554D01*
X264828Y248252D02*
X267462Y245618D01*
X268892Y251808D02*
X271018Y249682D01*
X268892Y251808D02*
Y261244D01*
X260764Y246380D02*
Y261244D01*
X272956Y256634D02*
Y261244D01*
X264828Y248252D02*
Y261244D01*
X256700Y244697D02*
X264415Y236982D01*
X256700Y244697D02*
Y261244D01*
X411480Y424180D02*
X415290Y427990D01*
X435610Y377190D02*
X453390D01*
X422910Y392430D02*
X433070Y402590D01*
X430530Y351790D02*
X453390D01*
X429260Y370840D02*
X435610Y377190D01*
X433070Y402590D02*
X453390D01*
X78202Y314960D02*
X165573D01*
X191349Y289184D01*
X212504D01*
X76519Y319024D02*
X167257D01*
X74835Y323088D02*
X168940D01*
X194716Y297312D01*
X167257Y319024D02*
X193033Y293248D01*
X212504D01*
X194716Y297312D02*
X212504D01*
X46990Y300990D02*
X73152Y327152D01*
X170623D01*
X196399Y301376D01*
X78740Y335280D02*
X173990D01*
X198083Y305440D02*
X212504D01*
X99060Y354330D02*
X113538Y339852D01*
X173990Y335280D02*
X199766Y309504D01*
X212504D01*
X118110Y347980D02*
X208280D01*
X204470Y317632D02*
X212504D01*
X97790Y452440D02*
X102870Y447360D01*
X55392Y331216D02*
X172307D01*
X208280Y347980D02*
X220124Y336136D01*
X115824Y343916D02*
X178186D01*
X175768Y339852D02*
X202052Y313568D01*
X109220Y356870D02*
X118110Y347980D01*
X113538Y339852D02*
X175768D01*
X178186Y343916D02*
X204470Y317632D01*
X202052Y313568D02*
X212504D01*
X104140Y355600D02*
X115824Y343916D01*
X116840Y359410D02*
Y393700D01*
Y359410D02*
X123190Y353060D01*
X50567Y326390D02*
X55392Y331216D01*
X46990Y326390D02*
X50567D01*
X172307Y331216D02*
X198083Y305440D01*
X109220Y356870D02*
Y402590D01*
X196399Y301376D02*
X212504D01*
X98018Y376205D02*
X99060Y375163D01*
Y354330D02*
Y375163D01*
X47975Y376205D02*
X98018D01*
X104140Y355600D02*
Y382270D01*
X83820Y402590D02*
X104140Y382270D01*
X46990Y402590D02*
X83820D01*
X109220D02*
X115210Y408580D01*
X431800Y53340D02*
Y92710D01*
X436880Y97790D01*
X453390D01*
X97790Y414020D02*
X103230Y408580D01*
X115210D01*
X97790Y414020D02*
Y452440D01*
X439420Y46990D02*
Y58420D01*
X453390Y72390D01*
X232316Y234856D02*
Y261244D01*
X220124Y242476D02*
Y261244D01*
X219600Y194310D02*
Y206900D01*
X262507Y193310D02*
Y208664D01*
X244508Y226662D02*
X262507Y208664D01*
X244508Y226662D02*
Y261244D01*
X237600Y207120D02*
X240444Y209964D01*
X237600Y194310D02*
Y207120D01*
X240444Y209964D02*
Y261244D01*
X219600Y206900D02*
X236380Y223680D01*
X273050Y321696D02*
X280576D01*
X236380Y285120D02*
X246540Y295280D01*
X236380Y261244D02*
Y285120D01*
Y223680D02*
Y261244D01*
X415290Y427990D02*
X453390D01*
X46990Y377190D02*
X47975Y376205D01*
X280576Y321696D02*
X292486D01*
X273680Y285120D02*
X280576D01*
X115210Y408580D02*
X132483D01*
X116840Y393700D02*
X119020Y395880D01*
X220124Y329316D02*
Y336136D01*
X119020Y395880D02*
X132483D01*
X216488Y370480D02*
X217530Y369439D01*
X206397Y370480D02*
X216488D01*
X219938Y383180D02*
X223266Y379852D01*
X206397Y383180D02*
X219938D01*
X221340Y395880D02*
X227330Y389890D01*
X206397Y395880D02*
X221340D01*
X268892Y329316D02*
Y348902D01*
X272956Y352966D01*
X292486Y321696D02*
X295910Y325120D01*
Y360680D01*
X272956Y352966D02*
X280670Y360680D01*
X295910D01*
X272956Y329316D02*
Y352966D01*
D53*
X342900Y454660D02*
X378186D01*
X336434D02*
X342900D01*
X326114Y444341D02*
X336434Y454660D01*
X378186D02*
X387490Y445356D01*
X331470Y426720D02*
X340939D01*
X341490Y424897D02*
Y426169D01*
X340939Y426720D02*
X341490Y426169D01*
X326390Y400050D02*
Y421640D01*
X331470Y426720D01*
X387490Y424897D02*
Y445356D01*
X306229Y444341D02*
X326114D01*
X357565Y398845D02*
X358209D01*
X295853Y379252D02*
Y400670D01*
X295797Y400727D02*
X295853Y400670D01*
Y379252D02*
X295910Y379196D01*
X326237Y379348D02*
Y399897D01*
X326390Y400050D01*
X326085Y379196D02*
X326237Y379348D01*
X357432Y398712D02*
X357565Y398845D01*
X357299Y379196D02*
X357432Y379328D01*
Y398712D01*
X388620Y398780D02*
X388621Y398779D01*
Y379197D02*
X388622Y379196D01*
X388621Y379197D02*
Y398779D01*
X399000Y270730D02*
Y294420D01*
X399220Y294640D01*
X398780Y270510D02*
X399000Y270730D01*
X312332Y217625D02*
X327205D01*
X311518Y218440D02*
X312332Y217625D01*
X327205D02*
X327660Y217170D01*
X342214Y182664D02*
X360596D01*
X341998Y182880D02*
X342214Y182664D01*
X360596D02*
X360812Y182448D01*
X359778Y140970D02*
X379730D01*
X124680Y24350D02*
Y42052D01*
X124460Y24130D02*
X124680Y24350D01*
Y42052D02*
X124900Y42272D01*
X155074Y22994D02*
Y40138D01*
X155208Y40272D01*
X154940Y22860D02*
X155074Y22994D01*
X186181Y23182D02*
Y40177D01*
X186100Y23101D02*
X186181Y23182D01*
Y40177D02*
X186261Y40258D01*
X471085Y13885D02*
X478790Y21590D01*
Y46990D01*
X401475Y13885D02*
X471085D01*
X306229Y444341D02*
Y462368D01*
X452760Y46360D02*
X453390Y46990D01*
X341475Y13885D02*
X401475D01*
D54*
X273050Y433070D02*
X294959D01*
X306229Y444341D01*
X259540Y446580D02*
X273050Y433070D01*
X240442Y428402D02*
X246540Y434500D01*
X240442Y398780D02*
Y428402D01*
X246540Y434500D02*
Y458140D01*
X266700Y398780D02*
Y422910D01*
X253040Y436570D02*
X266700Y422910D01*
X253040Y436570D02*
Y458140D01*
X259540Y446580D02*
Y458140D01*
D55*
X121850Y482600D02*
X122400Y482050D01*
X97790Y472440D02*
Y479624D01*
X100766Y482600D02*
X121850D01*
X97790Y479624D02*
X100766Y482600D01*
X122400Y482050D02*
X182400D01*
X97790Y472440D02*
X99040D01*
X132610Y370353D02*
X152386D01*
X152516Y370223D01*
X132483Y370480D02*
X132610Y370353D01*
X151130Y151130D02*
X194310Y194310D01*
X217622D01*
X151130Y118110D02*
Y151130D01*
X208450Y445050D02*
X221540Y458140D01*
X182400Y445050D02*
X208450D01*
X122400D02*
X182400D01*
X197100Y135890D02*
X198120Y136910D01*
X217622Y194310D02*
X218611Y193321D01*
X151130Y118110D02*
X171450Y97790D01*
X218611Y193321D02*
X219600Y194310D01*
X171450Y97790D02*
X234840D01*
D56*
X281940Y483067D02*
Y484740D01*
Y478213D02*
Y483067D01*
Y469714D02*
Y478213D01*
X419100Y467742D02*
Y485140D01*
X107096Y296326D02*
X129172D01*
X107950Y265430D02*
X129061D01*
X129172Y265541D01*
X107950Y233680D02*
X128875D01*
X129172Y233977D01*
X211511Y482944D02*
Y485111D01*
Y478153D02*
Y478336D01*
Y482944D01*
X295910Y360680D02*
X326085D01*
X295910Y360680D02*
X295910Y360680D01*
X357299D02*
X388622D01*
X326085D02*
X357299D01*
X388622D02*
X388622Y360680D01*
X197100Y160418D02*
X203052Y166370D01*
X231140D01*
X197100Y135890D02*
Y160418D01*
X231140Y166370D02*
X237600Y172830D01*
Y194310D01*
X282620Y173310D02*
X292100Y163830D01*
Y135890D02*
Y163830D01*
X262507Y173310D02*
X282620D01*
X285750Y97790D02*
X292100Y104140D01*
Y135890D01*
X252840Y97790D02*
X285750D01*
X211469Y478111D02*
X211511Y478153D01*
X211469Y467981D02*
Y478111D01*
Y467981D02*
X221310Y458140D01*
X211511Y485111D02*
X211540Y485140D01*
X221310Y458140D02*
X221540D01*
X281540Y485140D02*
X281940Y484740D01*
X271540Y458140D02*
Y459314D01*
X281940Y469714D01*
D57*
X364490Y483640D02*
X366946Y481184D01*
D58*
X271540Y458140D02*
D03*
X221540D02*
D03*
D59*
X478790Y46990D02*
D03*
Y72390D02*
D03*
X453390Y46990D02*
D03*
Y72390D02*
D03*
X478790Y123190D02*
D03*
X453390D02*
D03*
X478790Y173990D02*
D03*
X453390D02*
D03*
X478790Y250190D02*
D03*
X453390D02*
D03*
X478790Y300990D02*
D03*
X453390D02*
D03*
X478790Y351790D02*
D03*
X453390D02*
D03*
X478790Y377190D02*
D03*
X453390D02*
D03*
X478790Y453390D02*
D03*
X453390D02*
D03*
X478790Y478790D02*
D03*
X453390Y427990D02*
D03*
X478790D02*
D03*
X453390Y402590D02*
D03*
X478790D02*
D03*
X453390Y326390D02*
D03*
X478790D02*
D03*
X453390Y275590D02*
D03*
X478790D02*
D03*
X453390Y224790D02*
D03*
X478790D02*
D03*
X453390Y199390D02*
D03*
X478790D02*
D03*
X453390Y148590D02*
D03*
X478790D02*
D03*
X453390Y97790D02*
D03*
X478790D02*
D03*
X46990Y46990D02*
D03*
Y72390D02*
D03*
X21590Y46990D02*
D03*
Y72390D02*
D03*
X46990Y123190D02*
D03*
X21590D02*
D03*
X46990Y173990D02*
D03*
X21590D02*
D03*
X46990Y250190D02*
D03*
X21590D02*
D03*
X46990Y300990D02*
D03*
X21590D02*
D03*
X46990Y351790D02*
D03*
X21590D02*
D03*
X46990Y377190D02*
D03*
X21590D02*
D03*
X46990Y453390D02*
D03*
X21590D02*
D03*
X46990Y478790D02*
D03*
X21590Y427990D02*
D03*
X46990D02*
D03*
X21590Y402590D02*
D03*
X46990D02*
D03*
X21590Y326390D02*
D03*
X46990D02*
D03*
X21590Y275590D02*
D03*
X46990D02*
D03*
X21590Y224790D02*
D03*
X46990D02*
D03*
X21590Y199390D02*
D03*
X46990D02*
D03*
X21590Y148590D02*
D03*
X46990D02*
D03*
X21590Y97790D02*
D03*
X46990D02*
D03*
D60*
X453390Y478790D02*
D03*
X21590D02*
D03*
D61*
X342900Y454660D02*
D03*
X246604Y353468D02*
D03*
X205740Y337820D02*
D03*
X419100Y485140D02*
D03*
X151130Y118110D02*
D03*
X152516Y370223D02*
D03*
X388620Y398780D02*
D03*
X357565Y398845D02*
D03*
X326390Y400050D02*
D03*
X295797Y400727D02*
D03*
X398780Y270510D02*
D03*
X327660Y217170D02*
D03*
X360812Y182448D02*
D03*
X379730Y140970D02*
D03*
X186100Y23101D02*
D03*
X154940Y22860D02*
D03*
X124460Y24130D02*
D03*
X107950Y233680D02*
D03*
Y265430D02*
D03*
X107096Y296326D02*
D03*
M02*
