G04*
G04 #@! TF.GenerationSoftware,Altium Limited,Altium Designer,23.2.1 (34)*
G04*
G04 Layer_Color=2752767*
%FSLAX44Y44*%
%MOMM*%
G71*
G04*
G04 #@! TF.SameCoordinates,523C6F17-9805-44BE-8DD6-06E41B6C0E98*
G04*
G04*
G04 #@! TF.FilePolarity,Positive*
G04*
G01*
G75*
%ADD13C,0.1270*%
%ADD67C,0.1693*%
D13*
X266460Y453060D02*
Y463220D01*
X276620D01*
Y453060D01*
X266460D01*
X216460D02*
Y463220D01*
X226620D01*
Y453060D01*
X216460D01*
X478790Y41910D02*
X473710Y52070D01*
X483870D01*
X478790Y41910D01*
Y67310D02*
X473710Y77470D01*
X483870D01*
X478790Y67310D01*
X453390Y41910D02*
X448310Y52070D01*
X458470D01*
X453390Y41910D01*
Y67310D02*
X448310Y77470D01*
X458470D01*
X453390Y67310D01*
X478790Y118110D02*
X473710Y128270D01*
X483870D01*
X478790Y118110D01*
X453390D02*
X448310Y128270D01*
X458470D01*
X453390Y118110D01*
X478790Y168910D02*
X473710Y179070D01*
X483870D01*
X478790Y168910D01*
X453390D02*
X448310Y179070D01*
X458470D01*
X453390Y168910D01*
X478790Y245110D02*
X473710Y255270D01*
X483870D01*
X478790Y245110D01*
X453390D02*
X448310Y255270D01*
X458470D01*
X453390Y245110D01*
X478790Y295910D02*
X473710Y306070D01*
X483870D01*
X478790Y295910D01*
X453390D02*
X448310Y306070D01*
X458470D01*
X453390Y295910D01*
X478790Y346710D02*
X473710Y356870D01*
X483870D01*
X478790Y346710D01*
X453390D02*
X448310Y356870D01*
X458470D01*
X453390Y346710D01*
X478790Y372110D02*
X473710Y382270D01*
X483870D01*
X478790Y372110D01*
X453390D02*
X448310Y382270D01*
X458470D01*
X453390Y372110D01*
X478790Y448310D02*
X473710Y458470D01*
X483870D01*
X478790Y448310D01*
X453390D02*
X448310Y458470D01*
X458470D01*
X453390Y448310D01*
X478790Y473710D02*
X473710Y483870D01*
X483870D01*
X478790Y473710D01*
X453390D02*
X448310Y483870D01*
X458470D01*
X453390Y473710D01*
Y422910D02*
X448310Y433070D01*
X458470D01*
X453390Y422910D01*
X478790D02*
X473710Y433070D01*
X483870D01*
X478790Y422910D01*
X453390Y397510D02*
X448310Y407670D01*
X458470D01*
X453390Y397510D01*
X478790D02*
X473710Y407670D01*
X483870D01*
X478790Y397510D01*
X453390Y321310D02*
X448310Y331470D01*
X458470D01*
X453390Y321310D01*
X478790D02*
X473710Y331470D01*
X483870D01*
X478790Y321310D01*
X453390Y270510D02*
X448310Y280670D01*
X458470D01*
X453390Y270510D01*
X478790D02*
X473710Y280670D01*
X483870D01*
X478790Y270510D01*
X453390Y219710D02*
X448310Y229870D01*
X458470D01*
X453390Y219710D01*
X478790D02*
X473710Y229870D01*
X483870D01*
X478790Y219710D01*
X453390Y194310D02*
X448310Y204470D01*
X458470D01*
X453390Y194310D01*
X478790D02*
X473710Y204470D01*
X483870D01*
X478790Y194310D01*
X453390Y143510D02*
X448310Y153670D01*
X458470D01*
X453390Y143510D01*
X478790D02*
X473710Y153670D01*
X483870D01*
X478790Y143510D01*
X453390Y92710D02*
X448310Y102870D01*
X458470D01*
X453390Y92710D01*
X478790D02*
X473710Y102870D01*
X483870D01*
X478790Y92710D01*
X46990Y41910D02*
X41910Y52070D01*
X52070D01*
X46990Y41910D01*
Y67310D02*
X41910Y77470D01*
X52070D01*
X46990Y67310D01*
X21590Y41910D02*
X16510Y52070D01*
X26670D01*
X21590Y41910D01*
Y67310D02*
X16510Y77470D01*
X26670D01*
X21590Y67310D01*
X46990Y118110D02*
X41910Y128270D01*
X52070D01*
X46990Y118110D01*
X21590D02*
X16510Y128270D01*
X26670D01*
X21590Y118110D01*
X46990Y168910D02*
X41910Y179070D01*
X52070D01*
X46990Y168910D01*
X21590D02*
X16510Y179070D01*
X26670D01*
X21590Y168910D01*
X46990Y245110D02*
X41910Y255270D01*
X52070D01*
X46990Y245110D01*
X21590D02*
X16510Y255270D01*
X26670D01*
X21590Y245110D01*
X46990Y295910D02*
X41910Y306070D01*
X52070D01*
X46990Y295910D01*
X21590D02*
X16510Y306070D01*
X26670D01*
X21590Y295910D01*
X46990Y346710D02*
X41910Y356870D01*
X52070D01*
X46990Y346710D01*
X21590D02*
X16510Y356870D01*
X26670D01*
X21590Y346710D01*
X46990Y372110D02*
X41910Y382270D01*
X52070D01*
X46990Y372110D01*
X21590D02*
X16510Y382270D01*
X26670D01*
X21590Y372110D01*
X46990Y448310D02*
X41910Y458470D01*
X52070D01*
X46990Y448310D01*
X21590D02*
X16510Y458470D01*
X26670D01*
X21590Y448310D01*
X46990Y473710D02*
X41910Y483870D01*
X52070D01*
X46990Y473710D01*
X21590D02*
X16510Y483870D01*
X26670D01*
X21590Y473710D01*
Y422910D02*
X16510Y433070D01*
X26670D01*
X21590Y422910D01*
X46990D02*
X41910Y433070D01*
X52070D01*
X46990Y422910D01*
X21590Y397510D02*
X16510Y407670D01*
X26670D01*
X21590Y397510D01*
X46990D02*
X41910Y407670D01*
X52070D01*
X46990Y397510D01*
X21590Y321310D02*
X16510Y331470D01*
X26670D01*
X21590Y321310D01*
X46990D02*
X41910Y331470D01*
X52070D01*
X46990Y321310D01*
X21590Y270510D02*
X16510Y280670D01*
X26670D01*
X21590Y270510D01*
X46990D02*
X41910Y280670D01*
X52070D01*
X46990Y270510D01*
X21590Y219710D02*
X16510Y229870D01*
X26670D01*
X21590Y219710D01*
X46990D02*
X41910Y229870D01*
X52070D01*
X46990Y219710D01*
X21590Y194310D02*
X16510Y204470D01*
X26670D01*
X21590Y194310D01*
X46990D02*
X41910Y204470D01*
X52070D01*
X46990Y194310D01*
X21590Y143510D02*
X16510Y153670D01*
X26670D01*
X21590Y143510D01*
X46990D02*
X41910Y153670D01*
X52070D01*
X46990Y143510D01*
X21590Y92710D02*
X16510Y102870D01*
X26670D01*
X21590Y92710D01*
X46990D02*
X41910Y102870D01*
X52070D01*
X46990Y92710D01*
X276860Y30480D02*
X279400Y33020D01*
X281940D01*
X279400Y35560D01*
X281940Y38100D01*
X279400D01*
X276860Y40640D01*
X274320Y38100D01*
X271780D01*
X274320Y35560D01*
X271780Y33020D01*
X274320D01*
X276860Y30480D01*
X251460D02*
X254000Y33020D01*
X256540D01*
X254000Y35560D01*
X256540Y38100D01*
X254000D01*
X251460Y40640D01*
X248920Y38100D01*
X246380D01*
X248920Y35560D01*
X246380Y33020D01*
X248920D01*
X251460Y30480D01*
X226060D02*
X228600Y33020D01*
X231140D01*
X228600Y35560D01*
X231140Y38100D01*
X228600D01*
X226060Y40640D01*
X223520Y38100D01*
X220980D01*
X223520Y35560D01*
X220980Y33020D01*
X223520D01*
X226060Y30480D01*
X340360Y452120D02*
Y449580D01*
X345440D01*
Y452120D01*
X347980D01*
Y457200D01*
X345440D01*
Y459740D01*
X340360D01*
Y457200D01*
X337820D01*
Y452120D01*
X340360D01*
X244064Y350928D02*
Y348388D01*
X249144D01*
Y350928D01*
X251684D01*
Y356008D01*
X249144D01*
Y358548D01*
X244064D01*
Y356008D01*
X241524D01*
Y350928D01*
X244064D01*
X203200Y335280D02*
Y332740D01*
X208280D01*
Y335280D01*
X210820D01*
Y340360D01*
X208280D01*
Y342900D01*
X203200D01*
Y340360D01*
X200660D01*
Y335280D01*
X203200D01*
X416560Y482600D02*
Y480060D01*
X421640D01*
Y482600D01*
X424180D01*
Y487680D01*
X421640D01*
Y490220D01*
X416560D01*
Y487680D01*
X414020D01*
Y482600D01*
X416560D01*
X148590Y115570D02*
Y113030D01*
X153670D01*
Y115570D01*
X156210D01*
Y120650D01*
X153670D01*
Y123190D01*
X148590D01*
Y120650D01*
X146050D01*
Y115570D01*
X148590D01*
X149976Y367683D02*
Y365143D01*
X155056D01*
Y367683D01*
X157596D01*
Y372763D01*
X155056D01*
Y375303D01*
X149976D01*
Y372763D01*
X147436D01*
Y367683D01*
X149976D01*
X386080Y396240D02*
Y393700D01*
X391160D01*
Y396240D01*
X393700D01*
Y401320D01*
X391160D01*
Y403860D01*
X386080D01*
Y401320D01*
X383540D01*
Y396240D01*
X386080D01*
X355025Y396305D02*
Y393765D01*
X360105D01*
Y396305D01*
X362645D01*
Y401385D01*
X360105D01*
Y403925D01*
X355025D01*
Y401385D01*
X352485D01*
Y396305D01*
X355025D01*
X323850Y397510D02*
Y394970D01*
X328930D01*
Y397510D01*
X331470D01*
Y402590D01*
X328930D01*
Y405130D01*
X323850D01*
Y402590D01*
X321310D01*
Y397510D01*
X323850D01*
X293257Y398187D02*
Y395647D01*
X298337D01*
Y398187D01*
X300877D01*
Y403267D01*
X298337D01*
Y405807D01*
X293257D01*
Y403267D01*
X290717D01*
Y398187D01*
X293257D01*
X396240Y267970D02*
Y265430D01*
X401320D01*
Y267970D01*
X403860D01*
Y273050D01*
X401320D01*
Y275590D01*
X396240D01*
Y273050D01*
X393700D01*
Y267970D01*
X396240D01*
X325120Y214630D02*
Y212090D01*
X330200D01*
Y214630D01*
X332740D01*
Y219710D01*
X330200D01*
Y222250D01*
X325120D01*
Y219710D01*
X322580D01*
Y214630D01*
X325120D01*
X358272Y179908D02*
Y177368D01*
X363352D01*
Y179908D01*
X365892D01*
Y184988D01*
X363352D01*
Y187528D01*
X358272D01*
Y184988D01*
X355732D01*
Y179908D01*
X358272D01*
X377190Y138430D02*
Y135890D01*
X382270D01*
Y138430D01*
X384810D01*
Y143510D01*
X382270D01*
Y146050D01*
X377190D01*
Y143510D01*
X374650D01*
Y138430D01*
X377190D01*
X183560Y20561D02*
Y18021D01*
X188640D01*
Y20561D01*
X191180D01*
Y25641D01*
X188640D01*
Y28181D01*
X183560D01*
Y25641D01*
X181020D01*
Y20561D01*
X183560D01*
X152400Y20320D02*
Y17780D01*
X157480D01*
Y20320D01*
X160020D01*
Y25400D01*
X157480D01*
Y27940D01*
X152400D01*
Y25400D01*
X149860D01*
Y20320D01*
X152400D01*
X121920Y21590D02*
Y19050D01*
X127000D01*
Y21590D01*
X129540D01*
Y26670D01*
X127000D01*
Y29210D01*
X121920D01*
Y26670D01*
X119380D01*
Y21590D01*
X121920D01*
X105410Y231140D02*
Y228600D01*
X110490D01*
Y231140D01*
X113030D01*
Y236220D01*
X110490D01*
Y238760D01*
X105410D01*
Y236220D01*
X102870D01*
Y231140D01*
X105410D01*
Y262890D02*
Y260350D01*
X110490D01*
Y262890D01*
X113030D01*
Y267970D01*
X110490D01*
Y270510D01*
X105410D01*
Y267970D01*
X102870D01*
Y262890D01*
X105410D01*
X104556Y293786D02*
Y291246D01*
X109636D01*
Y293786D01*
X112176D01*
Y298866D01*
X109636D01*
Y301406D01*
X104556D01*
Y298866D01*
X102016D01*
Y293786D01*
X104556D01*
D67*
X286620Y485140D02*
G03*
X286620Y485140I-5080J0D01*
G01*
X216620D02*
G03*
X216620Y485140I-5080J0D01*
G01*
M02*
