M48
;Layer_Color=9474304
;FILE_FORMAT=4:4
METRIC,LZ
;TYPE=PLATED
T1F00S00C0.5000
T3F00S00C0.8500
T4F00S00C1.1000
T5F00S00C1.1900
%
T01
X0012446Y0002413
X0015494Y0002286
X001861Y00023101
X0015113Y0011811
X0010795Y0023368
Y0026543
X00107096Y00296326
X00152516Y00370223
X0020574Y0033782
X00246604Y00353468
X00295797Y00400727
X0032639Y0040005
X00357565Y00398845
X0038862Y0039878
X003429Y0045466
X004191Y0048514
X0039878Y0027051
X0032766Y0021717
X00360812Y00182448
X0037973Y0014097
T03
X0022154Y0045814
X0027154
T04
X0045339Y0004699
X0047879
Y0007239
X0045339
Y0009779
Y0012319
X0047879
Y0009779
X0004699
Y0007239
Y0004699
X0002159
Y0007239
Y0009779
Y0012319
X0004699
Y0014859
Y0017399
X0002159
Y0019939
Y0022479
Y0025019
X0004699
Y0027559
Y0030099
X0002159
Y0032639
Y0035179
X0004699
Y0037719
X0002159
Y0040259
Y0042799
Y0045339
X0004699
Y0047879
X0002159
X0004699Y0042799
Y0040259
Y0032639
X0002159Y0027559
X0004699Y0022479
Y0019939
X0002159Y0014859
X0045339
Y0017399
X0047879
Y0019939
Y0022479
Y0025019
X0045339
Y0027559
Y0030099
X0047879
Y0032639
Y0035179
X0045339
Y0037719
X0047879
Y0040259
Y0042799
Y0045339
X0045339
Y0047879
X0047879
X0045339Y0042799
Y0040259
Y0032639
X0047879Y0027559
X0045339Y0022479
Y0019939
X0047879Y0014859
T05
X0022606Y0003556
X0025146
X0027686
M30
